ISO-10303-21;
HEADER;
/* Generated by software containing ST-Developer
 * from STEP Tools, Inc. (www.steptools.com) 
 */
/* OPTION: using custom renumber hook */

FILE_DESCRIPTION(
/* description */ ('STEP AP242 Edition 2',
'CAx-IF Rec.Pracs.---Representation and Presentation of Product Manufa
cturing Information (PMI)---4.0---2014-10-13',
'CAx-IF Rec.Pracs.---3D Tessellated Geometry---0.4---2014-09-14','2;1',
'CAx-IF Rec.Pracs.---User Defined Attributes---1.5---2016-08-15'),
/* implementation_level */ '2;1');

FILE_NAME(
/* name */ '695c87fbbaceafa1c2b3cfef',
/* time_stamp */ '2026-01-06T03:56:44Z',
/* author */ (''),
/* organization */ (''),
/* preprocessor_version */ 'ST-DEVELOPER v20',
/* originating_system */ 'ONSHAPE BY PTC INC, 1.208',
/* authorisation */ '  ');

FILE_SCHEMA (('AP242_MANAGED_MODEL_BASED_3D_ENGINEERING_MIM_LF { 1 0 10303 442 3 1 4 }'));
ENDSEC;

DATA;
#10=TOROIDAL_SURFACE('',#1208,0.2868,0.06);
#11=TOROIDAL_SURFACE('',#1240,0.2868,0.06);
#12=CONTEXT_DEPENDENT_SHAPE_REPRESENTATION(#22,#2034);
#13=CONTEXT_DEPENDENT_SHAPE_REPRESENTATION(#23,#2035);
#14=CONTEXT_DEPENDENT_SHAPE_REPRESENTATION(#24,#2037);
#15=CONTEXT_DEPENDENT_SHAPE_REPRESENTATION(#25,#2039);
#16=CONTEXT_DEPENDENT_SHAPE_REPRESENTATION(#26,#2041);
#17=NEXT_ASSEMBLY_USAGE_OCCURRENCE('NAUO1','??','??',#2042,#2043,'');
#18=NEXT_ASSEMBLY_USAGE_OCCURRENCE('NAUO2','??','??',#2042,#2043,'');
#19=NEXT_ASSEMBLY_USAGE_OCCURRENCE('NAUO3','???','???',#2042,#2044,'');
#20=NEXT_ASSEMBLY_USAGE_OCCURRENCE('NAUO4','????R','????R',#2042,#2045,
'');
#21=NEXT_ASSEMBLY_USAGE_OCCURRENCE('NAUO5','????L','????L',#2042,#2046,
'');
#22=(
REPRESENTATION_RELATIONSHIP(' ',' ',#1120,#1119)
REPRESENTATION_RELATIONSHIP_WITH_TRANSFORMATION(#27)
SHAPE_REPRESENTATION_RELATIONSHIP()
);
#23=(
REPRESENTATION_RELATIONSHIP(' ',' ',#1120,#1119)
REPRESENTATION_RELATIONSHIP_WITH_TRANSFORMATION(#28)
SHAPE_REPRESENTATION_RELATIONSHIP()
);
#24=(
REPRESENTATION_RELATIONSHIP(' ',' ',#1121,#1119)
REPRESENTATION_RELATIONSHIP_WITH_TRANSFORMATION(#29)
SHAPE_REPRESENTATION_RELATIONSHIP()
);
#25=(
REPRESENTATION_RELATIONSHIP(' ',' ',#1122,#1119)
REPRESENTATION_RELATIONSHIP_WITH_TRANSFORMATION(#30)
SHAPE_REPRESENTATION_RELATIONSHIP()
);
#26=(
REPRESENTATION_RELATIONSHIP(' ',' ',#1123,#1119)
REPRESENTATION_RELATIONSHIP_WITH_TRANSFORMATION(#31)
SHAPE_REPRESENTATION_RELATIONSHIP()
);
#27=ITEM_DEFINED_TRANSFORMATION(' ',' ',#1124,#1160);
#28=ITEM_DEFINED_TRANSFORMATION(' ',' ',#1124,#1161);
#29=ITEM_DEFINED_TRANSFORMATION(' ',' ',#1124,#1177);
#30=ITEM_DEFINED_TRANSFORMATION(' ',' ',#1124,#1209);
#31=ITEM_DEFINED_TRANSFORMATION(' ',' ',#1124,#1241);
#32=SHAPE_REPRESENTATION_RELATIONSHIP('','',#1120,#36);
#33=SHAPE_REPRESENTATION_RELATIONSHIP('','',#1121,#37);
#34=SHAPE_REPRESENTATION_RELATIONSHIP('','',#1122,#38);
#35=SHAPE_REPRESENTATION_RELATIONSHIP('','',#1123,#39);
#36=ADVANCED_BREP_SHAPE_REPRESENTATION('',(#1110),#2020);
#37=ADVANCED_BREP_SHAPE_REPRESENTATION('',(#1111),#2021);
#38=ADVANCED_BREP_SHAPE_REPRESENTATION('',(#1112),#2022);
#39=ADVANCED_BREP_SHAPE_REPRESENTATION('',(#1113),#2023);
#40=CONICAL_SURFACE('',#1148,0.519615242270663,1.0471975511966);
#41=CONICAL_SURFACE('',#1149,0.519615242270663,1.0471975511966);
#42=CONICAL_SURFACE('',#1150,0.519615242270663,1.0471975511966);
#43=CONICAL_SURFACE('',#1151,0.519615242270663,1.0471975511966);
#44=CONICAL_SURFACE('',#1152,0.519615242270663,1.0471975511966);
#45=CONICAL_SURFACE('',#1153,0.519615242270663,1.0471975511966);
#46=CONICAL_SURFACE('',#1154,0.519615242270663,1.0471975511966);
#47=CONICAL_SURFACE('',#1155,0.519615242270663,1.0471975511966);
#48=CONICAL_SURFACE('',#1156,0.519615242270663,1.0471975511966);
#49=CONICAL_SURFACE('',#1157,0.519615242270663,1.0471975511966);
#50=CONICAL_SURFACE('',#1158,0.519615242270663,1.0471975511966);
#51=CONICAL_SURFACE('',#1159,0.519615242270663,1.0471975511966);
#52=CONICAL_SURFACE('',#1169,0.4,0.785398163397448);
#53=CONICAL_SURFACE('',#1170,0.4,0.785398163397448);
#54=CONICAL_SURFACE('',#1197,0.3,0.523598775598299);
#55=CONICAL_SURFACE('',#1207,0.3018,0.785398163397448);
#56=CONICAL_SURFACE('',#1229,0.3,0.523598775598299);
#57=CONICAL_SURFACE('',#1239,0.3018,0.785398163397448);
#58=CYLINDRICAL_SURFACE('',#1147,0.25);
#59=CYLINDRICAL_SURFACE('',#1168,0.25);
#60=CYLINDRICAL_SURFACE('',#1186,0.44);
#61=CYLINDRICAL_SURFACE('',#1189,0.3);
#62=CYLINDRICAL_SURFACE('',#1192,0.2268);
#63=CYLINDRICAL_SURFACE('',#1198,0.5);
#64=CYLINDRICAL_SURFACE('',#1200,0.5);
#65=CYLINDRICAL_SURFACE('',#1206,0.185);
#66=CYLINDRICAL_SURFACE('',#1218,0.44);
#67=CYLINDRICAL_SURFACE('',#1221,0.3);
#68=CYLINDRICAL_SURFACE('',#1224,0.2268);
#69=CYLINDRICAL_SURFACE('',#1230,0.5);
#70=CYLINDRICAL_SURFACE('',#1232,0.5);
#71=CYLINDRICAL_SURFACE('',#1238,0.185);
#72=B_SPLINE_CURVE_WITH_KNOTS('',3,(#1562,#1563,#1564,#1565),
 .UNSPECIFIED.,.F.,.F.,(4,4),(8.33263708443898E-7,0.00264361235356005),
 .UNSPECIFIED.);
#73=B_SPLINE_CURVE_WITH_KNOTS('',3,(#1566,#1567,#1568,#1569),
 .UNSPECIFIED.,.F.,.F.,(4,4),(0.00436364462630398,0.00699795974071724),
 .UNSPECIFIED.);
#74=B_SPLINE_CURVE_WITH_KNOTS('',3,(#1573,#1574,#1575,#1576),
 .UNSPECIFIED.,.F.,.F.,(4,4),(0.00436364462630406,0.00699795974071724),
 .UNSPECIFIED.);
#75=B_SPLINE_CURVE_WITH_KNOTS('',3,(#1580,#1581,#1582,#1583),
 .UNSPECIFIED.,.F.,.F.,(4,4),(8.33263708443589E-7,0.00264361235355996),
 .UNSPECIFIED.);
#76=B_SPLINE_CURVE_WITH_KNOTS('',3,(#1585,#1586,#1587,#1588),
 .UNSPECIFIED.,.F.,.F.,(4,4),(7.21626411719465E-7,0.00264349972918433),
 .UNSPECIFIED.);
#77=B_SPLINE_CURVE_WITH_KNOTS('',3,(#1589,#1590,#1591,#1592),
 .UNSPECIFIED.,.F.,.F.,(4,4),(0.00436353225651248,0.00699784408022301),
 .UNSPECIFIED.);
#78=B_SPLINE_CURVE_WITH_KNOTS('',3,(#1596,#1597,#1598,#1599),
 .UNSPECIFIED.,.F.,.F.,(4,4),(0.00436353225651255,0.00699784408022301),
 .UNSPECIFIED.);
#79=B_SPLINE_CURVE_WITH_KNOTS('',3,(#1603,#1604,#1605,#1606),
 .UNSPECIFIED.,.F.,.F.,(4,4),(7.21626411719036E-7,0.00264349972918426),
 .UNSPECIFIED.);
#80=B_SPLINE_CURVE_WITH_KNOTS('',3,(#1608,#1609,#1610,#1611),
 .UNSPECIFIED.,.F.,.F.,(4,4),(8.33263708439633E-7,0.00264361235356005),
 .UNSPECIFIED.);
#81=B_SPLINE_CURVE_WITH_KNOTS('',3,(#1612,#1613,#1614,#1615),
 .UNSPECIFIED.,.F.,.F.,(4,4),(0.00436364462630395,0.00699795974071723),
 .UNSPECIFIED.);
#82=B_SPLINE_CURVE_WITH_KNOTS('',3,(#1619,#1620,#1621,#1622),
 .UNSPECIFIED.,.F.,.F.,(4,4),(0.00436364462630403,0.00699795974071723),
 .UNSPECIFIED.);
#83=B_SPLINE_CURVE_WITH_KNOTS('',3,(#1626,#1627,#1628,#1629),
 .UNSPECIFIED.,.F.,.F.,(4,4),(8.33263708439633E-7,0.00264361235355996),
 .UNSPECIFIED.);
#84=B_SPLINE_CURVE_WITH_KNOTS('',3,(#1631,#1632,#1633,#1634),
 .UNSPECIFIED.,.F.,.F.,(4,4),(8.33263708444685E-7,0.00264361235356005),
 .UNSPECIFIED.);
#85=B_SPLINE_CURVE_WITH_KNOTS('',3,(#1635,#1636,#1637,#1638),
 .UNSPECIFIED.,.F.,.F.,(4,4),(0.00436364462630397,0.00699795974071724),
 .UNSPECIFIED.);
#86=B_SPLINE_CURVE_WITH_KNOTS('',3,(#1642,#1643,#1644,#1645),
 .UNSPECIFIED.,.F.,.F.,(4,4),(0.00436364462630406,0.00699795974071724),
 .UNSPECIFIED.);
#87=B_SPLINE_CURVE_WITH_KNOTS('',3,(#1649,#1650,#1651,#1652),
 .UNSPECIFIED.,.F.,.F.,(4,4),(8.33263708439387E-7,0.00264361235355997),
 .UNSPECIFIED.);
#88=B_SPLINE_CURVE_WITH_KNOTS('',3,(#1654,#1655,#1656,#1657),
 .UNSPECIFIED.,.F.,.F.,(4,4),(7.21626411719465E-7,0.00264349972918433),
 .UNSPECIFIED.);
#89=B_SPLINE_CURVE_WITH_KNOTS('',3,(#1658,#1659,#1660,#1661),
 .UNSPECIFIED.,.F.,.F.,(4,4),(0.00436353225651249,0.00699784408022301),
 .UNSPECIFIED.);
#90=B_SPLINE_CURVE_WITH_KNOTS('',3,(#1665,#1666,#1667,#1668),
 .UNSPECIFIED.,.F.,.F.,(4,4),(0.00436353225651256,0.00699784408022301),
 .UNSPECIFIED.);
#91=B_SPLINE_CURVE_WITH_KNOTS('',3,(#1672,#1673,#1674,#1675),
 .UNSPECIFIED.,.F.,.F.,(4,4),(7.21626411719036E-7,0.00264349972918426),
 .UNSPECIFIED.);
#92=B_SPLINE_CURVE_WITH_KNOTS('',3,(#1677,#1678,#1679,#1680),
 .UNSPECIFIED.,.F.,.F.,(4,4),(8.33263708439633E-7,0.00264361235356004),
 .UNSPECIFIED.);
#93=B_SPLINE_CURVE_WITH_KNOTS('',3,(#1681,#1682,#1683,#1684),
 .UNSPECIFIED.,.F.,.F.,(4,4),(0.00436364462630397,0.00699795974071723),
 .UNSPECIFIED.);
#94=B_SPLINE_CURVE_WITH_KNOTS('',3,(#1685,#1686,#1687,#1688),
 .UNSPECIFIED.,.F.,.F.,(4,4),(0.00436364462630406,0.00699795974071723),
 .UNSPECIFIED.);
#95=B_SPLINE_CURVE_WITH_KNOTS('',3,(#1692,#1693,#1694,#1695),
 .UNSPECIFIED.,.F.,.F.,(4,4),(8.33263708439633E-7,0.00264361235355996),
 .UNSPECIFIED.);
#96=B_SPLINE_CURVE_WITH_KNOTS('',3,(#1732,#1733,#1734,#1735,#1736,#1737,
#1738),.UNSPECIFIED.,.F.,.F.,(4,1,1,1,4),(2.54431845485537E-7,0.00178939345022774,
0.00357853246861,0.00536767148699225,0.0071568105053745),.UNSPECIFIED.);
#97=B_SPLINE_CURVE_WITH_KNOTS('',3,(#1741,#1742,#1743,#1744,#1745,#1746,
#1747),.UNSPECIFIED.,.F.,.F.,(4,1,1,1,4),(2.54431845491858E-7,0.00178939345022775,
0.00357853246861,0.00536767148699225,0.00715681050537451),.UNSPECIFIED.);
#98=B_SPLINE_CURVE_WITH_KNOTS('',3,(#1749,#1750,#1751,#1752,#1753,#1754),
 .UNSPECIFIED.,.F.,.F.,(4,1,1,4),(0.00915266635803755,0.0127636674350461,
0.0145691679735504,0.0163746685120546),.UNSPECIFIED.);
#99=B_SPLINE_CURVE_WITH_KNOTS('',3,(#1756,#1757,#1758,#1759,#1760,#1761,
#1762),.UNSPECIFIED.,.F.,.F.,(4,1,1,1,4),(2.54431845491806E-7,0.00178939345022775,
0.00357853246861,0.00536767148699225,0.00715681050537451),.UNSPECIFIED.);
#100=B_SPLINE_CURVE_WITH_KNOTS('',3,(#1764,#1765,#1766,#1767,#1768,#1769,
#1770),.UNSPECIFIED.,.F.,.F.,(4,1,1,1,4),(2.54431845486232E-7,0.00178939345022774,
0.00357853246861,0.00536767148699226,0.00715681050537452),.UNSPECIFIED.);
#101=B_SPLINE_CURVE_WITH_KNOTS('',3,(#1772,#1773,#1774,#1775,#1776,#1777),
 .UNSPECIFIED.,.F.,.F.,(4,1,1,4),(0.00915266635803755,0.0127636674350461,
0.0145691679735504,0.0163746685120546),.UNSPECIFIED.);
#102=B_SPLINE_CURVE_WITH_KNOTS('',3,(#1779,#1780,#1781,#1782,#1783,#1784),
 .UNSPECIFIED.,.F.,.F.,(4,1,1,4),(0.00915266635803755,0.0127636674350461,
0.0145691679735504,0.0163746685120546),.UNSPECIFIED.);
#103=B_SPLINE_CURVE_WITH_KNOTS('',3,(#1787,#1788,#1789,#1790,#1791,#1792,
#1793),.UNSPECIFIED.,.F.,.F.,(4,1,1,1,4),(2.54431845486232E-7,0.00178939345022774,
0.00357853246861,0.00536767148699226,0.00715681050537452),.UNSPECIFIED.);
#104=B_SPLINE_CURVE_WITH_KNOTS('',3,(#1795,#1796,#1797,#1798,#1799,#1800,
#1801),.UNSPECIFIED.,.F.,.F.,(4,1,1,1,4),(2.54431845491806E-7,0.00178939345022775,
0.00357853246861,0.00536767148699225,0.00715681050537451),.UNSPECIFIED.);
#105=B_SPLINE_CURVE_WITH_KNOTS('',3,(#1803,#1804,#1805,#1806,#1807,#1808),
 .UNSPECIFIED.,.F.,.F.,(4,1,1,4),(0.00915266635803755,0.0127636674350461,
0.0145691679735504,0.0163746685120546),.UNSPECIFIED.);
#106=B_SPLINE_CURVE_WITH_KNOTS('',3,(#1810,#1811,#1812,#1813,#1814,#1815,
#1816),.UNSPECIFIED.,.F.,.F.,(4,1,1,1,4),(2.54431845495568E-7,0.00178939345022775,
0.00357853246861,0.00536767148699226,0.00715681050537451),.UNSPECIFIED.);
#107=B_SPLINE_CURVE_WITH_KNOTS('',3,(#1818,#1819,#1820,#1821,#1822,#1823,
#1824),.UNSPECIFIED.,.F.,.F.,(4,1,1,1,4),(2.54431845485537E-7,0.00178939345022774,
0.00357853246861,0.00536767148699225,0.00715681050537451),.UNSPECIFIED.);
#108=B_SPLINE_CURVE_WITH_KNOTS('',3,(#1879,#1880,#1881,#1882,#1883),
 .UNSPECIFIED.,.F.,.F.,(4,1,4),(0.,0.00166301784139228,0.00332603568278456),
 .UNSPECIFIED.);
#109=B_SPLINE_CURVE_WITH_KNOTS('',3,(#1884,#1885,#1886,#1887,#1888),
 .UNSPECIFIED.,.F.,.F.,(4,1,4),(1.56365861034638E-18,0.00166301784139228,
0.00332603568278456),.UNSPECIFIED.);
#110=B_SPLINE_CURVE_WITH_KNOTS('',3,(#1889,#1890,#1891,#1892,#1893),
 .UNSPECIFIED.,.F.,.F.,(4,1,4),(0.,0.00166549363851438,0.00333098727702877),
 .UNSPECIFIED.);
#111=B_SPLINE_CURVE_WITH_KNOTS('',3,(#1894,#1895,#1896,#1897,#1898),
 .UNSPECIFIED.,.F.,.F.,(4,1,4),(0.,0.00166549363851438,0.00333098727702877),
 .UNSPECIFIED.);
#112=B_SPLINE_CURVE_WITH_KNOTS('',3,(#1969,#1970,#1971,#1972,#1973),
 .UNSPECIFIED.,.F.,.F.,(4,1,4),(0.,0.00166549363851438,0.00333098727702877),
 .UNSPECIFIED.);
#113=B_SPLINE_CURVE_WITH_KNOTS('',3,(#1974,#1975,#1976,#1977,#1978),
 .UNSPECIFIED.,.F.,.F.,(4,1,4),(0.,0.00166549363851438,0.00333098727702877),
 .UNSPECIFIED.);
#114=B_SPLINE_CURVE_WITH_KNOTS('',3,(#1979,#1980,#1981,#1982,#1983),
 .UNSPECIFIED.,.F.,.F.,(4,1,4),(1.56365861034638E-18,0.00166301784139228,
0.00332603568278456),.UNSPECIFIED.);
#115=B_SPLINE_CURVE_WITH_KNOTS('',3,(#1984,#1985,#1986,#1987,#1988),
 .UNSPECIFIED.,.F.,.F.,(4,1,4),(0.,0.00166301784139228,0.00332603568278456),
 .UNSPECIFIED.);
#116=LINE('',#1534,#168);
#117=LINE('',#1539,#169);
#118=LINE('',#1543,#170);
#119=LINE('',#1547,#171);
#120=LINE('',#1551,#172);
#121=LINE('',#1555,#173);
#122=LINE('',#1559,#174);
#123=LINE('',#1571,#175);
#124=LINE('',#1578,#176);
#125=LINE('',#1594,#177);
#126=LINE('',#1601,#178);
#127=LINE('',#1617,#179);
#128=LINE('',#1624,#180);
#129=LINE('',#1640,#181);
#130=LINE('',#1647,#182);
#131=LINE('',#1663,#183);
#132=LINE('',#1670,#184);
#133=LINE('',#1690,#185);
#134=LINE('',#1826,#186);
#135=LINE('',#1827,#187);
#136=LINE('',#1829,#188);
#137=LINE('',#1831,#189);
#138=LINE('',#1833,#190);
#139=LINE('',#1835,#191);
#140=LINE('',#1839,#192);
#141=LINE('',#1842,#193);
#142=LINE('',#1844,#194);
#143=LINE('',#1846,#195);
#144=LINE('',#1848,#196);
#145=LINE('',#1851,#197);
#146=LINE('',#1853,#198);
#147=LINE('',#1855,#199);
#148=LINE('',#1862,#200);
#149=LINE('',#1864,#201);
#150=LINE('',#1866,#202);
#151=LINE('',#1873,#203);
#152=LINE('',#1875,#204);
#153=LINE('',#1877,#205);
#154=LINE('',#1929,#206);
#155=LINE('',#1932,#207);
#156=LINE('',#1934,#208);
#157=LINE('',#1936,#209);
#158=LINE('',#1938,#210);
#159=LINE('',#1941,#211);
#160=LINE('',#1943,#212);
#161=LINE('',#1945,#213);
#162=LINE('',#1952,#214);
#163=LINE('',#1954,#215);
#164=LINE('',#1956,#216);
#165=LINE('',#1963,#217);
#166=LINE('',#1965,#218);
#167=LINE('',#1967,#219);
#168=VECTOR('',#1248,100.);
#169=VECTOR('',#1251,100.);
#170=VECTOR('',#1254,100.);
#171=VECTOR('',#1257,100.);
#172=VECTOR('',#1260,100.);
#173=VECTOR('',#1263,100.);
#174=VECTOR('',#1268,100.);
#175=VECTOR('',#1269,100.);
#176=VECTOR('',#1270,100.);
#177=VECTOR('',#1273,100.);
#178=VECTOR('',#1274,100.);
#179=VECTOR('',#1277,100.);
#180=VECTOR('',#1278,100.);
#181=VECTOR('',#1281,100.);
#182=VECTOR('',#1282,100.);
#183=VECTOR('',#1285,100.);
#184=VECTOR('',#1286,100.);
#185=VECTOR('',#1289,100.);
#186=VECTOR('',#1356,100.);
#187=VECTOR('',#1357,100.);
#188=VECTOR('',#1360,100.);
#189=VECTOR('',#1363,100.);
#190=VECTOR('',#1366,100.);
#191=VECTOR('',#1369,100.);
#192=VECTOR('',#1376,100.);
#193=VECTOR('',#1377,100.);
#194=VECTOR('',#1378,100.);
#195=VECTOR('',#1379,100.);
#196=VECTOR('',#1382,100.);
#197=VECTOR('',#1383,100.);
#198=VECTOR('',#1384,100.);
#199=VECTOR('',#1385,100.);
#200=VECTOR('',#1392,100.);
#201=VECTOR('',#1393,100.);
#202=VECTOR('',#1394,100.);
#203=VECTOR('',#1401,100.);
#204=VECTOR('',#1402,100.);
#205=VECTOR('',#1403,100.);
#206=VECTOR('',#1454,100.);
#207=VECTOR('',#1455,100.);
#208=VECTOR('',#1456,100.);
#209=VECTOR('',#1457,100.);
#210=VECTOR('',#1460,100.);
#211=VECTOR('',#1461,100.);
#212=VECTOR('',#1462,100.);
#213=VECTOR('',#1463,100.);
#214=VECTOR('',#1470,100.);
#215=VECTOR('',#1471,100.);
#216=VECTOR('',#1472,100.);
#217=VECTOR('',#1479,100.);
#218=VECTOR('',#1480,100.);
#219=VECTOR('',#1481,100.);
#220=ORIENTED_EDGE('',*,*,#504,.T.);
#221=ORIENTED_EDGE('',*,*,#505,.F.);
#222=ORIENTED_EDGE('',*,*,#506,.T.);
#223=ORIENTED_EDGE('',*,*,#507,.F.);
#224=ORIENTED_EDGE('',*,*,#508,.T.);
#225=ORIENTED_EDGE('',*,*,#509,.F.);
#226=ORIENTED_EDGE('',*,*,#510,.T.);
#227=ORIENTED_EDGE('',*,*,#511,.F.);
#228=ORIENTED_EDGE('',*,*,#512,.T.);
#229=ORIENTED_EDGE('',*,*,#513,.F.);
#230=ORIENTED_EDGE('',*,*,#514,.T.);
#231=ORIENTED_EDGE('',*,*,#515,.F.);
#232=ORIENTED_EDGE('',*,*,#516,.T.);
#233=ORIENTED_EDGE('',*,*,#517,.T.);
#234=ORIENTED_EDGE('',*,*,#518,.T.);
#235=ORIENTED_EDGE('',*,*,#507,.T.);
#236=ORIENTED_EDGE('',*,*,#519,.T.);
#237=ORIENTED_EDGE('',*,*,#520,.F.);
#238=ORIENTED_EDGE('',*,*,#521,.F.);
#239=ORIENTED_EDGE('',*,*,#522,.F.);
#240=ORIENTED_EDGE('',*,*,#523,.F.);
#241=ORIENTED_EDGE('',*,*,#520,.T.);
#242=ORIENTED_EDGE('',*,*,#524,.T.);
#243=ORIENTED_EDGE('',*,*,#505,.T.);
#244=ORIENTED_EDGE('',*,*,#525,.T.);
#245=ORIENTED_EDGE('',*,*,#526,.F.);
#246=ORIENTED_EDGE('',*,*,#527,.F.);
#247=ORIENTED_EDGE('',*,*,#528,.F.);
#248=ORIENTED_EDGE('',*,*,#529,.F.);
#249=ORIENTED_EDGE('',*,*,#526,.T.);
#250=ORIENTED_EDGE('',*,*,#530,.T.);
#251=ORIENTED_EDGE('',*,*,#515,.T.);
#252=ORIENTED_EDGE('',*,*,#531,.T.);
#253=ORIENTED_EDGE('',*,*,#532,.F.);
#254=ORIENTED_EDGE('',*,*,#533,.F.);
#255=ORIENTED_EDGE('',*,*,#534,.F.);
#256=ORIENTED_EDGE('',*,*,#535,.F.);
#257=ORIENTED_EDGE('',*,*,#532,.T.);
#258=ORIENTED_EDGE('',*,*,#536,.T.);
#259=ORIENTED_EDGE('',*,*,#513,.T.);
#260=ORIENTED_EDGE('',*,*,#537,.T.);
#261=ORIENTED_EDGE('',*,*,#538,.F.);
#262=ORIENTED_EDGE('',*,*,#539,.F.);
#263=ORIENTED_EDGE('',*,*,#540,.F.);
#264=ORIENTED_EDGE('',*,*,#541,.F.);
#265=ORIENTED_EDGE('',*,*,#538,.T.);
#266=ORIENTED_EDGE('',*,*,#542,.T.);
#267=ORIENTED_EDGE('',*,*,#511,.T.);
#268=ORIENTED_EDGE('',*,*,#543,.T.);
#269=ORIENTED_EDGE('',*,*,#544,.F.);
#270=ORIENTED_EDGE('',*,*,#545,.F.);
#271=ORIENTED_EDGE('',*,*,#546,.F.);
#272=ORIENTED_EDGE('',*,*,#547,.F.);
#273=ORIENTED_EDGE('',*,*,#544,.T.);
#274=ORIENTED_EDGE('',*,*,#548,.T.);
#275=ORIENTED_EDGE('',*,*,#509,.T.);
#276=ORIENTED_EDGE('',*,*,#549,.T.);
#277=ORIENTED_EDGE('',*,*,#517,.F.);
#278=ORIENTED_EDGE('',*,*,#550,.F.);
#279=ORIENTED_EDGE('',*,*,#551,.F.);
#280=ORIENTED_EDGE('',*,*,#552,.F.);
#281=ORIENTED_EDGE('',*,*,#553,.T.);
#282=ORIENTED_EDGE('',*,*,#528,.T.);
#283=ORIENTED_EDGE('',*,*,#554,.T.);
#284=ORIENTED_EDGE('',*,*,#534,.T.);
#285=ORIENTED_EDGE('',*,*,#555,.T.);
#286=ORIENTED_EDGE('',*,*,#540,.T.);
#287=ORIENTED_EDGE('',*,*,#556,.T.);
#288=ORIENTED_EDGE('',*,*,#546,.T.);
#289=ORIENTED_EDGE('',*,*,#557,.T.);
#290=ORIENTED_EDGE('',*,*,#551,.T.);
#291=ORIENTED_EDGE('',*,*,#558,.T.);
#292=ORIENTED_EDGE('',*,*,#522,.T.);
#293=ORIENTED_EDGE('',*,*,#559,.T.);
#294=ORIENTED_EDGE('',*,*,#553,.F.);
#295=ORIENTED_EDGE('',*,*,#504,.F.);
#296=ORIENTED_EDGE('',*,*,#521,.T.);
#297=ORIENTED_EDGE('',*,*,#529,.T.);
#298=ORIENTED_EDGE('',*,*,#559,.F.);
#299=ORIENTED_EDGE('',*,*,#523,.T.);
#300=ORIENTED_EDGE('',*,*,#558,.F.);
#301=ORIENTED_EDGE('',*,*,#550,.T.);
#302=ORIENTED_EDGE('',*,*,#545,.T.);
#303=ORIENTED_EDGE('',*,*,#552,.T.);
#304=ORIENTED_EDGE('',*,*,#557,.F.);
#305=ORIENTED_EDGE('',*,*,#539,.T.);
#306=ORIENTED_EDGE('',*,*,#547,.T.);
#307=ORIENTED_EDGE('',*,*,#556,.F.);
#308=ORIENTED_EDGE('',*,*,#533,.T.);
#309=ORIENTED_EDGE('',*,*,#541,.T.);
#310=ORIENTED_EDGE('',*,*,#555,.F.);
#311=ORIENTED_EDGE('',*,*,#527,.T.);
#312=ORIENTED_EDGE('',*,*,#535,.T.);
#313=ORIENTED_EDGE('',*,*,#554,.F.);
#314=ORIENTED_EDGE('',*,*,#516,.F.);
#315=ORIENTED_EDGE('',*,*,#530,.F.);
#316=ORIENTED_EDGE('',*,*,#525,.F.);
#317=ORIENTED_EDGE('',*,*,#514,.F.);
#318=ORIENTED_EDGE('',*,*,#536,.F.);
#319=ORIENTED_EDGE('',*,*,#531,.F.);
#320=ORIENTED_EDGE('',*,*,#512,.F.);
#321=ORIENTED_EDGE('',*,*,#542,.F.);
#322=ORIENTED_EDGE('',*,*,#537,.F.);
#323=ORIENTED_EDGE('',*,*,#510,.F.);
#324=ORIENTED_EDGE('',*,*,#548,.F.);
#325=ORIENTED_EDGE('',*,*,#543,.F.);
#326=ORIENTED_EDGE('',*,*,#549,.F.);
#327=ORIENTED_EDGE('',*,*,#508,.F.);
#328=ORIENTED_EDGE('',*,*,#518,.F.);
#329=ORIENTED_EDGE('',*,*,#506,.F.);
#330=ORIENTED_EDGE('',*,*,#524,.F.);
#331=ORIENTED_EDGE('',*,*,#519,.F.);
#332=ORIENTED_EDGE('',*,*,#560,.T.);
#333=ORIENTED_EDGE('',*,*,#561,.F.);
#334=ORIENTED_EDGE('',*,*,#562,.T.);
#335=ORIENTED_EDGE('',*,*,#563,.F.);
#336=ORIENTED_EDGE('',*,*,#560,.F.);
#337=ORIENTED_EDGE('',*,*,#562,.F.);
#338=ORIENTED_EDGE('',*,*,#563,.T.);
#339=ORIENTED_EDGE('',*,*,#564,.T.);
#340=ORIENTED_EDGE('',*,*,#565,.T.);
#341=ORIENTED_EDGE('',*,*,#566,.T.);
#342=ORIENTED_EDGE('',*,*,#567,.T.);
#343=ORIENTED_EDGE('',*,*,#568,.T.);
#344=ORIENTED_EDGE('',*,*,#569,.T.);
#345=ORIENTED_EDGE('',*,*,#561,.T.);
#346=ORIENTED_EDGE('',*,*,#570,.F.);
#347=ORIENTED_EDGE('',*,*,#571,.F.);
#348=ORIENTED_EDGE('',*,*,#572,.F.);
#349=ORIENTED_EDGE('',*,*,#573,.F.);
#350=ORIENTED_EDGE('',*,*,#574,.F.);
#351=ORIENTED_EDGE('',*,*,#575,.F.);
#352=ORIENTED_EDGE('',*,*,#565,.F.);
#353=ORIENTED_EDGE('',*,*,#576,.F.);
#354=ORIENTED_EDGE('',*,*,#574,.T.);
#355=ORIENTED_EDGE('',*,*,#577,.T.);
#356=ORIENTED_EDGE('',*,*,#566,.F.);
#357=ORIENTED_EDGE('',*,*,#577,.F.);
#358=ORIENTED_EDGE('',*,*,#573,.T.);
#359=ORIENTED_EDGE('',*,*,#578,.T.);
#360=ORIENTED_EDGE('',*,*,#567,.F.);
#361=ORIENTED_EDGE('',*,*,#578,.F.);
#362=ORIENTED_EDGE('',*,*,#572,.T.);
#363=ORIENTED_EDGE('',*,*,#579,.T.);
#364=ORIENTED_EDGE('',*,*,#568,.F.);
#365=ORIENTED_EDGE('',*,*,#579,.F.);
#366=ORIENTED_EDGE('',*,*,#571,.T.);
#367=ORIENTED_EDGE('',*,*,#580,.T.);
#368=ORIENTED_EDGE('',*,*,#569,.F.);
#369=ORIENTED_EDGE('',*,*,#580,.F.);
#370=ORIENTED_EDGE('',*,*,#570,.T.);
#371=ORIENTED_EDGE('',*,*,#581,.T.);
#372=ORIENTED_EDGE('',*,*,#564,.F.);
#373=ORIENTED_EDGE('',*,*,#581,.F.);
#374=ORIENTED_EDGE('',*,*,#575,.T.);
#375=ORIENTED_EDGE('',*,*,#576,.T.);
#376=ORIENTED_EDGE('',*,*,#582,.T.);
#377=ORIENTED_EDGE('',*,*,#583,.T.);
#378=ORIENTED_EDGE('',*,*,#584,.F.);
#379=ORIENTED_EDGE('',*,*,#585,.F.);
#380=ORIENTED_EDGE('',*,*,#586,.T.);
#381=ORIENTED_EDGE('',*,*,#587,.F.);
#382=ORIENTED_EDGE('',*,*,#588,.F.);
#383=ORIENTED_EDGE('',*,*,#589,.T.);
#384=ORIENTED_EDGE('',*,*,#590,.T.);
#385=ORIENTED_EDGE('',*,*,#591,.F.);
#386=ORIENTED_EDGE('',*,*,#592,.T.);
#387=ORIENTED_EDGE('',*,*,#593,.F.);
#388=ORIENTED_EDGE('',*,*,#594,.F.);
#389=ORIENTED_EDGE('',*,*,#595,.F.);
#390=ORIENTED_EDGE('',*,*,#596,.T.);
#391=ORIENTED_EDGE('',*,*,#597,.T.);
#392=ORIENTED_EDGE('',*,*,#598,.T.);
#393=ORIENTED_EDGE('',*,*,#599,.F.);
#394=ORIENTED_EDGE('',*,*,#585,.T.);
#395=ORIENTED_EDGE('',*,*,#600,.F.);
#396=ORIENTED_EDGE('',*,*,#596,.F.);
#397=ORIENTED_EDGE('',*,*,#601,.T.);
#398=ORIENTED_EDGE('',*,*,#589,.F.);
#399=ORIENTED_EDGE('',*,*,#602,.T.);
#400=ORIENTED_EDGE('',*,*,#591,.T.);
#401=ORIENTED_EDGE('',*,*,#603,.F.);
#402=ORIENTED_EDGE('',*,*,#604,.T.);
#403=ORIENTED_EDGE('',*,*,#583,.F.);
#404=ORIENTED_EDGE('',*,*,#605,.F.);
#405=ORIENTED_EDGE('',*,*,#606,.F.);
#406=ORIENTED_EDGE('',*,*,#607,.F.);
#407=ORIENTED_EDGE('',*,*,#608,.F.);
#408=ORIENTED_EDGE('',*,*,#609,.F.);
#409=ORIENTED_EDGE('',*,*,#609,.T.);
#410=ORIENTED_EDGE('',*,*,#606,.T.);
#411=ORIENTED_EDGE('',*,*,#610,.T.);
#412=ORIENTED_EDGE('',*,*,#597,.F.);
#413=ORIENTED_EDGE('',*,*,#600,.T.);
#414=ORIENTED_EDGE('',*,*,#584,.T.);
#415=ORIENTED_EDGE('',*,*,#604,.F.);
#416=ORIENTED_EDGE('',*,*,#582,.F.);
#417=ORIENTED_EDGE('',*,*,#603,.T.);
#418=ORIENTED_EDGE('',*,*,#594,.T.);
#419=ORIENTED_EDGE('',*,*,#611,.F.);
#420=ORIENTED_EDGE('',*,*,#592,.F.);
#421=ORIENTED_EDGE('',*,*,#602,.F.);
#422=ORIENTED_EDGE('',*,*,#588,.T.);
#423=ORIENTED_EDGE('',*,*,#612,.T.);
#424=ORIENTED_EDGE('',*,*,#586,.F.);
#425=ORIENTED_EDGE('',*,*,#601,.F.);
#426=ORIENTED_EDGE('',*,*,#599,.T.);
#427=ORIENTED_EDGE('',*,*,#587,.T.);
#428=ORIENTED_EDGE('',*,*,#612,.F.);
#429=ORIENTED_EDGE('',*,*,#613,.F.);
#430=ORIENTED_EDGE('',*,*,#610,.F.);
#431=ORIENTED_EDGE('',*,*,#593,.T.);
#432=ORIENTED_EDGE('',*,*,#611,.T.);
#433=ORIENTED_EDGE('',*,*,#598,.F.);
#434=ORIENTED_EDGE('',*,*,#595,.T.);
#435=ORIENTED_EDGE('',*,*,#590,.F.);
#436=ORIENTED_EDGE('',*,*,#608,.T.);
#437=ORIENTED_EDGE('',*,*,#605,.T.);
#438=ORIENTED_EDGE('',*,*,#607,.T.);
#439=ORIENTED_EDGE('',*,*,#613,.T.);
#440=ORIENTED_EDGE('',*,*,#614,.F.);
#441=ORIENTED_EDGE('',*,*,#615,.T.);
#442=ORIENTED_EDGE('',*,*,#616,.T.);
#443=ORIENTED_EDGE('',*,*,#617,.F.);
#444=ORIENTED_EDGE('',*,*,#618,.F.);
#445=ORIENTED_EDGE('',*,*,#619,.F.);
#446=ORIENTED_EDGE('',*,*,#620,.T.);
#447=ORIENTED_EDGE('',*,*,#621,.T.);
#448=ORIENTED_EDGE('',*,*,#622,.F.);
#449=ORIENTED_EDGE('',*,*,#623,.T.);
#450=ORIENTED_EDGE('',*,*,#624,.T.);
#451=ORIENTED_EDGE('',*,*,#625,.T.);
#452=ORIENTED_EDGE('',*,*,#626,.F.);
#453=ORIENTED_EDGE('',*,*,#627,.T.);
#454=ORIENTED_EDGE('',*,*,#628,.F.);
#455=ORIENTED_EDGE('',*,*,#629,.T.);
#456=ORIENTED_EDGE('',*,*,#630,.F.);
#457=ORIENTED_EDGE('',*,*,#631,.F.);
#458=ORIENTED_EDGE('',*,*,#615,.F.);
#459=ORIENTED_EDGE('',*,*,#632,.T.);
#460=ORIENTED_EDGE('',*,*,#623,.F.);
#461=ORIENTED_EDGE('',*,*,#633,.F.);
#462=ORIENTED_EDGE('',*,*,#619,.T.);
#463=ORIENTED_EDGE('',*,*,#634,.F.);
#464=ORIENTED_EDGE('',*,*,#628,.T.);
#465=ORIENTED_EDGE('',*,*,#635,.T.);
#466=ORIENTED_EDGE('',*,*,#636,.F.);
#467=ORIENTED_EDGE('',*,*,#617,.T.);
#468=ORIENTED_EDGE('',*,*,#637,.T.);
#469=ORIENTED_EDGE('',*,*,#638,.T.);
#470=ORIENTED_EDGE('',*,*,#639,.T.);
#471=ORIENTED_EDGE('',*,*,#640,.T.);
#472=ORIENTED_EDGE('',*,*,#641,.T.);
#473=ORIENTED_EDGE('',*,*,#641,.F.);
#474=ORIENTED_EDGE('',*,*,#638,.F.);
#475=ORIENTED_EDGE('',*,*,#642,.F.);
#476=ORIENTED_EDGE('',*,*,#624,.F.);
#477=ORIENTED_EDGE('',*,*,#632,.F.);
#478=ORIENTED_EDGE('',*,*,#614,.T.);
#479=ORIENTED_EDGE('',*,*,#636,.T.);
#480=ORIENTED_EDGE('',*,*,#616,.F.);
#481=ORIENTED_EDGE('',*,*,#635,.F.);
#482=ORIENTED_EDGE('',*,*,#631,.T.);
#483=ORIENTED_EDGE('',*,*,#643,.T.);
#484=ORIENTED_EDGE('',*,*,#629,.F.);
#485=ORIENTED_EDGE('',*,*,#634,.T.);
#486=ORIENTED_EDGE('',*,*,#618,.T.);
#487=ORIENTED_EDGE('',*,*,#644,.F.);
#488=ORIENTED_EDGE('',*,*,#620,.F.);
#489=ORIENTED_EDGE('',*,*,#633,.T.);
#490=ORIENTED_EDGE('',*,*,#626,.T.);
#491=ORIENTED_EDGE('',*,*,#621,.F.);
#492=ORIENTED_EDGE('',*,*,#644,.T.);
#493=ORIENTED_EDGE('',*,*,#645,.T.);
#494=ORIENTED_EDGE('',*,*,#642,.T.);
#495=ORIENTED_EDGE('',*,*,#630,.T.);
#496=ORIENTED_EDGE('',*,*,#643,.F.);
#497=ORIENTED_EDGE('',*,*,#625,.F.);
#498=ORIENTED_EDGE('',*,*,#627,.F.);
#499=ORIENTED_EDGE('',*,*,#622,.T.);
#500=ORIENTED_EDGE('',*,*,#640,.F.);
#501=ORIENTED_EDGE('',*,*,#637,.F.);
#502=ORIENTED_EDGE('',*,*,#639,.F.);
#503=ORIENTED_EDGE('',*,*,#645,.F.);
#504=EDGE_CURVE('',#646,#646,#748,.T.);
#505=EDGE_CURVE('',#647,#648,#116,.T.);
#506=EDGE_CURVE('',#647,#649,#749,.F.);
#507=EDGE_CURVE('',#650,#649,#117,.T.);
#508=EDGE_CURVE('',#650,#651,#750,.F.);
#509=EDGE_CURVE('',#652,#651,#118,.T.);
#510=EDGE_CURVE('',#652,#653,#751,.F.);
#511=EDGE_CURVE('',#654,#653,#119,.T.);
#512=EDGE_CURVE('',#654,#655,#752,.F.);
#513=EDGE_CURVE('',#656,#655,#120,.T.);
#514=EDGE_CURVE('',#656,#657,#753,.F.);
#515=EDGE_CURVE('',#658,#657,#121,.T.);
#516=EDGE_CURVE('',#658,#648,#754,.F.);
#517=EDGE_CURVE('',#659,#660,#122,.T.);
#518=EDGE_CURVE('',#660,#650,#72,.T.);
#519=EDGE_CURVE('',#649,#661,#73,.T.);
#520=EDGE_CURVE('',#662,#661,#123,.T.);
#521=EDGE_CURVE('',#663,#662,#74,.T.);
#522=EDGE_CURVE('',#664,#663,#124,.T.);
#523=EDGE_CURVE('',#659,#664,#75,.T.);
#524=EDGE_CURVE('',#661,#647,#76,.T.);
#525=EDGE_CURVE('',#648,#665,#77,.T.);
#526=EDGE_CURVE('',#666,#665,#125,.T.);
#527=EDGE_CURVE('',#667,#666,#78,.T.);
#528=EDGE_CURVE('',#668,#667,#126,.T.);
#529=EDGE_CURVE('',#662,#668,#79,.T.);
#530=EDGE_CURVE('',#665,#658,#80,.T.);
#531=EDGE_CURVE('',#657,#669,#81,.T.);
#532=EDGE_CURVE('',#670,#669,#127,.T.);
#533=EDGE_CURVE('',#671,#670,#82,.T.);
#534=EDGE_CURVE('',#672,#671,#128,.T.);
#535=EDGE_CURVE('',#666,#672,#83,.T.);
#536=EDGE_CURVE('',#669,#656,#84,.T.);
#537=EDGE_CURVE('',#655,#673,#85,.T.);
#538=EDGE_CURVE('',#674,#673,#129,.T.);
#539=EDGE_CURVE('',#675,#674,#86,.T.);
#540=EDGE_CURVE('',#676,#675,#130,.T.);
#541=EDGE_CURVE('',#670,#676,#87,.T.);
#542=EDGE_CURVE('',#673,#654,#88,.T.);
#543=EDGE_CURVE('',#653,#677,#89,.T.);
#544=EDGE_CURVE('',#678,#677,#131,.T.);
#545=EDGE_CURVE('',#679,#678,#90,.T.);
#546=EDGE_CURVE('',#680,#679,#132,.T.);
#547=EDGE_CURVE('',#674,#680,#91,.T.);
#548=EDGE_CURVE('',#677,#652,#92,.T.);
#549=EDGE_CURVE('',#651,#660,#93,.T.);
#550=EDGE_CURVE('',#681,#659,#94,.T.);
#551=EDGE_CURVE('',#682,#681,#133,.T.);
#552=EDGE_CURVE('',#678,#682,#95,.T.);
#553=EDGE_CURVE('',#683,#683,#755,.F.);
#554=EDGE_CURVE('',#667,#672,#756,.T.);
#555=EDGE_CURVE('',#671,#676,#757,.T.);
#556=EDGE_CURVE('',#675,#680,#758,.T.);
#557=EDGE_CURVE('',#679,#682,#759,.T.);
#558=EDGE_CURVE('',#681,#664,#760,.T.);
#559=EDGE_CURVE('',#663,#668,#761,.T.);
#560=EDGE_CURVE('',#684,#684,#762,.F.);
#561=EDGE_CURVE('',#685,#685,#763,.F.);
#562=EDGE_CURVE('',#686,#686,#764,.T.);
#563=EDGE_CURVE('',#687,#687,#765,.T.);
#564=EDGE_CURVE('',#688,#689,#96,.T.);
#565=EDGE_CURVE('',#689,#690,#97,.T.);
#566=EDGE_CURVE('',#690,#691,#98,.T.);
#567=EDGE_CURVE('',#691,#692,#99,.T.);
#568=EDGE_CURVE('',#692,#693,#100,.T.);
#569=EDGE_CURVE('',#693,#688,#101,.T.);
#570=EDGE_CURVE('',#694,#695,#102,.T.);
#571=EDGE_CURVE('',#696,#694,#103,.T.);
#572=EDGE_CURVE('',#697,#696,#104,.T.);
#573=EDGE_CURVE('',#698,#697,#105,.T.);
#574=EDGE_CURVE('',#699,#698,#106,.T.);
#575=EDGE_CURVE('',#695,#699,#107,.T.);
#576=EDGE_CURVE('',#699,#689,#134,.T.);
#577=EDGE_CURVE('',#698,#690,#135,.T.);
#578=EDGE_CURVE('',#697,#691,#136,.T.);
#579=EDGE_CURVE('',#696,#692,#137,.T.);
#580=EDGE_CURVE('',#694,#693,#138,.T.);
#581=EDGE_CURVE('',#695,#688,#139,.T.);
#582=EDGE_CURVE('',#700,#701,#140,.T.);
#583=EDGE_CURVE('',#701,#702,#141,.T.);
#584=EDGE_CURVE('',#703,#702,#142,.T.);
#585=EDGE_CURVE('',#700,#703,#143,.T.);
#586=EDGE_CURVE('',#704,#705,#144,.T.);
#587=EDGE_CURVE('',#706,#705,#145,.T.);
#588=EDGE_CURVE('',#707,#706,#146,.T.);
#589=EDGE_CURVE('',#707,#704,#147,.T.);
#590=EDGE_CURVE('',#708,#708,#766,.F.);
#591=EDGE_CURVE('',#709,#710,#767,.F.);
#592=EDGE_CURVE('',#709,#711,#148,.T.);
#593=EDGE_CURVE('',#712,#711,#149,.T.);
#594=EDGE_CURVE('',#710,#712,#150,.T.);
#595=EDGE_CURVE('',#713,#713,#768,.F.);
#596=EDGE_CURVE('',#714,#715,#769,.F.);
#597=EDGE_CURVE('',#715,#716,#151,.T.);
#598=EDGE_CURVE('',#716,#717,#152,.T.);
#599=EDGE_CURVE('',#714,#717,#153,.T.);
#600=EDGE_CURVE('',#715,#703,#108,.T.);
#601=EDGE_CURVE('',#714,#704,#109,.T.);
#602=EDGE_CURVE('',#707,#709,#110,.T.);
#603=EDGE_CURVE('',#700,#710,#111,.T.);
#604=EDGE_CURVE('',#701,#702,#770,.T.);
#605=EDGE_CURVE('',#718,#718,#771,.T.);
#606=EDGE_CURVE('',#719,#719,#772,.T.);
#607=EDGE_CURVE('',#720,#720,#773,.F.);
#608=EDGE_CURVE('',#721,#721,#774,.T.);
#609=EDGE_CURVE('',#722,#722,#775,.F.);
#610=EDGE_CURVE('',#712,#716,#776,.T.);
#611=EDGE_CURVE('',#711,#717,#777,.T.);
#612=EDGE_CURVE('',#706,#705,#778,.T.);
#613=EDGE_CURVE('',#723,#723,#779,.T.);
#614=EDGE_CURVE('',#724,#725,#154,.T.);
#615=EDGE_CURVE('',#724,#726,#155,.T.);
#616=EDGE_CURVE('',#726,#727,#156,.T.);
#617=EDGE_CURVE('',#725,#727,#157,.T.);
#618=EDGE_CURVE('',#728,#729,#158,.T.);
#619=EDGE_CURVE('',#730,#728,#159,.T.);
#620=EDGE_CURVE('',#730,#731,#160,.T.);
#621=EDGE_CURVE('',#731,#729,#161,.T.);
#622=EDGE_CURVE('',#732,#732,#780,.F.);
#623=EDGE_CURVE('',#733,#734,#781,.F.);
#624=EDGE_CURVE('',#734,#735,#162,.T.);
#625=EDGE_CURVE('',#735,#736,#163,.T.);
#626=EDGE_CURVE('',#733,#736,#164,.T.);
#627=EDGE_CURVE('',#737,#737,#782,.F.);
#628=EDGE_CURVE('',#738,#739,#783,.F.);
#629=EDGE_CURVE('',#738,#740,#165,.T.);
#630=EDGE_CURVE('',#741,#740,#166,.T.);
#631=EDGE_CURVE('',#739,#741,#167,.T.);
#632=EDGE_CURVE('',#724,#734,#112,.T.);
#633=EDGE_CURVE('',#730,#733,#113,.T.);
#634=EDGE_CURVE('',#738,#728,#114,.T.);
#635=EDGE_CURVE('',#739,#726,#115,.T.);
#636=EDGE_CURVE('',#725,#727,#784,.T.);
#637=EDGE_CURVE('',#742,#742,#785,.T.);
#638=EDGE_CURVE('',#743,#743,#786,.T.);
#639=EDGE_CURVE('',#744,#744,#787,.F.);
#640=EDGE_CURVE('',#745,#745,#788,.T.);
#641=EDGE_CURVE('',#746,#746,#789,.F.);
#642=EDGE_CURVE('',#735,#741,#790,.T.);
#643=EDGE_CURVE('',#736,#740,#791,.T.);
#644=EDGE_CURVE('',#731,#729,#792,.T.);
#645=EDGE_CURVE('',#747,#747,#793,.T.);
#646=VERTEX_POINT('',#1533);
#647=VERTEX_POINT('',#1535);
#648=VERTEX_POINT('',#1536);
#649=VERTEX_POINT('',#1538);
#650=VERTEX_POINT('',#1540);
#651=VERTEX_POINT('',#1542);
#652=VERTEX_POINT('',#1544);
#653=VERTEX_POINT('',#1546);
#654=VERTEX_POINT('',#1548);
#655=VERTEX_POINT('',#1550);
#656=VERTEX_POINT('',#1552);
#657=VERTEX_POINT('',#1554);
#658=VERTEX_POINT('',#1556);
#659=VERTEX_POINT('',#1560);
#660=VERTEX_POINT('',#1561);
#661=VERTEX_POINT('',#1570);
#662=VERTEX_POINT('',#1572);
#663=VERTEX_POINT('',#1577);
#664=VERTEX_POINT('',#1579);
#665=VERTEX_POINT('',#1593);
#666=VERTEX_POINT('',#1595);
#667=VERTEX_POINT('',#1600);
#668=VERTEX_POINT('',#1602);
#669=VERTEX_POINT('',#1616);
#670=VERTEX_POINT('',#1618);
#671=VERTEX_POINT('',#1623);
#672=VERTEX_POINT('',#1625);
#673=VERTEX_POINT('',#1639);
#674=VERTEX_POINT('',#1641);
#675=VERTEX_POINT('',#1646);
#676=VERTEX_POINT('',#1648);
#677=VERTEX_POINT('',#1662);
#678=VERTEX_POINT('',#1664);
#679=VERTEX_POINT('',#1669);
#680=VERTEX_POINT('',#1671);
#681=VERTEX_POINT('',#1689);
#682=VERTEX_POINT('',#1691);
#683=VERTEX_POINT('',#1698);
#684=VERTEX_POINT('',#1722);
#685=VERTEX_POINT('',#1724);
#686=VERTEX_POINT('',#1727);
#687=VERTEX_POINT('',#1729);
#688=VERTEX_POINT('',#1739);
#689=VERTEX_POINT('',#1740);
#690=VERTEX_POINT('',#1748);
#691=VERTEX_POINT('',#1755);
#692=VERTEX_POINT('',#1763);
#693=VERTEX_POINT('',#1771);
#694=VERTEX_POINT('',#1785);
#695=VERTEX_POINT('',#1786);
#696=VERTEX_POINT('',#1794);
#697=VERTEX_POINT('',#1802);
#698=VERTEX_POINT('',#1809);
#699=VERTEX_POINT('',#1817);
#700=VERTEX_POINT('',#1840);
#701=VERTEX_POINT('',#1841);
#702=VERTEX_POINT('',#1843);
#703=VERTEX_POINT('',#1845);
#704=VERTEX_POINT('',#1849);
#705=VERTEX_POINT('',#1850);
#706=VERTEX_POINT('',#1852);
#707=VERTEX_POINT('',#1854);
#708=VERTEX_POINT('',#1858);
#709=VERTEX_POINT('',#1860);
#710=VERTEX_POINT('',#1861);
#711=VERTEX_POINT('',#1863);
#712=VERTEX_POINT('',#1865);
#713=VERTEX_POINT('',#1869);
#714=VERTEX_POINT('',#1871);
#715=VERTEX_POINT('',#1872);
#716=VERTEX_POINT('',#1874);
#717=VERTEX_POINT('',#1876);
#718=VERTEX_POINT('',#1903);
#719=VERTEX_POINT('',#1905);
#720=VERTEX_POINT('',#1908);
#721=VERTEX_POINT('',#1910);
#722=VERTEX_POINT('',#1913);
#723=VERTEX_POINT('',#1923);
#724=VERTEX_POINT('',#1930);
#725=VERTEX_POINT('',#1931);
#726=VERTEX_POINT('',#1933);
#727=VERTEX_POINT('',#1935);
#728=VERTEX_POINT('',#1939);
#729=VERTEX_POINT('',#1940);
#730=VERTEX_POINT('',#1942);
#731=VERTEX_POINT('',#1944);
#732=VERTEX_POINT('',#1948);
#733=VERTEX_POINT('',#1950);
#734=VERTEX_POINT('',#1951);
#735=VERTEX_POINT('',#1953);
#736=VERTEX_POINT('',#1955);
#737=VERTEX_POINT('',#1959);
#738=VERTEX_POINT('',#1961);
#739=VERTEX_POINT('',#1962);
#740=VERTEX_POINT('',#1964);
#741=VERTEX_POINT('',#1966);
#742=VERTEX_POINT('',#1993);
#743=VERTEX_POINT('',#1995);
#744=VERTEX_POINT('',#1998);
#745=VERTEX_POINT('',#2000);
#746=VERTEX_POINT('',#2003);
#747=VERTEX_POINT('',#2013);
#748=CIRCLE('',#1126,0.25);
#749=CIRCLE('',#1127,0.606217782649106);
#750=CIRCLE('',#1128,0.606217782649106);
#751=CIRCLE('',#1129,0.606217782649106);
#752=CIRCLE('',#1130,0.606217782649106);
#753=CIRCLE('',#1131,0.606217782649106);
#754=CIRCLE('',#1132,0.606217782649106);
#755=CIRCLE('',#1140,0.25);
#756=CIRCLE('',#1141,0.606217782649107);
#757=CIRCLE('',#1142,0.606217782649107);
#758=CIRCLE('',#1143,0.606217782649107);
#759=CIRCLE('',#1144,0.606217782649107);
#760=CIRCLE('',#1145,0.606217782649107);
#761=CIRCLE('',#1146,0.606217782649107);
#762=CIRCLE('',#1163,0.25);
#763=CIRCLE('',#1164,0.56);
#764=CIRCLE('',#1166,0.25);
#765=CIRCLE('',#1167,0.56);
#766=CIRCLE('',#1181,0.185);
#767=CIRCLE('',#1182,0.44);
#768=CIRCLE('',#1184,0.185);
#769=CIRCLE('',#1185,0.44);
#770=CIRCLE('',#1188,0.5);
#771=CIRCLE('',#1190,0.3);
#772=CIRCLE('',#1191,0.3);
#773=CIRCLE('',#1193,0.2268);
#774=CIRCLE('',#1194,0.2268);
#775=CIRCLE('',#1196,0.2268);
#776=CIRCLE('',#1199,0.5);
#777=CIRCLE('',#1201,0.5);
#778=CIRCLE('',#1202,0.5);
#779=CIRCLE('',#1205,0.2868);
#780=CIRCLE('',#1213,0.185);
#781=CIRCLE('',#1214,0.44);
#782=CIRCLE('',#1216,0.185);
#783=CIRCLE('',#1217,0.44);
#784=CIRCLE('',#1220,0.5);
#785=CIRCLE('',#1222,0.3);
#786=CIRCLE('',#1223,0.3);
#787=CIRCLE('',#1225,0.2268);
#788=CIRCLE('',#1226,0.2268);
#789=CIRCLE('',#1228,0.2268);
#790=CIRCLE('',#1231,0.5);
#791=CIRCLE('',#1233,0.5);
#792=CIRCLE('',#1234,0.5);
#793=CIRCLE('',#1237,0.2868);
#794=EDGE_LOOP('',(#220));
#795=EDGE_LOOP('',(#221,#222,#223,#224,#225,#226,#227,#228,#229,#230,#231,
#232));
#796=EDGE_LOOP('',(#233,#234,#235,#236,#237,#238,#239,#240));
#797=EDGE_LOOP('',(#241,#242,#243,#244,#245,#246,#247,#248));
#798=EDGE_LOOP('',(#249,#250,#251,#252,#253,#254,#255,#256));
#799=EDGE_LOOP('',(#257,#258,#259,#260,#261,#262,#263,#264));
#800=EDGE_LOOP('',(#265,#266,#267,#268,#269,#270,#271,#272));
#801=EDGE_LOOP('',(#273,#274,#275,#276,#277,#278,#279,#280));
#802=EDGE_LOOP('',(#281));
#803=EDGE_LOOP('',(#282,#283,#284,#285,#286,#287,#288,#289,#290,#291,#292,
#293));
#804=EDGE_LOOP('',(#294));
#805=EDGE_LOOP('',(#295));
#806=EDGE_LOOP('',(#296,#297,#298));
#807=EDGE_LOOP('',(#299,#300,#301));
#808=EDGE_LOOP('',(#302,#303,#304));
#809=EDGE_LOOP('',(#305,#306,#307));
#810=EDGE_LOOP('',(#308,#309,#310));
#811=EDGE_LOOP('',(#311,#312,#313));
#812=EDGE_LOOP('',(#314,#315,#316));
#813=EDGE_LOOP('',(#317,#318,#319));
#814=EDGE_LOOP('',(#320,#321,#322));
#815=EDGE_LOOP('',(#323,#324,#325));
#816=EDGE_LOOP('',(#326,#327,#328));
#817=EDGE_LOOP('',(#329,#330,#331));
#818=EDGE_LOOP('',(#332));
#819=EDGE_LOOP('',(#333));
#820=EDGE_LOOP('',(#334));
#821=EDGE_LOOP('',(#335));
#822=EDGE_LOOP('',(#336));
#823=EDGE_LOOP('',(#337));
#824=EDGE_LOOP('',(#338));
#825=EDGE_LOOP('',(#339,#340,#341,#342,#343,#344));
#826=EDGE_LOOP('',(#345));
#827=EDGE_LOOP('',(#346,#347,#348,#349,#350,#351));
#828=EDGE_LOOP('',(#352,#353,#354,#355));
#829=EDGE_LOOP('',(#356,#357,#358,#359));
#830=EDGE_LOOP('',(#360,#361,#362,#363));
#831=EDGE_LOOP('',(#364,#365,#366,#367));
#832=EDGE_LOOP('',(#368,#369,#370,#371));
#833=EDGE_LOOP('',(#372,#373,#374,#375));
#834=EDGE_LOOP('',(#376,#377,#378,#379));
#835=EDGE_LOOP('',(#380,#381,#382,#383));
#836=EDGE_LOOP('',(#384));
#837=EDGE_LOOP('',(#385,#386,#387,#388));
#838=EDGE_LOOP('',(#389));
#839=EDGE_LOOP('',(#390,#391,#392,#393));
#840=EDGE_LOOP('',(#394,#395,#396,#397,#398,#399,#400,#401));
#841=EDGE_LOOP('',(#402,#403));
#842=EDGE_LOOP('',(#404));
#843=EDGE_LOOP('',(#405));
#844=EDGE_LOOP('',(#406));
#845=EDGE_LOOP('',(#407));
#846=EDGE_LOOP('',(#408));
#847=EDGE_LOOP('',(#409));
#848=EDGE_LOOP('',(#410));
#849=EDGE_LOOP('',(#411,#412,#413,#414,#415,#416,#417,#418));
#850=EDGE_LOOP('',(#419,#420,#421,#422,#423,#424,#425,#426));
#851=EDGE_LOOP('',(#427,#428));
#852=EDGE_LOOP('',(#429));
#853=EDGE_LOOP('',(#430,#431,#432,#433));
#854=EDGE_LOOP('',(#434));
#855=EDGE_LOOP('',(#435));
#856=EDGE_LOOP('',(#436));
#857=EDGE_LOOP('',(#437));
#858=EDGE_LOOP('',(#438));
#859=EDGE_LOOP('',(#439));
#860=EDGE_LOOP('',(#440,#441,#442,#443));
#861=EDGE_LOOP('',(#444,#445,#446,#447));
#862=EDGE_LOOP('',(#448));
#863=EDGE_LOOP('',(#449,#450,#451,#452));
#864=EDGE_LOOP('',(#453));
#865=EDGE_LOOP('',(#454,#455,#456,#457));
#866=EDGE_LOOP('',(#458,#459,#460,#461,#462,#463,#464,#465));
#867=EDGE_LOOP('',(#466,#467));
#868=EDGE_LOOP('',(#468));
#869=EDGE_LOOP('',(#469));
#870=EDGE_LOOP('',(#470));
#871=EDGE_LOOP('',(#471));
#872=EDGE_LOOP('',(#472));
#873=EDGE_LOOP('',(#473));
#874=EDGE_LOOP('',(#474));
#875=EDGE_LOOP('',(#475,#476,#477,#478,#479,#480,#481,#482));
#876=EDGE_LOOP('',(#483,#484,#485,#486,#487,#488,#489,#490));
#877=EDGE_LOOP('',(#491,#492));
#878=EDGE_LOOP('',(#493));
#879=EDGE_LOOP('',(#494,#495,#496,#497));
#880=EDGE_LOOP('',(#498));
#881=EDGE_LOOP('',(#499));
#882=EDGE_LOOP('',(#500));
#883=EDGE_LOOP('',(#501));
#884=EDGE_LOOP('',(#502));
#885=EDGE_LOOP('',(#503));
#886=FACE_BOUND('',#794,.T.);
#887=FACE_BOUND('',#795,.T.);
#888=FACE_BOUND('',#796,.T.);
#889=FACE_BOUND('',#797,.T.);
#890=FACE_BOUND('',#798,.T.);
#891=FACE_BOUND('',#799,.T.);
#892=FACE_BOUND('',#800,.T.);
#893=FACE_BOUND('',#801,.T.);
#894=FACE_BOUND('',#802,.T.);
#895=FACE_BOUND('',#803,.T.);
#896=FACE_BOUND('',#804,.T.);
#897=FACE_BOUND('',#805,.T.);
#898=FACE_BOUND('',#806,.T.);
#899=FACE_BOUND('',#807,.T.);
#900=FACE_BOUND('',#808,.T.);
#901=FACE_BOUND('',#809,.T.);
#902=FACE_BOUND('',#810,.T.);
#903=FACE_BOUND('',#811,.T.);
#904=FACE_BOUND('',#812,.T.);
#905=FACE_BOUND('',#813,.T.);
#906=FACE_BOUND('',#814,.T.);
#907=FACE_BOUND('',#815,.T.);
#908=FACE_BOUND('',#816,.T.);
#909=FACE_BOUND('',#817,.T.);
#910=FACE_BOUND('',#818,.T.);
#911=FACE_BOUND('',#819,.T.);
#912=FACE_BOUND('',#820,.T.);
#913=FACE_BOUND('',#821,.T.);
#914=FACE_BOUND('',#822,.T.);
#915=FACE_BOUND('',#823,.T.);
#916=FACE_BOUND('',#824,.T.);
#917=FACE_BOUND('',#825,.T.);
#918=FACE_BOUND('',#826,.T.);
#919=FACE_BOUND('',#827,.T.);
#920=FACE_BOUND('',#828,.T.);
#921=FACE_BOUND('',#829,.T.);
#922=FACE_BOUND('',#830,.T.);
#923=FACE_BOUND('',#831,.T.);
#924=FACE_BOUND('',#832,.T.);
#925=FACE_BOUND('',#833,.T.);
#926=FACE_BOUND('',#834,.T.);
#927=FACE_BOUND('',#835,.T.);
#928=FACE_BOUND('',#836,.T.);
#929=FACE_BOUND('',#837,.T.);
#930=FACE_BOUND('',#838,.T.);
#931=FACE_BOUND('',#839,.T.);
#932=FACE_BOUND('',#840,.T.);
#933=FACE_BOUND('',#841,.T.);
#934=FACE_BOUND('',#842,.T.);
#935=FACE_BOUND('',#843,.T.);
#936=FACE_BOUND('',#844,.T.);
#937=FACE_BOUND('',#845,.T.);
#938=FACE_BOUND('',#846,.T.);
#939=FACE_BOUND('',#847,.T.);
#940=FACE_BOUND('',#848,.T.);
#941=FACE_BOUND('',#849,.T.);
#942=FACE_BOUND('',#850,.T.);
#943=FACE_BOUND('',#851,.T.);
#944=FACE_BOUND('',#852,.T.);
#945=FACE_BOUND('',#853,.T.);
#946=FACE_BOUND('',#854,.T.);
#947=FACE_BOUND('',#855,.T.);
#948=FACE_BOUND('',#856,.T.);
#949=FACE_BOUND('',#857,.T.);
#950=FACE_BOUND('',#858,.T.);
#951=FACE_BOUND('',#859,.T.);
#952=FACE_BOUND('',#860,.T.);
#953=FACE_BOUND('',#861,.T.);
#954=FACE_BOUND('',#862,.T.);
#955=FACE_BOUND('',#863,.T.);
#956=FACE_BOUND('',#864,.T.);
#957=FACE_BOUND('',#865,.T.);
#958=FACE_BOUND('',#866,.T.);
#959=FACE_BOUND('',#867,.T.);
#960=FACE_BOUND('',#868,.T.);
#961=FACE_BOUND('',#869,.T.);
#962=FACE_BOUND('',#870,.T.);
#963=FACE_BOUND('',#871,.T.);
#964=FACE_BOUND('',#872,.T.);
#965=FACE_BOUND('',#873,.T.);
#966=FACE_BOUND('',#874,.T.);
#967=FACE_BOUND('',#875,.T.);
#968=FACE_BOUND('',#876,.T.);
#969=FACE_BOUND('',#877,.T.);
#970=FACE_BOUND('',#878,.T.);
#971=FACE_BOUND('',#879,.T.);
#972=FACE_BOUND('',#880,.T.);
#973=FACE_BOUND('',#881,.T.);
#974=FACE_BOUND('',#882,.T.);
#975=FACE_BOUND('',#883,.T.);
#976=FACE_BOUND('',#884,.T.);
#977=FACE_BOUND('',#885,.T.);
#978=PLANE('',#1125);
#979=PLANE('',#1133);
#980=PLANE('',#1134);
#981=PLANE('',#1135);
#982=PLANE('',#1136);
#983=PLANE('',#1137);
#984=PLANE('',#1138);
#985=PLANE('',#1139);
#986=PLANE('',#1162);
#987=PLANE('',#1165);
#988=PLANE('',#1171);
#989=PLANE('',#1172);
#990=PLANE('',#1173);
#991=PLANE('',#1174);
#992=PLANE('',#1175);
#993=PLANE('',#1176);
#994=PLANE('',#1178);
#995=PLANE('',#1179);
#996=PLANE('',#1180);
#997=PLANE('',#1183);
#998=PLANE('',#1187);
#999=PLANE('',#1195);
#1000=PLANE('',#1203);
#1001=PLANE('',#1204);
#1002=PLANE('',#1210);
#1003=PLANE('',#1211);
#1004=PLANE('',#1212);
#1005=PLANE('',#1215);
#1006=PLANE('',#1219);
#1007=PLANE('',#1227);
#1008=PLANE('',#1235);
#1009=PLANE('',#1236);
#1010=ADVANCED_FACE('',(#886,#887),#978,.F.);
#1011=ADVANCED_FACE('',(#888),#979,.F.);
#1012=ADVANCED_FACE('',(#889),#980,.F.);
#1013=ADVANCED_FACE('',(#890),#981,.F.);
#1014=ADVANCED_FACE('',(#891),#982,.F.);
#1015=ADVANCED_FACE('',(#892),#983,.F.);
#1016=ADVANCED_FACE('',(#893),#984,.F.);
#1017=ADVANCED_FACE('',(#894,#895),#985,.T.);
#1018=ADVANCED_FACE('',(#896,#897),#58,.F.);
#1019=ADVANCED_FACE('',(#898),#40,.T.);
#1020=ADVANCED_FACE('',(#899),#41,.T.);
#1021=ADVANCED_FACE('',(#900),#42,.T.);
#1022=ADVANCED_FACE('',(#901),#43,.T.);
#1023=ADVANCED_FACE('',(#902),#44,.T.);
#1024=ADVANCED_FACE('',(#903),#45,.T.);
#1025=ADVANCED_FACE('',(#904),#46,.T.);
#1026=ADVANCED_FACE('',(#905),#47,.T.);
#1027=ADVANCED_FACE('',(#906),#48,.T.);
#1028=ADVANCED_FACE('',(#907),#49,.T.);
#1029=ADVANCED_FACE('',(#908),#50,.T.);
#1030=ADVANCED_FACE('',(#909),#51,.T.);
#1031=ADVANCED_FACE('',(#910,#911),#986,.T.);
#1032=ADVANCED_FACE('',(#912,#913),#987,.F.);
#1033=ADVANCED_FACE('',(#914,#915),#59,.F.);
#1034=ADVANCED_FACE('',(#916,#917),#52,.T.);
#1035=ADVANCED_FACE('',(#918,#919),#53,.T.);
#1036=ADVANCED_FACE('',(#920),#988,.F.);
#1037=ADVANCED_FACE('',(#921),#989,.F.);
#1038=ADVANCED_FACE('',(#922),#990,.F.);
#1039=ADVANCED_FACE('',(#923),#991,.F.);
#1040=ADVANCED_FACE('',(#924),#992,.F.);
#1041=ADVANCED_FACE('',(#925),#993,.F.);
#1042=ADVANCED_FACE('',(#926),#994,.F.);
#1043=ADVANCED_FACE('',(#927),#995,.T.);
#1044=ADVANCED_FACE('',(#928,#929),#996,.F.);
#1045=ADVANCED_FACE('',(#930,#931),#997,.T.);
#1046=ADVANCED_FACE('',(#932),#60,.T.);
#1047=ADVANCED_FACE('',(#933),#998,.T.);
#1048=ADVANCED_FACE('',(#934,#935),#61,.T.);
#1049=ADVANCED_FACE('',(#936,#937),#62,.T.);
#1050=ADVANCED_FACE('',(#938),#999,.F.);
#1051=ADVANCED_FACE('',(#939,#940),#54,.T.);
#1052=ADVANCED_FACE('',(#941),#63,.T.);
#1053=ADVANCED_FACE('',(#942),#64,.T.);
#1054=ADVANCED_FACE('',(#943),#1000,.T.);
#1055=ADVANCED_FACE('',(#944,#945),#1001,.F.);
#1056=ADVANCED_FACE('',(#946,#947),#65,.F.);
#1057=ADVANCED_FACE('',(#948,#949),#55,.T.);
#1058=ADVANCED_FACE('',(#950,#951),#10,.F.);
#1059=ADVANCED_FACE('',(#952),#1002,.F.);
#1060=ADVANCED_FACE('',(#953),#1003,.T.);
#1061=ADVANCED_FACE('',(#954,#955),#1004,.F.);
#1062=ADVANCED_FACE('',(#956,#957),#1005,.T.);
#1063=ADVANCED_FACE('',(#958),#66,.T.);
#1064=ADVANCED_FACE('',(#959),#1006,.T.);
#1065=ADVANCED_FACE('',(#960,#961),#67,.T.);
#1066=ADVANCED_FACE('',(#962,#963),#68,.T.);
#1067=ADVANCED_FACE('',(#964),#1007,.F.);
#1068=ADVANCED_FACE('',(#965,#966),#56,.T.);
#1069=ADVANCED_FACE('',(#967),#69,.T.);
#1070=ADVANCED_FACE('',(#968),#70,.T.);
#1071=ADVANCED_FACE('',(#969),#1008,.T.);
#1072=ADVANCED_FACE('',(#970,#971),#1009,.F.);
#1073=ADVANCED_FACE('',(#972,#973),#71,.F.);
#1074=ADVANCED_FACE('',(#974,#975),#57,.T.);
#1075=ADVANCED_FACE('',(#976,#977),#11,.F.);
#1076=CLOSED_SHELL('',(#1010,#1011,#1012,#1013,#1014,#1015,#1016,#1017,
#1018,#1019,#1020,#1021,#1022,#1023,#1024,#1025,#1026,#1027,#1028,#1029,
#1030));
#1077=CLOSED_SHELL('',(#1031,#1032,#1033,#1034,#1035,#1036,#1037,#1038,
#1039,#1040,#1041));
#1078=CLOSED_SHELL('',(#1042,#1043,#1044,#1045,#1046,#1047,#1048,#1049,
#1050,#1051,#1052,#1053,#1054,#1055,#1056,#1057,#1058));
#1079=CLOSED_SHELL('',(#1059,#1060,#1061,#1062,#1063,#1064,#1065,#1066,
#1067,#1068,#1069,#1070,#1071,#1072,#1073,#1074,#1075));
#1080=STYLED_ITEM('',(#1084),#1110);
#1081=STYLED_ITEM('',(#1085),#1111);
#1082=STYLED_ITEM('',(#1086),#1112);
#1083=STYLED_ITEM('',(#1087),#1113);
#1084=PRESENTATION_STYLE_ASSIGNMENT((#1088));
#1085=PRESENTATION_STYLE_ASSIGNMENT((#1089));
#1086=PRESENTATION_STYLE_ASSIGNMENT((#1090));
#1087=PRESENTATION_STYLE_ASSIGNMENT((#1091));
#1088=SURFACE_STYLE_USAGE(.BOTH.,#1092);
#1089=SURFACE_STYLE_USAGE(.BOTH.,#1093);
#1090=SURFACE_STYLE_USAGE(.BOTH.,#1094);
#1091=SURFACE_STYLE_USAGE(.BOTH.,#1095);
#1092=SURFACE_SIDE_STYLE('',(#1096));
#1093=SURFACE_SIDE_STYLE('',(#1097));
#1094=SURFACE_SIDE_STYLE('',(#1098));
#1095=SURFACE_SIDE_STYLE('',(#1099));
#1096=SURFACE_STYLE_FILL_AREA(#1100);
#1097=SURFACE_STYLE_FILL_AREA(#1101);
#1098=SURFACE_STYLE_FILL_AREA(#1102);
#1099=SURFACE_STYLE_FILL_AREA(#1103);
#1100=FILL_AREA_STYLE('',(#1104));
#1101=FILL_AREA_STYLE('',(#1105));
#1102=FILL_AREA_STYLE('',(#1106));
#1103=FILL_AREA_STYLE('',(#1107));
#1104=FILL_AREA_STYLE_COLOUR('',#1108);
#1105=FILL_AREA_STYLE_COLOUR('',#1109);
#1106=FILL_AREA_STYLE_COLOUR('',#1109);
#1107=FILL_AREA_STYLE_COLOUR('',#1109);
#1108=COLOUR_RGB('',0.647058823529412,0.647058823529412,0.647058823529412);
#1109=COLOUR_RGB('',0.196078431372549,0.196078431372549,0.196078431372549);
#1110=MANIFOLD_SOLID_BREP('\X2\87BA6BCD\X0\',#1076);
#1111=MANIFOLD_SOLID_BREP('\X2\516D89D26746\X0\',#1077);
#1112=MANIFOLD_SOLID_BREP('\X2\94FE67618FDE6746\X0\R',#1078);
#1113=MANIFOLD_SOLID_BREP('\X2\94FE67618FDE6746\X0\L',#1079);
#1114=SHAPE_DEFINITION_REPRESENTATION(#2032,#1119);
#1115=SHAPE_DEFINITION_REPRESENTATION(#2033,#1120);
#1116=SHAPE_DEFINITION_REPRESENTATION(#2036,#1121);
#1117=SHAPE_DEFINITION_REPRESENTATION(#2038,#1122);
#1118=SHAPE_DEFINITION_REPRESENTATION(#2040,#1123);
#1119=SHAPE_REPRESENTATION('#35 Chain Tensioner',(#1124,#1160,#1161,#1177,
#1209,#1241),#2019);
#1120=SHAPE_REPRESENTATION('??',(#1124),#2020);
#1121=SHAPE_REPRESENTATION('???',(#1124),#2021);
#1122=SHAPE_REPRESENTATION('????R',(#1124),#2022);
#1123=SHAPE_REPRESENTATION('????L',(#1124),#2023);
#1124=AXIS2_PLACEMENT_3D('',#1530,#1242,#1243);
#1125=AXIS2_PLACEMENT_3D('',#1531,#1244,#1245);
#1126=AXIS2_PLACEMENT_3D('',#1532,#1246,#1247);
#1127=AXIS2_PLACEMENT_3D('',#1537,#1249,#1250);
#1128=AXIS2_PLACEMENT_3D('',#1541,#1252,#1253);
#1129=AXIS2_PLACEMENT_3D('',#1545,#1255,#1256);
#1130=AXIS2_PLACEMENT_3D('',#1549,#1258,#1259);
#1131=AXIS2_PLACEMENT_3D('',#1553,#1261,#1262);
#1132=AXIS2_PLACEMENT_3D('',#1557,#1264,#1265);
#1133=AXIS2_PLACEMENT_3D('',#1558,#1266,#1267);
#1134=AXIS2_PLACEMENT_3D('',#1584,#1271,#1272);
#1135=AXIS2_PLACEMENT_3D('',#1607,#1275,#1276);
#1136=AXIS2_PLACEMENT_3D('',#1630,#1279,#1280);
#1137=AXIS2_PLACEMENT_3D('',#1653,#1283,#1284);
#1138=AXIS2_PLACEMENT_3D('',#1676,#1287,#1288);
#1139=AXIS2_PLACEMENT_3D('',#1696,#1290,#1291);
#1140=AXIS2_PLACEMENT_3D('',#1697,#1292,#1293);
#1141=AXIS2_PLACEMENT_3D('',#1699,#1294,#1295);
#1142=AXIS2_PLACEMENT_3D('',#1700,#1296,#1297);
#1143=AXIS2_PLACEMENT_3D('',#1701,#1298,#1299);
#1144=AXIS2_PLACEMENT_3D('',#1702,#1300,#1301);
#1145=AXIS2_PLACEMENT_3D('',#1703,#1302,#1303);
#1146=AXIS2_PLACEMENT_3D('',#1704,#1304,#1305);
#1147=AXIS2_PLACEMENT_3D('',#1705,#1306,#1307);
#1148=AXIS2_PLACEMENT_3D('',#1706,#1308,#1309);
#1149=AXIS2_PLACEMENT_3D('',#1707,#1310,#1311);
#1150=AXIS2_PLACEMENT_3D('',#1708,#1312,#1313);
#1151=AXIS2_PLACEMENT_3D('',#1709,#1314,#1315);
#1152=AXIS2_PLACEMENT_3D('',#1710,#1316,#1317);
#1153=AXIS2_PLACEMENT_3D('',#1711,#1318,#1319);
#1154=AXIS2_PLACEMENT_3D('',#1712,#1320,#1321);
#1155=AXIS2_PLACEMENT_3D('',#1713,#1322,#1323);
#1156=AXIS2_PLACEMENT_3D('',#1714,#1324,#1325);
#1157=AXIS2_PLACEMENT_3D('',#1715,#1326,#1327);
#1158=AXIS2_PLACEMENT_3D('',#1716,#1328,#1329);
#1159=AXIS2_PLACEMENT_3D('',#1717,#1330,#1331);
#1160=AXIS2_PLACEMENT_3D('',#1718,#1332,#1333);
#1161=AXIS2_PLACEMENT_3D('',#1719,#1334,#1335);
#1162=AXIS2_PLACEMENT_3D('',#1720,#1336,#1337);
#1163=AXIS2_PLACEMENT_3D('',#1721,#1338,#1339);
#1164=AXIS2_PLACEMENT_3D('',#1723,#1340,#1341);
#1165=AXIS2_PLACEMENT_3D('',#1725,#1342,#1343);
#1166=AXIS2_PLACEMENT_3D('',#1726,#1344,#1345);
#1167=AXIS2_PLACEMENT_3D('',#1728,#1346,#1347);
#1168=AXIS2_PLACEMENT_3D('',#1730,#1348,#1349);
#1169=AXIS2_PLACEMENT_3D('',#1731,#1350,#1351);
#1170=AXIS2_PLACEMENT_3D('',#1778,#1352,#1353);
#1171=AXIS2_PLACEMENT_3D('',#1825,#1354,#1355);
#1172=AXIS2_PLACEMENT_3D('',#1828,#1358,#1359);
#1173=AXIS2_PLACEMENT_3D('',#1830,#1361,#1362);
#1174=AXIS2_PLACEMENT_3D('',#1832,#1364,#1365);
#1175=AXIS2_PLACEMENT_3D('',#1834,#1367,#1368);
#1176=AXIS2_PLACEMENT_3D('',#1836,#1370,#1371);
#1177=AXIS2_PLACEMENT_3D('',#1837,#1372,#1373);
#1178=AXIS2_PLACEMENT_3D('',#1838,#1374,#1375);
#1179=AXIS2_PLACEMENT_3D('',#1847,#1380,#1381);
#1180=AXIS2_PLACEMENT_3D('',#1856,#1386,#1387);
#1181=AXIS2_PLACEMENT_3D('',#1857,#1388,#1389);
#1182=AXIS2_PLACEMENT_3D('',#1859,#1390,#1391);
#1183=AXIS2_PLACEMENT_3D('',#1867,#1395,#1396);
#1184=AXIS2_PLACEMENT_3D('',#1868,#1397,#1398);
#1185=AXIS2_PLACEMENT_3D('',#1870,#1399,#1400);
#1186=AXIS2_PLACEMENT_3D('',#1878,#1404,#1405);
#1187=AXIS2_PLACEMENT_3D('',#1899,#1406,#1407);
#1188=AXIS2_PLACEMENT_3D('',#1900,#1408,#1409);
#1189=AXIS2_PLACEMENT_3D('',#1901,#1410,#1411);
#1190=AXIS2_PLACEMENT_3D('',#1902,#1412,#1413);
#1191=AXIS2_PLACEMENT_3D('',#1904,#1414,#1415);
#1192=AXIS2_PLACEMENT_3D('',#1906,#1416,#1417);
#1193=AXIS2_PLACEMENT_3D('',#1907,#1418,#1419);
#1194=AXIS2_PLACEMENT_3D('',#1909,#1420,#1421);
#1195=AXIS2_PLACEMENT_3D('',#1911,#1422,#1423);
#1196=AXIS2_PLACEMENT_3D('',#1912,#1424,#1425);
#1197=AXIS2_PLACEMENT_3D('',#1914,#1426,#1427);
#1198=AXIS2_PLACEMENT_3D('',#1915,#1428,#1429);
#1199=AXIS2_PLACEMENT_3D('',#1916,#1430,#1431);
#1200=AXIS2_PLACEMENT_3D('',#1917,#1432,#1433);
#1201=AXIS2_PLACEMENT_3D('',#1918,#1434,#1435);
#1202=AXIS2_PLACEMENT_3D('',#1919,#1436,#1437);
#1203=AXIS2_PLACEMENT_3D('',#1920,#1438,#1439);
#1204=AXIS2_PLACEMENT_3D('',#1921,#1440,#1441);
#1205=AXIS2_PLACEMENT_3D('',#1922,#1442,#1443);
#1206=AXIS2_PLACEMENT_3D('',#1924,#1444,#1445);
#1207=AXIS2_PLACEMENT_3D('',#1925,#1446,#1447);
#1208=AXIS2_PLACEMENT_3D('',#1926,#1448,#1449);
#1209=AXIS2_PLACEMENT_3D('',#1927,#1450,#1451);
#1210=AXIS2_PLACEMENT_3D('',#1928,#1452,#1453);
#1211=AXIS2_PLACEMENT_3D('',#1937,#1458,#1459);
#1212=AXIS2_PLACEMENT_3D('',#1946,#1464,#1465);
#1213=AXIS2_PLACEMENT_3D('',#1947,#1466,#1467);
#1214=AXIS2_PLACEMENT_3D('',#1949,#1468,#1469);
#1215=AXIS2_PLACEMENT_3D('',#1957,#1473,#1474);
#1216=AXIS2_PLACEMENT_3D('',#1958,#1475,#1476);
#1217=AXIS2_PLACEMENT_3D('',#1960,#1477,#1478);
#1218=AXIS2_PLACEMENT_3D('',#1968,#1482,#1483);
#1219=AXIS2_PLACEMENT_3D('',#1989,#1484,#1485);
#1220=AXIS2_PLACEMENT_3D('',#1990,#1486,#1487);
#1221=AXIS2_PLACEMENT_3D('',#1991,#1488,#1489);
#1222=AXIS2_PLACEMENT_3D('',#1992,#1490,#1491);
#1223=AXIS2_PLACEMENT_3D('',#1994,#1492,#1493);
#1224=AXIS2_PLACEMENT_3D('',#1996,#1494,#1495);
#1225=AXIS2_PLACEMENT_3D('',#1997,#1496,#1497);
#1226=AXIS2_PLACEMENT_3D('',#1999,#1498,#1499);
#1227=AXIS2_PLACEMENT_3D('',#2001,#1500,#1501);
#1228=AXIS2_PLACEMENT_3D('',#2002,#1502,#1503);
#1229=AXIS2_PLACEMENT_3D('',#2004,#1504,#1505);
#1230=AXIS2_PLACEMENT_3D('',#2005,#1506,#1507);
#1231=AXIS2_PLACEMENT_3D('',#2006,#1508,#1509);
#1232=AXIS2_PLACEMENT_3D('',#2007,#1510,#1511);
#1233=AXIS2_PLACEMENT_3D('',#2008,#1512,#1513);
#1234=AXIS2_PLACEMENT_3D('',#2009,#1514,#1515);
#1235=AXIS2_PLACEMENT_3D('',#2010,#1516,#1517);
#1236=AXIS2_PLACEMENT_3D('',#2011,#1518,#1519);
#1237=AXIS2_PLACEMENT_3D('',#2012,#1520,#1521);
#1238=AXIS2_PLACEMENT_3D('',#2014,#1522,#1523);
#1239=AXIS2_PLACEMENT_3D('',#2015,#1524,#1525);
#1240=AXIS2_PLACEMENT_3D('',#2016,#1526,#1527);
#1241=AXIS2_PLACEMENT_3D('',#2017,#1528,#1529);
#1242=DIRECTION('',(0.,0.,1.));
#1243=DIRECTION('',(1.,0.,0.));
#1244=DIRECTION('',(-1.,0.,0.));
#1245=DIRECTION('',(0.,-1.,0.));
#1246=DIRECTION('',(-1.,0.,0.));
#1247=DIRECTION('',(0.,0.,1.));
#1248=DIRECTION('',(0.,1.,0.));
#1249=DIRECTION('',(-1.,0.,0.));
#1250=DIRECTION('',(0.,0.,1.));
#1251=DIRECTION('',(0.,0.5,0.866025403784439));
#1252=DIRECTION('',(-1.,0.,0.));
#1253=DIRECTION('',(0.,0.,1.));
#1254=DIRECTION('',(0.,-0.5,0.866025403784438));
#1255=DIRECTION('',(-1.,0.,0.));
#1256=DIRECTION('',(0.,0.,1.));
#1257=DIRECTION('',(0.,-1.,-2.50385766456193E-16));
#1258=DIRECTION('',(-1.,0.,0.));
#1259=DIRECTION('',(0.,0.,1.));
#1260=DIRECTION('',(0.,-0.5,-0.866025403784439));
#1261=DIRECTION('',(-1.,0.,0.));
#1262=DIRECTION('',(0.,0.,1.));
#1263=DIRECTION('',(0.,0.5,-0.866025403784439));
#1264=DIRECTION('',(-1.,0.,0.));
#1265=DIRECTION('',(0.,0.,1.));
#1266=DIRECTION('',(0.,0.866025403784439,-0.5));
#1267=DIRECTION('',(0.,0.5,0.866025403784439));
#1268=DIRECTION('',(1.,0.,0.));
#1269=DIRECTION('',(1.,0.,0.));
#1270=DIRECTION('',(0.,0.5,0.866025403784439));
#1271=DIRECTION('',(0.,0.,-1.));
#1272=DIRECTION('',(-1.,0.,0.));
#1273=DIRECTION('',(1.,0.,0.));
#1274=DIRECTION('',(0.,1.,0.));
#1275=DIRECTION('',(0.,-0.866025403784439,-0.5));
#1276=DIRECTION('',(0.,0.5,-0.866025403784439));
#1277=DIRECTION('',(1.,0.,0.));
#1278=DIRECTION('',(0.,0.5,-0.866025403784439));
#1279=DIRECTION('',(0.,-0.866025403784439,0.5));
#1280=DIRECTION('',(0.,-0.5,-0.866025403784439));
#1281=DIRECTION('',(1.,0.,0.));
#1282=DIRECTION('',(0.,-0.5,-0.866025403784439));
#1283=DIRECTION('',(0.,-2.50385766456193E-16,1.));
#1284=DIRECTION('',(0.,-1.,-2.50385766456193E-16));
#1285=DIRECTION('',(1.,0.,0.));
#1286=DIRECTION('',(0.,-1.,-2.50385766456193E-16));
#1287=DIRECTION('',(0.,0.866025403784438,0.5));
#1288=DIRECTION('',(0.,-0.5,0.866025403784438));
#1289=DIRECTION('',(0.,-0.5,0.866025403784438));
#1290=DIRECTION('',(-1.,0.,0.));
#1291=DIRECTION('',(0.,-1.,0.));
#1292=DIRECTION('',(-1.,0.,0.));
#1293=DIRECTION('',(0.,0.,1.));
#1294=DIRECTION('',(-1.,0.,0.));
#1295=DIRECTION('',(0.,0.,1.));
#1296=DIRECTION('',(-1.,0.,0.));
#1297=DIRECTION('',(0.,0.,1.));
#1298=DIRECTION('',(-1.,0.,0.));
#1299=DIRECTION('',(0.,0.,1.));
#1300=DIRECTION('',(-1.,0.,0.));
#1301=DIRECTION('',(0.,0.,1.));
#1302=DIRECTION('',(-1.,0.,0.));
#1303=DIRECTION('',(0.,0.,1.));
#1304=DIRECTION('',(-1.,0.,0.));
#1305=DIRECTION('',(0.,0.,1.));
#1306=DIRECTION('',(-1.,0.,0.));
#1307=DIRECTION('',(0.,0.,1.));
#1308=DIRECTION('',(1.,0.,0.));
#1309=DIRECTION('',(0.,0.,-1.));
#1310=DIRECTION('',(1.,0.,0.));
#1311=DIRECTION('',(0.,0.,-1.));
#1312=DIRECTION('',(1.,0.,0.));
#1313=DIRECTION('',(0.,0.,-1.));
#1314=DIRECTION('',(1.,0.,0.));
#1315=DIRECTION('',(0.,0.,-1.));
#1316=DIRECTION('',(1.,0.,0.));
#1317=DIRECTION('',(0.,0.,-1.));
#1318=DIRECTION('',(1.,0.,0.));
#1319=DIRECTION('',(0.,0.,-1.));
#1320=DIRECTION('',(-1.,0.,0.));
#1321=DIRECTION('',(0.,0.,1.));
#1322=DIRECTION('',(-1.,0.,0.));
#1323=DIRECTION('',(0.,0.,1.));
#1324=DIRECTION('',(-1.,0.,0.));
#1325=DIRECTION('',(0.,0.,1.));
#1326=DIRECTION('',(-1.,0.,0.));
#1327=DIRECTION('',(0.,0.,1.));
#1328=DIRECTION('',(-1.,0.,0.));
#1329=DIRECTION('',(0.,0.,1.));
#1330=DIRECTION('',(-1.,0.,0.));
#1331=DIRECTION('',(0.,0.,1.));
#1332=DIRECTION('',(0.,0.,1.));
#1333=DIRECTION('',(1.,0.,0.));
#1334=DIRECTION('',(0.,0.,1.));
#1335=DIRECTION('',(1.,0.,0.));
#1336=DIRECTION('',(1.,0.,0.));
#1337=DIRECTION('',(0.,1.,0.));
#1338=DIRECTION('',(1.,0.,0.));
#1339=DIRECTION('',(0.,0.,-1.));
#1340=DIRECTION('',(1.,0.,0.));
#1341=DIRECTION('',(0.,0.,-1.));
#1342=DIRECTION('',(1.,0.,0.));
#1343=DIRECTION('',(0.,1.,0.));
#1344=DIRECTION('',(1.,0.,0.));
#1345=DIRECTION('',(0.,0.,-1.));
#1346=DIRECTION('',(1.,0.,0.));
#1347=DIRECTION('',(0.,0.,-1.));
#1348=DIRECTION('',(1.,0.,0.));
#1349=DIRECTION('',(0.,0.,-1.));
#1350=DIRECTION('',(1.,0.,0.));
#1351=DIRECTION('',(0.,0.,-1.));
#1352=DIRECTION('',(-1.,0.,0.));
#1353=DIRECTION('',(0.,0.,1.));
#1354=DIRECTION('',(0.,-0.866025403784438,0.5));
#1355=DIRECTION('',(0.,-0.5,-0.866025403784438));
#1356=DIRECTION('',(-1.,0.,0.));
#1357=DIRECTION('',(-1.,0.,0.));
#1358=DIRECTION('',(0.,0.,1.));
#1359=DIRECTION('',(1.,0.,0.));
#1360=DIRECTION('',(-1.,0.,0.));
#1361=DIRECTION('',(0.,0.866025403784439,0.5));
#1362=DIRECTION('',(0.,-0.5,0.866025403784439));
#1363=DIRECTION('',(-1.,0.,0.));
#1364=DIRECTION('',(0.,0.866025403784438,-0.5));
#1365=DIRECTION('',(0.,0.5,0.866025403784439));
#1366=DIRECTION('',(-1.,0.,0.));
#1367=DIRECTION('',(0.,0.,-1.));
#1368=DIRECTION('',(-1.,0.,0.));
#1369=DIRECTION('',(-1.,0.,0.));
#1370=DIRECTION('',(0.,-0.866025403784438,-0.5));
#1371=DIRECTION('',(0.,0.5,-0.866025403784439));
#1372=DIRECTION('',(0.,0.,1.));
#1373=DIRECTION('',(1.,0.,0.));
#1374=DIRECTION('',(0.,0.,-1.));
#1375=DIRECTION('',(1.,0.,0.));
#1376=DIRECTION('',(-1.,0.,0.));
#1377=DIRECTION('',(0.,-1.,0.));
#1378=DIRECTION('',(-1.,0.,0.));
#1379=DIRECTION('',(0.,-1.,0.));
#1380=DIRECTION('',(0.,0.,-1.));
#1381=DIRECTION('',(1.,0.,0.));
#1382=DIRECTION('',(-1.,0.,0.));
#1383=DIRECTION('',(0.,-1.,0.));
#1384=DIRECTION('',(-1.,0.,0.));
#1385=DIRECTION('',(0.,-1.,0.));
#1386=DIRECTION('',(0.,-1.,0.));
#1387=DIRECTION('',(0.,0.,-1.));
#1388=DIRECTION('',(0.,1.,0.));
#1389=DIRECTION('',(0.,0.,-1.));
#1390=DIRECTION('',(0.,1.,0.));
#1391=DIRECTION('',(0.,0.,-1.));
#1392=DIRECTION('',(-1.,0.,0.));
#1393=DIRECTION('',(0.,0.,-1.));
#1394=DIRECTION('',(-1.,0.,0.));
#1395=DIRECTION('',(0.,-1.,0.));
#1396=DIRECTION('',(0.,0.,-1.));
#1397=DIRECTION('',(0.,1.,0.));
#1398=DIRECTION('',(0.,0.,-1.));
#1399=DIRECTION('',(0.,1.,0.));
#1400=DIRECTION('',(0.,0.,-1.));
#1401=DIRECTION('',(-1.,0.,0.));
#1402=DIRECTION('',(0.,0.,-1.));
#1403=DIRECTION('',(-1.,0.,0.));
#1404=DIRECTION('',(0.,-1.,0.));
#1405=DIRECTION('',(0.,0.,-1.));
#1406=DIRECTION('',(1.,0.,0.));
#1407=DIRECTION('',(0.,-1.,0.));
#1408=DIRECTION('',(1.,0.,0.));
#1409=DIRECTION('',(0.,0.,1.));
#1410=DIRECTION('',(1.,0.,0.));
#1411=DIRECTION('',(0.,0.,1.));
#1412=DIRECTION('',(1.,0.,0.));
#1413=DIRECTION('',(0.,0.,-1.));
#1414=DIRECTION('',(-1.,0.,0.));
#1415=DIRECTION('',(0.,0.,1.));
#1416=DIRECTION('',(1.,0.,0.));
#1417=DIRECTION('',(0.,0.,1.));
#1418=DIRECTION('',(-1.,0.,0.));
#1419=DIRECTION('',(0.,0.,1.));
#1420=DIRECTION('',(-1.,0.,0.));
#1421=DIRECTION('',(0.,0.,1.));
#1422=DIRECTION('',(1.,0.,0.));
#1423=DIRECTION('',(0.,-1.,0.));
#1424=DIRECTION('',(-1.,0.,0.));
#1425=DIRECTION('',(0.,0.,1.));
#1426=DIRECTION('',(1.,0.,0.));
#1427=DIRECTION('',(0.,0.,1.));
#1428=DIRECTION('',(-1.,0.,0.));
#1429=DIRECTION('',(0.,0.,-1.));
#1430=DIRECTION('',(1.,0.,0.));
#1431=DIRECTION('',(0.,0.,1.));
#1432=DIRECTION('',(-1.,0.,0.));
#1433=DIRECTION('',(0.,0.,-1.));
#1434=DIRECTION('',(-1.,0.,0.));
#1435=DIRECTION('',(0.,0.,1.));
#1436=DIRECTION('',(-1.,0.,0.));
#1437=DIRECTION('',(0.,0.,1.));
#1438=DIRECTION('',(1.,0.,0.));
#1439=DIRECTION('',(0.,-1.,0.));
#1440=DIRECTION('',(1.,0.,0.));
#1441=DIRECTION('',(0.,-1.,0.));
#1442=DIRECTION('',(-1.,0.,0.));
#1443=DIRECTION('',(0.,0.,1.));
#1444=DIRECTION('',(0.,-1.,0.));
#1445=DIRECTION('',(0.,0.,-1.));
#1446=DIRECTION('',(-1.,0.,0.));
#1447=DIRECTION('',(0.,0.,-1.));
#1448=DIRECTION('',(1.,0.,0.));
#1449=DIRECTION('',(0.,0.,1.));
#1450=DIRECTION('',(0.,0.,1.));
#1451=DIRECTION('',(1.,0.,0.));
#1452=DIRECTION('',(0.,0.,-1.));
#1453=DIRECTION('',(-1.,0.,0.));
#1454=DIRECTION('',(1.,0.,0.));
#1455=DIRECTION('',(0.,-1.,0.));
#1456=DIRECTION('',(1.,0.,0.));
#1457=DIRECTION('',(0.,-1.,0.));
#1458=DIRECTION('',(0.,0.,-1.));
#1459=DIRECTION('',(-1.,0.,0.));
#1460=DIRECTION('',(1.,0.,0.));
#1461=DIRECTION('',(0.,-1.,0.));
#1462=DIRECTION('',(1.,0.,0.));
#1463=DIRECTION('',(0.,-1.,0.));
#1464=DIRECTION('',(0.,-1.,0.));
#1465=DIRECTION('',(0.,0.,-1.));
#1466=DIRECTION('',(0.,-1.,0.));
#1467=DIRECTION('',(0.,0.,-1.));
#1468=DIRECTION('',(0.,-1.,0.));
#1469=DIRECTION('',(0.,0.,-1.));
#1470=DIRECTION('',(1.,0.,0.));
#1471=DIRECTION('',(0.,0.,-1.));
#1472=DIRECTION('',(1.,0.,0.));
#1473=DIRECTION('',(0.,-1.,0.));
#1474=DIRECTION('',(0.,0.,-1.));
#1475=DIRECTION('',(0.,-1.,0.));
#1476=DIRECTION('',(0.,0.,-1.));
#1477=DIRECTION('',(0.,-1.,0.));
#1478=DIRECTION('',(0.,0.,-1.));
#1479=DIRECTION('',(1.,0.,0.));
#1480=DIRECTION('',(0.,0.,-1.));
#1481=DIRECTION('',(1.,0.,0.));
#1482=DIRECTION('',(0.,-1.,0.));
#1483=DIRECTION('',(0.,0.,-1.));
#1484=DIRECTION('',(-1.,0.,0.));
#1485=DIRECTION('',(0.,-1.,0.));
#1486=DIRECTION('',(1.,0.,0.));
#1487=DIRECTION('',(0.,0.,1.));
#1488=DIRECTION('',(-1.,0.,0.));
#1489=DIRECTION('',(0.,0.,1.));
#1490=DIRECTION('',(1.,0.,0.));
#1491=DIRECTION('',(0.,0.,-1.));
#1492=DIRECTION('',(-1.,0.,0.));
#1493=DIRECTION('',(0.,0.,1.));
#1494=DIRECTION('',(-1.,0.,0.));
#1495=DIRECTION('',(0.,0.,1.));
#1496=DIRECTION('',(-1.,0.,0.));
#1497=DIRECTION('',(0.,0.,1.));
#1498=DIRECTION('',(-1.,0.,0.));
#1499=DIRECTION('',(0.,0.,1.));
#1500=DIRECTION('',(-1.,0.,0.));
#1501=DIRECTION('',(0.,-1.,0.));
#1502=DIRECTION('',(-1.,0.,0.));
#1503=DIRECTION('',(0.,0.,1.));
#1504=DIRECTION('',(-1.,0.,0.));
#1505=DIRECTION('',(0.,0.,1.));
#1506=DIRECTION('',(1.,0.,0.));
#1507=DIRECTION('',(0.,0.,-1.));
#1508=DIRECTION('',(1.,0.,0.));
#1509=DIRECTION('',(0.,0.,1.));
#1510=DIRECTION('',(1.,0.,0.));
#1511=DIRECTION('',(0.,0.,-1.));
#1512=DIRECTION('',(-1.,0.,0.));
#1513=DIRECTION('',(0.,0.,1.));
#1514=DIRECTION('',(-1.,0.,0.));
#1515=DIRECTION('',(0.,0.,1.));
#1516=DIRECTION('',(-1.,0.,0.));
#1517=DIRECTION('',(0.,-1.,0.));
#1518=DIRECTION('',(-1.,0.,0.));
#1519=DIRECTION('',(0.,-1.,0.));
#1520=DIRECTION('',(-1.,0.,0.));
#1521=DIRECTION('',(0.,0.,1.));
#1522=DIRECTION('',(0.,-1.,0.));
#1523=DIRECTION('',(0.,0.,-1.));
#1524=DIRECTION('',(1.,0.,0.));
#1525=DIRECTION('',(0.,0.,-1.));
#1526=DIRECTION('',(-1.,0.,0.));
#1527=DIRECTION('',(0.,0.,1.));
#1528=DIRECTION('',(0.,0.,1.));
#1529=DIRECTION('',(1.,0.,0.));
#1530=CARTESIAN_POINT('',(0.,0.,0.));
#1531=CARTESIAN_POINT('',(-1.5,0.,0.));
#1532=CARTESIAN_POINT('',(-1.5,0.,0.));
#1533=CARTESIAN_POINT('',(-1.5,0.,0.25));
#1534=CARTESIAN_POINT('',(-1.5,-2.60208521396521E-16,0.6));
#1535=CARTESIAN_POINT('',(-1.5,-0.0866025403784355,0.6));
#1536=CARTESIAN_POINT('',(-1.5,0.0866025403784355,0.6));
#1537=CARTESIAN_POINT('',(-1.5,0.,0.));
#1538=CARTESIAN_POINT('',(-1.5,-0.476313972081446,0.374999999999993));
#1539=CARTESIAN_POINT('',(-1.5,-0.519615242270663,0.3));
#1540=CARTESIAN_POINT('',(-1.5,-0.562916512459881,0.225000000000008));
#1541=CARTESIAN_POINT('',(-1.5,0.,0.));
#1542=CARTESIAN_POINT('',(-1.5,-0.562916512459881,-0.225000000000008));
#1543=CARTESIAN_POINT('',(-1.5,-0.519615242270663,-0.3));
#1544=CARTESIAN_POINT('',(-1.5,-0.476313972081446,-0.374999999999993));
#1545=CARTESIAN_POINT('',(-1.5,0.,0.));
#1546=CARTESIAN_POINT('',(-1.5,-0.0866025403784354,-0.6));
#1547=CARTESIAN_POINT('',(-1.5,3.46944695195362E-16,-0.6));
#1548=CARTESIAN_POINT('',(-1.5,0.0866025403784357,-0.6));
#1549=CARTESIAN_POINT('',(-1.5,0.,0.));
#1550=CARTESIAN_POINT('',(-1.5,0.476313972081447,-0.374999999999992));
#1551=CARTESIAN_POINT('',(-1.5,0.519615242270664,-0.3));
#1552=CARTESIAN_POINT('',(-1.5,0.562916512459881,-0.225000000000008));
#1553=CARTESIAN_POINT('',(-1.5,0.,0.));
#1554=CARTESIAN_POINT('',(-1.5,0.56291651245988,0.22500000000001));
#1555=CARTESIAN_POINT('',(-1.5,0.519615242270663,0.3));
#1556=CARTESIAN_POINT('',(-1.5,0.476313972081447,0.374999999999992));
#1557=CARTESIAN_POINT('',(-1.5,0.,0.));
#1558=CARTESIAN_POINT('',(-2.,-0.519615242270663,0.3));
#1559=CARTESIAN_POINT('',(-2.,-0.692820323027551,-1.7347234759768E-16));
#1560=CARTESIAN_POINT('',(-1.95,-0.692820323027551,-2.71637840629274E-16));
#1561=CARTESIAN_POINT('',(-1.55,-0.692820323027551,-2.28306338458163E-16));
#1562=CARTESIAN_POINT('',(-1.55,-0.692820323027551,-3.01404624057142E-16));
#1563=CARTESIAN_POINT('',(-1.52533191485437,-0.650093946229888,0.0740042554368834));
#1564=CARTESIAN_POINT('',(-1.50725441119904,-0.606894043174941,0.148828682410102));
#1565=CARTESIAN_POINT('',(-1.5,-0.562916512459881,0.225000000000008));
#1566=CARTESIAN_POINT('',(-1.5,-0.476313972081445,0.374999999999993));
#1567=CARTESIAN_POINT('',(-1.50727121954925,-0.43223454615839,0.451347805267193));
#1568=CARTESIAN_POINT('',(-1.52538029575409,-0.389052740135016,0.526140887262261));
#1569=CARTESIAN_POINT('',(-1.55,-0.346410161513775,0.6));
#1570=CARTESIAN_POINT('',(-1.55,-0.346410161513775,0.6));
#1571=CARTESIAN_POINT('',(-2.,-0.346410161513775,0.6));
#1572=CARTESIAN_POINT('',(-1.95,-0.346410161513775,0.6));
#1573=CARTESIAN_POINT('',(-2.,-0.476313972081441,0.375));
#1574=CARTESIAN_POINT('',(-1.99272878045075,-0.432234546158388,0.451347805267197));
#1575=CARTESIAN_POINT('',(-1.97461970424591,-0.389052740135014,0.526140887262264));
#1576=CARTESIAN_POINT('',(-1.95,-0.346410161513775,0.6));
#1577=CARTESIAN_POINT('',(-2.,-0.476313972081442,0.375));
#1578=CARTESIAN_POINT('',(-2.,-0.519615242270663,0.3));
#1579=CARTESIAN_POINT('',(-2.,-0.562916512459885,0.225));
#1580=CARTESIAN_POINT('',(-1.95,-0.692820323027551,-3.57175712321248E-16));
#1581=CARTESIAN_POINT('',(-1.97466808514563,-0.65009394622989,0.0740042554368808));
#1582=CARTESIAN_POINT('',(-1.99274558880096,-0.606894043174944,0.148828682410097));
#1583=CARTESIAN_POINT('',(-2.,-0.562916512459885,0.225));
#1584=CARTESIAN_POINT('',(-2.,-2.60208521396521E-16,0.6));
#1585=CARTESIAN_POINT('',(-1.55,-0.346410161513775,0.6));
#1586=CARTESIAN_POINT('',(-1.52533189703431,-0.260957346187929,0.6));
#1587=CARTESIAN_POINT('',(-1.50725440503448,-0.174557527067237,0.6));
#1588=CARTESIAN_POINT('',(-1.5,-0.0866025403784356,0.6));
#1589=CARTESIAN_POINT('',(-1.5,0.0866025403784359,0.6));
#1590=CARTESIAN_POINT('',(-1.50727121922783,0.174761388327469,0.6));
#1591=CARTESIAN_POINT('',(-1.52538029483285,0.261125001080035,0.6));
#1592=CARTESIAN_POINT('',(-1.55,0.346410161513776,0.6));
#1593=CARTESIAN_POINT('',(-1.55,0.346410161513775,0.6));
#1594=CARTESIAN_POINT('',(-2.,0.346410161513775,0.6));
#1595=CARTESIAN_POINT('',(-1.95,0.346410161513775,0.6));
#1596=CARTESIAN_POINT('',(-2.,0.0866025403784434,0.6));
#1597=CARTESIAN_POINT('',(-1.99272878077217,0.174761388327474,0.6));
#1598=CARTESIAN_POINT('',(-1.97461970516715,0.261125001080038,0.6));
#1599=CARTESIAN_POINT('',(-1.95,0.346410161513775,0.6));
#1600=CARTESIAN_POINT('',(-2.,0.086602540378443,0.6));
#1601=CARTESIAN_POINT('',(-2.,-2.60208521396521E-16,0.6));
#1602=CARTESIAN_POINT('',(-2.,-0.086602540378443,0.6));
#1603=CARTESIAN_POINT('',(-1.95,-0.346410161513775,0.6));
#1604=CARTESIAN_POINT('',(-1.97466810296569,-0.260957346187932,0.6));
#1605=CARTESIAN_POINT('',(-1.99274559496552,-0.174557527067242,0.6));
#1606=CARTESIAN_POINT('',(-2.,-0.0866025403784429,0.6));
#1607=CARTESIAN_POINT('',(-2.,0.519615242270663,0.3));
#1608=CARTESIAN_POINT('',(-1.55,0.346410161513775,0.6));
#1609=CARTESIAN_POINT('',(-1.52533191485437,0.389136538311438,0.525995744563116));
#1610=CARTESIAN_POINT('',(-1.50725441119904,0.432336441366386,0.451171317589897));
#1611=CARTESIAN_POINT('',(-1.5,0.476313972081446,0.374999999999991));
#1612=CARTESIAN_POINT('',(-1.5,0.56291651245988,0.225000000000009));
#1613=CARTESIAN_POINT('',(-1.50727121954925,0.606995938382935,0.148652194732809));
#1614=CARTESIAN_POINT('',(-1.52538029575409,0.65017774440631,0.0738591127377397));
#1615=CARTESIAN_POINT('',(-1.55,0.69282032302755,5.35100457199316E-16));
#1616=CARTESIAN_POINT('',(-1.55,0.692820323027551,5.78204358519009E-16));
#1617=CARTESIAN_POINT('',(-2.,0.692820323027552,5.63785129692462E-16));
#1618=CARTESIAN_POINT('',(-1.95,0.692820323027552,6.13828379392797E-16));
#1619=CARTESIAN_POINT('',(-2.,0.562916512459883,0.225000000000003));
#1620=CARTESIAN_POINT('',(-1.99272878045075,0.606995938382938,0.148652194732804));
#1621=CARTESIAN_POINT('',(-1.97461970424591,0.650177744406311,0.0738591127377372));
#1622=CARTESIAN_POINT('',(-1.95,0.692820323027551,-5.24981380302217E-17));
#1623=CARTESIAN_POINT('',(-2.,0.562916512459884,0.225000000000004));
#1624=CARTESIAN_POINT('',(-2.,0.519615242270663,0.3));
#1625=CARTESIAN_POINT('',(-2.,0.476313972081443,0.375));
#1626=CARTESIAN_POINT('',(-1.95,0.346410161513775,0.6));
#1627=CARTESIAN_POINT('',(-1.97466808514563,0.389136538311437,0.525995744563119));
#1628=CARTESIAN_POINT('',(-1.99274558880096,0.432336441366383,0.451171317589902));
#1629=CARTESIAN_POINT('',(-2.,0.476313972081442,0.374999999999999));
#1630=CARTESIAN_POINT('',(-2.,0.519615242270664,-0.3));
#1631=CARTESIAN_POINT('',(-1.55,0.692820323027552,4.84334441115585E-17));
#1632=CARTESIAN_POINT('',(-1.52533191485437,0.650093946229889,-0.0740042554368838));
#1633=CARTESIAN_POINT('',(-1.50725441119904,0.606894043174941,-0.148828682410103));
#1634=CARTESIAN_POINT('',(-1.5,0.562916512459881,-0.225000000000008));
#1635=CARTESIAN_POINT('',(-1.5,0.476313972081447,-0.374999999999992));
#1636=CARTESIAN_POINT('',(-1.50727121954925,0.432234546158392,-0.451347805267192));
#1637=CARTESIAN_POINT('',(-1.52538029575409,0.389052740135017,-0.526140887262261));
#1638=CARTESIAN_POINT('',(-1.55,0.346410161513776,-0.6));
#1639=CARTESIAN_POINT('',(-1.55,0.346410161513776,-0.6));
#1640=CARTESIAN_POINT('',(-2.,0.346410161513776,-0.6));
#1641=CARTESIAN_POINT('',(-1.95,0.346410161513776,-0.6));
#1642=CARTESIAN_POINT('',(-2.,0.476313972081442,-0.375));
#1643=CARTESIAN_POINT('',(-1.99272878045074,0.432234546158389,-0.451347805267197));
#1644=CARTESIAN_POINT('',(-1.97461970424591,0.389052740135015,-0.526140887262264));
#1645=CARTESIAN_POINT('',(-1.95,0.346410161513776,-0.6));
#1646=CARTESIAN_POINT('',(-2.,0.476313972081443,-0.375));
#1647=CARTESIAN_POINT('',(-2.,0.519615242270664,-0.3));
#1648=CARTESIAN_POINT('',(-2.,0.562916512459884,-0.225));
#1649=CARTESIAN_POINT('',(-1.95,0.692820323027552,5.11885823233752E-16));
#1650=CARTESIAN_POINT('',(-1.97466808514563,0.65009394622989,-0.074004255436881));
#1651=CARTESIAN_POINT('',(-1.99274558880096,0.606894043174944,-0.148828682410098));
#1652=CARTESIAN_POINT('',(-2.,0.562916512459885,-0.225000000000001));
#1653=CARTESIAN_POINT('',(-2.,3.46944695195362E-16,-0.6));
#1654=CARTESIAN_POINT('',(-1.55,0.346410161513776,-0.6));
#1655=CARTESIAN_POINT('',(-1.52533189703431,0.26095734618793,-0.6));
#1656=CARTESIAN_POINT('',(-1.50725440503448,0.174557527067237,-0.6));
#1657=CARTESIAN_POINT('',(-1.5,0.0866025403784357,-0.6));
#1658=CARTESIAN_POINT('',(-1.5,-0.0866025403784358,-0.6));
#1659=CARTESIAN_POINT('',(-1.50727121922783,-0.174761388327469,-0.6));
#1660=CARTESIAN_POINT('',(-1.52538029483285,-0.261125001080035,-0.6));
#1661=CARTESIAN_POINT('',(-1.55,-0.346410161513775,-0.6));
#1662=CARTESIAN_POINT('',(-1.55,-0.346410161513775,-0.6));
#1663=CARTESIAN_POINT('',(-2.,-0.346410161513775,-0.6));
#1664=CARTESIAN_POINT('',(-1.95,-0.346410161513775,-0.6));
#1665=CARTESIAN_POINT('',(-2.,-0.0866025403784431,-0.6));
#1666=CARTESIAN_POINT('',(-1.99272878077217,-0.174761388327473,-0.6));
#1667=CARTESIAN_POINT('',(-1.97461970516715,-0.261125001080037,-0.6));
#1668=CARTESIAN_POINT('',(-1.95,-0.346410161513775,-0.6));
#1669=CARTESIAN_POINT('',(-2.,-0.0866025403784428,-0.6));
#1670=CARTESIAN_POINT('',(-2.,3.46944695195362E-16,-0.6));
#1671=CARTESIAN_POINT('',(-2.,0.0866025403784431,-0.6));
#1672=CARTESIAN_POINT('',(-1.95,0.346410161513776,-0.6));
#1673=CARTESIAN_POINT('',(-1.97466810296569,0.260957346187932,-0.6));
#1674=CARTESIAN_POINT('',(-1.99274559496552,0.174557527067242,-0.6));
#1675=CARTESIAN_POINT('',(-2.,0.0866025403784431,-0.6));
#1676=CARTESIAN_POINT('',(-2.,-0.519615242270663,-0.3));
#1677=CARTESIAN_POINT('',(-1.55,-0.346410161513775,-0.6));
#1678=CARTESIAN_POINT('',(-1.52533191485437,-0.389136538311438,-0.525995744563117));
#1679=CARTESIAN_POINT('',(-1.50725441119904,-0.432336441366385,-0.451171317589898));
#1680=CARTESIAN_POINT('',(-1.5,-0.476313972081445,-0.374999999999993));
#1681=CARTESIAN_POINT('',(-1.5,-0.562916512459881,-0.225000000000007));
#1682=CARTESIAN_POINT('',(-1.50727121954925,-0.606995938382936,-0.148652194732807));
#1683=CARTESIAN_POINT('',(-1.52538029575409,-0.65017774440631,-0.0738591127377392));
#1684=CARTESIAN_POINT('',(-1.55,-0.692820323027551,-4.7567300367412E-16));
#1685=CARTESIAN_POINT('',(-2.,-0.562916512459885,-0.225));
#1686=CARTESIAN_POINT('',(-1.99272878045075,-0.606995938382939,-0.148652194732803));
#1687=CARTESIAN_POINT('',(-1.97461970424591,-0.650177744406312,-0.0738591127377362));
#1688=CARTESIAN_POINT('',(-1.95,-0.692820323027551,1.36947590670416E-16));
#1689=CARTESIAN_POINT('',(-2.,-0.562916512459884,-0.225));
#1690=CARTESIAN_POINT('',(-2.,-0.519615242270663,-0.3));
#1691=CARTESIAN_POINT('',(-2.,-0.476313972081442,-0.375));
#1692=CARTESIAN_POINT('',(-1.95,-0.346410161513775,-0.6));
#1693=CARTESIAN_POINT('',(-1.97466808514563,-0.389136538311436,-0.525995744563119));
#1694=CARTESIAN_POINT('',(-1.99274558880096,-0.432336441366382,-0.451171317589902));
#1695=CARTESIAN_POINT('',(-2.,-0.476313972081441,-0.374999999999999));
#1696=CARTESIAN_POINT('',(-2.,0.,0.));
#1697=CARTESIAN_POINT('',(-2.,0.,0.));
#1698=CARTESIAN_POINT('',(-2.,0.,0.25));
#1699=CARTESIAN_POINT('',(-2.,0.,0.));
#1700=CARTESIAN_POINT('',(-2.,0.,0.));
#1701=CARTESIAN_POINT('',(-2.,0.,0.));
#1702=CARTESIAN_POINT('',(-2.,0.,0.));
#1703=CARTESIAN_POINT('',(-2.,0.,0.));
#1704=CARTESIAN_POINT('',(-2.,0.,0.));
#1705=CARTESIAN_POINT('',(-1.5,0.,0.));
#1706=CARTESIAN_POINT('',(-2.05,0.,0.));
#1707=CARTESIAN_POINT('',(-2.05,0.,0.));
#1708=CARTESIAN_POINT('',(-2.05,0.,0.));
#1709=CARTESIAN_POINT('',(-2.05,0.,0.));
#1710=CARTESIAN_POINT('',(-2.05,0.,0.));
#1711=CARTESIAN_POINT('',(-2.05,0.,0.));
#1712=CARTESIAN_POINT('',(-1.45,0.,0.));
#1713=CARTESIAN_POINT('',(-1.45,0.,0.));
#1714=CARTESIAN_POINT('',(-1.45,0.,0.));
#1715=CARTESIAN_POINT('',(-1.45,0.,0.));
#1716=CARTESIAN_POINT('',(-1.45,0.,0.));
#1717=CARTESIAN_POINT('',(-1.45,0.,0.));
#1718=CARTESIAN_POINT('',(3.5,0.,1.7347234759768E-16));
#1719=CARTESIAN_POINT('',(0.,0.,0.));
#1720=CARTESIAN_POINT('',(1.5,0.,0.));
#1721=CARTESIAN_POINT('',(1.5,1.37965518694158E-16,-5.30636610362145E-18));
#1722=CARTESIAN_POINT('',(1.5,1.37965518694158E-16,-0.25));
#1723=CARTESIAN_POINT('',(1.5,0.,1.3010426069826E-16));
#1724=CARTESIAN_POINT('',(1.5,0.,-0.56));
#1725=CARTESIAN_POINT('',(-1.5,0.,0.));
#1726=CARTESIAN_POINT('',(-1.5,1.37965518694158E-16,-5.30636610362145E-18));
#1727=CARTESIAN_POINT('',(-1.5,1.37965518694158E-16,-0.25));
#1728=CARTESIAN_POINT('',(-1.5,0.,1.3010426069826E-16));
#1729=CARTESIAN_POINT('',(-1.5,0.,-0.56));
#1730=CARTESIAN_POINT('',(-1.5,1.37965518694158E-16,-5.30636610362145E-18));
#1731=CARTESIAN_POINT('',(-1.66,0.,1.3010426069826E-16));
#1732=CARTESIAN_POINT('',(-1.36717967697245,0.346410161513775,0.6));
#1733=CARTESIAN_POINT('',(-1.39424555709376,0.373476041635087,0.553120520478319));
#1734=CARTESIAN_POINT('',(-1.44036352383255,0.428468493304619,0.457870800153914));
#1735=CARTESIAN_POINT('',(-1.46955010342231,0.51905890888586,0.300963597688426));
#1736=CARTESIAN_POINT('',(-1.44142793017921,0.609161340623797,0.144901608032813));
#1737=CARTESIAN_POINT('',(-1.3944049520193,0.665595047980717,0.0471555596311527));
#1738=CARTESIAN_POINT('',(-1.36717967697246,0.692820323027553,-3.70533576363513E-15));
#1739=CARTESIAN_POINT('',(-1.36717967697245,0.346410161513775,0.6));
#1740=CARTESIAN_POINT('',(-1.36717967697245,0.692820323027551,1.7347234759768E-16));
#1741=CARTESIAN_POINT('',(-1.36717967697245,0.692820323027551,-6.54486455085693E-17));
#1742=CARTESIAN_POINT('',(-1.39424555709376,0.665754442906239,-0.0468794795216805));
#1743=CARTESIAN_POINT('',(-1.44036352383255,0.610761991236707,-0.142129199846086));
#1744=CARTESIAN_POINT('',(-1.46955010342231,0.520171575655467,-0.299036402311574));
#1745=CARTESIAN_POINT('',(-1.44142793017921,0.430069143917529,-0.455098391967187));
#1746=CARTESIAN_POINT('',(-1.3944049520193,0.373635436560609,-0.552844440368847));
#1747=CARTESIAN_POINT('',(-1.36717967697246,0.346410161513773,-0.600000000000004));
#1748=CARTESIAN_POINT('',(-1.36717967697245,0.346410161513775,-0.6));
#1749=CARTESIAN_POINT('',(-1.36717967697245,0.346410161513775,-0.6));
#1750=CARTESIAN_POINT('',(-1.42089309975541,0.23898331594786,-0.6));
#1751=CARTESIAN_POINT('',(-1.47917752187984,0.0608691709357722,-0.6));
#1752=CARTESIAN_POINT('',(-1.44107291522094,-0.180300885407108,-0.6));
#1753=CARTESIAN_POINT('',(-1.39407673309699,-0.29261604926473,-0.6));
#1754=CARTESIAN_POINT('',(-1.36717967697246,-0.346410161513781,-0.6));
#1755=CARTESIAN_POINT('',(-1.36717967697245,-0.346410161513775,-0.6));
#1756=CARTESIAN_POINT('',(-1.36717967697245,-0.346410161513776,-0.6));
#1757=CARTESIAN_POINT('',(-1.39424555709376,-0.373476041635087,-0.553120520478319));
#1758=CARTESIAN_POINT('',(-1.44036352383255,-0.428468493304619,-0.457870800153914));
#1759=CARTESIAN_POINT('',(-1.46955010342231,-0.51905890888586,-0.300963597688426));
#1760=CARTESIAN_POINT('',(-1.44142793017921,-0.609161340623797,-0.144901608032812));
#1761=CARTESIAN_POINT('',(-1.3944049520193,-0.665595047980717,-0.0471555596311524));
#1762=CARTESIAN_POINT('',(-1.36717967697246,-0.692820323027553,4.08107345790061E-15));
#1763=CARTESIAN_POINT('',(-1.36717967697245,-0.692820323027551,1.73774362810967E-16));
#1764=CARTESIAN_POINT('',(-1.36717967697245,-0.692820323027551,3.01214975215966E-16));
#1765=CARTESIAN_POINT('',(-1.39424555709376,-0.665754442906239,0.0468794795216808));
#1766=CARTESIAN_POINT('',(-1.44036352383255,-0.610761991236707,0.142129199846087));
#1767=CARTESIAN_POINT('',(-1.46955010342231,-0.520171575655466,0.299036402311574));
#1768=CARTESIAN_POINT('',(-1.44142793017921,-0.430069143917529,0.455098391967187));
#1769=CARTESIAN_POINT('',(-1.3944049520193,-0.373635436560609,0.552844440368847));
#1770=CARTESIAN_POINT('',(-1.36717967697246,-0.346410161513773,0.600000000000004));
#1771=CARTESIAN_POINT('',(-1.36717967697245,-0.346410161513775,0.6));
#1772=CARTESIAN_POINT('',(-1.36717967697245,-0.346410161513775,0.6));
#1773=CARTESIAN_POINT('',(-1.42089309975541,-0.23898331594786,0.6));
#1774=CARTESIAN_POINT('',(-1.47917752187984,-0.0608691709357722,0.6));
#1775=CARTESIAN_POINT('',(-1.44107291522094,0.180300885407108,0.6));
#1776=CARTESIAN_POINT('',(-1.39407673309699,0.29261604926473,0.6));
#1777=CARTESIAN_POINT('',(-1.36717967697246,0.346410161513781,0.6));
#1778=CARTESIAN_POINT('',(1.66,0.,1.3010426069826E-16));
#1779=CARTESIAN_POINT('',(1.36717967697245,-0.346410161513775,0.6));
#1780=CARTESIAN_POINT('',(1.42089309975541,-0.23898331594786,0.6));
#1781=CARTESIAN_POINT('',(1.47917752187984,-0.0608691709357722,0.6));
#1782=CARTESIAN_POINT('',(1.44107291522094,0.180300885407108,0.6));
#1783=CARTESIAN_POINT('',(1.39407673309699,0.29261604926473,0.6));
#1784=CARTESIAN_POINT('',(1.36717967697246,0.346410161513781,0.6));
#1785=CARTESIAN_POINT('',(1.36717967697245,-0.346410161513775,0.6));
#1786=CARTESIAN_POINT('',(1.36717967697245,0.346410161513775,0.6));
#1787=CARTESIAN_POINT('',(1.36717967697245,-0.692820323027551,3.01214975215966E-16));
#1788=CARTESIAN_POINT('',(1.39424555709376,-0.665754442906239,0.0468794795216808));
#1789=CARTESIAN_POINT('',(1.44036352383255,-0.610761991236707,0.142129199846087));
#1790=CARTESIAN_POINT('',(1.46955010342231,-0.520171575655466,0.299036402311574));
#1791=CARTESIAN_POINT('',(1.44142793017921,-0.430069143917529,0.455098391967187));
#1792=CARTESIAN_POINT('',(1.3944049520193,-0.373635436560609,0.552844440368847));
#1793=CARTESIAN_POINT('',(1.36717967697246,-0.346410161513773,0.600000000000004));
#1794=CARTESIAN_POINT('',(1.36717967697245,-0.692820323027551,1.73774362810967E-16));
#1795=CARTESIAN_POINT('',(1.36717967697245,-0.346410161513776,-0.6));
#1796=CARTESIAN_POINT('',(1.39424555709376,-0.373476041635087,-0.553120520478319));
#1797=CARTESIAN_POINT('',(1.44036352383255,-0.428468493304619,-0.457870800153914));
#1798=CARTESIAN_POINT('',(1.46955010342231,-0.51905890888586,-0.300963597688426));
#1799=CARTESIAN_POINT('',(1.44142793017921,-0.609161340623797,-0.144901608032812));
#1800=CARTESIAN_POINT('',(1.3944049520193,-0.665595047980717,-0.0471555596311524));
#1801=CARTESIAN_POINT('',(1.36717967697246,-0.692820323027553,4.08107345790061E-15));
#1802=CARTESIAN_POINT('',(1.36717967697245,-0.346410161513775,-0.6));
#1803=CARTESIAN_POINT('',(1.36717967697245,0.346410161513775,-0.6));
#1804=CARTESIAN_POINT('',(1.42089309975541,0.23898331594786,-0.6));
#1805=CARTESIAN_POINT('',(1.47917752187984,0.0608691709357722,-0.6));
#1806=CARTESIAN_POINT('',(1.44107291522094,-0.180300885407108,-0.6));
#1807=CARTESIAN_POINT('',(1.39407673309699,-0.29261604926473,-0.6));
#1808=CARTESIAN_POINT('',(1.36717967697246,-0.346410161513781,-0.6));
#1809=CARTESIAN_POINT('',(1.36717967697245,0.346410161513775,-0.6));
#1810=CARTESIAN_POINT('',(1.36717967697245,0.692820323027551,-3.77894357586569E-16));
#1811=CARTESIAN_POINT('',(1.39424555709376,0.665754442906239,-0.0468794795216808));
#1812=CARTESIAN_POINT('',(1.44036352383255,0.610761991236707,-0.142129199846086));
#1813=CARTESIAN_POINT('',(1.46955010342231,0.520171575655466,-0.299036402311574));
#1814=CARTESIAN_POINT('',(1.44142793017922,0.430069143917529,-0.455098391967188));
#1815=CARTESIAN_POINT('',(1.3944049520193,0.373635436560609,-0.552844440368847));
#1816=CARTESIAN_POINT('',(1.36717967697246,0.346410161513773,-0.600000000000004));
#1817=CARTESIAN_POINT('',(1.36717967697245,0.692820323027551,-2.43922786255716E-16));
#1818=CARTESIAN_POINT('',(1.36717967697245,0.346410161513775,0.6));
#1819=CARTESIAN_POINT('',(1.39424555709376,0.373476041635087,0.553120520478319));
#1820=CARTESIAN_POINT('',(1.44036352383255,0.428468493304619,0.457870800153914));
#1821=CARTESIAN_POINT('',(1.46955010342231,0.51905890888586,0.300963597688426));
#1822=CARTESIAN_POINT('',(1.44142793017921,0.609161340623797,0.144901608032813));
#1823=CARTESIAN_POINT('',(1.3944049520193,0.665595047980718,0.0471555596311523));
#1824=CARTESIAN_POINT('',(1.36717967697246,0.692820323027553,-4.09510467447716E-15));
#1825=CARTESIAN_POINT('',(1.5,0.519615242270663,-0.3));
#1826=CARTESIAN_POINT('',(1.5,0.692820323027551,1.7347234759768E-16));
#1827=CARTESIAN_POINT('',(1.5,0.346410161513775,-0.6));
#1828=CARTESIAN_POINT('',(1.5,-8.67361737988404E-17,-0.6));
#1829=CARTESIAN_POINT('',(1.5,-0.346410161513775,-0.6));
#1830=CARTESIAN_POINT('',(1.5,-0.519615242270663,-0.3));
#1831=CARTESIAN_POINT('',(1.5,-0.692820323027551,1.3010426069826E-16));
#1832=CARTESIAN_POINT('',(1.5,-0.519615242270663,0.3));
#1833=CARTESIAN_POINT('',(1.5,-0.346410161513775,0.6));
#1834=CARTESIAN_POINT('',(1.5,0.,0.6));
#1835=CARTESIAN_POINT('',(1.5,0.346410161513775,0.6));
#1836=CARTESIAN_POINT('',(1.5,0.519615242270663,0.3));
#1837=CARTESIAN_POINT('',(0.,0.,0.));
#1838=CARTESIAN_POINT('',(1.73,0.3677,0.44));
#1839=CARTESIAN_POINT('',(4.08,0.237486841740759,0.44));
#1840=CARTESIAN_POINT('',(1.88,0.237486841740759,0.44));
#1841=CARTESIAN_POINT('',(1.58,0.237486841740759,0.44));
#1842=CARTESIAN_POINT('',(1.58,0.3677,0.44));
#1843=CARTESIAN_POINT('',(1.58,-0.237486841740759,0.44));
#1844=CARTESIAN_POINT('',(4.08,-0.237486841740759,0.44));
#1845=CARTESIAN_POINT('',(1.88,-0.237486841740759,0.44));
#1846=CARTESIAN_POINT('',(1.88,0.3677,0.44));
#1847=CARTESIAN_POINT('',(1.73,0.3677,-0.44));
#1848=CARTESIAN_POINT('',(4.08,-0.237486841740759,-0.44));
#1849=CARTESIAN_POINT('',(1.88,-0.237486841740759,-0.44));
#1850=CARTESIAN_POINT('',(1.58,-0.237486841740759,-0.44));
#1851=CARTESIAN_POINT('',(1.58,0.3677,-0.44));
#1852=CARTESIAN_POINT('',(1.58,0.237486841740759,-0.44));
#1853=CARTESIAN_POINT('',(4.08,0.237486841740759,-0.44));
#1854=CARTESIAN_POINT('',(1.88,0.237486841740759,-0.44));
#1855=CARTESIAN_POINT('',(1.88,0.3677,-0.44));
#1856=CARTESIAN_POINT('',(1.58,0.3675,-4.33680868994202E-17));
#1857=CARTESIAN_POINT('',(1.88,0.3675,1.1327982892113E-17));
#1858=CARTESIAN_POINT('',(1.88,0.3675,-0.185));
#1859=CARTESIAN_POINT('',(1.88,0.3675,0.));
#1860=CARTESIAN_POINT('',(2.16045721598846,0.3675,-0.339033552911802));
#1861=CARTESIAN_POINT('',(2.16045721598846,0.3675,0.339033552911802));
#1862=CARTESIAN_POINT('',(1.58,0.3675,-0.339033552911802));
#1863=CARTESIAN_POINT('',(1.5,0.3675,-0.339033552911802));
#1864=CARTESIAN_POINT('',(1.5,0.3675,-4.33680868994202E-17));
#1865=CARTESIAN_POINT('',(1.5,0.3675,0.339033552911802));
#1866=CARTESIAN_POINT('',(1.58,0.3675,0.339033552911802));
#1867=CARTESIAN_POINT('',(1.58,-0.3675,-4.33680868994202E-17));
#1868=CARTESIAN_POINT('',(1.88,-0.3675,1.1327982892113E-17));
#1869=CARTESIAN_POINT('',(1.88,-0.3675,-0.185));
#1870=CARTESIAN_POINT('',(1.88,-0.3675,0.));
#1871=CARTESIAN_POINT('',(2.16045721598846,-0.3675,-0.339033552911803));
#1872=CARTESIAN_POINT('',(2.16045721598846,-0.3675,0.339033552911802));
#1873=CARTESIAN_POINT('',(1.58,-0.3675,0.339033552911802));
#1874=CARTESIAN_POINT('',(1.5,-0.3675,0.339033552911802));
#1875=CARTESIAN_POINT('',(1.5,-0.3675,-4.33680868994202E-17));
#1876=CARTESIAN_POINT('',(1.5,-0.3675,-0.339033552911802));
#1877=CARTESIAN_POINT('',(1.58,-0.3675,-0.339033552911802));
#1878=CARTESIAN_POINT('',(1.88,0.3677,0.));
#1879=CARTESIAN_POINT('',(2.16045721598846,-0.3675,0.339033552911802));
#1880=CARTESIAN_POINT('',(2.12322911121494,-0.339089413275345,0.369829592217171));
#1881=CARTESIAN_POINT('',(2.04225764011601,-0.280049902252734,0.417880369122487));
#1882=CARTESIAN_POINT('',(1.93646107495773,-0.23748684174076,0.44));
#1883=CARTESIAN_POINT('',(1.88,-0.23748684174076,0.44));
#1884=CARTESIAN_POINT('',(2.16045721598846,-0.3675,-0.339033552911802));
#1885=CARTESIAN_POINT('',(2.12322911121494,-0.339089413275345,-0.369829592217171));
#1886=CARTESIAN_POINT('',(2.04225764011601,-0.280049902252734,-0.417880369122487));
#1887=CARTESIAN_POINT('',(1.93646107495773,-0.23748684174076,-0.44));
#1888=CARTESIAN_POINT('',(1.88,-0.23748684174076,-0.44));
#1889=CARTESIAN_POINT('',(1.88,0.237486841740759,-0.44));
#1890=CARTESIAN_POINT('',(1.93653405486611,0.237486841740759,-0.44));
#1891=CARTESIAN_POINT('',(2.04131369632494,0.27955069990844,-0.41822689527272));
#1892=CARTESIAN_POINT('',(2.12324194781826,0.339099209514887,-0.369818973450973));
#1893=CARTESIAN_POINT('',(2.16045721598846,0.3675,-0.339033552911802));
#1894=CARTESIAN_POINT('',(1.88,0.237486841740759,0.44));
#1895=CARTESIAN_POINT('',(1.93653405486611,0.237486841740759,0.44));
#1896=CARTESIAN_POINT('',(2.04131369632494,0.27955069990844,0.41822689527272));
#1897=CARTESIAN_POINT('',(2.12324194781826,0.339099209514887,0.369818973450973));
#1898=CARTESIAN_POINT('',(2.16045721598846,0.3675,0.339033552911802));
#1899=CARTESIAN_POINT('',(1.58,0.,0.));
#1900=CARTESIAN_POINT('',(1.58,-4.33680868994202E-17,6.50521303491303E-17));
#1901=CARTESIAN_POINT('',(-0.3,0.,1.83697019872103E-17));
#1902=CARTESIAN_POINT('',(1.3018,0.,1.83697019872103E-17));
#1903=CARTESIAN_POINT('',(1.3018,0.,-0.3));
#1904=CARTESIAN_POINT('',(-0.173213880885959,0.,1.83697019872103E-17));
#1905=CARTESIAN_POINT('',(-0.173213880885959,0.,0.3));
#1906=CARTESIAN_POINT('',(-0.3,0.,1.83697019872103E-17));
#1907=CARTESIAN_POINT('',(1.44,0.,1.83697019872103E-17));
#1908=CARTESIAN_POINT('',(1.44,0.,0.2268));
#1909=CARTESIAN_POINT('',(1.375,0.,1.83697019872103E-17));
#1910=CARTESIAN_POINT('',(1.375,0.,0.2268));
#1911=CARTESIAN_POINT('',(-0.3,0.,1.7347234759768E-16));
#1912=CARTESIAN_POINT('',(-0.3,0.,1.83697019872103E-17));
#1913=CARTESIAN_POINT('',(-0.3,0.,0.2268));
#1914=CARTESIAN_POINT('',(-0.173213880885959,0.,1.83697019872103E-17));
#1915=CARTESIAN_POINT('',(1.58,-4.33680868994202E-17,6.50521303491303E-17));
#1916=CARTESIAN_POINT('',(1.5,-4.33680868994202E-17,6.50521303491303E-17));
#1917=CARTESIAN_POINT('',(1.58,-4.33680868994202E-17,-6.50521303491303E-17));
#1918=CARTESIAN_POINT('',(1.5,-4.33680868994202E-17,-6.50521303491303E-17));
#1919=CARTESIAN_POINT('',(1.58,-4.33680868994202E-17,-6.50521303491303E-17));
#1920=CARTESIAN_POINT('',(1.58,0.,0.));
#1921=CARTESIAN_POINT('',(1.5,0.,0.));
#1922=CARTESIAN_POINT('',(1.5,0.,1.83697019872103E-17));
#1923=CARTESIAN_POINT('',(1.5,0.,0.2868));
#1924=CARTESIAN_POINT('',(1.88,0.3677,1.1327982892113E-17));
#1925=CARTESIAN_POINT('',(1.3,0.,1.83697019872103E-17));
#1926=CARTESIAN_POINT('',(1.44,0.,1.83697019872103E-17));
#1927=CARTESIAN_POINT('',(1.25106399039285,1.37965518694158E-16,1.1173455871105E-16));
#1928=CARTESIAN_POINT('',(-1.73,0.3677,0.44));
#1929=CARTESIAN_POINT('',(-4.08,0.237486841740759,0.44));
#1930=CARTESIAN_POINT('',(-1.88,0.237486841740759,0.44));
#1931=CARTESIAN_POINT('',(-1.58,0.237486841740759,0.44));
#1932=CARTESIAN_POINT('',(-1.88,0.3677,0.44));
#1933=CARTESIAN_POINT('',(-1.88,-0.237486841740759,0.44));
#1934=CARTESIAN_POINT('',(-4.08,-0.237486841740759,0.44));
#1935=CARTESIAN_POINT('',(-1.58,-0.237486841740759,0.44));
#1936=CARTESIAN_POINT('',(-1.58,0.3677,0.44));
#1937=CARTESIAN_POINT('',(-1.73,0.3677,-0.44));
#1938=CARTESIAN_POINT('',(-4.08,-0.237486841740759,-0.44));
#1939=CARTESIAN_POINT('',(-1.88,-0.237486841740759,-0.44));
#1940=CARTESIAN_POINT('',(-1.58,-0.237486841740759,-0.44));
#1941=CARTESIAN_POINT('',(-1.88,0.3677,-0.44));
#1942=CARTESIAN_POINT('',(-1.88,0.237486841740759,-0.44));
#1943=CARTESIAN_POINT('',(-4.08,0.237486841740759,-0.44));
#1944=CARTESIAN_POINT('',(-1.58,0.237486841740759,-0.44));
#1945=CARTESIAN_POINT('',(-1.58,0.3677,-0.44));
#1946=CARTESIAN_POINT('',(-1.58,0.3675,-4.33680868994202E-17));
#1947=CARTESIAN_POINT('',(-1.88,0.3675,1.1327982892113E-17));
#1948=CARTESIAN_POINT('',(-1.88,0.3675,-0.185));
#1949=CARTESIAN_POINT('',(-1.88,0.3675,0.));
#1950=CARTESIAN_POINT('',(-2.16045721598846,0.3675,-0.339033552911802));
#1951=CARTESIAN_POINT('',(-2.16045721598846,0.3675,0.339033552911802));
#1952=CARTESIAN_POINT('',(-1.58,0.3675,0.339033552911802));
#1953=CARTESIAN_POINT('',(-1.5,0.3675,0.339033552911802));
#1954=CARTESIAN_POINT('',(-1.5,0.3675,-4.33680868994202E-17));
#1955=CARTESIAN_POINT('',(-1.5,0.3675,-0.339033552911802));
#1956=CARTESIAN_POINT('',(-1.58,0.3675,-0.339033552911802));
#1957=CARTESIAN_POINT('',(-1.58,-0.3675,-4.33680868994202E-17));
#1958=CARTESIAN_POINT('',(-1.88,-0.3675,1.1327982892113E-17));
#1959=CARTESIAN_POINT('',(-1.88,-0.3675,-0.185));
#1960=CARTESIAN_POINT('',(-1.88,-0.3675,0.));
#1961=CARTESIAN_POINT('',(-2.16045721598846,-0.3675,-0.339033552911803));
#1962=CARTESIAN_POINT('',(-2.16045721598846,-0.3675,0.339033552911802));
#1963=CARTESIAN_POINT('',(-1.58,-0.3675,-0.339033552911802));
#1964=CARTESIAN_POINT('',(-1.5,-0.3675,-0.339033552911802));
#1965=CARTESIAN_POINT('',(-1.5,-0.3675,-4.33680868994202E-17));
#1966=CARTESIAN_POINT('',(-1.5,-0.3675,0.339033552911802));
#1967=CARTESIAN_POINT('',(-1.58,-0.3675,0.339033552911802));
#1968=CARTESIAN_POINT('',(-1.88,0.3677,0.));
#1969=CARTESIAN_POINT('',(-1.88,0.237486841740759,0.44));
#1970=CARTESIAN_POINT('',(-1.93653405486611,0.237486841740759,0.44));
#1971=CARTESIAN_POINT('',(-2.04131369632494,0.27955069990844,0.41822689527272));
#1972=CARTESIAN_POINT('',(-2.12324194781826,0.339099209514887,0.369818973450973));
#1973=CARTESIAN_POINT('',(-2.16045721598846,0.3675,0.339033552911802));
#1974=CARTESIAN_POINT('',(-1.88,0.237486841740759,-0.44));
#1975=CARTESIAN_POINT('',(-1.93653405486611,0.237486841740759,-0.44));
#1976=CARTESIAN_POINT('',(-2.04131369632494,0.27955069990844,-0.41822689527272));
#1977=CARTESIAN_POINT('',(-2.12324194781826,0.339099209514887,-0.369818973450973));
#1978=CARTESIAN_POINT('',(-2.16045721598846,0.3675,-0.339033552911802));
#1979=CARTESIAN_POINT('',(-2.16045721598846,-0.3675,-0.339033552911802));
#1980=CARTESIAN_POINT('',(-2.12322911121494,-0.339089413275345,-0.369829592217171));
#1981=CARTESIAN_POINT('',(-2.04225764011601,-0.280049902252734,-0.417880369122487));
#1982=CARTESIAN_POINT('',(-1.93646107495773,-0.23748684174076,-0.44));
#1983=CARTESIAN_POINT('',(-1.88,-0.23748684174076,-0.44));
#1984=CARTESIAN_POINT('',(-2.16045721598846,-0.3675,0.339033552911802));
#1985=CARTESIAN_POINT('',(-2.12322911121494,-0.339089413275345,0.369829592217171));
#1986=CARTESIAN_POINT('',(-2.04225764011601,-0.280049902252734,0.417880369122487));
#1987=CARTESIAN_POINT('',(-1.93646107495773,-0.23748684174076,0.44));
#1988=CARTESIAN_POINT('',(-1.88,-0.23748684174076,0.44));
#1989=CARTESIAN_POINT('',(-1.58,0.,0.));
#1990=CARTESIAN_POINT('',(-1.58,-4.33680868994202E-17,6.50521303491303E-17));
#1991=CARTESIAN_POINT('',(0.3,0.,1.83697019872103E-17));
#1992=CARTESIAN_POINT('',(-1.3018,0.,1.83697019872103E-17));
#1993=CARTESIAN_POINT('',(-1.3018,0.,-0.3));
#1994=CARTESIAN_POINT('',(0.173213880885959,0.,1.83697019872103E-17));
#1995=CARTESIAN_POINT('',(0.173213880885959,0.,0.3));
#1996=CARTESIAN_POINT('',(0.3,0.,1.83697019872103E-17));
#1997=CARTESIAN_POINT('',(-1.44,0.,1.83697019872103E-17));
#1998=CARTESIAN_POINT('',(-1.44,0.,0.2268));
#1999=CARTESIAN_POINT('',(-1.375,0.,1.83697019872103E-17));
#2000=CARTESIAN_POINT('',(-1.375,0.,0.2268));
#2001=CARTESIAN_POINT('',(0.3,0.,1.7347234759768E-16));
#2002=CARTESIAN_POINT('',(0.3,0.,1.83697019872103E-17));
#2003=CARTESIAN_POINT('',(0.3,0.,0.2268));
#2004=CARTESIAN_POINT('',(0.173213880885959,0.,1.83697019872103E-17));
#2005=CARTESIAN_POINT('',(-1.58,-4.33680868994202E-17,6.50521303491303E-17));
#2006=CARTESIAN_POINT('',(-1.5,-4.33680868994202E-17,6.50521303491303E-17));
#2007=CARTESIAN_POINT('',(-1.58,-4.33680868994202E-17,-6.50521303491303E-17));
#2008=CARTESIAN_POINT('',(-1.5,-4.33680868994202E-17,-6.50521303491303E-17));
#2009=CARTESIAN_POINT('',(-1.58,-4.33680868994202E-17,-6.50521303491303E-17));
#2010=CARTESIAN_POINT('',(-1.58,0.,0.));
#2011=CARTESIAN_POINT('',(-1.5,0.,0.));
#2012=CARTESIAN_POINT('',(-1.5,0.,1.83697019872103E-17));
#2013=CARTESIAN_POINT('',(-1.5,0.,0.2868));
#2014=CARTESIAN_POINT('',(-1.88,0.3677,1.1327982892113E-17));
#2015=CARTESIAN_POINT('',(-1.3,0.,1.83697019872103E-17));
#2016=CARTESIAN_POINT('',(-1.44,0.,1.83697019872103E-17));
#2017=CARTESIAN_POINT('',(-1.25106399039285,1.37965518694158E-16,-2.36760680908317E-17));
#2018=MECHANICAL_DESIGN_GEOMETRIC_PRESENTATION_REPRESENTATION('',(#1080,
#1081,#1082,#1083),#2019);
#2019=(
GEOMETRIC_REPRESENTATION_CONTEXT(3)
GLOBAL_UNCERTAINTY_ASSIGNED_CONTEXT((#2024))
GLOBAL_UNIT_ASSIGNED_CONTEXT((#2031,#2030,#2029))
REPRESENTATION_CONTEXT('#35 Chain Tensioner','TOP_LEVEL_ASSEMBLY_PART')
);
#2020=(
GEOMETRIC_REPRESENTATION_CONTEXT(3)
GLOBAL_UNCERTAINTY_ASSIGNED_CONTEXT((#2025))
GLOBAL_UNIT_ASSIGNED_CONTEXT((#2031,#2030,#2029))
REPRESENTATION_CONTEXT('??','COMPONENT_PART')
);
#2021=(
GEOMETRIC_REPRESENTATION_CONTEXT(3)
GLOBAL_UNCERTAINTY_ASSIGNED_CONTEXT((#2026))
GLOBAL_UNIT_ASSIGNED_CONTEXT((#2031,#2030,#2029))
REPRESENTATION_CONTEXT('???','COMPONENT_PART')
);
#2022=(
GEOMETRIC_REPRESENTATION_CONTEXT(3)
GLOBAL_UNCERTAINTY_ASSIGNED_CONTEXT((#2027))
GLOBAL_UNIT_ASSIGNED_CONTEXT((#2031,#2030,#2029))
REPRESENTATION_CONTEXT('????R','COMPONENT_PART')
);
#2023=(
GEOMETRIC_REPRESENTATION_CONTEXT(3)
GLOBAL_UNCERTAINTY_ASSIGNED_CONTEXT((#2028))
GLOBAL_UNIT_ASSIGNED_CONTEXT((#2031,#2030,#2029))
REPRESENTATION_CONTEXT('????L','COMPONENT_PART')
);
#2024=UNCERTAINTY_MEASURE_WITH_UNIT(LENGTH_MEASURE(1.E-6),#2031,
'DISTANCE_ACCURACY_VALUE','Maximum Tolerance applied to model');
#2025=UNCERTAINTY_MEASURE_WITH_UNIT(LENGTH_MEASURE(0.002),#2031,
'DISTANCE_ACCURACY_VALUE','Maximum Tolerance applied to model');
#2026=UNCERTAINTY_MEASURE_WITH_UNIT(LENGTH_MEASURE(0.002),#2031,
'DISTANCE_ACCURACY_VALUE','Maximum Tolerance applied to model');
#2027=UNCERTAINTY_MEASURE_WITH_UNIT(LENGTH_MEASURE(0.002),#2031,
'DISTANCE_ACCURACY_VALUE','Maximum Tolerance applied to model');
#2028=UNCERTAINTY_MEASURE_WITH_UNIT(LENGTH_MEASURE(0.002),#2031,
'DISTANCE_ACCURACY_VALUE','Maximum Tolerance applied to model');
#2029=(
NAMED_UNIT(*)
SI_UNIT($,.STERADIAN.)
SOLID_ANGLE_UNIT()
);
#2030=(
NAMED_UNIT(*)
PLANE_ANGLE_UNIT()
SI_UNIT($,.RADIAN.)
);
#2031=(
LENGTH_UNIT()
NAMED_UNIT(*)
SI_UNIT(.CENTI.,.METRE.)
);
#2032=PRODUCT_DEFINITION_SHAPE('','',#2042);
#2033=PRODUCT_DEFINITION_SHAPE('','',#2043);
#2034=PRODUCT_DEFINITION_SHAPE(' ','NAUO PRDDFN',#17);
#2035=PRODUCT_DEFINITION_SHAPE(' ','NAUO PRDDFN',#18);
#2036=PRODUCT_DEFINITION_SHAPE('','',#2044);
#2037=PRODUCT_DEFINITION_SHAPE(' ','NAUO PRDDFN',#19);
#2038=PRODUCT_DEFINITION_SHAPE('','',#2045);
#2039=PRODUCT_DEFINITION_SHAPE(' ','NAUO PRDDFN',#20);
#2040=PRODUCT_DEFINITION_SHAPE('','',#2046);
#2041=PRODUCT_DEFINITION_SHAPE(' ','NAUO PRDDFN',#21);
#2042=PRODUCT_DEFINITION('','',#2052,#2047);
#2043=PRODUCT_DEFINITION('','',#2053,#2048);
#2044=PRODUCT_DEFINITION('','',#2054,#2049);
#2045=PRODUCT_DEFINITION('','',#2055,#2050);
#2046=PRODUCT_DEFINITION('','',#2056,#2051);
#2047=PRODUCT_DEFINITION_CONTEXT('',#2078,'design');
#2048=PRODUCT_DEFINITION_CONTEXT('',#2078,'design');
#2049=PRODUCT_DEFINITION_CONTEXT('',#2078,'design');
#2050=PRODUCT_DEFINITION_CONTEXT('',#2078,'design');
#2051=PRODUCT_DEFINITION_CONTEXT('',#2078,'design');
#2052=PRODUCT_DEFINITION_FORMATION_WITH_SPECIFIED_SOURCE('','',#2062,
 .NOT_KNOWN.);
#2053=PRODUCT_DEFINITION_FORMATION_WITH_SPECIFIED_SOURCE('','',#2063,
 .NOT_KNOWN.);
#2054=PRODUCT_DEFINITION_FORMATION_WITH_SPECIFIED_SOURCE('','',#2064,
 .NOT_KNOWN.);
#2055=PRODUCT_DEFINITION_FORMATION_WITH_SPECIFIED_SOURCE('','',#2065,
 .NOT_KNOWN.);
#2056=PRODUCT_DEFINITION_FORMATION_WITH_SPECIFIED_SOURCE('','',#2066,
 .NOT_KNOWN.);
#2057=PRODUCT_RELATED_PRODUCT_CATEGORY('','',(#2062));
#2058=PRODUCT_RELATED_PRODUCT_CATEGORY('','',(#2063));
#2059=PRODUCT_RELATED_PRODUCT_CATEGORY('','',(#2064));
#2060=PRODUCT_RELATED_PRODUCT_CATEGORY('','',(#2065));
#2061=PRODUCT_RELATED_PRODUCT_CATEGORY('','',(#2066));
#2062=PRODUCT('#35 Chain Tensioner','#35 Chain Tensioner',
'#35 Chain Tensioner',(#2072));
#2063=PRODUCT('??','??','??',(#2073));
#2064=PRODUCT('???','???','???',(#2074));
#2065=PRODUCT('????R','????R','????R',(#2075));
#2066=PRODUCT('????L','????L','????L',(#2076));
#2067=PRODUCT_CATEGORY('','');
#2068=PRODUCT_CATEGORY('','');
#2069=PRODUCT_CATEGORY('','');
#2070=PRODUCT_CATEGORY('','');
#2071=PRODUCT_CATEGORY('','');
#2072=PRODUCT_CONTEXT('',#2078,'mechanical');
#2073=PRODUCT_CONTEXT('',#2078,'mechanical');
#2074=PRODUCT_CONTEXT('',#2078,'mechanical');
#2075=PRODUCT_CONTEXT('',#2078,'mechanical');
#2076=PRODUCT_CONTEXT('',#2078,'mechanical');
#2077=APPLICATION_PROTOCOL_DEFINITION('international standard',
'ap242_managed_model_based_3d_engineering',2020,#2078);
#2078=APPLICATION_CONTEXT('managed model based 3d engineering');
ENDSEC;
END-ISO-10303-21;
