ISO-10303-21;
HEADER;
/* Generated by software containing ST-Developer
 * from STEP Tools, Inc. (www.steptools.com) 
 */
/* OPTION: using custom renumber hook */

FILE_DESCRIPTION(
/* description */ ('STEP AP242 Edition 2',
'CAx-IF Rec.Pracs.---Representation and Presentation of Product Manufa
cturing Information (PMI)---4.0---2014-10-13',
'CAx-IF Rec.Pracs.---3D Tessellated Geometry---0.4---2014-09-14','2;1',
'CAx-IF Rec.Pracs.---User Defined Attributes---1.5---2016-08-15'),
/* implementation_level */ '2;1');

FILE_NAME(
/* name */ '695c8758baceafa1c2b3cef6',
/* time_stamp */ '2026-01-06T03:54:01Z',
/* author */ (''),
/* organization */ (''),
/* preprocessor_version */ 'ST-DEVELOPER v20',
/* originating_system */ 'ONSHAPE BY PTC INC, 1.208',
/* authorisation */ '  ');

FILE_SCHEMA (('AP242_MANAGED_MODEL_BASED_3D_ENGINEERING_MIM_LF { 1 0 10303 442 3 1 4 }'));
ENDSEC;

DATA;
#10=TOROIDAL_SURFACE('',#1046,0.28,0.06);
#11=TOROIDAL_SURFACE('',#1082,0.28,0.06);
#12=CONTEXT_DEPENDENT_SHAPE_REPRESENTATION(#22,#1798);
#13=CONTEXT_DEPENDENT_SHAPE_REPRESENTATION(#23,#1799);
#14=CONTEXT_DEPENDENT_SHAPE_REPRESENTATION(#24,#1801);
#15=CONTEXT_DEPENDENT_SHAPE_REPRESENTATION(#25,#1803);
#16=CONTEXT_DEPENDENT_SHAPE_REPRESENTATION(#26,#1805);
#17=NEXT_ASSEMBLY_USAGE_OCCURRENCE('NAUO1','??','??',#1806,#1807,'');
#18=NEXT_ASSEMBLY_USAGE_OCCURRENCE('NAUO2','??','??',#1806,#1807,'');
#19=NEXT_ASSEMBLY_USAGE_OCCURRENCE('NAUO3','????R','????R',#1806,#1808,
'');
#20=NEXT_ASSEMBLY_USAGE_OCCURRENCE('NAUO4','????L','????L',#1806,#1809,
'');
#21=NEXT_ASSEMBLY_USAGE_OCCURRENCE('NAUO5','???','???',#1806,#1810,'');
#22=(
REPRESENTATION_RELATIONSHIP(' ',' ',#990,#989)
REPRESENTATION_RELATIONSHIP_WITH_TRANSFORMATION(#27)
SHAPE_REPRESENTATION_RELATIONSHIP()
);
#23=(
REPRESENTATION_RELATIONSHIP(' ',' ',#990,#989)
REPRESENTATION_RELATIONSHIP_WITH_TRANSFORMATION(#28)
SHAPE_REPRESENTATION_RELATIONSHIP()
);
#24=(
REPRESENTATION_RELATIONSHIP(' ',' ',#991,#989)
REPRESENTATION_RELATIONSHIP_WITH_TRANSFORMATION(#29)
SHAPE_REPRESENTATION_RELATIONSHIP()
);
#25=(
REPRESENTATION_RELATIONSHIP(' ',' ',#992,#989)
REPRESENTATION_RELATIONSHIP_WITH_TRANSFORMATION(#30)
SHAPE_REPRESENTATION_RELATIONSHIP()
);
#26=(
REPRESENTATION_RELATIONSHIP(' ',' ',#993,#989)
REPRESENTATION_RELATIONSHIP_WITH_TRANSFORMATION(#31)
SHAPE_REPRESENTATION_RELATIONSHIP()
);
#27=ITEM_DEFINED_TRANSFORMATION(' ',' ',#994,#1010);
#28=ITEM_DEFINED_TRANSFORMATION(' ',' ',#994,#1011);
#29=ITEM_DEFINED_TRANSFORMATION(' ',' ',#994,#1047);
#30=ITEM_DEFINED_TRANSFORMATION(' ',' ',#994,#1083);
#31=ITEM_DEFINED_TRANSFORMATION(' ',' ',#994,#1099);
#32=SHAPE_REPRESENTATION_RELATIONSHIP('','',#990,#36);
#33=SHAPE_REPRESENTATION_RELATIONSHIP('','',#991,#37);
#34=SHAPE_REPRESENTATION_RELATIONSHIP('','',#992,#38);
#35=SHAPE_REPRESENTATION_RELATIONSHIP('','',#993,#39);
#36=ADVANCED_BREP_SHAPE_REPRESENTATION('',(#980),#1784);
#37=ADVANCED_BREP_SHAPE_REPRESENTATION('',(#981),#1785);
#38=ADVANCED_BREP_SHAPE_REPRESENTATION('',(#982),#1786);
#39=ADVANCED_BREP_SHAPE_REPRESENTATION('',(#983),#1787);
#40=CONICAL_SURFACE('',#1008,0.379319126857584,1.0471975511966);
#41=CONICAL_SURFACE('',#1009,0.379319126857584,1.0471975511966);
#42=CONICAL_SURFACE('',#1036,0.3,0.523598775598299);
#43=CONICAL_SURFACE('',#1045,0.295,0.785398163397448);
#44=CONICAL_SURFACE('',#1072,0.3,0.523598775598299);
#45=CONICAL_SURFACE('',#1081,0.295,0.785398163397448);
#46=CONICAL_SURFACE('',#1091,0.3,0.785398163397449);
#47=CONICAL_SURFACE('',#1092,0.3,0.785398163397449);
#48=CYLINDRICAL_SURFACE('',#1007,0.25);
#49=CYLINDRICAL_SURFACE('',#1020,0.3);
#50=CYLINDRICAL_SURFACE('',#1029,0.3);
#51=CYLINDRICAL_SURFACE('',#1031,0.22);
#52=CYLINDRICAL_SURFACE('',#1037,0.35);
#53=CYLINDRICAL_SURFACE('',#1038,0.35);
#54=CYLINDRICAL_SURFACE('',#1044,0.1195);
#55=CYLINDRICAL_SURFACE('',#1056,0.3);
#56=CYLINDRICAL_SURFACE('',#1065,0.3);
#57=CYLINDRICAL_SURFACE('',#1067,0.22);
#58=CYLINDRICAL_SURFACE('',#1073,0.35);
#59=CYLINDRICAL_SURFACE('',#1074,0.35);
#60=CYLINDRICAL_SURFACE('',#1080,0.1195);
#61=CYLINDRICAL_SURFACE('',#1090,0.25);
#62=B_SPLINE_CURVE_WITH_KNOTS('',3,(#1366,#1367,#1368,#1369,#1370),
 .UNSPECIFIED.,.F.,.F.,(4,1,4),(2.38073520080432E-7,0.00291569921758593,
0.00583116036165178),.UNSPECIFIED.);
#63=B_SPLINE_CURVE_WITH_KNOTS('',3,(#1374,#1375,#1376,#1377,#1378),
 .UNSPECIFIED.,.F.,.F.,(4,1,4),(2.38073520080091E-7,0.00291569921758593,
0.00583116036165178),.UNSPECIFIED.);
#64=B_SPLINE_CURVE_WITH_KNOTS('',3,(#1380,#1381,#1382,#1383,#1384),
 .UNSPECIFIED.,.F.,.F.,(4,1,4),(0.00648490701042732,0.00942163498286122,
0.0123583629552951),.UNSPECIFIED.);
#65=B_SPLINE_CURVE_WITH_KNOTS('',3,(#1388,#1389,#1390,#1391,#1392),
 .UNSPECIFIED.,.F.,.F.,(4,1,4),(0.00648490701042734,0.00942163498286124,
0.0123583629552951),.UNSPECIFIED.);
#66=B_SPLINE_CURVE_WITH_KNOTS('',3,(#1394,#1395,#1396,#1397,#1398),
 .UNSPECIFIED.,.F.,.F.,(4,1,4),(2.38073520077899E-7,0.0029156992175861,
0.00583116036165212),.UNSPECIFIED.);
#67=B_SPLINE_CURVE_WITH_KNOTS('',3,(#1402,#1403,#1404,#1405,#1406),
 .UNSPECIFIED.,.F.,.F.,(4,1,4),(2.38073520077899E-7,0.0029156992175861,
0.00583116036165213),.UNSPECIFIED.);
#68=B_SPLINE_CURVE_WITH_KNOTS('',3,(#1408,#1409,#1410,#1411,#1412),
 .UNSPECIFIED.,.F.,.F.,(4,1,4),(2.38073520080509E-7,0.00291569921758593,
0.00583116036165178),.UNSPECIFIED.);
#69=B_SPLINE_CURVE_WITH_KNOTS('',3,(#1416,#1417,#1418,#1419,#1420),
 .UNSPECIFIED.,.F.,.F.,(4,1,4),(2.38073520080461E-7,0.00291569921758593,
0.00583116036165178),.UNSPECIFIED.);
#70=B_SPLINE_CURVE_WITH_KNOTS('',3,(#1422,#1423,#1424,#1425,#1426),
 .UNSPECIFIED.,.F.,.F.,(4,1,4),(0.00648490701042732,0.00942163498286122,
0.0123583629552951),.UNSPECIFIED.);
#71=B_SPLINE_CURVE_WITH_KNOTS('',3,(#1430,#1431,#1432,#1433,#1434),
 .UNSPECIFIED.,.F.,.F.,(4,1,4),(0.00648490701042733,0.00942163498286123,
0.0123583629552951),.UNSPECIFIED.);
#72=B_SPLINE_CURVE_WITH_KNOTS('',3,(#1436,#1437,#1438,#1439,#1440),
 .UNSPECIFIED.,.F.,.F.,(4,1,4),(2.3807352008003E-7,0.0029156992175861,0.00583116036165213),
 .UNSPECIFIED.);
#73=B_SPLINE_CURVE_WITH_KNOTS('',3,(#1441,#1442,#1443,#1444,#1445),
 .UNSPECIFIED.,.F.,.F.,(4,1,4),(2.3807352008003E-7,0.0029156992175861,0.00583116036165213),
 .UNSPECIFIED.);
#74=B_SPLINE_CURVE_WITH_KNOTS('',3,(#1484,#1485,#1486,#1487,#1488),
 .UNSPECIFIED.,.F.,.F.,(4,1,4),(0.,0.00102666037582923,0.00205332075165845),
 .UNSPECIFIED.);
#75=B_SPLINE_CURVE_WITH_KNOTS('',3,(#1503,#1504,#1505,#1506,#1507),
 .UNSPECIFIED.,.F.,.F.,(4,1,4),(0.,0.00102666037582923,0.00205332075165846),
 .UNSPECIFIED.);
#76=B_SPLINE_CURVE_WITH_KNOTS('',3,(#1513,#1514,#1515,#1516,#1517),
 .UNSPECIFIED.,.F.,.F.,(4,1,4),(0.,0.00109819430818184,0.00219638861636367),
 .UNSPECIFIED.);
#77=B_SPLINE_CURVE_WITH_KNOTS('',3,(#1518,#1519,#1520,#1521,#1522),
 .UNSPECIFIED.,.F.,.F.,(4,1,4),(0.,0.00109819430818184,0.00219638861636367),
 .UNSPECIFIED.);
#78=B_SPLINE_CURVE_WITH_KNOTS('',3,(#1523,#1524,#1525,#1526,#1527),
 .UNSPECIFIED.,.F.,.F.,(4,1,4),(0.,0.0010994043771691,0.00219880875433819),
 .UNSPECIFIED.);
#79=B_SPLINE_CURVE_WITH_KNOTS('',3,(#1528,#1529,#1530,#1531,#1532),
 .UNSPECIFIED.,.F.,.F.,(4,1,4),(0.,0.0010994043771691,0.00219880875433819),
 .UNSPECIFIED.);
#80=B_SPLINE_CURVE_WITH_KNOTS('',3,(#1594,#1595,#1596,#1597,#1598),
 .UNSPECIFIED.,.F.,.F.,(4,1,4),(0.,0.00102666037582923,0.00205332075165845),
 .UNSPECIFIED.);
#81=B_SPLINE_CURVE_WITH_KNOTS('',3,(#1613,#1614,#1615,#1616,#1617),
 .UNSPECIFIED.,.F.,.F.,(4,1,4),(0.,0.00102666037582923,0.00205332075165846),
 .UNSPECIFIED.);
#82=B_SPLINE_CURVE_WITH_KNOTS('',3,(#1623,#1624,#1625,#1626,#1627),
 .UNSPECIFIED.,.F.,.F.,(4,1,4),(0.,0.0010994043771691,0.00219880875433819),
 .UNSPECIFIED.);
#83=B_SPLINE_CURVE_WITH_KNOTS('',3,(#1628,#1629,#1630,#1631,#1632),
 .UNSPECIFIED.,.F.,.F.,(4,1,4),(0.,0.0010994043771691,0.00219880875433819),
 .UNSPECIFIED.);
#84=B_SPLINE_CURVE_WITH_KNOTS('',3,(#1633,#1634,#1635,#1636,#1637),
 .UNSPECIFIED.,.F.,.F.,(4,1,4),(0.,0.00109819430818184,0.00219638861636367),
 .UNSPECIFIED.);
#85=B_SPLINE_CURVE_WITH_KNOTS('',3,(#1638,#1639,#1640,#1641,#1642),
 .UNSPECIFIED.,.F.,.F.,(4,1,4),(0.,0.00109819430818184,0.00219638861636367),
 .UNSPECIFIED.);
#86=B_SPLINE_CURVE_WITH_KNOTS('',3,(#1688,#1689,#1690,#1691,#1692,#1693),
 .UNSPECIFIED.,.F.,.F.,(4,1,1,4),(2.54432159515567E-7,0.00149120336241201,
0.00298215229266451,0.00596405015316951),.UNSPECIFIED.);
#87=B_SPLINE_CURVE_WITH_KNOTS('',3,(#1696,#1697,#1698,#1699,#1700,#1701),
 .UNSPECIFIED.,.F.,.F.,(4,1,1,4),(2.54432159521302E-7,0.00149120336241202,
0.00298215229266452,0.00596405015316952),.UNSPECIFIED.);
#88=B_SPLINE_CURVE_WITH_KNOTS('',3,(#1703,#1704,#1705,#1706,#1707),
 .UNSPECIFIED.,.F.,.F.,(4,1,4),(0.00762726622430451,0.010636433970236,0.0136456017161674),
 .UNSPECIFIED.);
#89=B_SPLINE_CURVE_WITH_KNOTS('',3,(#1709,#1710,#1711,#1712,#1713,#1714),
 .UNSPECIFIED.,.F.,.F.,(4,1,1,4),(2.5443215952091E-7,0.00149120336241202,
0.00298215229266452,0.00596405015316951),.UNSPECIFIED.);
#90=B_SPLINE_CURVE_WITH_KNOTS('',3,(#1716,#1717,#1718,#1719,#1720,#1721),
 .UNSPECIFIED.,.F.,.F.,(4,1,1,4),(2.54432159510441E-7,0.00149120336241201,
0.00298215229266451,0.00596405015316951),.UNSPECIFIED.);
#91=B_SPLINE_CURVE_WITH_KNOTS('',3,(#1723,#1724,#1725,#1726,#1727),
 .UNSPECIFIED.,.F.,.F.,(4,1,4),(0.00762726622430452,0.010636433970236,0.0136456017161674),
 .UNSPECIFIED.);
#92=B_SPLINE_CURVE_WITH_KNOTS('',3,(#1729,#1730,#1731,#1732,#1733),
 .UNSPECIFIED.,.F.,.F.,(4,1,4),(0.00762726622430452,0.010636433970236,0.0136456017161674),
 .UNSPECIFIED.);
#93=B_SPLINE_CURVE_WITH_KNOTS('',3,(#1736,#1737,#1738,#1739,#1740,#1741),
 .UNSPECIFIED.,.F.,.F.,(4,1,1,4),(2.54432159510441E-7,0.00149120336241201,
0.00298215229266451,0.00596405015316951),.UNSPECIFIED.);
#94=B_SPLINE_CURVE_WITH_KNOTS('',3,(#1743,#1744,#1745,#1746,#1747,#1748),
 .UNSPECIFIED.,.F.,.F.,(4,1,1,4),(2.5443215952091E-7,0.00149120336241202,
0.00298215229266452,0.00596405015316951),.UNSPECIFIED.);
#95=B_SPLINE_CURVE_WITH_KNOTS('',3,(#1750,#1751,#1752,#1753,#1754),
 .UNSPECIFIED.,.F.,.F.,(4,1,4),(0.00762726622430451,0.010636433970236,0.0136456017161674),
 .UNSPECIFIED.);
#96=B_SPLINE_CURVE_WITH_KNOTS('',3,(#1756,#1757,#1758,#1759,#1760,#1761),
 .UNSPECIFIED.,.F.,.F.,(4,1,1,4),(2.54432159524459E-7,0.00149120336241202,
0.00298215229266452,0.00596405015316952),.UNSPECIFIED.);
#97=B_SPLINE_CURVE_WITH_KNOTS('',3,(#1763,#1764,#1765,#1766,#1767,#1768),
 .UNSPECIFIED.,.F.,.F.,(4,1,1,4),(2.54432159515567E-7,0.00149120336241201,
0.00298215229266451,0.00596405015316951),.UNSPECIFIED.);
#98=LINE('',#1363,#142);
#99=LINE('',#1372,#143);
#100=LINE('',#1386,#144);
#101=LINE('',#1400,#145);
#102=LINE('',#1414,#146);
#103=LINE('',#1428,#147);
#104=LINE('',#1457,#148);
#105=LINE('',#1460,#149);
#106=LINE('',#1462,#150);
#107=LINE('',#1464,#151);
#108=LINE('',#1466,#152);
#109=LINE('',#1469,#153);
#110=LINE('',#1471,#154);
#111=LINE('',#1473,#155);
#112=LINE('',#1480,#156);
#113=LINE('',#1482,#157);
#114=LINE('',#1490,#158);
#115=LINE('',#1492,#159);
#116=LINE('',#1499,#160);
#117=LINE('',#1501,#161);
#118=LINE('',#1509,#162);
#119=LINE('',#1511,#163);
#120=LINE('',#1567,#164);
#121=LINE('',#1570,#165);
#122=LINE('',#1572,#166);
#123=LINE('',#1574,#167);
#124=LINE('',#1576,#168);
#125=LINE('',#1579,#169);
#126=LINE('',#1581,#170);
#127=LINE('',#1583,#171);
#128=LINE('',#1590,#172);
#129=LINE('',#1592,#173);
#130=LINE('',#1600,#174);
#131=LINE('',#1602,#175);
#132=LINE('',#1609,#176);
#133=LINE('',#1611,#177);
#134=LINE('',#1619,#178);
#135=LINE('',#1621,#179);
#136=LINE('',#1770,#180);
#137=LINE('',#1771,#181);
#138=LINE('',#1773,#182);
#139=LINE('',#1775,#183);
#140=LINE('',#1777,#184);
#141=LINE('',#1779,#185);
#142=VECTOR('',#1110,100.);
#143=VECTOR('',#1111,100.);
#144=VECTOR('',#1114,100.);
#145=VECTOR('',#1117,100.);
#146=VECTOR('',#1120,100.);
#147=VECTOR('',#1123,100.);
#148=VECTOR('',#1144,100.);
#149=VECTOR('',#1145,100.);
#150=VECTOR('',#1146,100.);
#151=VECTOR('',#1147,100.);
#152=VECTOR('',#1150,100.);
#153=VECTOR('',#1151,100.);
#154=VECTOR('',#1152,100.);
#155=VECTOR('',#1153,100.);
#156=VECTOR('',#1160,100.);
#157=VECTOR('',#1161,100.);
#158=VECTOR('',#1162,100.);
#159=VECTOR('',#1163,100.);
#160=VECTOR('',#1170,100.);
#161=VECTOR('',#1171,100.);
#162=VECTOR('',#1172,100.);
#163=VECTOR('',#1173,100.);
#164=VECTOR('',#1232,100.);
#165=VECTOR('',#1233,100.);
#166=VECTOR('',#1234,100.);
#167=VECTOR('',#1235,100.);
#168=VECTOR('',#1238,100.);
#169=VECTOR('',#1239,100.);
#170=VECTOR('',#1240,100.);
#171=VECTOR('',#1241,100.);
#172=VECTOR('',#1248,100.);
#173=VECTOR('',#1249,100.);
#174=VECTOR('',#1250,100.);
#175=VECTOR('',#1251,100.);
#176=VECTOR('',#1258,100.);
#177=VECTOR('',#1259,100.);
#178=VECTOR('',#1260,100.);
#179=VECTOR('',#1261,100.);
#180=VECTOR('',#1338,100.);
#181=VECTOR('',#1339,100.);
#182=VECTOR('',#1342,100.);
#183=VECTOR('',#1345,100.);
#184=VECTOR('',#1348,100.);
#185=VECTOR('',#1351,100.);
#186=ORIENTED_EDGE('',*,*,#426,.T.);
#187=ORIENTED_EDGE('',*,*,#427,.T.);
#188=ORIENTED_EDGE('',*,*,#428,.T.);
#189=ORIENTED_EDGE('',*,*,#429,.T.);
#190=ORIENTED_EDGE('',*,*,#430,.F.);
#191=ORIENTED_EDGE('',*,*,#431,.F.);
#192=ORIENTED_EDGE('',*,*,#430,.T.);
#193=ORIENTED_EDGE('',*,*,#432,.T.);
#194=ORIENTED_EDGE('',*,*,#433,.F.);
#195=ORIENTED_EDGE('',*,*,#434,.F.);
#196=ORIENTED_EDGE('',*,*,#433,.T.);
#197=ORIENTED_EDGE('',*,*,#435,.T.);
#198=ORIENTED_EDGE('',*,*,#436,.F.);
#199=ORIENTED_EDGE('',*,*,#437,.F.);
#200=ORIENTED_EDGE('',*,*,#436,.T.);
#201=ORIENTED_EDGE('',*,*,#438,.T.);
#202=ORIENTED_EDGE('',*,*,#439,.F.);
#203=ORIENTED_EDGE('',*,*,#440,.F.);
#204=ORIENTED_EDGE('',*,*,#439,.T.);
#205=ORIENTED_EDGE('',*,*,#441,.T.);
#206=ORIENTED_EDGE('',*,*,#442,.F.);
#207=ORIENTED_EDGE('',*,*,#443,.F.);
#208=ORIENTED_EDGE('',*,*,#442,.T.);
#209=ORIENTED_EDGE('',*,*,#444,.T.);
#210=ORIENTED_EDGE('',*,*,#428,.F.);
#211=ORIENTED_EDGE('',*,*,#445,.F.);
#212=ORIENTED_EDGE('',*,*,#446,.T.);
#213=ORIENTED_EDGE('',*,*,#447,.T.);
#214=ORIENTED_EDGE('',*,*,#446,.F.);
#215=ORIENTED_EDGE('',*,*,#426,.F.);
#216=ORIENTED_EDGE('',*,*,#447,.F.);
#217=ORIENTED_EDGE('',*,*,#431,.T.);
#218=ORIENTED_EDGE('',*,*,#434,.T.);
#219=ORIENTED_EDGE('',*,*,#437,.T.);
#220=ORIENTED_EDGE('',*,*,#440,.T.);
#221=ORIENTED_EDGE('',*,*,#443,.T.);
#222=ORIENTED_EDGE('',*,*,#445,.T.);
#223=ORIENTED_EDGE('',*,*,#427,.F.);
#224=ORIENTED_EDGE('',*,*,#444,.F.);
#225=ORIENTED_EDGE('',*,*,#441,.F.);
#226=ORIENTED_EDGE('',*,*,#438,.F.);
#227=ORIENTED_EDGE('',*,*,#435,.F.);
#228=ORIENTED_EDGE('',*,*,#432,.F.);
#229=ORIENTED_EDGE('',*,*,#429,.F.);
#230=ORIENTED_EDGE('',*,*,#448,.T.);
#231=ORIENTED_EDGE('',*,*,#449,.T.);
#232=ORIENTED_EDGE('',*,*,#450,.F.);
#233=ORIENTED_EDGE('',*,*,#451,.F.);
#234=ORIENTED_EDGE('',*,*,#452,.T.);
#235=ORIENTED_EDGE('',*,*,#453,.F.);
#236=ORIENTED_EDGE('',*,*,#454,.F.);
#237=ORIENTED_EDGE('',*,*,#455,.T.);
#238=ORIENTED_EDGE('',*,*,#456,.T.);
#239=ORIENTED_EDGE('',*,*,#457,.F.);
#240=ORIENTED_EDGE('',*,*,#458,.T.);
#241=ORIENTED_EDGE('',*,*,#459,.F.);
#242=ORIENTED_EDGE('',*,*,#460,.F.);
#243=ORIENTED_EDGE('',*,*,#461,.F.);
#244=ORIENTED_EDGE('',*,*,#462,.F.);
#245=ORIENTED_EDGE('',*,*,#463,.F.);
#246=ORIENTED_EDGE('',*,*,#464,.T.);
#247=ORIENTED_EDGE('',*,*,#465,.T.);
#248=ORIENTED_EDGE('',*,*,#466,.T.);
#249=ORIENTED_EDGE('',*,*,#467,.F.);
#250=ORIENTED_EDGE('',*,*,#468,.T.);
#251=ORIENTED_EDGE('',*,*,#469,.F.);
#252=ORIENTED_EDGE('',*,*,#451,.T.);
#253=ORIENTED_EDGE('',*,*,#470,.F.);
#254=ORIENTED_EDGE('',*,*,#464,.F.);
#255=ORIENTED_EDGE('',*,*,#471,.T.);
#256=ORIENTED_EDGE('',*,*,#455,.F.);
#257=ORIENTED_EDGE('',*,*,#472,.T.);
#258=ORIENTED_EDGE('',*,*,#457,.T.);
#259=ORIENTED_EDGE('',*,*,#473,.F.);
#260=ORIENTED_EDGE('',*,*,#466,.F.);
#261=ORIENTED_EDGE('',*,*,#474,.F.);
#262=ORIENTED_EDGE('',*,*,#461,.T.);
#263=ORIENTED_EDGE('',*,*,#475,.F.);
#264=ORIENTED_EDGE('',*,*,#476,.T.);
#265=ORIENTED_EDGE('',*,*,#449,.F.);
#266=ORIENTED_EDGE('',*,*,#477,.F.);
#267=ORIENTED_EDGE('',*,*,#478,.T.);
#268=ORIENTED_EDGE('',*,*,#479,.F.);
#269=ORIENTED_EDGE('',*,*,#478,.F.);
#270=ORIENTED_EDGE('',*,*,#480,.F.);
#271=ORIENTED_EDGE('',*,*,#481,.F.);
#272=ORIENTED_EDGE('',*,*,#482,.F.);
#273=ORIENTED_EDGE('',*,*,#482,.T.);
#274=ORIENTED_EDGE('',*,*,#479,.T.);
#275=ORIENTED_EDGE('',*,*,#474,.T.);
#276=ORIENTED_EDGE('',*,*,#465,.F.);
#277=ORIENTED_EDGE('',*,*,#470,.T.);
#278=ORIENTED_EDGE('',*,*,#450,.T.);
#279=ORIENTED_EDGE('',*,*,#476,.F.);
#280=ORIENTED_EDGE('',*,*,#448,.F.);
#281=ORIENTED_EDGE('',*,*,#473,.T.);
#282=ORIENTED_EDGE('',*,*,#462,.T.);
#283=ORIENTED_EDGE('',*,*,#483,.F.);
#284=ORIENTED_EDGE('',*,*,#458,.F.);
#285=ORIENTED_EDGE('',*,*,#472,.F.);
#286=ORIENTED_EDGE('',*,*,#454,.T.);
#287=ORIENTED_EDGE('',*,*,#484,.T.);
#288=ORIENTED_EDGE('',*,*,#452,.F.);
#289=ORIENTED_EDGE('',*,*,#471,.F.);
#290=ORIENTED_EDGE('',*,*,#469,.T.);
#291=ORIENTED_EDGE('',*,*,#453,.T.);
#292=ORIENTED_EDGE('',*,*,#484,.F.);
#293=ORIENTED_EDGE('',*,*,#459,.T.);
#294=ORIENTED_EDGE('',*,*,#483,.T.);
#295=ORIENTED_EDGE('',*,*,#468,.F.);
#296=ORIENTED_EDGE('',*,*,#485,.F.);
#297=ORIENTED_EDGE('',*,*,#463,.T.);
#298=ORIENTED_EDGE('',*,*,#456,.F.);
#299=ORIENTED_EDGE('',*,*,#481,.T.);
#300=ORIENTED_EDGE('',*,*,#477,.T.);
#301=ORIENTED_EDGE('',*,*,#480,.T.);
#302=ORIENTED_EDGE('',*,*,#460,.T.);
#303=ORIENTED_EDGE('',*,*,#485,.T.);
#304=ORIENTED_EDGE('',*,*,#467,.T.);
#305=ORIENTED_EDGE('',*,*,#475,.T.);
#306=ORIENTED_EDGE('',*,*,#486,.F.);
#307=ORIENTED_EDGE('',*,*,#487,.T.);
#308=ORIENTED_EDGE('',*,*,#488,.T.);
#309=ORIENTED_EDGE('',*,*,#489,.F.);
#310=ORIENTED_EDGE('',*,*,#490,.F.);
#311=ORIENTED_EDGE('',*,*,#491,.F.);
#312=ORIENTED_EDGE('',*,*,#492,.T.);
#313=ORIENTED_EDGE('',*,*,#493,.T.);
#314=ORIENTED_EDGE('',*,*,#494,.F.);
#315=ORIENTED_EDGE('',*,*,#495,.T.);
#316=ORIENTED_EDGE('',*,*,#496,.T.);
#317=ORIENTED_EDGE('',*,*,#497,.T.);
#318=ORIENTED_EDGE('',*,*,#498,.T.);
#319=ORIENTED_EDGE('',*,*,#499,.T.);
#320=ORIENTED_EDGE('',*,*,#500,.F.);
#321=ORIENTED_EDGE('',*,*,#501,.T.);
#322=ORIENTED_EDGE('',*,*,#502,.F.);
#323=ORIENTED_EDGE('',*,*,#503,.T.);
#324=ORIENTED_EDGE('',*,*,#504,.F.);
#325=ORIENTED_EDGE('',*,*,#505,.T.);
#326=ORIENTED_EDGE('',*,*,#506,.F.);
#327=ORIENTED_EDGE('',*,*,#507,.F.);
#328=ORIENTED_EDGE('',*,*,#487,.F.);
#329=ORIENTED_EDGE('',*,*,#508,.T.);
#330=ORIENTED_EDGE('',*,*,#495,.F.);
#331=ORIENTED_EDGE('',*,*,#509,.F.);
#332=ORIENTED_EDGE('',*,*,#491,.T.);
#333=ORIENTED_EDGE('',*,*,#510,.F.);
#334=ORIENTED_EDGE('',*,*,#502,.T.);
#335=ORIENTED_EDGE('',*,*,#511,.T.);
#336=ORIENTED_EDGE('',*,*,#506,.T.);
#337=ORIENTED_EDGE('',*,*,#512,.T.);
#338=ORIENTED_EDGE('',*,*,#497,.F.);
#339=ORIENTED_EDGE('',*,*,#513,.T.);
#340=ORIENTED_EDGE('',*,*,#514,.F.);
#341=ORIENTED_EDGE('',*,*,#489,.T.);
#342=ORIENTED_EDGE('',*,*,#515,.T.);
#343=ORIENTED_EDGE('',*,*,#516,.F.);
#344=ORIENTED_EDGE('',*,*,#517,.T.);
#345=ORIENTED_EDGE('',*,*,#516,.T.);
#346=ORIENTED_EDGE('',*,*,#518,.T.);
#347=ORIENTED_EDGE('',*,*,#519,.T.);
#348=ORIENTED_EDGE('',*,*,#520,.T.);
#349=ORIENTED_EDGE('',*,*,#520,.F.);
#350=ORIENTED_EDGE('',*,*,#517,.F.);
#351=ORIENTED_EDGE('',*,*,#513,.F.);
#352=ORIENTED_EDGE('',*,*,#496,.F.);
#353=ORIENTED_EDGE('',*,*,#508,.F.);
#354=ORIENTED_EDGE('',*,*,#486,.T.);
#355=ORIENTED_EDGE('',*,*,#514,.T.);
#356=ORIENTED_EDGE('',*,*,#488,.F.);
#357=ORIENTED_EDGE('',*,*,#511,.F.);
#358=ORIENTED_EDGE('',*,*,#507,.T.);
#359=ORIENTED_EDGE('',*,*,#521,.T.);
#360=ORIENTED_EDGE('',*,*,#503,.F.);
#361=ORIENTED_EDGE('',*,*,#510,.T.);
#362=ORIENTED_EDGE('',*,*,#490,.T.);
#363=ORIENTED_EDGE('',*,*,#522,.F.);
#364=ORIENTED_EDGE('',*,*,#492,.F.);
#365=ORIENTED_EDGE('',*,*,#509,.T.);
#366=ORIENTED_EDGE('',*,*,#500,.T.);
#367=ORIENTED_EDGE('',*,*,#493,.F.);
#368=ORIENTED_EDGE('',*,*,#522,.T.);
#369=ORIENTED_EDGE('',*,*,#499,.F.);
#370=ORIENTED_EDGE('',*,*,#523,.T.);
#371=ORIENTED_EDGE('',*,*,#504,.T.);
#372=ORIENTED_EDGE('',*,*,#521,.F.);
#373=ORIENTED_EDGE('',*,*,#501,.F.);
#374=ORIENTED_EDGE('',*,*,#494,.T.);
#375=ORIENTED_EDGE('',*,*,#519,.F.);
#376=ORIENTED_EDGE('',*,*,#515,.F.);
#377=ORIENTED_EDGE('',*,*,#518,.F.);
#378=ORIENTED_EDGE('',*,*,#498,.F.);
#379=ORIENTED_EDGE('',*,*,#512,.F.);
#380=ORIENTED_EDGE('',*,*,#505,.F.);
#381=ORIENTED_EDGE('',*,*,#523,.F.);
#382=ORIENTED_EDGE('',*,*,#524,.T.);
#383=ORIENTED_EDGE('',*,*,#525,.F.);
#384=ORIENTED_EDGE('',*,*,#526,.T.);
#385=ORIENTED_EDGE('',*,*,#527,.F.);
#386=ORIENTED_EDGE('',*,*,#524,.F.);
#387=ORIENTED_EDGE('',*,*,#526,.F.);
#388=ORIENTED_EDGE('',*,*,#527,.T.);
#389=ORIENTED_EDGE('',*,*,#528,.T.);
#390=ORIENTED_EDGE('',*,*,#529,.T.);
#391=ORIENTED_EDGE('',*,*,#530,.T.);
#392=ORIENTED_EDGE('',*,*,#531,.T.);
#393=ORIENTED_EDGE('',*,*,#532,.T.);
#394=ORIENTED_EDGE('',*,*,#533,.T.);
#395=ORIENTED_EDGE('',*,*,#525,.T.);
#396=ORIENTED_EDGE('',*,*,#534,.F.);
#397=ORIENTED_EDGE('',*,*,#535,.F.);
#398=ORIENTED_EDGE('',*,*,#536,.F.);
#399=ORIENTED_EDGE('',*,*,#537,.F.);
#400=ORIENTED_EDGE('',*,*,#538,.F.);
#401=ORIENTED_EDGE('',*,*,#539,.F.);
#402=ORIENTED_EDGE('',*,*,#529,.F.);
#403=ORIENTED_EDGE('',*,*,#540,.F.);
#404=ORIENTED_EDGE('',*,*,#538,.T.);
#405=ORIENTED_EDGE('',*,*,#541,.T.);
#406=ORIENTED_EDGE('',*,*,#530,.F.);
#407=ORIENTED_EDGE('',*,*,#541,.F.);
#408=ORIENTED_EDGE('',*,*,#537,.T.);
#409=ORIENTED_EDGE('',*,*,#542,.T.);
#410=ORIENTED_EDGE('',*,*,#531,.F.);
#411=ORIENTED_EDGE('',*,*,#542,.F.);
#412=ORIENTED_EDGE('',*,*,#536,.T.);
#413=ORIENTED_EDGE('',*,*,#543,.T.);
#414=ORIENTED_EDGE('',*,*,#532,.F.);
#415=ORIENTED_EDGE('',*,*,#543,.F.);
#416=ORIENTED_EDGE('',*,*,#535,.T.);
#417=ORIENTED_EDGE('',*,*,#544,.T.);
#418=ORIENTED_EDGE('',*,*,#533,.F.);
#419=ORIENTED_EDGE('',*,*,#544,.F.);
#420=ORIENTED_EDGE('',*,*,#534,.T.);
#421=ORIENTED_EDGE('',*,*,#545,.T.);
#422=ORIENTED_EDGE('',*,*,#528,.F.);
#423=ORIENTED_EDGE('',*,*,#545,.F.);
#424=ORIENTED_EDGE('',*,*,#539,.T.);
#425=ORIENTED_EDGE('',*,*,#540,.T.);
#426=EDGE_CURVE('',#546,#546,#634,.T.);
#427=EDGE_CURVE('',#547,#547,#635,.F.);
#428=EDGE_CURVE('',#548,#549,#98,.T.);
#429=EDGE_CURVE('',#549,#550,#62,.T.);
#430=EDGE_CURVE('',#551,#550,#99,.T.);
#431=EDGE_CURVE('',#548,#551,#63,.T.);
#432=EDGE_CURVE('',#550,#552,#64,.T.);
#433=EDGE_CURVE('',#553,#552,#100,.T.);
#434=EDGE_CURVE('',#551,#553,#65,.T.);
#435=EDGE_CURVE('',#552,#554,#66,.T.);
#436=EDGE_CURVE('',#555,#554,#101,.T.);
#437=EDGE_CURVE('',#553,#555,#67,.T.);
#438=EDGE_CURVE('',#554,#556,#68,.T.);
#439=EDGE_CURVE('',#557,#556,#102,.T.);
#440=EDGE_CURVE('',#555,#557,#69,.T.);
#441=EDGE_CURVE('',#556,#558,#70,.T.);
#442=EDGE_CURVE('',#559,#558,#103,.T.);
#443=EDGE_CURVE('',#557,#559,#71,.T.);
#444=EDGE_CURVE('',#558,#549,#72,.T.);
#445=EDGE_CURVE('',#559,#548,#73,.T.);
#446=EDGE_CURVE('',#560,#560,#636,.F.);
#447=EDGE_CURVE('',#561,#561,#637,.T.);
#448=EDGE_CURVE('',#562,#563,#104,.T.);
#449=EDGE_CURVE('',#563,#564,#105,.T.);
#450=EDGE_CURVE('',#565,#564,#106,.T.);
#451=EDGE_CURVE('',#562,#565,#107,.T.);
#452=EDGE_CURVE('',#566,#567,#108,.T.);
#453=EDGE_CURVE('',#568,#567,#109,.T.);
#454=EDGE_CURVE('',#569,#568,#110,.T.);
#455=EDGE_CURVE('',#569,#566,#111,.T.);
#456=EDGE_CURVE('',#570,#570,#638,.F.);
#457=EDGE_CURVE('',#571,#572,#639,.F.);
#458=EDGE_CURVE('',#571,#573,#112,.T.);
#459=EDGE_CURVE('',#574,#573,#113,.T.);
#460=EDGE_CURVE('',#575,#574,#74,.T.);
#461=EDGE_CURVE('',#576,#575,#114,.T.);
#462=EDGE_CURVE('',#572,#576,#115,.T.);
#463=EDGE_CURVE('',#577,#577,#640,.F.);
#464=EDGE_CURVE('',#578,#579,#641,.F.);
#465=EDGE_CURVE('',#579,#580,#116,.T.);
#466=EDGE_CURVE('',#580,#581,#117,.T.);
#467=EDGE_CURVE('',#582,#581,#75,.T.);
#468=EDGE_CURVE('',#582,#583,#118,.T.);
#469=EDGE_CURVE('',#578,#583,#119,.T.);
#470=EDGE_CURVE('',#579,#565,#76,.T.);
#471=EDGE_CURVE('',#578,#566,#77,.T.);
#472=EDGE_CURVE('',#569,#571,#78,.T.);
#473=EDGE_CURVE('',#562,#572,#79,.T.);
#474=EDGE_CURVE('',#576,#580,#642,.T.);
#475=EDGE_CURVE('',#581,#575,#643,.T.);
#476=EDGE_CURVE('',#563,#564,#644,.T.);
#477=EDGE_CURVE('',#584,#584,#645,.T.);
#478=EDGE_CURVE('',#585,#585,#646,.F.);
#479=EDGE_CURVE('',#586,#586,#647,.T.);
#480=EDGE_CURVE('',#587,#587,#648,.F.);
#481=EDGE_CURVE('',#588,#588,#649,.T.);
#482=EDGE_CURVE('',#589,#589,#650,.F.);
#483=EDGE_CURVE('',#573,#583,#651,.T.);
#484=EDGE_CURVE('',#568,#567,#652,.T.);
#485=EDGE_CURVE('',#574,#582,#653,.T.);
#486=EDGE_CURVE('',#590,#591,#120,.T.);
#487=EDGE_CURVE('',#590,#592,#121,.T.);
#488=EDGE_CURVE('',#592,#593,#122,.T.);
#489=EDGE_CURVE('',#591,#593,#123,.T.);
#490=EDGE_CURVE('',#594,#595,#124,.T.);
#491=EDGE_CURVE('',#596,#594,#125,.T.);
#492=EDGE_CURVE('',#596,#597,#126,.T.);
#493=EDGE_CURVE('',#597,#595,#127,.T.);
#494=EDGE_CURVE('',#598,#598,#654,.F.);
#495=EDGE_CURVE('',#599,#600,#655,.F.);
#496=EDGE_CURVE('',#600,#601,#128,.T.);
#497=EDGE_CURVE('',#601,#602,#129,.T.);
#498=EDGE_CURVE('',#602,#603,#80,.T.);
#499=EDGE_CURVE('',#603,#604,#130,.T.);
#500=EDGE_CURVE('',#599,#604,#131,.T.);
#501=EDGE_CURVE('',#605,#605,#656,.F.);
#502=EDGE_CURVE('',#606,#607,#657,.F.);
#503=EDGE_CURVE('',#606,#608,#132,.T.);
#504=EDGE_CURVE('',#609,#608,#133,.T.);
#505=EDGE_CURVE('',#609,#610,#81,.T.);
#506=EDGE_CURVE('',#611,#610,#134,.T.);
#507=EDGE_CURVE('',#607,#611,#135,.T.);
#508=EDGE_CURVE('',#590,#600,#82,.T.);
#509=EDGE_CURVE('',#596,#599,#83,.T.);
#510=EDGE_CURVE('',#606,#594,#84,.T.);
#511=EDGE_CURVE('',#607,#592,#85,.T.);
#512=EDGE_CURVE('',#610,#602,#658,.T.);
#513=EDGE_CURVE('',#601,#611,#659,.T.);
#514=EDGE_CURVE('',#591,#593,#660,.T.);
#515=EDGE_CURVE('',#612,#612,#661,.T.);
#516=EDGE_CURVE('',#613,#613,#662,.F.);
#517=EDGE_CURVE('',#614,#614,#663,.T.);
#518=EDGE_CURVE('',#615,#615,#664,.F.);
#519=EDGE_CURVE('',#616,#616,#665,.T.);
#520=EDGE_CURVE('',#617,#617,#666,.F.);
#521=EDGE_CURVE('',#604,#608,#667,.T.);
#522=EDGE_CURVE('',#597,#595,#668,.T.);
#523=EDGE_CURVE('',#603,#609,#669,.T.);
#524=EDGE_CURVE('',#618,#618,#670,.F.);
#525=EDGE_CURVE('',#619,#619,#671,.F.);
#526=EDGE_CURVE('',#620,#620,#672,.T.);
#527=EDGE_CURVE('',#621,#621,#673,.T.);
#528=EDGE_CURVE('',#622,#623,#86,.T.);
#529=EDGE_CURVE('',#623,#624,#87,.T.);
#530=EDGE_CURVE('',#624,#625,#88,.T.);
#531=EDGE_CURVE('',#625,#626,#89,.T.);
#532=EDGE_CURVE('',#626,#627,#90,.T.);
#533=EDGE_CURVE('',#627,#622,#91,.T.);
#534=EDGE_CURVE('',#628,#629,#92,.T.);
#535=EDGE_CURVE('',#630,#628,#93,.T.);
#536=EDGE_CURVE('',#631,#630,#94,.T.);
#537=EDGE_CURVE('',#632,#631,#95,.T.);
#538=EDGE_CURVE('',#633,#632,#96,.T.);
#539=EDGE_CURVE('',#629,#633,#97,.T.);
#540=EDGE_CURVE('',#633,#623,#136,.T.);
#541=EDGE_CURVE('',#632,#624,#137,.T.);
#542=EDGE_CURVE('',#631,#625,#138,.T.);
#543=EDGE_CURVE('',#630,#626,#139,.T.);
#544=EDGE_CURVE('',#628,#627,#140,.T.);
#545=EDGE_CURVE('',#629,#622,#141,.T.);
#546=VERTEX_POINT('',#1359);
#547=VERTEX_POINT('',#1361);
#548=VERTEX_POINT('',#1364);
#549=VERTEX_POINT('',#1365);
#550=VERTEX_POINT('',#1371);
#551=VERTEX_POINT('',#1373);
#552=VERTEX_POINT('',#1385);
#553=VERTEX_POINT('',#1387);
#554=VERTEX_POINT('',#1399);
#555=VERTEX_POINT('',#1401);
#556=VERTEX_POINT('',#1413);
#557=VERTEX_POINT('',#1415);
#558=VERTEX_POINT('',#1427);
#559=VERTEX_POINT('',#1429);
#560=VERTEX_POINT('',#1448);
#561=VERTEX_POINT('',#1450);
#562=VERTEX_POINT('',#1458);
#563=VERTEX_POINT('',#1459);
#564=VERTEX_POINT('',#1461);
#565=VERTEX_POINT('',#1463);
#566=VERTEX_POINT('',#1467);
#567=VERTEX_POINT('',#1468);
#568=VERTEX_POINT('',#1470);
#569=VERTEX_POINT('',#1472);
#570=VERTEX_POINT('',#1476);
#571=VERTEX_POINT('',#1478);
#572=VERTEX_POINT('',#1479);
#573=VERTEX_POINT('',#1481);
#574=VERTEX_POINT('',#1483);
#575=VERTEX_POINT('',#1489);
#576=VERTEX_POINT('',#1491);
#577=VERTEX_POINT('',#1495);
#578=VERTEX_POINT('',#1497);
#579=VERTEX_POINT('',#1498);
#580=VERTEX_POINT('',#1500);
#581=VERTEX_POINT('',#1502);
#582=VERTEX_POINT('',#1508);
#583=VERTEX_POINT('',#1510);
#584=VERTEX_POINT('',#1540);
#585=VERTEX_POINT('',#1542);
#586=VERTEX_POINT('',#1545);
#587=VERTEX_POINT('',#1548);
#588=VERTEX_POINT('',#1550);
#589=VERTEX_POINT('',#1553);
#590=VERTEX_POINT('',#1568);
#591=VERTEX_POINT('',#1569);
#592=VERTEX_POINT('',#1571);
#593=VERTEX_POINT('',#1573);
#594=VERTEX_POINT('',#1577);
#595=VERTEX_POINT('',#1578);
#596=VERTEX_POINT('',#1580);
#597=VERTEX_POINT('',#1582);
#598=VERTEX_POINT('',#1586);
#599=VERTEX_POINT('',#1588);
#600=VERTEX_POINT('',#1589);
#601=VERTEX_POINT('',#1591);
#602=VERTEX_POINT('',#1593);
#603=VERTEX_POINT('',#1599);
#604=VERTEX_POINT('',#1601);
#605=VERTEX_POINT('',#1605);
#606=VERTEX_POINT('',#1607);
#607=VERTEX_POINT('',#1608);
#608=VERTEX_POINT('',#1610);
#609=VERTEX_POINT('',#1612);
#610=VERTEX_POINT('',#1618);
#611=VERTEX_POINT('',#1620);
#612=VERTEX_POINT('',#1650);
#613=VERTEX_POINT('',#1652);
#614=VERTEX_POINT('',#1655);
#615=VERTEX_POINT('',#1658);
#616=VERTEX_POINT('',#1660);
#617=VERTEX_POINT('',#1663);
#618=VERTEX_POINT('',#1678);
#619=VERTEX_POINT('',#1680);
#620=VERTEX_POINT('',#1683);
#621=VERTEX_POINT('',#1685);
#622=VERTEX_POINT('',#1694);
#623=VERTEX_POINT('',#1695);
#624=VERTEX_POINT('',#1702);
#625=VERTEX_POINT('',#1708);
#626=VERTEX_POINT('',#1715);
#627=VERTEX_POINT('',#1722);
#628=VERTEX_POINT('',#1734);
#629=VERTEX_POINT('',#1735);
#630=VERTEX_POINT('',#1742);
#631=VERTEX_POINT('',#1749);
#632=VERTEX_POINT('',#1755);
#633=VERTEX_POINT('',#1762);
#634=CIRCLE('',#996,0.25);
#635=CIRCLE('',#997,0.498830632579836);
#636=CIRCLE('',#1005,0.25);
#637=CIRCLE('',#1006,0.498830632579837);
#638=CIRCLE('',#1015,0.1195);
#639=CIRCLE('',#1016,0.3);
#640=CIRCLE('',#1018,0.1195);
#641=CIRCLE('',#1019,0.3);
#642=CIRCLE('',#1022,0.35);
#643=CIRCLE('',#1023,0.28);
#644=CIRCLE('',#1025,0.35);
#645=CIRCLE('',#1027,0.295);
#646=CIRCLE('',#1028,0.3);
#647=CIRCLE('',#1030,0.3);
#648=CIRCLE('',#1032,0.22);
#649=CIRCLE('',#1033,0.22);
#650=CIRCLE('',#1035,0.2268);
#651=CIRCLE('',#1039,0.35);
#652=CIRCLE('',#1040,0.35);
#653=CIRCLE('',#1043,0.28);
#654=CIRCLE('',#1051,0.1195);
#655=CIRCLE('',#1052,0.3);
#656=CIRCLE('',#1054,0.1195);
#657=CIRCLE('',#1055,0.3);
#658=CIRCLE('',#1058,0.28);
#659=CIRCLE('',#1059,0.35);
#660=CIRCLE('',#1061,0.35);
#661=CIRCLE('',#1063,0.295);
#662=CIRCLE('',#1064,0.3);
#663=CIRCLE('',#1066,0.3);
#664=CIRCLE('',#1068,0.22);
#665=CIRCLE('',#1069,0.22);
#666=CIRCLE('',#1071,0.2268);
#667=CIRCLE('',#1075,0.35);
#668=CIRCLE('',#1076,0.35);
#669=CIRCLE('',#1079,0.28);
#670=CIRCLE('',#1085,0.25);
#671=CIRCLE('',#1086,0.4);
#672=CIRCLE('',#1088,0.25);
#673=CIRCLE('',#1089,0.4);
#674=EDGE_LOOP('',(#186));
#675=EDGE_LOOP('',(#187));
#676=EDGE_LOOP('',(#188,#189,#190,#191));
#677=EDGE_LOOP('',(#192,#193,#194,#195));
#678=EDGE_LOOP('',(#196,#197,#198,#199));
#679=EDGE_LOOP('',(#200,#201,#202,#203));
#680=EDGE_LOOP('',(#204,#205,#206,#207));
#681=EDGE_LOOP('',(#208,#209,#210,#211));
#682=EDGE_LOOP('',(#212));
#683=EDGE_LOOP('',(#213));
#684=EDGE_LOOP('',(#214));
#685=EDGE_LOOP('',(#215));
#686=EDGE_LOOP('',(#216));
#687=EDGE_LOOP('',(#217,#218,#219,#220,#221,#222));
#688=EDGE_LOOP('',(#223));
#689=EDGE_LOOP('',(#224,#225,#226,#227,#228,#229));
#690=EDGE_LOOP('',(#230,#231,#232,#233));
#691=EDGE_LOOP('',(#234,#235,#236,#237));
#692=EDGE_LOOP('',(#238));
#693=EDGE_LOOP('',(#239,#240,#241,#242,#243,#244));
#694=EDGE_LOOP('',(#245));
#695=EDGE_LOOP('',(#246,#247,#248,#249,#250,#251));
#696=EDGE_LOOP('',(#252,#253,#254,#255,#256,#257,#258,#259));
#697=EDGE_LOOP('',(#260,#261,#262,#263));
#698=EDGE_LOOP('',(#264,#265));
#699=EDGE_LOOP('',(#266));
#700=EDGE_LOOP('',(#267));
#701=EDGE_LOOP('',(#268));
#702=EDGE_LOOP('',(#269));
#703=EDGE_LOOP('',(#270));
#704=EDGE_LOOP('',(#271));
#705=EDGE_LOOP('',(#272));
#706=EDGE_LOOP('',(#273));
#707=EDGE_LOOP('',(#274));
#708=EDGE_LOOP('',(#275,#276,#277,#278,#279,#280,#281,#282));
#709=EDGE_LOOP('',(#283,#284,#285,#286,#287,#288,#289,#290));
#710=EDGE_LOOP('',(#291,#292));
#711=EDGE_LOOP('',(#293,#294,#295,#296));
#712=EDGE_LOOP('',(#297));
#713=EDGE_LOOP('',(#298));
#714=EDGE_LOOP('',(#299));
#715=EDGE_LOOP('',(#300));
#716=EDGE_LOOP('',(#301));
#717=EDGE_LOOP('',(#302,#303,#304,#305));
#718=EDGE_LOOP('',(#306,#307,#308,#309));
#719=EDGE_LOOP('',(#310,#311,#312,#313));
#720=EDGE_LOOP('',(#314));
#721=EDGE_LOOP('',(#315,#316,#317,#318,#319,#320));
#722=EDGE_LOOP('',(#321));
#723=EDGE_LOOP('',(#322,#323,#324,#325,#326,#327));
#724=EDGE_LOOP('',(#328,#329,#330,#331,#332,#333,#334,#335));
#725=EDGE_LOOP('',(#336,#337,#338,#339));
#726=EDGE_LOOP('',(#340,#341));
#727=EDGE_LOOP('',(#342));
#728=EDGE_LOOP('',(#343));
#729=EDGE_LOOP('',(#344));
#730=EDGE_LOOP('',(#345));
#731=EDGE_LOOP('',(#346));
#732=EDGE_LOOP('',(#347));
#733=EDGE_LOOP('',(#348));
#734=EDGE_LOOP('',(#349));
#735=EDGE_LOOP('',(#350));
#736=EDGE_LOOP('',(#351,#352,#353,#354,#355,#356,#357,#358));
#737=EDGE_LOOP('',(#359,#360,#361,#362,#363,#364,#365,#366));
#738=EDGE_LOOP('',(#367,#368));
#739=EDGE_LOOP('',(#369,#370,#371,#372));
#740=EDGE_LOOP('',(#373));
#741=EDGE_LOOP('',(#374));
#742=EDGE_LOOP('',(#375));
#743=EDGE_LOOP('',(#376));
#744=EDGE_LOOP('',(#377));
#745=EDGE_LOOP('',(#378,#379,#380,#381));
#746=EDGE_LOOP('',(#382));
#747=EDGE_LOOP('',(#383));
#748=EDGE_LOOP('',(#384));
#749=EDGE_LOOP('',(#385));
#750=EDGE_LOOP('',(#386));
#751=EDGE_LOOP('',(#387));
#752=EDGE_LOOP('',(#388));
#753=EDGE_LOOP('',(#389,#390,#391,#392,#393,#394));
#754=EDGE_LOOP('',(#395));
#755=EDGE_LOOP('',(#396,#397,#398,#399,#400,#401));
#756=EDGE_LOOP('',(#402,#403,#404,#405));
#757=EDGE_LOOP('',(#406,#407,#408,#409));
#758=EDGE_LOOP('',(#410,#411,#412,#413));
#759=EDGE_LOOP('',(#414,#415,#416,#417));
#760=EDGE_LOOP('',(#418,#419,#420,#421));
#761=EDGE_LOOP('',(#422,#423,#424,#425));
#762=FACE_BOUND('',#674,.T.);
#763=FACE_BOUND('',#675,.T.);
#764=FACE_BOUND('',#676,.T.);
#765=FACE_BOUND('',#677,.T.);
#766=FACE_BOUND('',#678,.T.);
#767=FACE_BOUND('',#679,.T.);
#768=FACE_BOUND('',#680,.T.);
#769=FACE_BOUND('',#681,.T.);
#770=FACE_BOUND('',#682,.T.);
#771=FACE_BOUND('',#683,.T.);
#772=FACE_BOUND('',#684,.T.);
#773=FACE_BOUND('',#685,.T.);
#774=FACE_BOUND('',#686,.T.);
#775=FACE_BOUND('',#687,.T.);
#776=FACE_BOUND('',#688,.T.);
#777=FACE_BOUND('',#689,.T.);
#778=FACE_BOUND('',#690,.T.);
#779=FACE_BOUND('',#691,.T.);
#780=FACE_BOUND('',#692,.T.);
#781=FACE_BOUND('',#693,.T.);
#782=FACE_BOUND('',#694,.T.);
#783=FACE_BOUND('',#695,.T.);
#784=FACE_BOUND('',#696,.T.);
#785=FACE_BOUND('',#697,.T.);
#786=FACE_BOUND('',#698,.T.);
#787=FACE_BOUND('',#699,.T.);
#788=FACE_BOUND('',#700,.T.);
#789=FACE_BOUND('',#701,.T.);
#790=FACE_BOUND('',#702,.T.);
#791=FACE_BOUND('',#703,.T.);
#792=FACE_BOUND('',#704,.T.);
#793=FACE_BOUND('',#705,.T.);
#794=FACE_BOUND('',#706,.T.);
#795=FACE_BOUND('',#707,.T.);
#796=FACE_BOUND('',#708,.T.);
#797=FACE_BOUND('',#709,.T.);
#798=FACE_BOUND('',#710,.T.);
#799=FACE_BOUND('',#711,.T.);
#800=FACE_BOUND('',#712,.T.);
#801=FACE_BOUND('',#713,.T.);
#802=FACE_BOUND('',#714,.T.);
#803=FACE_BOUND('',#715,.T.);
#804=FACE_BOUND('',#716,.T.);
#805=FACE_BOUND('',#717,.T.);
#806=FACE_BOUND('',#718,.T.);
#807=FACE_BOUND('',#719,.T.);
#808=FACE_BOUND('',#720,.T.);
#809=FACE_BOUND('',#721,.T.);
#810=FACE_BOUND('',#722,.T.);
#811=FACE_BOUND('',#723,.T.);
#812=FACE_BOUND('',#724,.T.);
#813=FACE_BOUND('',#725,.T.);
#814=FACE_BOUND('',#726,.T.);
#815=FACE_BOUND('',#727,.T.);
#816=FACE_BOUND('',#728,.T.);
#817=FACE_BOUND('',#729,.T.);
#818=FACE_BOUND('',#730,.T.);
#819=FACE_BOUND('',#731,.T.);
#820=FACE_BOUND('',#732,.T.);
#821=FACE_BOUND('',#733,.T.);
#822=FACE_BOUND('',#734,.T.);
#823=FACE_BOUND('',#735,.T.);
#824=FACE_BOUND('',#736,.T.);
#825=FACE_BOUND('',#737,.T.);
#826=FACE_BOUND('',#738,.T.);
#827=FACE_BOUND('',#739,.T.);
#828=FACE_BOUND('',#740,.T.);
#829=FACE_BOUND('',#741,.T.);
#830=FACE_BOUND('',#742,.T.);
#831=FACE_BOUND('',#743,.T.);
#832=FACE_BOUND('',#744,.T.);
#833=FACE_BOUND('',#745,.T.);
#834=FACE_BOUND('',#746,.T.);
#835=FACE_BOUND('',#747,.T.);
#836=FACE_BOUND('',#748,.T.);
#837=FACE_BOUND('',#749,.T.);
#838=FACE_BOUND('',#750,.T.);
#839=FACE_BOUND('',#751,.T.);
#840=FACE_BOUND('',#752,.T.);
#841=FACE_BOUND('',#753,.T.);
#842=FACE_BOUND('',#754,.T.);
#843=FACE_BOUND('',#755,.T.);
#844=FACE_BOUND('',#756,.T.);
#845=FACE_BOUND('',#757,.T.);
#846=FACE_BOUND('',#758,.T.);
#847=FACE_BOUND('',#759,.T.);
#848=FACE_BOUND('',#760,.T.);
#849=FACE_BOUND('',#761,.T.);
#850=PLANE('',#995);
#851=PLANE('',#998);
#852=PLANE('',#999);
#853=PLANE('',#1000);
#854=PLANE('',#1001);
#855=PLANE('',#1002);
#856=PLANE('',#1003);
#857=PLANE('',#1004);
#858=PLANE('',#1012);
#859=PLANE('',#1013);
#860=PLANE('',#1014);
#861=PLANE('',#1017);
#862=PLANE('',#1021);
#863=PLANE('',#1024);
#864=PLANE('',#1026);
#865=PLANE('',#1034);
#866=PLANE('',#1041);
#867=PLANE('',#1042);
#868=PLANE('',#1048);
#869=PLANE('',#1049);
#870=PLANE('',#1050);
#871=PLANE('',#1053);
#872=PLANE('',#1057);
#873=PLANE('',#1060);
#874=PLANE('',#1062);
#875=PLANE('',#1070);
#876=PLANE('',#1077);
#877=PLANE('',#1078);
#878=PLANE('',#1084);
#879=PLANE('',#1087);
#880=PLANE('',#1093);
#881=PLANE('',#1094);
#882=PLANE('',#1095);
#883=PLANE('',#1096);
#884=PLANE('',#1097);
#885=PLANE('',#1098);
#886=ADVANCED_FACE('',(#762,#763),#850,.F.);
#887=ADVANCED_FACE('',(#764),#851,.F.);
#888=ADVANCED_FACE('',(#765),#852,.F.);
#889=ADVANCED_FACE('',(#766),#853,.F.);
#890=ADVANCED_FACE('',(#767),#854,.F.);
#891=ADVANCED_FACE('',(#768),#855,.F.);
#892=ADVANCED_FACE('',(#769),#856,.F.);
#893=ADVANCED_FACE('',(#770,#771),#857,.T.);
#894=ADVANCED_FACE('',(#772,#773),#48,.F.);
#895=ADVANCED_FACE('',(#774,#775),#40,.T.);
#896=ADVANCED_FACE('',(#776,#777),#41,.T.);
#897=ADVANCED_FACE('',(#778),#858,.F.);
#898=ADVANCED_FACE('',(#779),#859,.T.);
#899=ADVANCED_FACE('',(#780,#781),#860,.F.);
#900=ADVANCED_FACE('',(#782,#783),#861,.T.);
#901=ADVANCED_FACE('',(#784),#49,.T.);
#902=ADVANCED_FACE('',(#785),#862,.F.);
#903=ADVANCED_FACE('',(#786),#863,.T.);
#904=ADVANCED_FACE('',(#787,#788),#864,.F.);
#905=ADVANCED_FACE('',(#789,#790),#50,.T.);
#906=ADVANCED_FACE('',(#791,#792),#51,.T.);
#907=ADVANCED_FACE('',(#793),#865,.F.);
#908=ADVANCED_FACE('',(#794,#795),#42,.T.);
#909=ADVANCED_FACE('',(#796),#52,.T.);
#910=ADVANCED_FACE('',(#797),#53,.T.);
#911=ADVANCED_FACE('',(#798),#866,.T.);
#912=ADVANCED_FACE('',(#799),#867,.F.);
#913=ADVANCED_FACE('',(#800,#801),#54,.F.);
#914=ADVANCED_FACE('',(#802,#803),#43,.T.);
#915=ADVANCED_FACE('',(#804,#805),#10,.F.);
#916=ADVANCED_FACE('',(#806),#868,.F.);
#917=ADVANCED_FACE('',(#807),#869,.T.);
#918=ADVANCED_FACE('',(#808,#809),#870,.F.);
#919=ADVANCED_FACE('',(#810,#811),#871,.T.);
#920=ADVANCED_FACE('',(#812),#55,.T.);
#921=ADVANCED_FACE('',(#813),#872,.F.);
#922=ADVANCED_FACE('',(#814),#873,.T.);
#923=ADVANCED_FACE('',(#815,#816),#874,.F.);
#924=ADVANCED_FACE('',(#817,#818),#56,.T.);
#925=ADVANCED_FACE('',(#819,#820),#57,.T.);
#926=ADVANCED_FACE('',(#821),#875,.F.);
#927=ADVANCED_FACE('',(#822,#823),#44,.T.);
#928=ADVANCED_FACE('',(#824),#58,.T.);
#929=ADVANCED_FACE('',(#825),#59,.T.);
#930=ADVANCED_FACE('',(#826),#876,.T.);
#931=ADVANCED_FACE('',(#827),#877,.F.);
#932=ADVANCED_FACE('',(#828,#829),#60,.F.);
#933=ADVANCED_FACE('',(#830,#831),#45,.T.);
#934=ADVANCED_FACE('',(#832,#833),#11,.F.);
#935=ADVANCED_FACE('',(#834,#835),#878,.T.);
#936=ADVANCED_FACE('',(#836,#837),#879,.F.);
#937=ADVANCED_FACE('',(#838,#839),#61,.F.);
#938=ADVANCED_FACE('',(#840,#841),#46,.T.);
#939=ADVANCED_FACE('',(#842,#843),#47,.T.);
#940=ADVANCED_FACE('',(#844),#880,.F.);
#941=ADVANCED_FACE('',(#845),#881,.F.);
#942=ADVANCED_FACE('',(#846),#882,.F.);
#943=ADVANCED_FACE('',(#847),#883,.F.);
#944=ADVANCED_FACE('',(#848),#884,.F.);
#945=ADVANCED_FACE('',(#849),#885,.F.);
#946=CLOSED_SHELL('',(#886,#887,#888,#889,#890,#891,#892,#893,#894,#895,
#896));
#947=CLOSED_SHELL('',(#897,#898,#899,#900,#901,#902,#903,#904,#905,#906,
#907,#908,#909,#910,#911,#912,#913,#914,#915));
#948=CLOSED_SHELL('',(#916,#917,#918,#919,#920,#921,#922,#923,#924,#925,
#926,#927,#928,#929,#930,#931,#932,#933,#934));
#949=CLOSED_SHELL('',(#935,#936,#937,#938,#939,#940,#941,#942,#943,#944,
#945));
#950=STYLED_ITEM('',(#954),#980);
#951=STYLED_ITEM('',(#955),#981);
#952=STYLED_ITEM('',(#956),#982);
#953=STYLED_ITEM('',(#957),#983);
#954=PRESENTATION_STYLE_ASSIGNMENT((#958));
#955=PRESENTATION_STYLE_ASSIGNMENT((#959));
#956=PRESENTATION_STYLE_ASSIGNMENT((#960));
#957=PRESENTATION_STYLE_ASSIGNMENT((#961));
#958=SURFACE_STYLE_USAGE(.BOTH.,#962);
#959=SURFACE_STYLE_USAGE(.BOTH.,#963);
#960=SURFACE_STYLE_USAGE(.BOTH.,#964);
#961=SURFACE_STYLE_USAGE(.BOTH.,#965);
#962=SURFACE_SIDE_STYLE('',(#966));
#963=SURFACE_SIDE_STYLE('',(#967));
#964=SURFACE_SIDE_STYLE('',(#968));
#965=SURFACE_SIDE_STYLE('',(#969));
#966=SURFACE_STYLE_FILL_AREA(#970);
#967=SURFACE_STYLE_FILL_AREA(#971);
#968=SURFACE_STYLE_FILL_AREA(#972);
#969=SURFACE_STYLE_FILL_AREA(#973);
#970=FILL_AREA_STYLE('',(#974));
#971=FILL_AREA_STYLE('',(#975));
#972=FILL_AREA_STYLE('',(#976));
#973=FILL_AREA_STYLE('',(#977));
#974=FILL_AREA_STYLE_COLOUR('',#978);
#975=FILL_AREA_STYLE_COLOUR('',#979);
#976=FILL_AREA_STYLE_COLOUR('',#979);
#977=FILL_AREA_STYLE_COLOUR('',#979);
#978=COLOUR_RGB('',0.647058823529412,0.647058823529412,0.647058823529412);
#979=COLOUR_RGB('',0.196078431372549,0.196078431372549,0.196078431372549);
#980=MANIFOLD_SOLID_BREP('\X2\87BA6BCD\X0\',#946);
#981=MANIFOLD_SOLID_BREP('\X2\94FE67618FDE6746\X0\R',#947);
#982=MANIFOLD_SOLID_BREP('\X2\94FE67618FDE6746\X0\L',#948);
#983=MANIFOLD_SOLID_BREP('\X2\516D89D26746\X0\',#949);
#984=SHAPE_DEFINITION_REPRESENTATION(#1796,#989);
#985=SHAPE_DEFINITION_REPRESENTATION(#1797,#990);
#986=SHAPE_DEFINITION_REPRESENTATION(#1800,#991);
#987=SHAPE_DEFINITION_REPRESENTATION(#1802,#992);
#988=SHAPE_DEFINITION_REPRESENTATION(#1804,#993);
#989=SHAPE_REPRESENTATION('#25 Chain Tensioner',(#994,#1010,#1011,#1047,
#1083,#1099),#1783);
#990=SHAPE_REPRESENTATION('??',(#994),#1784);
#991=SHAPE_REPRESENTATION('????R',(#994),#1785);
#992=SHAPE_REPRESENTATION('????L',(#994),#1786);
#993=SHAPE_REPRESENTATION('???',(#994),#1787);
#994=AXIS2_PLACEMENT_3D('',#1356,#1100,#1101);
#995=AXIS2_PLACEMENT_3D('',#1357,#1102,#1103);
#996=AXIS2_PLACEMENT_3D('',#1358,#1104,#1105);
#997=AXIS2_PLACEMENT_3D('',#1360,#1106,#1107);
#998=AXIS2_PLACEMENT_3D('',#1362,#1108,#1109);
#999=AXIS2_PLACEMENT_3D('',#1379,#1112,#1113);
#1000=AXIS2_PLACEMENT_3D('',#1393,#1115,#1116);
#1001=AXIS2_PLACEMENT_3D('',#1407,#1118,#1119);
#1002=AXIS2_PLACEMENT_3D('',#1421,#1121,#1122);
#1003=AXIS2_PLACEMENT_3D('',#1435,#1124,#1125);
#1004=AXIS2_PLACEMENT_3D('',#1446,#1126,#1127);
#1005=AXIS2_PLACEMENT_3D('',#1447,#1128,#1129);
#1006=AXIS2_PLACEMENT_3D('',#1449,#1130,#1131);
#1007=AXIS2_PLACEMENT_3D('',#1451,#1132,#1133);
#1008=AXIS2_PLACEMENT_3D('',#1452,#1134,#1135);
#1009=AXIS2_PLACEMENT_3D('',#1453,#1136,#1137);
#1010=AXIS2_PLACEMENT_3D('',#1454,#1138,#1139);
#1011=AXIS2_PLACEMENT_3D('',#1455,#1140,#1141);
#1012=AXIS2_PLACEMENT_3D('',#1456,#1142,#1143);
#1013=AXIS2_PLACEMENT_3D('',#1465,#1148,#1149);
#1014=AXIS2_PLACEMENT_3D('',#1474,#1154,#1155);
#1015=AXIS2_PLACEMENT_3D('',#1475,#1156,#1157);
#1016=AXIS2_PLACEMENT_3D('',#1477,#1158,#1159);
#1017=AXIS2_PLACEMENT_3D('',#1493,#1164,#1165);
#1018=AXIS2_PLACEMENT_3D('',#1494,#1166,#1167);
#1019=AXIS2_PLACEMENT_3D('',#1496,#1168,#1169);
#1020=AXIS2_PLACEMENT_3D('',#1512,#1174,#1175);
#1021=AXIS2_PLACEMENT_3D('',#1533,#1176,#1177);
#1022=AXIS2_PLACEMENT_3D('',#1534,#1178,#1179);
#1023=AXIS2_PLACEMENT_3D('',#1535,#1180,#1181);
#1024=AXIS2_PLACEMENT_3D('',#1536,#1182,#1183);
#1025=AXIS2_PLACEMENT_3D('',#1537,#1184,#1185);
#1026=AXIS2_PLACEMENT_3D('',#1538,#1186,#1187);
#1027=AXIS2_PLACEMENT_3D('',#1539,#1188,#1189);
#1028=AXIS2_PLACEMENT_3D('',#1541,#1190,#1191);
#1029=AXIS2_PLACEMENT_3D('',#1543,#1192,#1193);
#1030=AXIS2_PLACEMENT_3D('',#1544,#1194,#1195);
#1031=AXIS2_PLACEMENT_3D('',#1546,#1196,#1197);
#1032=AXIS2_PLACEMENT_3D('',#1547,#1198,#1199);
#1033=AXIS2_PLACEMENT_3D('',#1549,#1200,#1201);
#1034=AXIS2_PLACEMENT_3D('',#1551,#1202,#1203);
#1035=AXIS2_PLACEMENT_3D('',#1552,#1204,#1205);
#1036=AXIS2_PLACEMENT_3D('',#1554,#1206,#1207);
#1037=AXIS2_PLACEMENT_3D('',#1555,#1208,#1209);
#1038=AXIS2_PLACEMENT_3D('',#1556,#1210,#1211);
#1039=AXIS2_PLACEMENT_3D('',#1557,#1212,#1213);
#1040=AXIS2_PLACEMENT_3D('',#1558,#1214,#1215);
#1041=AXIS2_PLACEMENT_3D('',#1559,#1216,#1217);
#1042=AXIS2_PLACEMENT_3D('',#1560,#1218,#1219);
#1043=AXIS2_PLACEMENT_3D('',#1561,#1220,#1221);
#1044=AXIS2_PLACEMENT_3D('',#1562,#1222,#1223);
#1045=AXIS2_PLACEMENT_3D('',#1563,#1224,#1225);
#1046=AXIS2_PLACEMENT_3D('',#1564,#1226,#1227);
#1047=AXIS2_PLACEMENT_3D('',#1565,#1228,#1229);
#1048=AXIS2_PLACEMENT_3D('',#1566,#1230,#1231);
#1049=AXIS2_PLACEMENT_3D('',#1575,#1236,#1237);
#1050=AXIS2_PLACEMENT_3D('',#1584,#1242,#1243);
#1051=AXIS2_PLACEMENT_3D('',#1585,#1244,#1245);
#1052=AXIS2_PLACEMENT_3D('',#1587,#1246,#1247);
#1053=AXIS2_PLACEMENT_3D('',#1603,#1252,#1253);
#1054=AXIS2_PLACEMENT_3D('',#1604,#1254,#1255);
#1055=AXIS2_PLACEMENT_3D('',#1606,#1256,#1257);
#1056=AXIS2_PLACEMENT_3D('',#1622,#1262,#1263);
#1057=AXIS2_PLACEMENT_3D('',#1643,#1264,#1265);
#1058=AXIS2_PLACEMENT_3D('',#1644,#1266,#1267);
#1059=AXIS2_PLACEMENT_3D('',#1645,#1268,#1269);
#1060=AXIS2_PLACEMENT_3D('',#1646,#1270,#1271);
#1061=AXIS2_PLACEMENT_3D('',#1647,#1272,#1273);
#1062=AXIS2_PLACEMENT_3D('',#1648,#1274,#1275);
#1063=AXIS2_PLACEMENT_3D('',#1649,#1276,#1277);
#1064=AXIS2_PLACEMENT_3D('',#1651,#1278,#1279);
#1065=AXIS2_PLACEMENT_3D('',#1653,#1280,#1281);
#1066=AXIS2_PLACEMENT_3D('',#1654,#1282,#1283);
#1067=AXIS2_PLACEMENT_3D('',#1656,#1284,#1285);
#1068=AXIS2_PLACEMENT_3D('',#1657,#1286,#1287);
#1069=AXIS2_PLACEMENT_3D('',#1659,#1288,#1289);
#1070=AXIS2_PLACEMENT_3D('',#1661,#1290,#1291);
#1071=AXIS2_PLACEMENT_3D('',#1662,#1292,#1293);
#1072=AXIS2_PLACEMENT_3D('',#1664,#1294,#1295);
#1073=AXIS2_PLACEMENT_3D('',#1665,#1296,#1297);
#1074=AXIS2_PLACEMENT_3D('',#1666,#1298,#1299);
#1075=AXIS2_PLACEMENT_3D('',#1667,#1300,#1301);
#1076=AXIS2_PLACEMENT_3D('',#1668,#1302,#1303);
#1077=AXIS2_PLACEMENT_3D('',#1669,#1304,#1305);
#1078=AXIS2_PLACEMENT_3D('',#1670,#1306,#1307);
#1079=AXIS2_PLACEMENT_3D('',#1671,#1308,#1309);
#1080=AXIS2_PLACEMENT_3D('',#1672,#1310,#1311);
#1081=AXIS2_PLACEMENT_3D('',#1673,#1312,#1313);
#1082=AXIS2_PLACEMENT_3D('',#1674,#1314,#1315);
#1083=AXIS2_PLACEMENT_3D('',#1675,#1316,#1317);
#1084=AXIS2_PLACEMENT_3D('',#1676,#1318,#1319);
#1085=AXIS2_PLACEMENT_3D('',#1677,#1320,#1321);
#1086=AXIS2_PLACEMENT_3D('',#1679,#1322,#1323);
#1087=AXIS2_PLACEMENT_3D('',#1681,#1324,#1325);
#1088=AXIS2_PLACEMENT_3D('',#1682,#1326,#1327);
#1089=AXIS2_PLACEMENT_3D('',#1684,#1328,#1329);
#1090=AXIS2_PLACEMENT_3D('',#1686,#1330,#1331);
#1091=AXIS2_PLACEMENT_3D('',#1687,#1332,#1333);
#1092=AXIS2_PLACEMENT_3D('',#1728,#1334,#1335);
#1093=AXIS2_PLACEMENT_3D('',#1769,#1336,#1337);
#1094=AXIS2_PLACEMENT_3D('',#1772,#1340,#1341);
#1095=AXIS2_PLACEMENT_3D('',#1774,#1343,#1344);
#1096=AXIS2_PLACEMENT_3D('',#1776,#1346,#1347);
#1097=AXIS2_PLACEMENT_3D('',#1778,#1349,#1350);
#1098=AXIS2_PLACEMENT_3D('',#1780,#1352,#1353);
#1099=AXIS2_PLACEMENT_3D('',#1781,#1354,#1355);
#1100=DIRECTION('',(0.,0.,1.));
#1101=DIRECTION('',(1.,0.,0.));
#1102=DIRECTION('',(-1.,0.,0.));
#1103=DIRECTION('',(0.,-1.,0.));
#1104=DIRECTION('',(-1.,0.,0.));
#1105=DIRECTION('',(0.,0.,1.));
#1106=DIRECTION('',(-1.,0.,0.));
#1107=DIRECTION('',(0.,0.,1.));
#1108=DIRECTION('',(0.,0.866025403784439,-0.5));
#1109=DIRECTION('',(0.,0.5,0.866025403784439));
#1110=DIRECTION('',(1.,0.,0.));
#1111=DIRECTION('',(1.,0.,0.));
#1112=DIRECTION('',(0.,0.,-1.));
#1113=DIRECTION('',(-1.,0.,0.));
#1114=DIRECTION('',(1.,0.,0.));
#1115=DIRECTION('',(0.,-0.866025403784438,-0.5));
#1116=DIRECTION('',(0.,0.5,-0.866025403784439));
#1117=DIRECTION('',(1.,0.,0.));
#1118=DIRECTION('',(0.,-0.866025403784439,0.5));
#1119=DIRECTION('',(0.,-0.5,-0.866025403784439));
#1120=DIRECTION('',(1.,0.,0.));
#1121=DIRECTION('',(0.,-3.00462919747432E-16,1.));
#1122=DIRECTION('',(0.,-1.,-3.00462919747432E-16));
#1123=DIRECTION('',(1.,0.,0.));
#1124=DIRECTION('',(0.,0.866025403784438,0.5));
#1125=DIRECTION('',(0.,-0.5,0.866025403784438));
#1126=DIRECTION('',(-1.,0.,0.));
#1127=DIRECTION('',(0.,-1.,0.));
#1128=DIRECTION('',(-1.,0.,0.));
#1129=DIRECTION('',(0.,0.,1.));
#1130=DIRECTION('',(-1.,0.,0.));
#1131=DIRECTION('',(0.,0.,1.));
#1132=DIRECTION('',(-1.,0.,0.));
#1133=DIRECTION('',(0.,0.,1.));
#1134=DIRECTION('',(1.,0.,0.));
#1135=DIRECTION('',(0.,0.,-1.));
#1136=DIRECTION('',(-1.,0.,0.));
#1137=DIRECTION('',(0.,0.,1.));
#1138=DIRECTION('',(0.,0.,1.));
#1139=DIRECTION('',(1.,0.,0.));
#1140=DIRECTION('',(0.,0.,-1.));
#1141=DIRECTION('',(-1.,0.,0.));
#1142=DIRECTION('',(0.,0.,-1.));
#1143=DIRECTION('',(1.,0.,0.));
#1144=DIRECTION('',(-1.,0.,0.));
#1145=DIRECTION('',(0.,-1.,0.));
#1146=DIRECTION('',(-1.,0.,0.));
#1147=DIRECTION('',(0.,-1.,0.));
#1148=DIRECTION('',(0.,0.,-1.));
#1149=DIRECTION('',(1.,0.,0.));
#1150=DIRECTION('',(-1.,0.,0.));
#1151=DIRECTION('',(0.,-1.,0.));
#1152=DIRECTION('',(-1.,0.,0.));
#1153=DIRECTION('',(0.,-1.,0.));
#1154=DIRECTION('',(0.,-1.,0.));
#1155=DIRECTION('',(0.,0.,-1.));
#1156=DIRECTION('',(0.,1.,0.));
#1157=DIRECTION('',(0.,0.,-1.));
#1158=DIRECTION('',(0.,1.,0.));
#1159=DIRECTION('',(0.,0.,-1.));
#1160=DIRECTION('',(-1.,0.,0.));
#1161=DIRECTION('',(0.,0.,-1.));
#1162=DIRECTION('',(0.,0.,-1.));
#1163=DIRECTION('',(-1.,0.,0.));
#1164=DIRECTION('',(0.,-1.,0.));
#1165=DIRECTION('',(0.,0.,-1.));
#1166=DIRECTION('',(0.,1.,0.));
#1167=DIRECTION('',(0.,0.,-1.));
#1168=DIRECTION('',(0.,1.,0.));
#1169=DIRECTION('',(0.,0.,-1.));
#1170=DIRECTION('',(-1.,0.,0.));
#1171=DIRECTION('',(0.,0.,-1.));
#1172=DIRECTION('',(0.,0.,-1.));
#1173=DIRECTION('',(-1.,0.,0.));
#1174=DIRECTION('',(0.,-1.,0.));
#1175=DIRECTION('',(0.,0.,-1.));
#1176=DIRECTION('',(1.,0.,0.));
#1177=DIRECTION('',(0.,-1.,0.));
#1178=DIRECTION('',(1.,0.,0.));
#1179=DIRECTION('',(0.,0.,1.));
#1180=DIRECTION('',(-1.,0.,0.));
#1181=DIRECTION('',(0.,0.,1.));
#1182=DIRECTION('',(1.,0.,0.));
#1183=DIRECTION('',(0.,-1.,0.));
#1184=DIRECTION('',(1.,0.,0.));
#1185=DIRECTION('',(0.,0.,1.));
#1186=DIRECTION('',(-1.,0.,0.));
#1187=DIRECTION('',(0.,0.,-1.));
#1188=DIRECTION('',(1.,0.,0.));
#1189=DIRECTION('',(0.,0.,-1.));
#1190=DIRECTION('',(-1.,0.,0.));
#1191=DIRECTION('',(0.,0.,1.));
#1192=DIRECTION('',(1.,0.,0.));
#1193=DIRECTION('',(0.,0.,1.));
#1194=DIRECTION('',(-1.,0.,0.));
#1195=DIRECTION('',(0.,0.,1.));
#1196=DIRECTION('',(1.,0.,0.));
#1197=DIRECTION('',(0.,0.,1.));
#1198=DIRECTION('',(-1.,0.,0.));
#1199=DIRECTION('',(0.,0.,1.));
#1200=DIRECTION('',(-1.,0.,0.));
#1201=DIRECTION('',(0.,0.,1.));
#1202=DIRECTION('',(1.,0.,0.));
#1203=DIRECTION('',(0.,-1.,0.));
#1204=DIRECTION('',(-1.,0.,0.));
#1205=DIRECTION('',(0.,0.,1.));
#1206=DIRECTION('',(1.,0.,0.));
#1207=DIRECTION('',(0.,0.,1.));
#1208=DIRECTION('',(-1.,0.,0.));
#1209=DIRECTION('',(0.,0.,-1.));
#1210=DIRECTION('',(-1.,0.,0.));
#1211=DIRECTION('',(0.,0.,-1.));
#1212=DIRECTION('',(-1.,0.,0.));
#1213=DIRECTION('',(0.,0.,1.));
#1214=DIRECTION('',(-1.,0.,0.));
#1215=DIRECTION('',(0.,0.,1.));
#1216=DIRECTION('',(1.,0.,0.));
#1217=DIRECTION('',(0.,-1.,0.));
#1218=DIRECTION('',(1.,0.,0.));
#1219=DIRECTION('',(0.,-1.,0.));
#1220=DIRECTION('',(-1.,0.,0.));
#1221=DIRECTION('',(0.,0.,1.));
#1222=DIRECTION('',(0.,-1.,0.));
#1223=DIRECTION('',(0.,0.,-1.));
#1224=DIRECTION('',(-1.,0.,0.));
#1225=DIRECTION('',(0.,0.,-1.));
#1226=DIRECTION('',(1.,0.,0.));
#1227=DIRECTION('',(0.,0.,1.));
#1228=DIRECTION('',(0.,0.,1.));
#1229=DIRECTION('',(1.,0.,0.));
#1230=DIRECTION('',(0.,0.,-1.));
#1231=DIRECTION('',(-1.,0.,0.));
#1232=DIRECTION('',(1.,0.,0.));
#1233=DIRECTION('',(0.,-1.,0.));
#1234=DIRECTION('',(1.,0.,0.));
#1235=DIRECTION('',(0.,-1.,0.));
#1236=DIRECTION('',(0.,0.,-1.));
#1237=DIRECTION('',(-1.,0.,0.));
#1238=DIRECTION('',(1.,0.,0.));
#1239=DIRECTION('',(0.,-1.,0.));
#1240=DIRECTION('',(1.,0.,0.));
#1241=DIRECTION('',(0.,-1.,0.));
#1242=DIRECTION('',(0.,-1.,0.));
#1243=DIRECTION('',(0.,0.,-1.));
#1244=DIRECTION('',(0.,-1.,0.));
#1245=DIRECTION('',(0.,0.,-1.));
#1246=DIRECTION('',(0.,-1.,0.));
#1247=DIRECTION('',(0.,0.,-1.));
#1248=DIRECTION('',(1.,0.,0.));
#1249=DIRECTION('',(0.,0.,-1.));
#1250=DIRECTION('',(0.,0.,-1.));
#1251=DIRECTION('',(1.,0.,0.));
#1252=DIRECTION('',(0.,-1.,0.));
#1253=DIRECTION('',(0.,0.,-1.));
#1254=DIRECTION('',(0.,-1.,0.));
#1255=DIRECTION('',(0.,0.,-1.));
#1256=DIRECTION('',(0.,-1.,0.));
#1257=DIRECTION('',(0.,0.,-1.));
#1258=DIRECTION('',(1.,0.,0.));
#1259=DIRECTION('',(0.,0.,-1.));
#1260=DIRECTION('',(0.,0.,-1.));
#1261=DIRECTION('',(1.,0.,0.));
#1262=DIRECTION('',(0.,-1.,0.));
#1263=DIRECTION('',(0.,0.,-1.));
#1264=DIRECTION('',(-1.,0.,0.));
#1265=DIRECTION('',(0.,-1.,0.));
#1266=DIRECTION('',(-1.,0.,0.));
#1267=DIRECTION('',(0.,0.,1.));
#1268=DIRECTION('',(1.,0.,0.));
#1269=DIRECTION('',(0.,0.,1.));
#1270=DIRECTION('',(-1.,0.,0.));
#1271=DIRECTION('',(0.,-1.,0.));
#1272=DIRECTION('',(1.,0.,0.));
#1273=DIRECTION('',(0.,0.,1.));
#1274=DIRECTION('',(1.,0.,0.));
#1275=DIRECTION('',(0.,0.,-1.));
#1276=DIRECTION('',(1.,0.,0.));
#1277=DIRECTION('',(0.,0.,-1.));
#1278=DIRECTION('',(-1.,0.,0.));
#1279=DIRECTION('',(0.,0.,1.));
#1280=DIRECTION('',(-1.,0.,0.));
#1281=DIRECTION('',(0.,0.,1.));
#1282=DIRECTION('',(-1.,0.,0.));
#1283=DIRECTION('',(0.,0.,1.));
#1284=DIRECTION('',(-1.,0.,0.));
#1285=DIRECTION('',(0.,0.,1.));
#1286=DIRECTION('',(-1.,0.,0.));
#1287=DIRECTION('',(0.,0.,1.));
#1288=DIRECTION('',(-1.,0.,0.));
#1289=DIRECTION('',(0.,0.,1.));
#1290=DIRECTION('',(-1.,0.,0.));
#1291=DIRECTION('',(0.,-1.,0.));
#1292=DIRECTION('',(-1.,0.,0.));
#1293=DIRECTION('',(0.,0.,1.));
#1294=DIRECTION('',(-1.,0.,0.));
#1295=DIRECTION('',(0.,0.,1.));
#1296=DIRECTION('',(1.,0.,0.));
#1297=DIRECTION('',(0.,0.,-1.));
#1298=DIRECTION('',(1.,0.,0.));
#1299=DIRECTION('',(0.,0.,-1.));
#1300=DIRECTION('',(-1.,0.,0.));
#1301=DIRECTION('',(0.,0.,1.));
#1302=DIRECTION('',(-1.,0.,0.));
#1303=DIRECTION('',(0.,0.,1.));
#1304=DIRECTION('',(-1.,0.,0.));
#1305=DIRECTION('',(0.,-1.,0.));
#1306=DIRECTION('',(-1.,0.,0.));
#1307=DIRECTION('',(0.,-1.,0.));
#1308=DIRECTION('',(-1.,0.,0.));
#1309=DIRECTION('',(0.,0.,1.));
#1310=DIRECTION('',(0.,-1.,0.));
#1311=DIRECTION('',(0.,0.,-1.));
#1312=DIRECTION('',(1.,0.,0.));
#1313=DIRECTION('',(0.,0.,-1.));
#1314=DIRECTION('',(-1.,0.,0.));
#1315=DIRECTION('',(0.,0.,1.));
#1316=DIRECTION('',(0.,0.,1.));
#1317=DIRECTION('',(1.,0.,0.));
#1318=DIRECTION('',(1.,0.,0.));
#1319=DIRECTION('',(0.,1.,0.));
#1320=DIRECTION('',(1.,0.,0.));
#1321=DIRECTION('',(0.,0.,-1.));
#1322=DIRECTION('',(1.,0.,0.));
#1323=DIRECTION('',(0.,0.,-1.));
#1324=DIRECTION('',(1.,0.,0.));
#1325=DIRECTION('',(0.,1.,0.));
#1326=DIRECTION('',(1.,0.,0.));
#1327=DIRECTION('',(0.,0.,-1.));
#1328=DIRECTION('',(1.,0.,0.));
#1329=DIRECTION('',(0.,0.,-1.));
#1330=DIRECTION('',(1.,0.,0.));
#1331=DIRECTION('',(0.,0.,-1.));
#1332=DIRECTION('',(1.,0.,0.));
#1333=DIRECTION('',(0.,0.,-1.));
#1334=DIRECTION('',(-1.,0.,0.));
#1335=DIRECTION('',(0.,0.,1.));
#1336=DIRECTION('',(0.,-0.866025403784438,0.5));
#1337=DIRECTION('',(0.,-0.5,-0.866025403784438));
#1338=DIRECTION('',(-1.,0.,0.));
#1339=DIRECTION('',(-1.,0.,0.));
#1340=DIRECTION('',(0.,0.,1.));
#1341=DIRECTION('',(1.,0.,0.));
#1342=DIRECTION('',(-1.,0.,0.));
#1343=DIRECTION('',(0.,0.866025403784439,0.5));
#1344=DIRECTION('',(0.,-0.5,0.866025403784439));
#1345=DIRECTION('',(-1.,0.,0.));
#1346=DIRECTION('',(0.,0.866025403784439,-0.5));
#1347=DIRECTION('',(0.,0.5,0.866025403784439));
#1348=DIRECTION('',(-1.,0.,0.));
#1349=DIRECTION('',(0.,0.,-1.));
#1350=DIRECTION('',(-1.,0.,0.));
#1351=DIRECTION('',(-1.,0.,0.));
#1352=DIRECTION('',(0.,-0.866025403784439,-0.5));
#1353=DIRECTION('',(0.,0.5,-0.866025403784439));
#1354=DIRECTION('',(0.,0.,1.));
#1355=DIRECTION('',(1.,0.,0.));
#1356=CARTESIAN_POINT('',(0.,0.,0.));
#1357=CARTESIAN_POINT('',(-1.5,0.,0.));
#1358=CARTESIAN_POINT('',(-1.5,0.,0.));
#1359=CARTESIAN_POINT('',(-1.5,0.,0.25));
#1360=CARTESIAN_POINT('',(-1.5,0.,0.));
#1361=CARTESIAN_POINT('',(-1.5,0.,0.498830632579836));
#1362=CARTESIAN_POINT('',(-1.8,-0.43301270189222,0.25));
#1363=CARTESIAN_POINT('',(-1.8,-0.577350269189626,-1.3010426069826E-16));
#1364=CARTESIAN_POINT('',(-1.75466666666667,-0.577350269189626,-1.55432665653238E-16));
#1365=CARTESIAN_POINT('',(-1.54533333333333,-0.577350269189626,-1.3010426069826E-16));
#1366=CARTESIAN_POINT('',(-1.54533333333326,-0.577350269189631,-8.94534480490066E-15));
#1367=CARTESIAN_POINT('',(-1.5181198478545,-0.530215129689384,0.0816404564362664));
#1368=CARTESIAN_POINT('',(-1.48324773095643,-0.433534787274061,0.249095721592761));
#1369=CARTESIAN_POINT('',(-1.51808593091502,-0.335869019957553,0.418257792745153));
#1370=CARTESIAN_POINT('',(-1.54533333333329,-0.288675134594827,0.499999999999976));
#1371=CARTESIAN_POINT('',(-1.5453333333333,-0.288675134594872,0.5));
#1372=CARTESIAN_POINT('',(-1.8,-0.288675134594813,0.5));
#1373=CARTESIAN_POINT('',(-1.7546666666667,-0.288675134594872,0.5));
#1374=CARTESIAN_POINT('',(-1.75466666666674,-0.577350269189631,-8.93258231794764E-15));
#1375=CARTESIAN_POINT('',(-1.78188015214549,-0.530215129689384,0.0816404564362664));
#1376=CARTESIAN_POINT('',(-1.81675226904357,-0.433534787274061,0.249095721592761));
#1377=CARTESIAN_POINT('',(-1.78191406908498,-0.335869019957553,0.418257792745153));
#1378=CARTESIAN_POINT('',(-1.75466666666671,-0.288675134594827,0.499999999999976));
#1379=CARTESIAN_POINT('',(-1.8,-1.7347234759768E-16,0.5));
#1380=CARTESIAN_POINT('',(-1.54533333333335,-0.288675134594864,0.5));
#1381=CARTESIAN_POINT('',(-1.51820262813559,-0.194691614899499,0.5));
#1382=CARTESIAN_POINT('',(-1.48314655713217,0.000150478001960809,0.5));
#1383=CARTESIAN_POINT('',(-1.51820480971743,0.194699172120652,0.5));
#1384=CARTESIAN_POINT('',(-1.54533333333333,0.288675134594812,0.5));
#1385=CARTESIAN_POINT('',(-1.54533333333333,0.288675134594812,0.5));
#1386=CARTESIAN_POINT('',(-1.8,0.288675134594812,0.5));
#1387=CARTESIAN_POINT('',(-1.75466666666667,0.288675134594812,0.5));
#1388=CARTESIAN_POINT('',(-1.75466666666665,-0.288675134594863,0.5));
#1389=CARTESIAN_POINT('',(-1.78179737186441,-0.194691614899499,0.5));
#1390=CARTESIAN_POINT('',(-1.81685344286783,0.000150478001961231,0.5));
#1391=CARTESIAN_POINT('',(-1.78179519028257,0.194699172120652,0.5));
#1392=CARTESIAN_POINT('',(-1.75466666666667,0.288675134594812,0.5));
#1393=CARTESIAN_POINT('',(-1.8,0.43301270189222,0.25));
#1394=CARTESIAN_POINT('',(-1.54533333333326,0.288675134594808,0.500000000000009));
#1395=CARTESIAN_POINT('',(-1.5181198478545,0.335810274095058,0.418359543563729));
#1396=CARTESIAN_POINT('',(-1.48324773095643,0.432490616510387,0.250904278407223));
#1397=CARTESIAN_POINT('',(-1.51808593091502,0.5301563838269,0.0817422072548228));
#1398=CARTESIAN_POINT('',(-1.5453333333333,0.577350269189629,-5.07572210010043E-15));
#1399=CARTESIAN_POINT('',(-1.54533333333333,0.577350269189626,2.04702318697345E-16));
#1400=CARTESIAN_POINT('',(-1.8,0.577350269189626,2.16840434497101E-16));
#1401=CARTESIAN_POINT('',(-1.75466666666667,0.577350269189626,1.83446516445251E-16));
#1402=CARTESIAN_POINT('',(-1.75466666666674,0.288675134594808,0.500000000000009));
#1403=CARTESIAN_POINT('',(-1.7818801521455,0.335810274095058,0.418359543563729));
#1404=CARTESIAN_POINT('',(-1.81675226904357,0.432490616510387,0.250904278407223));
#1405=CARTESIAN_POINT('',(-1.78191406908498,0.5301563838269,0.0817422072548227));
#1406=CARTESIAN_POINT('',(-1.7546666666667,0.577350269189629,-5.15159424917012E-15));
#1407=CARTESIAN_POINT('',(-1.8,0.43301270189222,-0.25));
#1408=CARTESIAN_POINT('',(-1.54533333333326,0.577350269189631,9.00131622920325E-15));
#1409=CARTESIAN_POINT('',(-1.5181198478545,0.530215129689384,-0.0816404564362663));
#1410=CARTESIAN_POINT('',(-1.48324773095643,0.433534787274061,-0.249095721592761));
#1411=CARTESIAN_POINT('',(-1.51808593091502,0.335869019957553,-0.418257792745153));
#1412=CARTESIAN_POINT('',(-1.54533333333329,0.288675134594827,-0.499999999999976));
#1413=CARTESIAN_POINT('',(-1.5453333333333,0.288675134594872,-0.5));
#1414=CARTESIAN_POINT('',(-1.8,0.288675134594814,-0.5));
#1415=CARTESIAN_POINT('',(-1.7546666666667,0.288675134594873,-0.5));
#1416=CARTESIAN_POINT('',(-1.75466666666674,0.577350269189631,8.96366884070218E-15));
#1417=CARTESIAN_POINT('',(-1.78188015214549,0.530215129689384,-0.0816404564362663));
#1418=CARTESIAN_POINT('',(-1.81675226904357,0.433534787274061,-0.249095721592761));
#1419=CARTESIAN_POINT('',(-1.78191406908498,0.335869019957554,-0.418257792745152));
#1420=CARTESIAN_POINT('',(-1.75466666666671,0.288675134594827,-0.499999999999976));
#1421=CARTESIAN_POINT('',(-1.8,3.03576608295941E-16,-0.5));
#1422=CARTESIAN_POINT('',(-1.54533333333335,0.288675134594864,-0.5));
#1423=CARTESIAN_POINT('',(-1.51820262813559,0.194691614899499,-0.5));
#1424=CARTESIAN_POINT('',(-1.48314655713217,-0.000150478001960874,-0.5));
#1425=CARTESIAN_POINT('',(-1.51820480971743,-0.194699172120652,-0.5));
#1426=CARTESIAN_POINT('',(-1.54533333333333,-0.288675134594812,-0.5));
#1427=CARTESIAN_POINT('',(-1.54533333333333,-0.288675134594812,-0.5));
#1428=CARTESIAN_POINT('',(-1.8,-0.288675134594812,-0.5));
#1429=CARTESIAN_POINT('',(-1.75466666666667,-0.288675134594812,-0.5));
#1430=CARTESIAN_POINT('',(-1.75466666666665,0.288675134594864,-0.5));
#1431=CARTESIAN_POINT('',(-1.78179737186441,0.194691614899499,-0.5));
#1432=CARTESIAN_POINT('',(-1.81685344286783,-0.000150478001961134,-0.5));
#1433=CARTESIAN_POINT('',(-1.78179519028257,-0.194699172120653,-0.5));
#1434=CARTESIAN_POINT('',(-1.75466666666667,-0.288675134594813,-0.5));
#1435=CARTESIAN_POINT('',(-1.8,-0.433012701892219,-0.25));
#1436=CARTESIAN_POINT('',(-1.54533333333326,-0.288675134594807,-0.500000000000009));
#1437=CARTESIAN_POINT('',(-1.5181198478545,-0.335810274095058,-0.418359543563729));
#1438=CARTESIAN_POINT('',(-1.48324773095643,-0.432490616510387,-0.250904278407223));
#1439=CARTESIAN_POINT('',(-1.51808593091502,-0.5301563838269,-0.0817422072548225));
#1440=CARTESIAN_POINT('',(-1.5453333333333,-0.577350269189629,5.30973823691368E-15));
#1441=CARTESIAN_POINT('',(-1.75466666666674,-0.288675134594807,-0.500000000000009));
#1442=CARTESIAN_POINT('',(-1.7818801521455,-0.335810274095058,-0.418359543563729));
#1443=CARTESIAN_POINT('',(-1.81675226904357,-0.432490616510387,-0.250904278407223));
#1444=CARTESIAN_POINT('',(-1.78191406908498,-0.5301563838269,-0.0817422072548226));
#1445=CARTESIAN_POINT('',(-1.7546666666667,-0.577350269189629,5.20100451821297E-15));
#1446=CARTESIAN_POINT('',(-1.8,0.,0.));
#1447=CARTESIAN_POINT('',(-1.8,0.,0.));
#1448=CARTESIAN_POINT('',(-1.8,0.,0.25));
#1449=CARTESIAN_POINT('',(-1.8,0.,0.));
#1450=CARTESIAN_POINT('',(-1.8,0.,0.498830632579837));
#1451=CARTESIAN_POINT('',(-1.5,0.,0.));
#1452=CARTESIAN_POINT('',(-1.869,0.,0.));
#1453=CARTESIAN_POINT('',(-1.431,0.,0.));
#1454=CARTESIAN_POINT('',(3.3,0.,8.67361737988404E-17));
#1455=CARTESIAN_POINT('',(-3.3,0.,8.67361737988404E-17));
#1456=CARTESIAN_POINT('',(1.73,0.2607,0.3));
#1457=CARTESIAN_POINT('',(4.08,0.1802775637732,0.3));
#1458=CARTESIAN_POINT('',(1.88,0.1802775637732,0.3));
#1459=CARTESIAN_POINT('',(1.58,0.1802775637732,0.3));
#1460=CARTESIAN_POINT('',(1.58,0.2607,0.3));
#1461=CARTESIAN_POINT('',(1.58,-0.1802775637732,0.3));
#1462=CARTESIAN_POINT('',(4.08,-0.1802775637732,0.3));
#1463=CARTESIAN_POINT('',(1.88,-0.1802775637732,0.3));
#1464=CARTESIAN_POINT('',(1.88,0.2607,0.3));
#1465=CARTESIAN_POINT('',(1.73,0.2607,-0.3));
#1466=CARTESIAN_POINT('',(4.08,-0.1802775637732,-0.3));
#1467=CARTESIAN_POINT('',(1.88,-0.1802775637732,-0.3));
#1468=CARTESIAN_POINT('',(1.58,-0.1802775637732,-0.3));
#1469=CARTESIAN_POINT('',(1.58,0.2607,-0.3));
#1470=CARTESIAN_POINT('',(1.58,0.1802775637732,-0.3));
#1471=CARTESIAN_POINT('',(4.08,0.1802775637732,-0.3));
#1472=CARTESIAN_POINT('',(1.88,0.1802775637732,-0.3));
#1473=CARTESIAN_POINT('',(1.88,0.2607,-0.3));
#1474=CARTESIAN_POINT('',(1.58,0.2605,0.));
#1475=CARTESIAN_POINT('',(1.88,0.2605,7.31726462490544E-18));
#1476=CARTESIAN_POINT('',(1.88,0.2605,-0.1195));
#1477=CARTESIAN_POINT('',(1.88,0.2605,0.));
#1478=CARTESIAN_POINT('',(2.06804321311868,0.2605,-0.23375147058361));
#1479=CARTESIAN_POINT('',(2.06804321311868,0.2605,0.23375147058361));
#1480=CARTESIAN_POINT('',(1.58,0.2605,-0.23375147058361));
#1481=CARTESIAN_POINT('',(1.5,0.2605,-0.23375147058361));
#1482=CARTESIAN_POINT('',(1.5,0.2605,0.));
#1483=CARTESIAN_POINT('',(1.5,0.2605,-0.102663284576327));
#1484=CARTESIAN_POINT('',(1.5,0.2605,0.102663284576327));
#1485=CARTESIAN_POINT('',(1.5,0.2605,0.0684301300752581));
#1486=CARTESIAN_POINT('',(1.49348568482339,0.2605,7.06749150893287E-5));
#1487=CARTESIAN_POINT('',(1.5,0.2605,-0.0683837065277981));
#1488=CARTESIAN_POINT('',(1.5,0.2605,-0.102663284576327));
#1489=CARTESIAN_POINT('',(1.5,0.2605,0.102663284576327));
#1490=CARTESIAN_POINT('',(1.5,0.2605,0.));
#1491=CARTESIAN_POINT('',(1.5,0.2605,0.23375147058361));
#1492=CARTESIAN_POINT('',(1.58,0.2605,0.23375147058361));
#1493=CARTESIAN_POINT('',(1.58,-0.2605,0.));
#1494=CARTESIAN_POINT('',(1.88,-0.2605,7.31726462490544E-18));
#1495=CARTESIAN_POINT('',(1.88,-0.2605,-0.1195));
#1496=CARTESIAN_POINT('',(1.88,-0.2605,0.));
#1497=CARTESIAN_POINT('',(2.06804321311868,-0.2605,-0.23375147058361));
#1498=CARTESIAN_POINT('',(2.06804321311868,-0.2605,0.23375147058361));
#1499=CARTESIAN_POINT('',(1.58,-0.2605,0.23375147058361));
#1500=CARTESIAN_POINT('',(1.5,-0.2605,0.23375147058361));
#1501=CARTESIAN_POINT('',(1.5,-0.2605,0.));
#1502=CARTESIAN_POINT('',(1.5,-0.2605,0.102663284576328));
#1503=CARTESIAN_POINT('',(1.5,-0.2605,-0.102663284576327));
#1504=CARTESIAN_POINT('',(1.5,-0.2605,-0.0684301300752581));
#1505=CARTESIAN_POINT('',(1.49348568482339,-0.2605,-7.06749150890956E-5));
#1506=CARTESIAN_POINT('',(1.5,-0.2605,0.0683837065277984));
#1507=CARTESIAN_POINT('',(1.5,-0.2605,0.102663284576328));
#1508=CARTESIAN_POINT('',(1.5,-0.2605,-0.102663284576327));
#1509=CARTESIAN_POINT('',(1.5,-0.2605,0.));
#1510=CARTESIAN_POINT('',(1.5,-0.2605,-0.23375147058361));
#1511=CARTESIAN_POINT('',(1.58,-0.2605,-0.23375147058361));
#1512=CARTESIAN_POINT('',(1.88,0.2607,0.));
#1513=CARTESIAN_POINT('',(2.06804321311868,-0.2605,0.23375147058361));
#1514=CARTESIAN_POINT('',(2.04292116460413,-0.242365525056428,0.253961100542326));
#1515=CARTESIAN_POINT('',(1.9880449263474,-0.204991301920305,0.285765941478323));
#1516=CARTESIAN_POINT('',(1.91724076239048,-0.180277563773199,0.3));
#1517=CARTESIAN_POINT('',(1.88,-0.1802775637732,0.3));
#1518=CARTESIAN_POINT('',(2.06804321311868,-0.2605,-0.23375147058361));
#1519=CARTESIAN_POINT('',(2.04292116460413,-0.242365525056428,-0.253961100542326));
#1520=CARTESIAN_POINT('',(1.9880449263474,-0.204991301920305,-0.285765941478323));
#1521=CARTESIAN_POINT('',(1.91724076239048,-0.180277563773199,-0.3));
#1522=CARTESIAN_POINT('',(1.88,-0.1802775637732,-0.3));
#1523=CARTESIAN_POINT('',(1.88,0.1802775637732,-0.3));
#1524=CARTESIAN_POINT('',(1.91729240710834,0.1802775637732,-0.3));
#1525=CARTESIAN_POINT('',(1.98742859282575,0.204696389268944,-0.285984012569516));
#1526=CARTESIAN_POINT('',(2.04292129674035,0.242365620439612,-0.253960994244301));
#1527=CARTESIAN_POINT('',(2.06804321311868,0.2605,-0.23375147058361));
#1528=CARTESIAN_POINT('',(1.88,0.1802775637732,0.3));
#1529=CARTESIAN_POINT('',(1.91729240710834,0.1802775637732,0.3));
#1530=CARTESIAN_POINT('',(1.98742859282575,0.204696389268944,0.285984012569516));
#1531=CARTESIAN_POINT('',(2.04292129674035,0.242365620439612,0.253960994244301));
#1532=CARTESIAN_POINT('',(2.06804321311868,0.2605,0.23375147058361));
#1533=CARTESIAN_POINT('',(1.5,0.,0.));
#1534=CARTESIAN_POINT('',(1.5,1.0842021724855E-16,-6.50521303491303E-17));
#1535=CARTESIAN_POINT('',(1.5,0.,1.83697019872103E-17));
#1536=CARTESIAN_POINT('',(1.58,0.,0.));
#1537=CARTESIAN_POINT('',(1.58,1.0842021724855E-16,-6.50521303491303E-17));
#1538=CARTESIAN_POINT('',(1.3,0.,1.83697019872103E-17));
#1539=CARTESIAN_POINT('',(1.3,0.,1.83697019872103E-17));
#1540=CARTESIAN_POINT('',(1.3,0.,-0.295));
#1541=CARTESIAN_POINT('',(1.3,0.,1.83697019872103E-17));
#1542=CARTESIAN_POINT('',(1.3,0.,0.3));
#1543=CARTESIAN_POINT('',(0.,0.,1.83697019872103E-17));
#1544=CARTESIAN_POINT('',(0.126786119114042,0.,1.83697019872103E-17));
#1545=CARTESIAN_POINT('',(0.126786119114042,0.,0.3));
#1546=CARTESIAN_POINT('',(0.,0.,1.83697019872103E-17));
#1547=CARTESIAN_POINT('',(1.44,0.,1.83697019872103E-17));
#1548=CARTESIAN_POINT('',(1.44,0.,0.22));
#1549=CARTESIAN_POINT('',(1.375,0.,1.83697019872103E-17));
#1550=CARTESIAN_POINT('',(1.375,0.,0.22));
#1551=CARTESIAN_POINT('',(0.,0.,0.));
#1552=CARTESIAN_POINT('',(0.,0.,1.83697019872103E-17));
#1553=CARTESIAN_POINT('',(0.,0.,0.2268));
#1554=CARTESIAN_POINT('',(0.126786119114042,0.,1.83697019872103E-17));
#1555=CARTESIAN_POINT('',(1.58,1.0842021724855E-16,-6.50521303491303E-17));
#1556=CARTESIAN_POINT('',(1.58,1.0842021724855E-16,6.50521303491303E-17));
#1557=CARTESIAN_POINT('',(1.5,1.0842021724855E-16,6.50521303491303E-17));
#1558=CARTESIAN_POINT('',(1.58,1.0842021724855E-16,6.50521303491303E-17));
#1559=CARTESIAN_POINT('',(1.58,0.,0.));
#1560=CARTESIAN_POINT('',(1.5,0.,0.));
#1561=CARTESIAN_POINT('',(1.5,0.,1.83697019872103E-17));
#1562=CARTESIAN_POINT('',(1.88,0.2607,7.31726462490544E-18));
#1563=CARTESIAN_POINT('',(1.3,0.,1.83697019872103E-17));
#1564=CARTESIAN_POINT('',(1.44,0.,1.83697019872103E-17));
#1565=CARTESIAN_POINT('',(1.03005116931676,0.,6.83664718116301E-17));
#1566=CARTESIAN_POINT('',(-1.73,0.2607,0.3));
#1567=CARTESIAN_POINT('',(-4.08,0.1802775637732,0.3));
#1568=CARTESIAN_POINT('',(-1.88,0.1802775637732,0.3));
#1569=CARTESIAN_POINT('',(-1.58,0.1802775637732,0.3));
#1570=CARTESIAN_POINT('',(-1.88,0.2607,0.3));
#1571=CARTESIAN_POINT('',(-1.88,-0.1802775637732,0.3));
#1572=CARTESIAN_POINT('',(-4.08,-0.1802775637732,0.3));
#1573=CARTESIAN_POINT('',(-1.58,-0.1802775637732,0.3));
#1574=CARTESIAN_POINT('',(-1.58,0.2607,0.3));
#1575=CARTESIAN_POINT('',(-1.73,0.2607,-0.3));
#1576=CARTESIAN_POINT('',(-4.08,-0.1802775637732,-0.3));
#1577=CARTESIAN_POINT('',(-1.88,-0.1802775637732,-0.3));
#1578=CARTESIAN_POINT('',(-1.58,-0.1802775637732,-0.3));
#1579=CARTESIAN_POINT('',(-1.88,0.2607,-0.3));
#1580=CARTESIAN_POINT('',(-1.88,0.1802775637732,-0.3));
#1581=CARTESIAN_POINT('',(-4.08,0.1802775637732,-0.3));
#1582=CARTESIAN_POINT('',(-1.58,0.1802775637732,-0.3));
#1583=CARTESIAN_POINT('',(-1.58,0.2607,-0.3));
#1584=CARTESIAN_POINT('',(-1.58,0.2605,0.));
#1585=CARTESIAN_POINT('',(-1.88,0.2605,7.31726462490544E-18));
#1586=CARTESIAN_POINT('',(-1.88,0.2605,-0.1195));
#1587=CARTESIAN_POINT('',(-1.88,0.2605,0.));
#1588=CARTESIAN_POINT('',(-2.06804321311868,0.2605,-0.23375147058361));
#1589=CARTESIAN_POINT('',(-2.06804321311868,0.2605,0.23375147058361));
#1590=CARTESIAN_POINT('',(-1.58,0.2605,0.23375147058361));
#1591=CARTESIAN_POINT('',(-1.5,0.2605,0.23375147058361));
#1592=CARTESIAN_POINT('',(-1.5,0.2605,0.));
#1593=CARTESIAN_POINT('',(-1.5,0.2605,0.102663284576327));
#1594=CARTESIAN_POINT('',(-1.5,0.2605,0.102663284576327));
#1595=CARTESIAN_POINT('',(-1.5,0.2605,0.0684301300752581));
#1596=CARTESIAN_POINT('',(-1.49348568482339,0.2605,7.06749150893287E-5));
#1597=CARTESIAN_POINT('',(-1.5,0.2605,-0.0683837065277981));
#1598=CARTESIAN_POINT('',(-1.5,0.2605,-0.102663284576327));
#1599=CARTESIAN_POINT('',(-1.5,0.2605,-0.102663284576327));
#1600=CARTESIAN_POINT('',(-1.5,0.2605,0.));
#1601=CARTESIAN_POINT('',(-1.5,0.2605,-0.23375147058361));
#1602=CARTESIAN_POINT('',(-1.58,0.2605,-0.23375147058361));
#1603=CARTESIAN_POINT('',(-1.58,-0.2605,0.));
#1604=CARTESIAN_POINT('',(-1.88,-0.2605,7.31726462490544E-18));
#1605=CARTESIAN_POINT('',(-1.88,-0.2605,-0.1195));
#1606=CARTESIAN_POINT('',(-1.88,-0.2605,0.));
#1607=CARTESIAN_POINT('',(-2.06804321311868,-0.2605,-0.23375147058361));
#1608=CARTESIAN_POINT('',(-2.06804321311868,-0.2605,0.23375147058361));
#1609=CARTESIAN_POINT('',(-1.58,-0.2605,-0.23375147058361));
#1610=CARTESIAN_POINT('',(-1.5,-0.2605,-0.23375147058361));
#1611=CARTESIAN_POINT('',(-1.5,-0.2605,0.));
#1612=CARTESIAN_POINT('',(-1.5,-0.2605,-0.102663284576327));
#1613=CARTESIAN_POINT('',(-1.5,-0.2605,-0.102663284576327));
#1614=CARTESIAN_POINT('',(-1.5,-0.2605,-0.0684301300752581));
#1615=CARTESIAN_POINT('',(-1.49348568482339,-0.2605,-7.06749150890956E-5));
#1616=CARTESIAN_POINT('',(-1.5,-0.2605,0.0683837065277984));
#1617=CARTESIAN_POINT('',(-1.5,-0.2605,0.102663284576328));
#1618=CARTESIAN_POINT('',(-1.5,-0.2605,0.102663284576328));
#1619=CARTESIAN_POINT('',(-1.5,-0.2605,0.));
#1620=CARTESIAN_POINT('',(-1.5,-0.2605,0.23375147058361));
#1621=CARTESIAN_POINT('',(-1.58,-0.2605,0.23375147058361));
#1622=CARTESIAN_POINT('',(-1.88,0.2607,0.));
#1623=CARTESIAN_POINT('',(-1.88,0.1802775637732,0.3));
#1624=CARTESIAN_POINT('',(-1.91729240710834,0.1802775637732,0.3));
#1625=CARTESIAN_POINT('',(-1.98742859282575,0.204696389268944,0.285984012569516));
#1626=CARTESIAN_POINT('',(-2.04292129674035,0.242365620439612,0.253960994244301));
#1627=CARTESIAN_POINT('',(-2.06804321311868,0.2605,0.23375147058361));
#1628=CARTESIAN_POINT('',(-1.88,0.1802775637732,-0.3));
#1629=CARTESIAN_POINT('',(-1.91729240710834,0.1802775637732,-0.3));
#1630=CARTESIAN_POINT('',(-1.98742859282575,0.204696389268944,-0.285984012569516));
#1631=CARTESIAN_POINT('',(-2.04292129674035,0.242365620439612,-0.253960994244301));
#1632=CARTESIAN_POINT('',(-2.06804321311868,0.2605,-0.23375147058361));
#1633=CARTESIAN_POINT('',(-2.06804321311868,-0.2605,-0.23375147058361));
#1634=CARTESIAN_POINT('',(-2.04292116460413,-0.242365525056428,-0.253961100542326));
#1635=CARTESIAN_POINT('',(-1.9880449263474,-0.204991301920305,-0.285765941478323));
#1636=CARTESIAN_POINT('',(-1.91724076239048,-0.180277563773199,-0.3));
#1637=CARTESIAN_POINT('',(-1.88,-0.1802775637732,-0.3));
#1638=CARTESIAN_POINT('',(-2.06804321311868,-0.2605,0.23375147058361));
#1639=CARTESIAN_POINT('',(-2.04292116460413,-0.242365525056428,0.253961100542326));
#1640=CARTESIAN_POINT('',(-1.9880449263474,-0.204991301920305,0.285765941478323));
#1641=CARTESIAN_POINT('',(-1.91724076239048,-0.180277563773199,0.3));
#1642=CARTESIAN_POINT('',(-1.88,-0.1802775637732,0.3));
#1643=CARTESIAN_POINT('',(-1.5,0.,0.));
#1644=CARTESIAN_POINT('',(-1.5,0.,1.83697019872103E-17));
#1645=CARTESIAN_POINT('',(-1.5,1.0842021724855E-16,-6.50521303491303E-17));
#1646=CARTESIAN_POINT('',(-1.58,0.,0.));
#1647=CARTESIAN_POINT('',(-1.58,1.0842021724855E-16,-6.50521303491303E-17));
#1648=CARTESIAN_POINT('',(-1.3,0.,1.83697019872103E-17));
#1649=CARTESIAN_POINT('',(-1.3,0.,1.83697019872103E-17));
#1650=CARTESIAN_POINT('',(-1.3,0.,-0.295));
#1651=CARTESIAN_POINT('',(-1.3,0.,1.83697019872103E-17));
#1652=CARTESIAN_POINT('',(-1.3,0.,0.3));
#1653=CARTESIAN_POINT('',(0.,0.,1.83697019872103E-17));
#1654=CARTESIAN_POINT('',(-0.126786119114042,0.,1.83697019872103E-17));
#1655=CARTESIAN_POINT('',(-0.126786119114042,0.,0.3));
#1656=CARTESIAN_POINT('',(0.,0.,1.83697019872103E-17));
#1657=CARTESIAN_POINT('',(-1.44,0.,1.83697019872103E-17));
#1658=CARTESIAN_POINT('',(-1.44,0.,0.22));
#1659=CARTESIAN_POINT('',(-1.375,0.,1.83697019872103E-17));
#1660=CARTESIAN_POINT('',(-1.375,0.,0.22));
#1661=CARTESIAN_POINT('',(0.,0.,0.));
#1662=CARTESIAN_POINT('',(0.,0.,1.83697019872103E-17));
#1663=CARTESIAN_POINT('',(0.,0.,0.2268));
#1664=CARTESIAN_POINT('',(-0.126786119114042,0.,1.83697019872103E-17));
#1665=CARTESIAN_POINT('',(-1.58,1.0842021724855E-16,-6.50521303491303E-17));
#1666=CARTESIAN_POINT('',(-1.58,1.0842021724855E-16,6.50521303491303E-17));
#1667=CARTESIAN_POINT('',(-1.5,1.0842021724855E-16,6.50521303491303E-17));
#1668=CARTESIAN_POINT('',(-1.58,1.0842021724855E-16,6.50521303491303E-17));
#1669=CARTESIAN_POINT('',(-1.58,0.,0.));
#1670=CARTESIAN_POINT('',(-1.5,0.,0.));
#1671=CARTESIAN_POINT('',(-1.5,0.,1.83697019872103E-17));
#1672=CARTESIAN_POINT('',(-1.88,0.2607,7.31726462490544E-18));
#1673=CARTESIAN_POINT('',(-1.3,0.,1.83697019872103E-17));
#1674=CARTESIAN_POINT('',(-1.44,0.,1.83697019872103E-17));
#1675=CARTESIAN_POINT('',(-1.03005116931676,0.,6.83664718116301E-17));
#1676=CARTESIAN_POINT('',(1.5,0.,0.));
#1677=CARTESIAN_POINT('',(1.5,-3.05646687568596E-17,-4.96675867298967E-17));
#1678=CARTESIAN_POINT('',(1.5,-3.05646687568596E-17,-0.25));
#1679=CARTESIAN_POINT('',(1.5,0.,8.67361737988404E-17));
#1680=CARTESIAN_POINT('',(1.5,0.,-0.4));
#1681=CARTESIAN_POINT('',(-1.5,0.,0.));
#1682=CARTESIAN_POINT('',(-1.5,-3.05646687568596E-17,-4.96675867298967E-17));
#1683=CARTESIAN_POINT('',(-1.5,-3.05646687568596E-17,-0.25));
#1684=CARTESIAN_POINT('',(-1.5,0.,8.67361737988404E-17));
#1685=CARTESIAN_POINT('',(-1.5,0.,-0.4));
#1686=CARTESIAN_POINT('',(-1.5,-3.05646687568596E-17,-4.96675867298967E-17));
#1687=CARTESIAN_POINT('',(-1.6,0.,8.67361737988404E-17));
#1688=CARTESIAN_POINT('',(-1.32264973081037,0.288675134594813,0.5));
#1689=CARTESIAN_POINT('',(-1.34520461402815,0.311230017812591,0.460933796308026));
#1690=CARTESIAN_POINT('',(-1.38360320539984,0.357028838237606,0.381607912405177));
#1691=CARTESIAN_POINT('',(-1.41623100723659,0.457854062124277,0.206973501948955));
#1692=CARTESIAN_POINT('',(-1.36802518142361,0.531974818576413,0.0785925858784169));
#1693=CARTESIAN_POINT('',(-1.32264973081039,0.577350269189629,-5.07695772181995E-15));
#1694=CARTESIAN_POINT('',(-1.32264973081037,0.288675134594813,0.5));
#1695=CARTESIAN_POINT('',(-1.32264973081037,0.577350269189626,2.16840434497101E-16));
#1696=CARTESIAN_POINT('',(-1.32264973081037,0.577350269189626,1.61711743010687E-16));
#1697=CARTESIAN_POINT('',(-1.34520461402815,0.554795385971848,-0.0390662036919735));
#1698=CARTESIAN_POINT('',(-1.38360320539984,0.508996565546833,-0.118392087594823));
#1699=CARTESIAN_POINT('',(-1.41623100723659,0.408171341660162,-0.293026498051045));
#1700=CARTESIAN_POINT('',(-1.36802518142361,0.334050585208026,-0.421407414121583));
#1701=CARTESIAN_POINT('',(-1.32264973081039,0.28867513459481,-0.500000000000005));
#1702=CARTESIAN_POINT('',(-1.32264973081037,0.288675134594813,-0.5));
#1703=CARTESIAN_POINT('',(-1.32264973081037,0.288675134594813,-0.5));
#1704=CARTESIAN_POINT('',(-1.3674109258816,0.199152744452371,-0.5));
#1705=CARTESIAN_POINT('',(-1.43255535708768,0.000382082941744973,-0.5));
#1706=CARTESIAN_POINT('',(-1.36747815805899,-0.199018280097617,-0.5));
#1707=CARTESIAN_POINT('',(-1.32264973081038,-0.288675134594818,-0.5));
#1708=CARTESIAN_POINT('',(-1.32264973081037,-0.288675134594813,-0.5));
#1709=CARTESIAN_POINT('',(-1.32264973081037,-0.288675134594813,-0.5));
#1710=CARTESIAN_POINT('',(-1.34520461402815,-0.311230017812591,-0.460933796308027));
#1711=CARTESIAN_POINT('',(-1.38360320539984,-0.357028838237606,-0.381607912405177));
#1712=CARTESIAN_POINT('',(-1.41623100723659,-0.457854062124277,-0.206973501948955));
#1713=CARTESIAN_POINT('',(-1.36802518142361,-0.531974818576413,-0.0785925858784169));
#1714=CARTESIAN_POINT('',(-1.32264973081039,-0.577350269189629,5.1335283971173E-15));
#1715=CARTESIAN_POINT('',(-1.32264973081037,-0.577350269189626,3.44698685282308E-17));
#1716=CARTESIAN_POINT('',(-1.32264973081037,-0.577350269189626,-3.92458349701412E-16));
#1717=CARTESIAN_POINT('',(-1.34520461402815,-0.554795385971848,0.0390662036919733));
#1718=CARTESIAN_POINT('',(-1.38360320539985,-0.508996565546833,0.118392087594823));
#1719=CARTESIAN_POINT('',(-1.41623100723659,-0.408171341660161,0.293026498051045));
#1720=CARTESIAN_POINT('',(-1.36802518142361,-0.334050585208025,0.421407414121583));
#1721=CARTESIAN_POINT('',(-1.32264973081039,-0.28867513459481,0.500000000000005));
#1722=CARTESIAN_POINT('',(-1.32264973081037,-0.288675134594813,0.5));
#1723=CARTESIAN_POINT('',(-1.32264973081037,-0.288675134594813,0.5));
#1724=CARTESIAN_POINT('',(-1.3674109258816,-0.199152744452371,0.5));
#1725=CARTESIAN_POINT('',(-1.43255535708768,-0.000382082941744345,0.5));
#1726=CARTESIAN_POINT('',(-1.36747815805898,0.199018280097618,0.5));
#1727=CARTESIAN_POINT('',(-1.32264973081038,0.288675134594819,0.5));
#1728=CARTESIAN_POINT('',(1.6,0.,8.67361737988404E-17));
#1729=CARTESIAN_POINT('',(1.32264973081037,-0.288675134594813,0.5));
#1730=CARTESIAN_POINT('',(1.3674109258816,-0.199152744452371,0.5));
#1731=CARTESIAN_POINT('',(1.43255535708768,-0.000382082941744345,0.5));
#1732=CARTESIAN_POINT('',(1.36747815805898,0.199018280097618,0.5));
#1733=CARTESIAN_POINT('',(1.32264973081038,0.288675134594819,0.5));
#1734=CARTESIAN_POINT('',(1.32264973081037,-0.288675134594813,0.5));
#1735=CARTESIAN_POINT('',(1.32264973081037,0.288675134594813,0.5));
#1736=CARTESIAN_POINT('',(1.32264973081037,-0.577350269189626,-3.92458349701412E-16));
#1737=CARTESIAN_POINT('',(1.34520461402815,-0.554795385971848,0.0390662036919733));
#1738=CARTESIAN_POINT('',(1.38360320539985,-0.508996565546833,0.118392087594823));
#1739=CARTESIAN_POINT('',(1.41623100723659,-0.408171341660161,0.293026498051045));
#1740=CARTESIAN_POINT('',(1.36802518142361,-0.334050585208025,0.421407414121583));
#1741=CARTESIAN_POINT('',(1.32264973081039,-0.28867513459481,0.500000000000005));
#1742=CARTESIAN_POINT('',(1.32264973081037,-0.577350269189626,3.44698685282308E-17));
#1743=CARTESIAN_POINT('',(1.32264973081037,-0.288675134594813,-0.5));
#1744=CARTESIAN_POINT('',(1.34520461402815,-0.311230017812591,-0.460933796308027));
#1745=CARTESIAN_POINT('',(1.38360320539984,-0.357028838237606,-0.381607912405177));
#1746=CARTESIAN_POINT('',(1.41623100723659,-0.457854062124277,-0.206973501948955));
#1747=CARTESIAN_POINT('',(1.36802518142361,-0.531974818576413,-0.0785925858784169));
#1748=CARTESIAN_POINT('',(1.32264973081039,-0.577350269189629,5.1335283971173E-15));
#1749=CARTESIAN_POINT('',(1.32264973081037,-0.288675134594813,-0.5));
#1750=CARTESIAN_POINT('',(1.32264973081037,0.288675134594813,-0.5));
#1751=CARTESIAN_POINT('',(1.3674109258816,0.199152744452371,-0.5));
#1752=CARTESIAN_POINT('',(1.43255535708768,0.000382082941744973,-0.5));
#1753=CARTESIAN_POINT('',(1.36747815805899,-0.199018280097617,-0.5));
#1754=CARTESIAN_POINT('',(1.32264973081038,-0.288675134594818,-0.5));
#1755=CARTESIAN_POINT('',(1.32264973081037,0.288675134594813,-0.5));
#1756=CARTESIAN_POINT('',(1.32264973081037,0.577350269189626,-7.13969654742345E-17));
#1757=CARTESIAN_POINT('',(1.34520461402815,0.554795385971848,-0.0390662036919737));
#1758=CARTESIAN_POINT('',(1.38360320539984,0.508996565546833,-0.118392087594823));
#1759=CARTESIAN_POINT('',(1.41623100723659,0.408171341660162,-0.293026498051045));
#1760=CARTESIAN_POINT('',(1.36802518142361,0.334050585208026,-0.421407414121583));
#1761=CARTESIAN_POINT('',(1.32264973081039,0.28867513459481,-0.500000000000005));
#1762=CARTESIAN_POINT('',(1.32264973081037,0.577350269189626,-1.9118481417858E-16));
#1763=CARTESIAN_POINT('',(1.32264973081037,0.288675134594813,0.5));
#1764=CARTESIAN_POINT('',(1.34520461402815,0.311230017812591,0.460933796308026));
#1765=CARTESIAN_POINT('',(1.38360320539984,0.357028838237606,0.381607912405177));
#1766=CARTESIAN_POINT('',(1.41623100723659,0.457854062124278,0.206973501948955));
#1767=CARTESIAN_POINT('',(1.36802518142361,0.531974818576413,0.0785925858784169));
#1768=CARTESIAN_POINT('',(1.32264973081039,0.577350269189629,-5.12495295366841E-15));
#1769=CARTESIAN_POINT('',(1.5,0.43301270189222,-0.25));
#1770=CARTESIAN_POINT('',(1.5,0.577350269189626,2.16840434497101E-16));
#1771=CARTESIAN_POINT('',(1.5,0.288675134594813,-0.5));
#1772=CARTESIAN_POINT('',(1.5,-8.67361737988404E-17,-0.5));
#1773=CARTESIAN_POINT('',(1.5,-0.288675134594813,-0.5));
#1774=CARTESIAN_POINT('',(1.5,-0.43301270189222,-0.25));
#1775=CARTESIAN_POINT('',(1.5,-0.577350269189626,8.67361737988404E-17));
#1776=CARTESIAN_POINT('',(1.5,-0.433012701892219,0.25));
#1777=CARTESIAN_POINT('',(1.5,-0.288675134594813,0.5));
#1778=CARTESIAN_POINT('',(1.5,0.,0.5));
#1779=CARTESIAN_POINT('',(1.5,0.288675134594813,0.5));
#1780=CARTESIAN_POINT('',(1.5,0.43301270189222,0.25));
#1781=CARTESIAN_POINT('',(0.,0.,0.));
#1782=MECHANICAL_DESIGN_GEOMETRIC_PRESENTATION_REPRESENTATION('',(#950,
#951,#952,#953),#1783);
#1783=(
GEOMETRIC_REPRESENTATION_CONTEXT(3)
GLOBAL_UNCERTAINTY_ASSIGNED_CONTEXT((#1788))
GLOBAL_UNIT_ASSIGNED_CONTEXT((#1795,#1794,#1793))
REPRESENTATION_CONTEXT('#25 Chain Tensioner','TOP_LEVEL_ASSEMBLY_PART')
);
#1784=(
GEOMETRIC_REPRESENTATION_CONTEXT(3)
GLOBAL_UNCERTAINTY_ASSIGNED_CONTEXT((#1789))
GLOBAL_UNIT_ASSIGNED_CONTEXT((#1795,#1794,#1793))
REPRESENTATION_CONTEXT('??','COMPONENT_PART')
);
#1785=(
GEOMETRIC_REPRESENTATION_CONTEXT(3)
GLOBAL_UNCERTAINTY_ASSIGNED_CONTEXT((#1790))
GLOBAL_UNIT_ASSIGNED_CONTEXT((#1795,#1794,#1793))
REPRESENTATION_CONTEXT('????R','COMPONENT_PART')
);
#1786=(
GEOMETRIC_REPRESENTATION_CONTEXT(3)
GLOBAL_UNCERTAINTY_ASSIGNED_CONTEXT((#1791))
GLOBAL_UNIT_ASSIGNED_CONTEXT((#1795,#1794,#1793))
REPRESENTATION_CONTEXT('????L','COMPONENT_PART')
);
#1787=(
GEOMETRIC_REPRESENTATION_CONTEXT(3)
GLOBAL_UNCERTAINTY_ASSIGNED_CONTEXT((#1792))
GLOBAL_UNIT_ASSIGNED_CONTEXT((#1795,#1794,#1793))
REPRESENTATION_CONTEXT('???','COMPONENT_PART')
);
#1788=UNCERTAINTY_MEASURE_WITH_UNIT(LENGTH_MEASURE(1.E-6),#1795,
'DISTANCE_ACCURACY_VALUE','Maximum Tolerance applied to model');
#1789=UNCERTAINTY_MEASURE_WITH_UNIT(LENGTH_MEASURE(0.002),#1795,
'DISTANCE_ACCURACY_VALUE','Maximum Tolerance applied to model');
#1790=UNCERTAINTY_MEASURE_WITH_UNIT(LENGTH_MEASURE(0.002),#1795,
'DISTANCE_ACCURACY_VALUE','Maximum Tolerance applied to model');
#1791=UNCERTAINTY_MEASURE_WITH_UNIT(LENGTH_MEASURE(0.002),#1795,
'DISTANCE_ACCURACY_VALUE','Maximum Tolerance applied to model');
#1792=UNCERTAINTY_MEASURE_WITH_UNIT(LENGTH_MEASURE(0.002),#1795,
'DISTANCE_ACCURACY_VALUE','Maximum Tolerance applied to model');
#1793=(
NAMED_UNIT(*)
SI_UNIT($,.STERADIAN.)
SOLID_ANGLE_UNIT()
);
#1794=(
NAMED_UNIT(*)
PLANE_ANGLE_UNIT()
SI_UNIT($,.RADIAN.)
);
#1795=(
LENGTH_UNIT()
NAMED_UNIT(*)
SI_UNIT(.CENTI.,.METRE.)
);
#1796=PRODUCT_DEFINITION_SHAPE('','',#1806);
#1797=PRODUCT_DEFINITION_SHAPE('','',#1807);
#1798=PRODUCT_DEFINITION_SHAPE(' ','NAUO PRDDFN',#17);
#1799=PRODUCT_DEFINITION_SHAPE(' ','NAUO PRDDFN',#18);
#1800=PRODUCT_DEFINITION_SHAPE('','',#1808);
#1801=PRODUCT_DEFINITION_SHAPE(' ','NAUO PRDDFN',#19);
#1802=PRODUCT_DEFINITION_SHAPE('','',#1809);
#1803=PRODUCT_DEFINITION_SHAPE(' ','NAUO PRDDFN',#20);
#1804=PRODUCT_DEFINITION_SHAPE('','',#1810);
#1805=PRODUCT_DEFINITION_SHAPE(' ','NAUO PRDDFN',#21);
#1806=PRODUCT_DEFINITION('','',#1816,#1811);
#1807=PRODUCT_DEFINITION('','',#1817,#1812);
#1808=PRODUCT_DEFINITION('','',#1818,#1813);
#1809=PRODUCT_DEFINITION('','',#1819,#1814);
#1810=PRODUCT_DEFINITION('','',#1820,#1815);
#1811=PRODUCT_DEFINITION_CONTEXT('',#1842,'design');
#1812=PRODUCT_DEFINITION_CONTEXT('',#1842,'design');
#1813=PRODUCT_DEFINITION_CONTEXT('',#1842,'design');
#1814=PRODUCT_DEFINITION_CONTEXT('',#1842,'design');
#1815=PRODUCT_DEFINITION_CONTEXT('',#1842,'design');
#1816=PRODUCT_DEFINITION_FORMATION_WITH_SPECIFIED_SOURCE('','',#1826,
 .NOT_KNOWN.);
#1817=PRODUCT_DEFINITION_FORMATION_WITH_SPECIFIED_SOURCE('','',#1827,
 .NOT_KNOWN.);
#1818=PRODUCT_DEFINITION_FORMATION_WITH_SPECIFIED_SOURCE('','',#1828,
 .NOT_KNOWN.);
#1819=PRODUCT_DEFINITION_FORMATION_WITH_SPECIFIED_SOURCE('','',#1829,
 .NOT_KNOWN.);
#1820=PRODUCT_DEFINITION_FORMATION_WITH_SPECIFIED_SOURCE('','',#1830,
 .NOT_KNOWN.);
#1821=PRODUCT_RELATED_PRODUCT_CATEGORY('','',(#1826));
#1822=PRODUCT_RELATED_PRODUCT_CATEGORY('','',(#1827));
#1823=PRODUCT_RELATED_PRODUCT_CATEGORY('','',(#1828));
#1824=PRODUCT_RELATED_PRODUCT_CATEGORY('','',(#1829));
#1825=PRODUCT_RELATED_PRODUCT_CATEGORY('','',(#1830));
#1826=PRODUCT('#25 Chain Tensioner','#25 Chain Tensioner',
'#25 Chain Tensioner',(#1836));
#1827=PRODUCT('??','??','??',(#1837));
#1828=PRODUCT('????R','????R','????R',(#1838));
#1829=PRODUCT('????L','????L','????L',(#1839));
#1830=PRODUCT('???','???','???',(#1840));
#1831=PRODUCT_CATEGORY('','');
#1832=PRODUCT_CATEGORY('','');
#1833=PRODUCT_CATEGORY('','');
#1834=PRODUCT_CATEGORY('','');
#1835=PRODUCT_CATEGORY('','');
#1836=PRODUCT_CONTEXT('',#1842,'mechanical');
#1837=PRODUCT_CONTEXT('',#1842,'mechanical');
#1838=PRODUCT_CONTEXT('',#1842,'mechanical');
#1839=PRODUCT_CONTEXT('',#1842,'mechanical');
#1840=PRODUCT_CONTEXT('',#1842,'mechanical');
#1841=APPLICATION_PROTOCOL_DEFINITION('international standard',
'ap242_managed_model_based_3d_engineering',2020,#1842);
#1842=APPLICATION_CONTEXT('managed model based 3d engineering');
ENDSEC;
END-ISO-10303-21;
