ISO-10303-21;
HEADER;
/* Generated by software containing ST-Developer
 * from STEP Tools, Inc. (www.steptools.com) 
 */
/* OPTION: using custom renumber hook */

FILE_DESCRIPTION(
/* description */ ('STEP AP242 Edition 2',
'CAx-IF Rec.Pracs.---Representation and Presentation of Product Manufa
cturing Information (PMI)---4.0---2014-10-13',
'CAx-IF Rec.Pracs.---3D Tessellated Geometry---0.4---2014-09-14','2;1',
'CAx-IF Rec.Pracs.---User Defined Attributes---1.5---2016-08-15'),
/* implementation_level */ '2;1');

FILE_NAME(
/* name */ '695c8073e7359c3277bcf151',
/* time_stamp */ '2026-01-06T03:24:36Z',
/* author */ (''),
/* organization */ (''),
/* preprocessor_version */ 'ST-DEVELOPER v20',
/* originating_system */ 'ONSHAPE BY PTC INC, 1.208',
/* authorisation */ '  ');

FILE_SCHEMA (('AP242_MANAGED_MODEL_BASED_3D_ENGINEERING_MIM_LF { 1 0 10303 442 3 1 4 }'));
ENDSEC;

DATA;
#10=SHAPE_REPRESENTATION_RELATIONSHIP('','',#291,#11);
#11=ADVANCED_BREP_SHAPE_REPRESENTATION('',(#289),#487);
#12=PLANE('',#296);
#13=PLANE('',#300);
#14=PLANE('',#304);
#15=PLANE('',#308);
#16=PLANE('',#312);
#17=PLANE('',#319);
#18=PLANE('',#320);
#19=PLANE('',#321);
#20=LINE('',#411,#44);
#21=LINE('',#415,#45);
#22=LINE('',#417,#46);
#23=LINE('',#419,#47);
#24=LINE('',#421,#48);
#25=LINE('',#425,#49);
#26=LINE('',#429,#50);
#27=LINE('',#431,#51);
#28=LINE('',#433,#52);
#29=LINE('',#437,#53);
#30=LINE('',#441,#54);
#31=LINE('',#443,#55);
#32=LINE('',#445,#56);
#33=LINE('',#449,#57);
#34=LINE('',#453,#58);
#35=LINE('',#455,#59);
#36=LINE('',#457,#60);
#37=LINE('',#461,#61);
#38=LINE('',#465,#62);
#39=LINE('',#467,#63);
#40=LINE('',#469,#64);
#41=LINE('',#473,#65);
#42=LINE('',#482,#66);
#43=LINE('',#483,#67);
#44=VECTOR('',#328,100.);
#45=VECTOR('',#331,100.);
#46=VECTOR('',#334,100.);
#47=VECTOR('',#335,100.);
#48=VECTOR('',#336,100.);
#49=VECTOR('',#341,100.);
#50=VECTOR('',#346,100.);
#51=VECTOR('',#347,100.);
#52=VECTOR('',#348,100.);
#53=VECTOR('',#353,100.);
#54=VECTOR('',#358,100.);
#55=VECTOR('',#359,100.);
#56=VECTOR('',#360,100.);
#57=VECTOR('',#365,100.);
#58=VECTOR('',#370,100.);
#59=VECTOR('',#371,100.);
#60=VECTOR('',#372,100.);
#61=VECTOR('',#377,100.);
#62=VECTOR('',#382,100.);
#63=VECTOR('',#383,100.);
#64=VECTOR('',#384,100.);
#65=VECTOR('',#389,100.);
#66=VECTOR('',#400,100.);
#67=VECTOR('',#401,100.);
#68=ORIENTED_EDGE('',*,*,#144,.T.);
#69=ORIENTED_EDGE('',*,*,#145,.F.);
#70=ORIENTED_EDGE('',*,*,#146,.F.);
#71=ORIENTED_EDGE('',*,*,#147,.T.);
#72=ORIENTED_EDGE('',*,*,#148,.T.);
#73=ORIENTED_EDGE('',*,*,#149,.F.);
#74=ORIENTED_EDGE('',*,*,#150,.F.);
#75=ORIENTED_EDGE('',*,*,#145,.T.);
#76=ORIENTED_EDGE('',*,*,#151,.T.);
#77=ORIENTED_EDGE('',*,*,#152,.F.);
#78=ORIENTED_EDGE('',*,*,#153,.F.);
#79=ORIENTED_EDGE('',*,*,#149,.T.);
#80=ORIENTED_EDGE('',*,*,#154,.T.);
#81=ORIENTED_EDGE('',*,*,#155,.F.);
#82=ORIENTED_EDGE('',*,*,#156,.F.);
#83=ORIENTED_EDGE('',*,*,#152,.T.);
#84=ORIENTED_EDGE('',*,*,#157,.T.);
#85=ORIENTED_EDGE('',*,*,#158,.F.);
#86=ORIENTED_EDGE('',*,*,#159,.F.);
#87=ORIENTED_EDGE('',*,*,#155,.T.);
#88=ORIENTED_EDGE('',*,*,#160,.T.);
#89=ORIENTED_EDGE('',*,*,#161,.F.);
#90=ORIENTED_EDGE('',*,*,#162,.F.);
#91=ORIENTED_EDGE('',*,*,#158,.T.);
#92=ORIENTED_EDGE('',*,*,#163,.T.);
#93=ORIENTED_EDGE('',*,*,#164,.F.);
#94=ORIENTED_EDGE('',*,*,#165,.F.);
#95=ORIENTED_EDGE('',*,*,#161,.T.);
#96=ORIENTED_EDGE('',*,*,#166,.T.);
#97=ORIENTED_EDGE('',*,*,#167,.F.);
#98=ORIENTED_EDGE('',*,*,#168,.F.);
#99=ORIENTED_EDGE('',*,*,#164,.T.);
#100=ORIENTED_EDGE('',*,*,#169,.T.);
#101=ORIENTED_EDGE('',*,*,#170,.F.);
#102=ORIENTED_EDGE('',*,*,#171,.F.);
#103=ORIENTED_EDGE('',*,*,#167,.T.);
#104=ORIENTED_EDGE('',*,*,#172,.T.);
#105=ORIENTED_EDGE('',*,*,#173,.F.);
#106=ORIENTED_EDGE('',*,*,#174,.F.);
#107=ORIENTED_EDGE('',*,*,#170,.T.);
#108=ORIENTED_EDGE('',*,*,#175,.T.);
#109=ORIENTED_EDGE('',*,*,#176,.F.);
#110=ORIENTED_EDGE('',*,*,#177,.F.);
#111=ORIENTED_EDGE('',*,*,#173,.T.);
#112=ORIENTED_EDGE('',*,*,#178,.T.);
#113=ORIENTED_EDGE('',*,*,#179,.F.);
#114=ORIENTED_EDGE('',*,*,#180,.T.);
#115=ORIENTED_EDGE('',*,*,#147,.F.);
#116=ORIENTED_EDGE('',*,*,#181,.F.);
#117=ORIENTED_EDGE('',*,*,#176,.T.);
#118=ORIENTED_EDGE('',*,*,#178,.F.);
#119=ORIENTED_EDGE('',*,*,#146,.T.);
#120=ORIENTED_EDGE('',*,*,#150,.T.);
#121=ORIENTED_EDGE('',*,*,#153,.T.);
#122=ORIENTED_EDGE('',*,*,#156,.T.);
#123=ORIENTED_EDGE('',*,*,#159,.T.);
#124=ORIENTED_EDGE('',*,*,#162,.T.);
#125=ORIENTED_EDGE('',*,*,#165,.T.);
#126=ORIENTED_EDGE('',*,*,#168,.T.);
#127=ORIENTED_EDGE('',*,*,#171,.T.);
#128=ORIENTED_EDGE('',*,*,#174,.T.);
#129=ORIENTED_EDGE('',*,*,#177,.T.);
#130=ORIENTED_EDGE('',*,*,#181,.T.);
#131=ORIENTED_EDGE('',*,*,#179,.T.);
#132=ORIENTED_EDGE('',*,*,#144,.F.);
#133=ORIENTED_EDGE('',*,*,#180,.F.);
#134=ORIENTED_EDGE('',*,*,#175,.F.);
#135=ORIENTED_EDGE('',*,*,#172,.F.);
#136=ORIENTED_EDGE('',*,*,#169,.F.);
#137=ORIENTED_EDGE('',*,*,#166,.F.);
#138=ORIENTED_EDGE('',*,*,#163,.F.);
#139=ORIENTED_EDGE('',*,*,#160,.F.);
#140=ORIENTED_EDGE('',*,*,#157,.F.);
#141=ORIENTED_EDGE('',*,*,#154,.F.);
#142=ORIENTED_EDGE('',*,*,#151,.F.);
#143=ORIENTED_EDGE('',*,*,#148,.F.);
#144=EDGE_CURVE('',#182,#183,#208,.T.);
#145=EDGE_CURVE('',#184,#183,#20,.T.);
#146=EDGE_CURVE('',#185,#184,#209,.T.);
#147=EDGE_CURVE('',#185,#182,#21,.T.);
#148=EDGE_CURVE('',#183,#186,#22,.T.);
#149=EDGE_CURVE('',#187,#186,#23,.T.);
#150=EDGE_CURVE('',#184,#187,#24,.T.);
#151=EDGE_CURVE('',#186,#188,#210,.T.);
#152=EDGE_CURVE('',#189,#188,#25,.T.);
#153=EDGE_CURVE('',#187,#189,#211,.T.);
#154=EDGE_CURVE('',#188,#190,#26,.T.);
#155=EDGE_CURVE('',#191,#190,#27,.T.);
#156=EDGE_CURVE('',#189,#191,#28,.T.);
#157=EDGE_CURVE('',#190,#192,#212,.T.);
#158=EDGE_CURVE('',#193,#192,#29,.T.);
#159=EDGE_CURVE('',#191,#193,#213,.T.);
#160=EDGE_CURVE('',#192,#194,#30,.T.);
#161=EDGE_CURVE('',#195,#194,#31,.T.);
#162=EDGE_CURVE('',#193,#195,#32,.T.);
#163=EDGE_CURVE('',#194,#196,#214,.T.);
#164=EDGE_CURVE('',#197,#196,#33,.T.);
#165=EDGE_CURVE('',#195,#197,#215,.T.);
#166=EDGE_CURVE('',#196,#198,#34,.T.);
#167=EDGE_CURVE('',#199,#198,#35,.T.);
#168=EDGE_CURVE('',#197,#199,#36,.T.);
#169=EDGE_CURVE('',#198,#200,#216,.T.);
#170=EDGE_CURVE('',#201,#200,#37,.T.);
#171=EDGE_CURVE('',#199,#201,#217,.T.);
#172=EDGE_CURVE('',#200,#202,#38,.T.);
#173=EDGE_CURVE('',#203,#202,#39,.T.);
#174=EDGE_CURVE('',#201,#203,#40,.T.);
#175=EDGE_CURVE('',#202,#204,#218,.T.);
#176=EDGE_CURVE('',#205,#204,#41,.T.);
#177=EDGE_CURVE('',#203,#205,#219,.T.);
#178=EDGE_CURVE('',#206,#206,#220,.T.);
#179=EDGE_CURVE('',#207,#207,#221,.T.);
#180=EDGE_CURVE('',#204,#182,#42,.T.);
#181=EDGE_CURVE('',#205,#185,#43,.T.);
#182=VERTEX_POINT('',#409);
#183=VERTEX_POINT('',#410);
#184=VERTEX_POINT('',#412);
#185=VERTEX_POINT('',#414);
#186=VERTEX_POINT('',#418);
#187=VERTEX_POINT('',#420);
#188=VERTEX_POINT('',#424);
#189=VERTEX_POINT('',#426);
#190=VERTEX_POINT('',#430);
#191=VERTEX_POINT('',#432);
#192=VERTEX_POINT('',#436);
#193=VERTEX_POINT('',#438);
#194=VERTEX_POINT('',#442);
#195=VERTEX_POINT('',#444);
#196=VERTEX_POINT('',#448);
#197=VERTEX_POINT('',#450);
#198=VERTEX_POINT('',#454);
#199=VERTEX_POINT('',#456);
#200=VERTEX_POINT('',#460);
#201=VERTEX_POINT('',#462);
#202=VERTEX_POINT('',#466);
#203=VERTEX_POINT('',#468);
#204=VERTEX_POINT('',#472);
#205=VERTEX_POINT('',#474);
#206=VERTEX_POINT('',#478);
#207=VERTEX_POINT('',#480);
#208=CIRCLE('',#294,0.5125);
#209=CIRCLE('',#295,0.5125);
#210=CIRCLE('',#298,0.5125);
#211=CIRCLE('',#299,0.5125);
#212=CIRCLE('',#302,0.5125);
#213=CIRCLE('',#303,0.5125);
#214=CIRCLE('',#306,0.5125);
#215=CIRCLE('',#307,0.5125);
#216=CIRCLE('',#310,0.5125);
#217=CIRCLE('',#311,0.5125);
#218=CIRCLE('',#314,0.5125);
#219=CIRCLE('',#315,0.5125);
#220=CIRCLE('',#317,0.21);
#221=CIRCLE('',#318,0.21);
#222=EDGE_LOOP('',(#68,#69,#70,#71));
#223=EDGE_LOOP('',(#72,#73,#74,#75));
#224=EDGE_LOOP('',(#76,#77,#78,#79));
#225=EDGE_LOOP('',(#80,#81,#82,#83));
#226=EDGE_LOOP('',(#84,#85,#86,#87));
#227=EDGE_LOOP('',(#88,#89,#90,#91));
#228=EDGE_LOOP('',(#92,#93,#94,#95));
#229=EDGE_LOOP('',(#96,#97,#98,#99));
#230=EDGE_LOOP('',(#100,#101,#102,#103));
#231=EDGE_LOOP('',(#104,#105,#106,#107));
#232=EDGE_LOOP('',(#108,#109,#110,#111));
#233=EDGE_LOOP('',(#112));
#234=EDGE_LOOP('',(#113));
#235=EDGE_LOOP('',(#114,#115,#116,#117));
#236=EDGE_LOOP('',(#118));
#237=EDGE_LOOP('',(#119,#120,#121,#122,#123,#124,#125,#126,#127,#128,#129,
#130));
#238=EDGE_LOOP('',(#131));
#239=EDGE_LOOP('',(#132,#133,#134,#135,#136,#137,#138,#139,#140,#141,#142,
#143));
#240=FACE_BOUND('',#222,.T.);
#241=FACE_BOUND('',#223,.T.);
#242=FACE_BOUND('',#224,.T.);
#243=FACE_BOUND('',#225,.T.);
#244=FACE_BOUND('',#226,.T.);
#245=FACE_BOUND('',#227,.T.);
#246=FACE_BOUND('',#228,.T.);
#247=FACE_BOUND('',#229,.T.);
#248=FACE_BOUND('',#230,.T.);
#249=FACE_BOUND('',#231,.T.);
#250=FACE_BOUND('',#232,.T.);
#251=FACE_BOUND('',#233,.T.);
#252=FACE_BOUND('',#234,.T.);
#253=FACE_BOUND('',#235,.T.);
#254=FACE_BOUND('',#236,.T.);
#255=FACE_BOUND('',#237,.T.);
#256=FACE_BOUND('',#238,.T.);
#257=FACE_BOUND('',#239,.T.);
#258=CYLINDRICAL_SURFACE('',#293,0.5125);
#259=CYLINDRICAL_SURFACE('',#297,0.5125);
#260=CYLINDRICAL_SURFACE('',#301,0.5125);
#261=CYLINDRICAL_SURFACE('',#305,0.5125);
#262=CYLINDRICAL_SURFACE('',#309,0.5125);
#263=CYLINDRICAL_SURFACE('',#313,0.5125);
#264=CYLINDRICAL_SURFACE('',#316,0.21);
#265=ADVANCED_FACE('',(#240),#258,.T.);
#266=ADVANCED_FACE('',(#241),#12,.F.);
#267=ADVANCED_FACE('',(#242),#259,.T.);
#268=ADVANCED_FACE('',(#243),#13,.F.);
#269=ADVANCED_FACE('',(#244),#260,.T.);
#270=ADVANCED_FACE('',(#245),#14,.F.);
#271=ADVANCED_FACE('',(#246),#261,.T.);
#272=ADVANCED_FACE('',(#247),#15,.F.);
#273=ADVANCED_FACE('',(#248),#262,.T.);
#274=ADVANCED_FACE('',(#249),#16,.F.);
#275=ADVANCED_FACE('',(#250),#263,.T.);
#276=ADVANCED_FACE('',(#251,#252),#264,.F.);
#277=ADVANCED_FACE('',(#253),#17,.F.);
#278=ADVANCED_FACE('',(#254,#255),#18,.T.);
#279=ADVANCED_FACE('',(#256,#257),#19,.F.);
#280=CLOSED_SHELL('',(#265,#266,#267,#268,#269,#270,#271,#272,#273,#274,
#275,#276,#277,#278,#279));
#281=STYLED_ITEM('',(#282),#289);
#282=PRESENTATION_STYLE_ASSIGNMENT((#283));
#283=SURFACE_STYLE_USAGE(.BOTH.,#284);
#284=SURFACE_SIDE_STYLE('',(#285));
#285=SURFACE_STYLE_FILL_AREA(#286);
#286=FILL_AREA_STYLE('',(#287));
#287=FILL_AREA_STYLE_COLOUR('',#288);
#288=COLOUR_RGB('',0.196078431372549,0.196078431372549,0.196078431372549);
#289=MANIFOLD_SOLID_BREP('\X2\5706516D89D28F74\X0\3/8',#280);
#290=SHAPE_DEFINITION_REPRESENTATION(#492,#291);
#291=SHAPE_REPRESENTATION('????3/8',(#292),#487);
#292=AXIS2_PLACEMENT_3D('',#406,#322,#323);
#293=AXIS2_PLACEMENT_3D('',#407,#324,#325);
#294=AXIS2_PLACEMENT_3D('',#408,#326,#327);
#295=AXIS2_PLACEMENT_3D('',#413,#329,#330);
#296=AXIS2_PLACEMENT_3D('',#416,#332,#333);
#297=AXIS2_PLACEMENT_3D('',#422,#337,#338);
#298=AXIS2_PLACEMENT_3D('',#423,#339,#340);
#299=AXIS2_PLACEMENT_3D('',#427,#342,#343);
#300=AXIS2_PLACEMENT_3D('',#428,#344,#345);
#301=AXIS2_PLACEMENT_3D('',#434,#349,#350);
#302=AXIS2_PLACEMENT_3D('',#435,#351,#352);
#303=AXIS2_PLACEMENT_3D('',#439,#354,#355);
#304=AXIS2_PLACEMENT_3D('',#440,#356,#357);
#305=AXIS2_PLACEMENT_3D('',#446,#361,#362);
#306=AXIS2_PLACEMENT_3D('',#447,#363,#364);
#307=AXIS2_PLACEMENT_3D('',#451,#366,#367);
#308=AXIS2_PLACEMENT_3D('',#452,#368,#369);
#309=AXIS2_PLACEMENT_3D('',#458,#373,#374);
#310=AXIS2_PLACEMENT_3D('',#459,#375,#376);
#311=AXIS2_PLACEMENT_3D('',#463,#378,#379);
#312=AXIS2_PLACEMENT_3D('',#464,#380,#381);
#313=AXIS2_PLACEMENT_3D('',#470,#385,#386);
#314=AXIS2_PLACEMENT_3D('',#471,#387,#388);
#315=AXIS2_PLACEMENT_3D('',#475,#390,#391);
#316=AXIS2_PLACEMENT_3D('',#476,#392,#393);
#317=AXIS2_PLACEMENT_3D('',#477,#394,#395);
#318=AXIS2_PLACEMENT_3D('',#479,#396,#397);
#319=AXIS2_PLACEMENT_3D('',#481,#398,#399);
#320=AXIS2_PLACEMENT_3D('',#484,#402,#403);
#321=AXIS2_PLACEMENT_3D('',#485,#404,#405);
#322=DIRECTION('',(0.,0.,1.));
#323=DIRECTION('',(1.,0.,0.));
#324=DIRECTION('',(0.,0.,-1.));
#325=DIRECTION('',(0.,1.,0.));
#326=DIRECTION('',(0.,0.,1.));
#327=DIRECTION('',(0.,-1.,0.));
#328=DIRECTION('',(0.,0.,-1.));
#329=DIRECTION('',(0.,0.,1.));
#330=DIRECTION('',(0.,-1.,0.));
#331=DIRECTION('',(0.,0.,-1.));
#332=DIRECTION('',(4.58145058266738E-16,-1.,0.));
#333=DIRECTION('',(-1.,-4.58145058266738E-16,0.));
#334=DIRECTION('',(-1.,-4.58145058266738E-16,0.));
#335=DIRECTION('',(0.,0.,-1.));
#336=DIRECTION('',(-1.,-4.58145058266738E-16,0.));
#337=DIRECTION('',(0.,0.,-1.));
#338=DIRECTION('',(0.,1.,0.));
#339=DIRECTION('',(0.,0.,1.));
#340=DIRECTION('',(0.,-1.,0.));
#341=DIRECTION('',(0.,0.,-1.));
#342=DIRECTION('',(0.,0.,1.));
#343=DIRECTION('',(0.,-1.,0.));
#344=DIRECTION('',(0.866025403784439,-0.5,0.));
#345=DIRECTION('',(-0.5,-0.866025403784439,0.));
#346=DIRECTION('',(-0.5,-0.866025403784439,0.));
#347=DIRECTION('',(0.,0.,-1.));
#348=DIRECTION('',(-0.5,-0.866025403784439,0.));
#349=DIRECTION('',(0.,0.,-1.));
#350=DIRECTION('',(0.,1.,0.));
#351=DIRECTION('',(0.,0.,1.));
#352=DIRECTION('',(0.,-1.,0.));
#353=DIRECTION('',(0.,0.,-1.));
#354=DIRECTION('',(0.,0.,1.));
#355=DIRECTION('',(0.,-1.,0.));
#356=DIRECTION('',(0.866025403784438,0.5,0.));
#357=DIRECTION('',(0.5,-0.866025403784438,0.));
#358=DIRECTION('',(0.5,-0.866025403784438,0.));
#359=DIRECTION('',(0.,0.,-1.));
#360=DIRECTION('',(0.5,-0.866025403784438,0.));
#361=DIRECTION('',(0.,0.,-1.));
#362=DIRECTION('',(0.,1.,0.));
#363=DIRECTION('',(0.,0.,1.));
#364=DIRECTION('',(0.,-1.,0.));
#365=DIRECTION('',(0.,0.,-1.));
#366=DIRECTION('',(0.,0.,1.));
#367=DIRECTION('',(0.,-1.,0.));
#368=DIRECTION('',(-4.58145058266738E-16,1.,0.));
#369=DIRECTION('',(1.,4.58145058266738E-16,0.));
#370=DIRECTION('',(1.,4.58145058266738E-16,0.));
#371=DIRECTION('',(0.,0.,-1.));
#372=DIRECTION('',(1.,4.58145058266738E-16,0.));
#373=DIRECTION('',(0.,0.,-1.));
#374=DIRECTION('',(0.,1.,0.));
#375=DIRECTION('',(0.,0.,1.));
#376=DIRECTION('',(0.,-1.,0.));
#377=DIRECTION('',(0.,0.,-1.));
#378=DIRECTION('',(0.,0.,1.));
#379=DIRECTION('',(0.,-1.,0.));
#380=DIRECTION('',(-0.866025403784439,0.5,0.));
#381=DIRECTION('',(0.5,0.866025403784439,0.));
#382=DIRECTION('',(0.5,0.866025403784439,0.));
#383=DIRECTION('',(0.,0.,-1.));
#384=DIRECTION('',(0.5,0.866025403784439,0.));
#385=DIRECTION('',(0.,0.,-1.));
#386=DIRECTION('',(0.,1.,0.));
#387=DIRECTION('',(0.,0.,1.));
#388=DIRECTION('',(0.,-1.,0.));
#389=DIRECTION('',(0.,0.,-1.));
#390=DIRECTION('',(0.,0.,1.));
#391=DIRECTION('',(0.,-1.,0.));
#392=DIRECTION('',(0.,0.,-1.));
#393=DIRECTION('',(0.,1.,0.));
#394=DIRECTION('',(0.,0.,1.));
#395=DIRECTION('',(0.,-1.,0.));
#396=DIRECTION('',(0.,0.,1.));
#397=DIRECTION('',(0.,-1.,0.));
#398=DIRECTION('',(-0.866025403784439,-0.5,0.));
#399=DIRECTION('',(-0.5,0.866025403784439,0.));
#400=DIRECTION('',(-0.5,0.866025403784439,0.));
#401=DIRECTION('',(-0.5,0.866025403784439,0.));
#402=DIRECTION('',(0.,0.,1.));
#403=DIRECTION('',(1.,0.,0.));
#404=DIRECTION('',(0.,0.,1.));
#405=DIRECTION('',(1.,0.,0.));
#406=CARTESIAN_POINT('',(0.,0.,0.));
#407=CARTESIAN_POINT('',(-1.48535697630514E-15,-2.60208521396521E-15,50.));
#408=CARTESIAN_POINT('',(-1.48535697630514E-15,-2.60208521396521E-15,-50.));
#409=CARTESIAN_POINT('',(0.31778443335599,0.402081215572939,-50.));
#410=CARTESIAN_POINT('',(0.189320330392697,0.47625,-50.));
#411=CARTESIAN_POINT('',(0.189320330392697,0.47625,50.));
#412=CARTESIAN_POINT('',(0.189320330392697,0.47625,50.));
#413=CARTESIAN_POINT('',(-1.48535697630514E-15,-2.60208521396521E-15,50.));
#414=CARTESIAN_POINT('',(0.31778443335599,0.402081215572939,50.));
#415=CARTESIAN_POINT('',(0.31778443335599,0.402081215572939,50.));
#416=CARTESIAN_POINT('',(-1.7347234759768E-16,0.47625,50.));
#417=CARTESIAN_POINT('',(-1.7347234759768E-16,0.47625,-50.));
#418=CARTESIAN_POINT('',(-0.189320330392698,0.47625,-50.));
#419=CARTESIAN_POINT('',(-0.189320330392698,0.47625,50.));
#420=CARTESIAN_POINT('',(-0.189320330392698,0.47625,50.));
#421=CARTESIAN_POINT('',(-1.7347234759768E-16,0.47625,50.));
#422=CARTESIAN_POINT('',(1.95156391047391E-15,-3.38271077815477E-15,50.));
#423=CARTESIAN_POINT('',(1.95156391047391E-15,-3.38271077815477E-15,-50.));
#424=CARTESIAN_POINT('',(-0.317784433355991,0.402081215572938,-50.));
#425=CARTESIAN_POINT('',(-0.317784433355991,0.402081215572938,50.));
#426=CARTESIAN_POINT('',(-0.317784433355991,0.402081215572938,50.));
#427=CARTESIAN_POINT('',(1.95156391047391E-15,-3.38271077815477E-15,50.));
#428=CARTESIAN_POINT('',(-0.412444598552339,0.238125,50.));
#429=CARTESIAN_POINT('',(-0.412444598552339,0.238125,-50.));
#430=CARTESIAN_POINT('',(-0.507104763748687,0.0741687844270612,-50.));
#431=CARTESIAN_POINT('',(-0.507104763748687,0.0741687844270612,50.));
#432=CARTESIAN_POINT('',(-0.507104763748687,0.0741687844270612,50.));
#433=CARTESIAN_POINT('',(-0.412444598552339,0.238125,50.));
#434=CARTESIAN_POINT('',(-1.25767452008318E-15,-4.33680868994202E-17,50.));
#435=CARTESIAN_POINT('',(-1.25767452008318E-15,-4.33680868994202E-17,-50.));
#436=CARTESIAN_POINT('',(-0.507104763748687,-0.0741687844270613,-50.));
#437=CARTESIAN_POINT('',(-0.507104763748687,-0.0741687844270613,50.));
#438=CARTESIAN_POINT('',(-0.507104763748687,-0.0741687844270613,50.));
#439=CARTESIAN_POINT('',(-1.25767452008318E-15,-4.33680868994202E-17,50.));
#440=CARTESIAN_POINT('',(-0.412444598552339,-0.238125,50.));
#441=CARTESIAN_POINT('',(-0.412444598552339,-0.238125,-50.));
#442=CARTESIAN_POINT('',(-0.31778443335599,-0.402081215572939,-50.));
#443=CARTESIAN_POINT('',(-0.31778443335599,-0.402081215572939,50.));
#444=CARTESIAN_POINT('',(-0.31778443335599,-0.402081215572939,50.));
#445=CARTESIAN_POINT('',(-0.412444598552339,-0.238125,50.));
#446=CARTESIAN_POINT('',(2.71050543121376E-16,9.10729824887824E-16,50.));
#447=CARTESIAN_POINT('',(2.71050543121376E-16,9.10729824887824E-16,-50.));
#448=CARTESIAN_POINT('',(-0.189320330392697,-0.47625,-50.));
#449=CARTESIAN_POINT('',(-0.189320330392697,-0.47625,50.));
#450=CARTESIAN_POINT('',(-0.189320330392697,-0.47625,50.));
#451=CARTESIAN_POINT('',(2.71050543121376E-16,9.10729824887824E-16,50.));
#452=CARTESIAN_POINT('',(0.,-0.47625,50.));
#453=CARTESIAN_POINT('',(0.,-0.47625,-50.));
#454=CARTESIAN_POINT('',(0.189320330392697,-0.47625,-50.));
#455=CARTESIAN_POINT('',(0.189320330392697,-0.47625,50.));
#456=CARTESIAN_POINT('',(0.189320330392697,-0.47625,50.));
#457=CARTESIAN_POINT('',(0.,-0.47625,50.));
#458=CARTESIAN_POINT('',(6.50521303491303E-17,2.16840434497101E-16,50.));
#459=CARTESIAN_POINT('',(6.50521303491303E-17,2.16840434497101E-16,-50.));
#460=CARTESIAN_POINT('',(0.31778443335599,-0.402081215572938,-50.));
#461=CARTESIAN_POINT('',(0.31778443335599,-0.402081215572938,50.));
#462=CARTESIAN_POINT('',(0.31778443335599,-0.402081215572938,50.));
#463=CARTESIAN_POINT('',(6.50521303491303E-17,2.16840434497101E-16,50.));
#464=CARTESIAN_POINT('',(0.412444598552339,-0.238125,50.));
#465=CARTESIAN_POINT('',(0.412444598552339,-0.238125,-50.));
#466=CARTESIAN_POINT('',(0.507104763748687,-0.0741687844270615,-50.));
#467=CARTESIAN_POINT('',(0.507104763748687,-0.0741687844270615,50.));
#468=CARTESIAN_POINT('',(0.507104763748687,-0.0741687844270615,50.));
#469=CARTESIAN_POINT('',(0.412444598552339,-0.238125,50.));
#470=CARTESIAN_POINT('',(-4.77048955893622E-16,-6.50521303491303E-17,50.));
#471=CARTESIAN_POINT('',(-4.77048955893622E-16,-6.50521303491303E-17,-50.));
#472=CARTESIAN_POINT('',(0.507104763748687,0.0741687844270614,-50.));
#473=CARTESIAN_POINT('',(0.507104763748687,0.0741687844270614,50.));
#474=CARTESIAN_POINT('',(0.507104763748687,0.0741687844270614,50.));
#475=CARTESIAN_POINT('',(-4.77048955893622E-16,-6.50521303491303E-17,50.));
#476=CARTESIAN_POINT('',(0.,1.28587913910472E-17,50.));
#477=CARTESIAN_POINT('',(0.,1.28587913910472E-17,50.));
#478=CARTESIAN_POINT('',(0.,-0.21,50.));
#479=CARTESIAN_POINT('',(0.,1.28587913910472E-17,-50.));
#480=CARTESIAN_POINT('',(0.,-0.21,-50.));
#481=CARTESIAN_POINT('',(0.412444598552338,0.238125,50.));
#482=CARTESIAN_POINT('',(0.412444598552338,0.238125,-50.));
#483=CARTESIAN_POINT('',(0.412444598552338,0.238125,50.));
#484=CARTESIAN_POINT('',(0.,0.,50.));
#485=CARTESIAN_POINT('',(0.,0.,-50.));
#486=MECHANICAL_DESIGN_GEOMETRIC_PRESENTATION_REPRESENTATION('',(#281),
#487);
#487=(
GEOMETRIC_REPRESENTATION_CONTEXT(3)
GLOBAL_UNCERTAINTY_ASSIGNED_CONTEXT((#488))
GLOBAL_UNIT_ASSIGNED_CONTEXT((#491,#490,#489))
REPRESENTATION_CONTEXT('????3/8','TOP_LEVEL_ASSEMBLY_PART')
);
#488=UNCERTAINTY_MEASURE_WITH_UNIT(LENGTH_MEASURE(1.E-6),#491,
'DISTANCE_ACCURACY_VALUE','Maximum Tolerance applied to model');
#489=(
NAMED_UNIT(*)
SI_UNIT($,.STERADIAN.)
SOLID_ANGLE_UNIT()
);
#490=(
NAMED_UNIT(*)
PLANE_ANGLE_UNIT()
SI_UNIT($,.RADIAN.)
);
#491=(
LENGTH_UNIT()
NAMED_UNIT(*)
SI_UNIT(.CENTI.,.METRE.)
);
#492=PRODUCT_DEFINITION_SHAPE('','',#493);
#493=PRODUCT_DEFINITION('','',#495,#494);
#494=PRODUCT_DEFINITION_CONTEXT('',#501,'design');
#495=PRODUCT_DEFINITION_FORMATION_WITH_SPECIFIED_SOURCE('','',#497,
 .NOT_KNOWN.);
#496=PRODUCT_RELATED_PRODUCT_CATEGORY('','',(#497));
#497=PRODUCT('????3/8','????3/8','????3/8',(#499));
#498=PRODUCT_CATEGORY('','');
#499=PRODUCT_CONTEXT('',#501,'mechanical');
#500=APPLICATION_PROTOCOL_DEFINITION('international standard',
'ap242_managed_model_based_3d_engineering',2020,#501);
#501=APPLICATION_CONTEXT('managed model based 3d engineering');
ENDSEC;
END-ISO-10303-21;
