ISO-10303-21;
HEADER;
/* Generated by software containing ST-Developer
 * from STEP Tools, Inc. (www.steptools.com) 
 */
/* OPTION: using custom renumber hook */

FILE_DESCRIPTION(
/* description */ ('STEP AP242 Edition 2',
'CAx-IF Rec.Pracs.---Representation and Presentation of Product Manufa
cturing Information (PMI)---4.0---2014-10-13',
'CAx-IF Rec.Pracs.---3D Tessellated Geometry---0.4---2014-09-14','2;1',
'CAx-IF Rec.Pracs.---User Defined Attributes---1.5---2016-08-15'),
/* implementation_level */ '2;1');

FILE_NAME(
/* name */ '695c7fe6cf4a021bb411b11e',
/* time_stamp */ '2026-01-06T03:22:15Z',
/* author */ (''),
/* organization */ (''),
/* preprocessor_version */ 'ST-DEVELOPER v20',
/* originating_system */ 'ONSHAPE BY PTC INC, 1.208',
/* authorisation */ '  ');

FILE_SCHEMA (('AP242_MANAGED_MODEL_BASED_3D_ENGINEERING_MIM_LF { 1 0 10303 442 3 1 4 }'));
ENDSEC;

DATA;
#10=SHAPE_REPRESENTATION_RELATIONSHIP('','',#637,#11);
#11=ADVANCED_BREP_SHAPE_REPRESENTATION('',(#635),#1089);
#12=CONICAL_SURFACE('',#690,0.25,0.785398163397448);
#13=CONICAL_SURFACE('',#691,0.25,0.785398163397448);
#14=CONICAL_SURFACE('',#694,0.25,0.785398163397448);
#15=CONICAL_SURFACE('',#695,0.25,0.785398163397448);
#16=CONICAL_SURFACE('',#698,0.25,0.785398163397448);
#17=CONICAL_SURFACE('',#699,0.25,0.785398163397448);
#18=CONICAL_SURFACE('',#702,0.25,0.785398163397448);
#19=CONICAL_SURFACE('',#703,0.25,0.785398163397448);
#20=LINE('',#941,#60);
#21=LINE('',#944,#61);
#22=LINE('',#946,#62);
#23=LINE('',#948,#63);
#24=LINE('',#952,#64);
#25=LINE('',#955,#65);
#26=LINE('',#957,#66);
#27=LINE('',#959,#67);
#28=LINE('',#963,#68);
#29=LINE('',#966,#69);
#30=LINE('',#968,#70);
#31=LINE('',#970,#71);
#32=LINE('',#974,#72);
#33=LINE('',#977,#73);
#34=LINE('',#979,#74);
#35=LINE('',#981,#75);
#36=LINE('',#994,#76);
#37=LINE('',#998,#77);
#38=LINE('',#1002,#78);
#39=LINE('',#1006,#79);
#40=LINE('',#1019,#80);
#41=LINE('',#1023,#81);
#42=LINE('',#1027,#82);
#43=LINE('',#1031,#83);
#44=LINE('',#1045,#84);
#45=LINE('',#1046,#85);
#46=LINE('',#1048,#86);
#47=LINE('',#1050,#87);
#48=LINE('',#1052,#88);
#49=LINE('',#1054,#89);
#50=LINE('',#1056,#90);
#51=LINE('',#1058,#91);
#52=LINE('',#1061,#92);
#53=LINE('',#1062,#93);
#54=LINE('',#1064,#94);
#55=LINE('',#1066,#95);
#56=LINE('',#1068,#96);
#57=LINE('',#1070,#97);
#58=LINE('',#1072,#98);
#59=LINE('',#1074,#99);
#60=VECTOR('',#747,100.);
#61=VECTOR('',#748,100.);
#62=VECTOR('',#749,100.);
#63=VECTOR('',#750,100.);
#64=VECTOR('',#755,100.);
#65=VECTOR('',#756,100.);
#66=VECTOR('',#757,100.);
#67=VECTOR('',#758,100.);
#68=VECTOR('',#763,100.);
#69=VECTOR('',#764,100.);
#70=VECTOR('',#765,100.);
#71=VECTOR('',#766,100.);
#72=VECTOR('',#771,100.);
#73=VECTOR('',#772,100.);
#74=VECTOR('',#773,100.);
#75=VECTOR('',#774,100.);
#76=VECTOR('',#787,100.);
#77=VECTOR('',#790,100.);
#78=VECTOR('',#793,100.);
#79=VECTOR('',#796,100.);
#80=VECTOR('',#809,100.);
#81=VECTOR('',#812,100.);
#82=VECTOR('',#815,100.);
#83=VECTOR('',#818,100.);
#84=VECTOR('',#845,100.);
#85=VECTOR('',#846,100.);
#86=VECTOR('',#849,100.);
#87=VECTOR('',#852,100.);
#88=VECTOR('',#855,100.);
#89=VECTOR('',#858,100.);
#90=VECTOR('',#861,100.);
#91=VECTOR('',#864,100.);
#92=VECTOR('',#869,100.);
#93=VECTOR('',#870,100.);
#94=VECTOR('',#873,100.);
#95=VECTOR('',#876,100.);
#96=VECTOR('',#879,100.);
#97=VECTOR('',#882,100.);
#98=VECTOR('',#885,100.);
#99=VECTOR('',#888,100.);
#100=PLANE('',#651);
#101=PLANE('',#653);
#102=PLANE('',#655);
#103=PLANE('',#657);
#104=PLANE('',#659);
#105=PLANE('',#668);
#106=PLANE('',#689);
#107=PLANE('',#692);
#108=PLANE('',#693);
#109=PLANE('',#696);
#110=PLANE('',#697);
#111=PLANE('',#700);
#112=PLANE('',#701);
#113=PLANE('',#704);
#114=ELLIPSE('',#641,0.29698484809835,0.21);
#115=ELLIPSE('',#642,0.29698484809835,0.21);
#116=ELLIPSE('',#643,0.29698484809835,0.21);
#117=ELLIPSE('',#644,0.29698484809835,0.21);
#118=ELLIPSE('',#647,0.29698484809835,0.21);
#119=ELLIPSE('',#648,0.29698484809835,0.21);
#120=ELLIPSE('',#649,0.29698484809835,0.21);
#121=ELLIPSE('',#650,0.29698484809835,0.21);
#122=ELLIPSE('',#710,0.29698484809835,0.21);
#123=ELLIPSE('',#711,0.29698484809835,0.21);
#124=ELLIPSE('',#713,0.29698484809835,0.21);
#125=ELLIPSE('',#715,0.29698484809835,0.21);
#126=ORIENTED_EDGE('',*,*,#290,.T.);
#127=ORIENTED_EDGE('',*,*,#291,.T.);
#128=ORIENTED_EDGE('',*,*,#292,.T.);
#129=ORIENTED_EDGE('',*,*,#293,.T.);
#130=ORIENTED_EDGE('',*,*,#294,.T.);
#131=ORIENTED_EDGE('',*,*,#295,.F.);
#132=ORIENTED_EDGE('',*,*,#296,.T.);
#133=ORIENTED_EDGE('',*,*,#297,.T.);
#134=ORIENTED_EDGE('',*,*,#298,.T.);
#135=ORIENTED_EDGE('',*,*,#299,.T.);
#136=ORIENTED_EDGE('',*,*,#300,.T.);
#137=ORIENTED_EDGE('',*,*,#301,.T.);
#138=ORIENTED_EDGE('',*,*,#302,.T.);
#139=ORIENTED_EDGE('',*,*,#303,.T.);
#140=ORIENTED_EDGE('',*,*,#304,.T.);
#141=ORIENTED_EDGE('',*,*,#305,.F.);
#142=ORIENTED_EDGE('',*,*,#306,.T.);
#143=ORIENTED_EDGE('',*,*,#307,.T.);
#144=ORIENTED_EDGE('',*,*,#308,.T.);
#145=ORIENTED_EDGE('',*,*,#309,.T.);
#146=ORIENTED_EDGE('',*,*,#310,.F.);
#147=ORIENTED_EDGE('',*,*,#311,.T.);
#148=ORIENTED_EDGE('',*,*,#312,.T.);
#149=ORIENTED_EDGE('',*,*,#313,.T.);
#150=ORIENTED_EDGE('',*,*,#314,.T.);
#151=ORIENTED_EDGE('',*,*,#315,.T.);
#152=ORIENTED_EDGE('',*,*,#316,.T.);
#153=ORIENTED_EDGE('',*,*,#317,.T.);
#154=ORIENTED_EDGE('',*,*,#318,.T.);
#155=ORIENTED_EDGE('',*,*,#319,.T.);
#156=ORIENTED_EDGE('',*,*,#320,.T.);
#157=ORIENTED_EDGE('',*,*,#321,.T.);
#158=ORIENTED_EDGE('',*,*,#295,.T.);
#159=ORIENTED_EDGE('',*,*,#322,.T.);
#160=ORIENTED_EDGE('',*,*,#323,.T.);
#161=ORIENTED_EDGE('',*,*,#324,.T.);
#162=ORIENTED_EDGE('',*,*,#325,.T.);
#163=ORIENTED_EDGE('',*,*,#326,.T.);
#164=ORIENTED_EDGE('',*,*,#327,.T.);
#165=ORIENTED_EDGE('',*,*,#328,.T.);
#166=ORIENTED_EDGE('',*,*,#329,.T.);
#167=ORIENTED_EDGE('',*,*,#330,.T.);
#168=ORIENTED_EDGE('',*,*,#331,.T.);
#169=ORIENTED_EDGE('',*,*,#332,.F.);
#170=ORIENTED_EDGE('',*,*,#333,.F.);
#171=ORIENTED_EDGE('',*,*,#290,.F.);
#172=ORIENTED_EDGE('',*,*,#334,.F.);
#173=ORIENTED_EDGE('',*,*,#335,.F.);
#174=ORIENTED_EDGE('',*,*,#336,.T.);
#175=ORIENTED_EDGE('',*,*,#337,.T.);
#176=ORIENTED_EDGE('',*,*,#338,.T.);
#177=ORIENTED_EDGE('',*,*,#339,.T.);
#178=ORIENTED_EDGE('',*,*,#340,.T.);
#179=ORIENTED_EDGE('',*,*,#341,.T.);
#180=ORIENTED_EDGE('',*,*,#342,.T.);
#181=ORIENTED_EDGE('',*,*,#343,.T.);
#182=ORIENTED_EDGE('',*,*,#313,.F.);
#183=ORIENTED_EDGE('',*,*,#344,.T.);
#184=ORIENTED_EDGE('',*,*,#306,.F.);
#185=ORIENTED_EDGE('',*,*,#345,.T.);
#186=ORIENTED_EDGE('',*,*,#308,.F.);
#187=ORIENTED_EDGE('',*,*,#346,.T.);
#188=ORIENTED_EDGE('',*,*,#301,.F.);
#189=ORIENTED_EDGE('',*,*,#347,.T.);
#190=ORIENTED_EDGE('',*,*,#303,.F.);
#191=ORIENTED_EDGE('',*,*,#348,.T.);
#192=ORIENTED_EDGE('',*,*,#316,.F.);
#193=ORIENTED_EDGE('',*,*,#349,.T.);
#194=ORIENTED_EDGE('',*,*,#318,.F.);
#195=ORIENTED_EDGE('',*,*,#350,.T.);
#196=ORIENTED_EDGE('',*,*,#311,.F.);
#197=ORIENTED_EDGE('',*,*,#351,.T.);
#198=ORIENTED_EDGE('',*,*,#352,.F.);
#199=ORIENTED_EDGE('',*,*,#302,.F.);
#200=ORIENTED_EDGE('',*,*,#353,.F.);
#201=ORIENTED_EDGE('',*,*,#329,.F.);
#202=ORIENTED_EDGE('',*,*,#353,.T.);
#203=ORIENTED_EDGE('',*,*,#346,.F.);
#204=ORIENTED_EDGE('',*,*,#354,.F.);
#205=ORIENTED_EDGE('',*,*,#330,.F.);
#206=ORIENTED_EDGE('',*,*,#352,.T.);
#207=ORIENTED_EDGE('',*,*,#328,.F.);
#208=ORIENTED_EDGE('',*,*,#355,.F.);
#209=ORIENTED_EDGE('',*,*,#348,.F.);
#210=ORIENTED_EDGE('',*,*,#354,.T.);
#211=ORIENTED_EDGE('',*,*,#307,.F.);
#212=ORIENTED_EDGE('',*,*,#356,.F.);
#213=ORIENTED_EDGE('',*,*,#331,.F.);
#214=ORIENTED_EDGE('',*,*,#355,.T.);
#215=ORIENTED_EDGE('',*,*,#327,.F.);
#216=ORIENTED_EDGE('',*,*,#357,.F.);
#217=ORIENTED_EDGE('',*,*,#317,.F.);
#218=ORIENTED_EDGE('',*,*,#356,.T.);
#219=ORIENTED_EDGE('',*,*,#344,.F.);
#220=ORIENTED_EDGE('',*,*,#358,.F.);
#221=ORIENTED_EDGE('',*,*,#324,.F.);
#222=ORIENTED_EDGE('',*,*,#357,.T.);
#223=ORIENTED_EDGE('',*,*,#326,.F.);
#224=ORIENTED_EDGE('',*,*,#359,.F.);
#225=ORIENTED_EDGE('',*,*,#350,.F.);
#226=ORIENTED_EDGE('',*,*,#358,.T.);
#227=ORIENTED_EDGE('',*,*,#312,.F.);
#228=ORIENTED_EDGE('',*,*,#359,.T.);
#229=ORIENTED_EDGE('',*,*,#325,.F.);
#230=ORIENTED_EDGE('',*,*,#360,.F.);
#231=ORIENTED_EDGE('',*,*,#341,.F.);
#232=ORIENTED_EDGE('',*,*,#361,.F.);
#233=ORIENTED_EDGE('',*,*,#304,.F.);
#234=ORIENTED_EDGE('',*,*,#361,.T.);
#235=ORIENTED_EDGE('',*,*,#340,.F.);
#236=ORIENTED_EDGE('',*,*,#362,.F.);
#237=ORIENTED_EDGE('',*,*,#347,.F.);
#238=ORIENTED_EDGE('',*,*,#360,.T.);
#239=ORIENTED_EDGE('',*,*,#349,.F.);
#240=ORIENTED_EDGE('',*,*,#363,.F.);
#241=ORIENTED_EDGE('',*,*,#342,.F.);
#242=ORIENTED_EDGE('',*,*,#362,.T.);
#243=ORIENTED_EDGE('',*,*,#339,.F.);
#244=ORIENTED_EDGE('',*,*,#364,.F.);
#245=ORIENTED_EDGE('',*,*,#309,.F.);
#246=ORIENTED_EDGE('',*,*,#363,.T.);
#247=ORIENTED_EDGE('',*,*,#319,.F.);
#248=ORIENTED_EDGE('',*,*,#365,.F.);
#249=ORIENTED_EDGE('',*,*,#343,.F.);
#250=ORIENTED_EDGE('',*,*,#364,.T.);
#251=ORIENTED_EDGE('',*,*,#338,.F.);
#252=ORIENTED_EDGE('',*,*,#366,.F.);
#253=ORIENTED_EDGE('',*,*,#345,.F.);
#254=ORIENTED_EDGE('',*,*,#365,.T.);
#255=ORIENTED_EDGE('',*,*,#351,.F.);
#256=ORIENTED_EDGE('',*,*,#367,.F.);
#257=ORIENTED_EDGE('',*,*,#336,.F.);
#258=ORIENTED_EDGE('',*,*,#366,.T.);
#259=ORIENTED_EDGE('',*,*,#337,.F.);
#260=ORIENTED_EDGE('',*,*,#367,.T.);
#261=ORIENTED_EDGE('',*,*,#314,.F.);
#262=ORIENTED_EDGE('',*,*,#323,.F.);
#263=ORIENTED_EDGE('',*,*,#335,.T.);
#264=ORIENTED_EDGE('',*,*,#322,.F.);
#265=ORIENTED_EDGE('',*,*,#334,.T.);
#266=ORIENTED_EDGE('',*,*,#321,.F.);
#267=ORIENTED_EDGE('',*,*,#333,.T.);
#268=ORIENTED_EDGE('',*,*,#320,.F.);
#269=ORIENTED_EDGE('',*,*,#332,.T.);
#270=ORIENTED_EDGE('',*,*,#368,.F.);
#271=ORIENTED_EDGE('',*,*,#293,.F.);
#272=ORIENTED_EDGE('',*,*,#369,.F.);
#273=ORIENTED_EDGE('',*,*,#296,.F.);
#274=ORIENTED_EDGE('',*,*,#305,.T.);
#275=ORIENTED_EDGE('',*,*,#370,.T.);
#276=ORIENTED_EDGE('',*,*,#294,.F.);
#277=ORIENTED_EDGE('',*,*,#368,.T.);
#278=ORIENTED_EDGE('',*,*,#299,.F.);
#279=ORIENTED_EDGE('',*,*,#310,.T.);
#280=ORIENTED_EDGE('',*,*,#300,.F.);
#281=ORIENTED_EDGE('',*,*,#371,.T.);
#282=ORIENTED_EDGE('',*,*,#297,.F.);
#283=ORIENTED_EDGE('',*,*,#369,.T.);
#284=ORIENTED_EDGE('',*,*,#292,.F.);
#285=ORIENTED_EDGE('',*,*,#315,.F.);
#286=ORIENTED_EDGE('',*,*,#370,.F.);
#287=ORIENTED_EDGE('',*,*,#298,.F.);
#288=ORIENTED_EDGE('',*,*,#371,.F.);
#289=ORIENTED_EDGE('',*,*,#291,.F.);
#290=EDGE_CURVE('',#372,#372,#426,.F.);
#291=EDGE_CURVE('',#373,#374,#114,.F.);
#292=EDGE_CURVE('',#374,#375,#115,.F.);
#293=EDGE_CURVE('',#375,#376,#116,.F.);
#294=EDGE_CURVE('',#376,#373,#117,.F.);
#295=EDGE_CURVE('',#377,#377,#427,.T.);
#296=EDGE_CURVE('',#378,#379,#118,.T.);
#297=EDGE_CURVE('',#379,#380,#119,.T.);
#298=EDGE_CURVE('',#380,#381,#120,.T.);
#299=EDGE_CURVE('',#381,#378,#121,.T.);
#300=EDGE_CURVE('',#382,#382,#428,.T.);
#301=EDGE_CURVE('',#383,#384,#20,.F.);
#302=EDGE_CURVE('',#384,#385,#21,.T.);
#303=EDGE_CURVE('',#385,#386,#22,.T.);
#304=EDGE_CURVE('',#386,#383,#23,.T.);
#305=EDGE_CURVE('',#387,#387,#429,.F.);
#306=EDGE_CURVE('',#388,#389,#24,.F.);
#307=EDGE_CURVE('',#389,#390,#25,.T.);
#308=EDGE_CURVE('',#390,#391,#26,.T.);
#309=EDGE_CURVE('',#391,#388,#27,.T.);
#310=EDGE_CURVE('',#392,#392,#430,.F.);
#311=EDGE_CURVE('',#393,#394,#28,.F.);
#312=EDGE_CURVE('',#394,#395,#29,.T.);
#313=EDGE_CURVE('',#395,#396,#30,.T.);
#314=EDGE_CURVE('',#396,#393,#31,.T.);
#315=EDGE_CURVE('',#397,#397,#431,.T.);
#316=EDGE_CURVE('',#398,#399,#32,.F.);
#317=EDGE_CURVE('',#399,#400,#33,.T.);
#318=EDGE_CURVE('',#400,#401,#34,.T.);
#319=EDGE_CURVE('',#401,#398,#35,.T.);
#320=EDGE_CURVE('',#402,#402,#432,.T.);
#321=EDGE_CURVE('',#403,#403,#433,.T.);
#322=EDGE_CURVE('',#404,#404,#434,.T.);
#323=EDGE_CURVE('',#405,#405,#435,.T.);
#324=EDGE_CURVE('',#406,#407,#436,.T.);
#325=EDGE_CURVE('',#407,#408,#36,.T.);
#326=EDGE_CURVE('',#408,#409,#437,.T.);
#327=EDGE_CURVE('',#409,#410,#37,.T.);
#328=EDGE_CURVE('',#410,#411,#438,.T.);
#329=EDGE_CURVE('',#411,#412,#38,.T.);
#330=EDGE_CURVE('',#412,#413,#439,.T.);
#331=EDGE_CURVE('',#413,#406,#39,.T.);
#332=EDGE_CURVE('',#414,#414,#440,.F.);
#333=EDGE_CURVE('',#415,#415,#441,.F.);
#334=EDGE_CURVE('',#416,#416,#442,.F.);
#335=EDGE_CURVE('',#417,#417,#443,.F.);
#336=EDGE_CURVE('',#418,#419,#444,.F.);
#337=EDGE_CURVE('',#419,#420,#40,.T.);
#338=EDGE_CURVE('',#420,#421,#445,.F.);
#339=EDGE_CURVE('',#421,#422,#41,.T.);
#340=EDGE_CURVE('',#422,#423,#446,.F.);
#341=EDGE_CURVE('',#423,#424,#42,.T.);
#342=EDGE_CURVE('',#424,#425,#447,.F.);
#343=EDGE_CURVE('',#425,#418,#43,.T.);
#344=EDGE_CURVE('',#395,#389,#448,.F.);
#345=EDGE_CURVE('',#388,#396,#449,.T.);
#346=EDGE_CURVE('',#390,#384,#450,.F.);
#347=EDGE_CURVE('',#383,#391,#451,.T.);
#348=EDGE_CURVE('',#385,#399,#452,.F.);
#349=EDGE_CURVE('',#398,#386,#453,.T.);
#350=EDGE_CURVE('',#400,#394,#454,.F.);
#351=EDGE_CURVE('',#393,#401,#455,.T.);
#352=EDGE_CURVE('',#385,#411,#44,.T.);
#353=EDGE_CURVE('',#412,#384,#45,.T.);
#354=EDGE_CURVE('',#413,#390,#46,.T.);
#355=EDGE_CURVE('',#399,#410,#47,.T.);
#356=EDGE_CURVE('',#406,#389,#48,.T.);
#357=EDGE_CURVE('',#400,#409,#49,.T.);
#358=EDGE_CURVE('',#407,#395,#50,.T.);
#359=EDGE_CURVE('',#394,#408,#51,.T.);
#360=EDGE_CURVE('',#424,#386,#52,.T.);
#361=EDGE_CURVE('',#383,#423,#53,.T.);
#362=EDGE_CURVE('',#391,#422,#54,.T.);
#363=EDGE_CURVE('',#425,#398,#55,.T.);
#364=EDGE_CURVE('',#388,#421,#56,.T.);
#365=EDGE_CURVE('',#418,#401,#57,.T.);
#366=EDGE_CURVE('',#396,#420,#58,.T.);
#367=EDGE_CURVE('',#419,#393,#59,.T.);
#368=EDGE_CURVE('',#376,#378,#122,.F.);
#369=EDGE_CURVE('',#379,#375,#123,.T.);
#370=EDGE_CURVE('',#381,#373,#124,.F.);
#371=EDGE_CURVE('',#374,#380,#125,.T.);
#372=VERTEX_POINT('',#918);
#373=VERTEX_POINT('',#920);
#374=VERTEX_POINT('',#921);
#375=VERTEX_POINT('',#923);
#376=VERTEX_POINT('',#925);
#377=VERTEX_POINT('',#929);
#378=VERTEX_POINT('',#931);
#379=VERTEX_POINT('',#932);
#380=VERTEX_POINT('',#934);
#381=VERTEX_POINT('',#936);
#382=VERTEX_POINT('',#940);
#383=VERTEX_POINT('',#942);
#384=VERTEX_POINT('',#943);
#385=VERTEX_POINT('',#945);
#386=VERTEX_POINT('',#947);
#387=VERTEX_POINT('',#951);
#388=VERTEX_POINT('',#953);
#389=VERTEX_POINT('',#954);
#390=VERTEX_POINT('',#956);
#391=VERTEX_POINT('',#958);
#392=VERTEX_POINT('',#962);
#393=VERTEX_POINT('',#964);
#394=VERTEX_POINT('',#965);
#395=VERTEX_POINT('',#967);
#396=VERTEX_POINT('',#969);
#397=VERTEX_POINT('',#973);
#398=VERTEX_POINT('',#975);
#399=VERTEX_POINT('',#976);
#400=VERTEX_POINT('',#978);
#401=VERTEX_POINT('',#980);
#402=VERTEX_POINT('',#984);
#403=VERTEX_POINT('',#986);
#404=VERTEX_POINT('',#988);
#405=VERTEX_POINT('',#990);
#406=VERTEX_POINT('',#992);
#407=VERTEX_POINT('',#993);
#408=VERTEX_POINT('',#995);
#409=VERTEX_POINT('',#997);
#410=VERTEX_POINT('',#999);
#411=VERTEX_POINT('',#1001);
#412=VERTEX_POINT('',#1003);
#413=VERTEX_POINT('',#1005);
#414=VERTEX_POINT('',#1009);
#415=VERTEX_POINT('',#1011);
#416=VERTEX_POINT('',#1013);
#417=VERTEX_POINT('',#1015);
#418=VERTEX_POINT('',#1017);
#419=VERTEX_POINT('',#1018);
#420=VERTEX_POINT('',#1020);
#421=VERTEX_POINT('',#1022);
#422=VERTEX_POINT('',#1024);
#423=VERTEX_POINT('',#1026);
#424=VERTEX_POINT('',#1028);
#425=VERTEX_POINT('',#1030);
#426=CIRCLE('',#640,0.21);
#427=CIRCLE('',#646,0.21);
#428=CIRCLE('',#652,0.21);
#429=CIRCLE('',#654,0.21);
#430=CIRCLE('',#656,0.21);
#431=CIRCLE('',#658,0.21);
#432=CIRCLE('',#660,0.21);
#433=CIRCLE('',#661,0.21);
#434=CIRCLE('',#662,0.21);
#435=CIRCLE('',#663,0.21);
#436=CIRCLE('',#664,0.25);
#437=CIRCLE('',#665,0.25);
#438=CIRCLE('',#666,0.25);
#439=CIRCLE('',#667,0.25);
#440=CIRCLE('',#669,0.21);
#441=CIRCLE('',#670,0.21);
#442=CIRCLE('',#671,0.21);
#443=CIRCLE('',#672,0.21);
#444=CIRCLE('',#673,0.25);
#445=CIRCLE('',#674,0.25);
#446=CIRCLE('',#675,0.25);
#447=CIRCLE('',#676,0.25);
#448=CIRCLE('',#678,0.3);
#449=CIRCLE('',#679,0.3);
#450=CIRCLE('',#681,0.3);
#451=CIRCLE('',#682,0.3);
#452=CIRCLE('',#684,0.3);
#453=CIRCLE('',#685,0.3);
#454=CIRCLE('',#687,0.3);
#455=CIRCLE('',#688,0.3);
#456=EDGE_LOOP('',(#126));
#457=EDGE_LOOP('',(#127,#128,#129,#130));
#458=EDGE_LOOP('',(#131));
#459=EDGE_LOOP('',(#132,#133,#134,#135));
#460=EDGE_LOOP('',(#136));
#461=EDGE_LOOP('',(#137,#138,#139,#140));
#462=EDGE_LOOP('',(#141));
#463=EDGE_LOOP('',(#142,#143,#144,#145));
#464=EDGE_LOOP('',(#146));
#465=EDGE_LOOP('',(#147,#148,#149,#150));
#466=EDGE_LOOP('',(#151));
#467=EDGE_LOOP('',(#152,#153,#154,#155));
#468=EDGE_LOOP('',(#156));
#469=EDGE_LOOP('',(#157));
#470=EDGE_LOOP('',(#158));
#471=EDGE_LOOP('',(#159));
#472=EDGE_LOOP('',(#160));
#473=EDGE_LOOP('',(#161,#162,#163,#164,#165,#166,#167,#168));
#474=EDGE_LOOP('',(#169));
#475=EDGE_LOOP('',(#170));
#476=EDGE_LOOP('',(#171));
#477=EDGE_LOOP('',(#172));
#478=EDGE_LOOP('',(#173));
#479=EDGE_LOOP('',(#174,#175,#176,#177,#178,#179,#180,#181));
#480=EDGE_LOOP('',(#182,#183,#184,#185));
#481=EDGE_LOOP('',(#186,#187,#188,#189));
#482=EDGE_LOOP('',(#190,#191,#192,#193));
#483=EDGE_LOOP('',(#194,#195,#196,#197));
#484=EDGE_LOOP('',(#198,#199,#200,#201));
#485=EDGE_LOOP('',(#202,#203,#204,#205));
#486=EDGE_LOOP('',(#206,#207,#208,#209));
#487=EDGE_LOOP('',(#210,#211,#212,#213));
#488=EDGE_LOOP('',(#214,#215,#216,#217));
#489=EDGE_LOOP('',(#218,#219,#220,#221));
#490=EDGE_LOOP('',(#222,#223,#224,#225));
#491=EDGE_LOOP('',(#226,#227,#228,#229));
#492=EDGE_LOOP('',(#230,#231,#232,#233));
#493=EDGE_LOOP('',(#234,#235,#236,#237));
#494=EDGE_LOOP('',(#238,#239,#240,#241));
#495=EDGE_LOOP('',(#242,#243,#244,#245));
#496=EDGE_LOOP('',(#246,#247,#248,#249));
#497=EDGE_LOOP('',(#250,#251,#252,#253));
#498=EDGE_LOOP('',(#254,#255,#256,#257));
#499=EDGE_LOOP('',(#258,#259,#260,#261));
#500=EDGE_LOOP('',(#262));
#501=EDGE_LOOP('',(#263));
#502=EDGE_LOOP('',(#264));
#503=EDGE_LOOP('',(#265));
#504=EDGE_LOOP('',(#266));
#505=EDGE_LOOP('',(#267));
#506=EDGE_LOOP('',(#268));
#507=EDGE_LOOP('',(#269));
#508=EDGE_LOOP('',(#270,#271,#272,#273));
#509=EDGE_LOOP('',(#274));
#510=EDGE_LOOP('',(#275,#276,#277,#278));
#511=EDGE_LOOP('',(#279));
#512=EDGE_LOOP('',(#280));
#513=EDGE_LOOP('',(#281,#282,#283,#284));
#514=EDGE_LOOP('',(#285));
#515=EDGE_LOOP('',(#286,#287,#288,#289));
#516=FACE_BOUND('',#456,.T.);
#517=FACE_BOUND('',#457,.T.);
#518=FACE_BOUND('',#458,.T.);
#519=FACE_BOUND('',#459,.T.);
#520=FACE_BOUND('',#460,.T.);
#521=FACE_BOUND('',#461,.T.);
#522=FACE_BOUND('',#462,.T.);
#523=FACE_BOUND('',#463,.T.);
#524=FACE_BOUND('',#464,.T.);
#525=FACE_BOUND('',#465,.T.);
#526=FACE_BOUND('',#466,.T.);
#527=FACE_BOUND('',#467,.T.);
#528=FACE_BOUND('',#468,.T.);
#529=FACE_BOUND('',#469,.T.);
#530=FACE_BOUND('',#470,.T.);
#531=FACE_BOUND('',#471,.T.);
#532=FACE_BOUND('',#472,.T.);
#533=FACE_BOUND('',#473,.T.);
#534=FACE_BOUND('',#474,.T.);
#535=FACE_BOUND('',#475,.T.);
#536=FACE_BOUND('',#476,.T.);
#537=FACE_BOUND('',#477,.T.);
#538=FACE_BOUND('',#478,.T.);
#539=FACE_BOUND('',#479,.T.);
#540=FACE_BOUND('',#480,.T.);
#541=FACE_BOUND('',#481,.T.);
#542=FACE_BOUND('',#482,.T.);
#543=FACE_BOUND('',#483,.T.);
#544=FACE_BOUND('',#484,.T.);
#545=FACE_BOUND('',#485,.T.);
#546=FACE_BOUND('',#486,.T.);
#547=FACE_BOUND('',#487,.T.);
#548=FACE_BOUND('',#488,.T.);
#549=FACE_BOUND('',#489,.T.);
#550=FACE_BOUND('',#490,.T.);
#551=FACE_BOUND('',#491,.T.);
#552=FACE_BOUND('',#492,.T.);
#553=FACE_BOUND('',#493,.T.);
#554=FACE_BOUND('',#494,.T.);
#555=FACE_BOUND('',#495,.T.);
#556=FACE_BOUND('',#496,.T.);
#557=FACE_BOUND('',#497,.T.);
#558=FACE_BOUND('',#498,.T.);
#559=FACE_BOUND('',#499,.T.);
#560=FACE_BOUND('',#500,.T.);
#561=FACE_BOUND('',#501,.T.);
#562=FACE_BOUND('',#502,.T.);
#563=FACE_BOUND('',#503,.T.);
#564=FACE_BOUND('',#504,.T.);
#565=FACE_BOUND('',#505,.T.);
#566=FACE_BOUND('',#506,.T.);
#567=FACE_BOUND('',#507,.T.);
#568=FACE_BOUND('',#508,.T.);
#569=FACE_BOUND('',#509,.T.);
#570=FACE_BOUND('',#510,.T.);
#571=FACE_BOUND('',#511,.T.);
#572=FACE_BOUND('',#512,.T.);
#573=FACE_BOUND('',#513,.T.);
#574=FACE_BOUND('',#514,.T.);
#575=FACE_BOUND('',#515,.T.);
#576=CYLINDRICAL_SURFACE('',#639,0.21);
#577=CYLINDRICAL_SURFACE('',#645,0.21);
#578=CYLINDRICAL_SURFACE('',#677,0.3);
#579=CYLINDRICAL_SURFACE('',#680,0.3);
#580=CYLINDRICAL_SURFACE('',#683,0.3);
#581=CYLINDRICAL_SURFACE('',#686,0.3);
#582=CYLINDRICAL_SURFACE('',#705,0.21);
#583=CYLINDRICAL_SURFACE('',#706,0.21);
#584=CYLINDRICAL_SURFACE('',#707,0.21);
#585=CYLINDRICAL_SURFACE('',#708,0.21);
#586=CYLINDRICAL_SURFACE('',#709,0.21);
#587=CYLINDRICAL_SURFACE('',#712,0.21);
#588=CYLINDRICAL_SURFACE('',#714,0.21);
#589=CYLINDRICAL_SURFACE('',#716,0.21);
#590=ADVANCED_FACE('',(#516,#517),#576,.F.);
#591=ADVANCED_FACE('',(#518,#519),#577,.F.);
#592=ADVANCED_FACE('',(#520,#521),#100,.T.);
#593=ADVANCED_FACE('',(#522,#523),#101,.F.);
#594=ADVANCED_FACE('',(#524,#525),#102,.F.);
#595=ADVANCED_FACE('',(#526,#527),#103,.T.);
#596=ADVANCED_FACE('',(#528,#529,#530,#531,#532,#533),#104,.T.);
#597=ADVANCED_FACE('',(#534,#535,#536,#537,#538,#539),#105,.F.);
#598=ADVANCED_FACE('',(#540),#578,.T.);
#599=ADVANCED_FACE('',(#541),#579,.T.);
#600=ADVANCED_FACE('',(#542),#580,.T.);
#601=ADVANCED_FACE('',(#543),#581,.T.);
#602=ADVANCED_FACE('',(#544),#106,.F.);
#603=ADVANCED_FACE('',(#545),#12,.T.);
#604=ADVANCED_FACE('',(#546),#13,.T.);
#605=ADVANCED_FACE('',(#547),#107,.T.);
#606=ADVANCED_FACE('',(#548),#108,.F.);
#607=ADVANCED_FACE('',(#549),#14,.T.);
#608=ADVANCED_FACE('',(#550),#15,.T.);
#609=ADVANCED_FACE('',(#551),#109,.T.);
#610=ADVANCED_FACE('',(#552),#110,.T.);
#611=ADVANCED_FACE('',(#553),#16,.T.);
#612=ADVANCED_FACE('',(#554),#17,.T.);
#613=ADVANCED_FACE('',(#555),#111,.F.);
#614=ADVANCED_FACE('',(#556),#112,.T.);
#615=ADVANCED_FACE('',(#557),#18,.T.);
#616=ADVANCED_FACE('',(#558),#19,.T.);
#617=ADVANCED_FACE('',(#559),#113,.F.);
#618=ADVANCED_FACE('',(#560,#561),#582,.F.);
#619=ADVANCED_FACE('',(#562,#563),#583,.F.);
#620=ADVANCED_FACE('',(#564,#565),#584,.F.);
#621=ADVANCED_FACE('',(#566,#567),#585,.F.);
#622=ADVANCED_FACE('',(#568,#569),#586,.F.);
#623=ADVANCED_FACE('',(#570,#571),#587,.F.);
#624=ADVANCED_FACE('',(#572,#573),#588,.F.);
#625=ADVANCED_FACE('',(#574,#575),#589,.F.);
#626=CLOSED_SHELL('',(#590,#591,#592,#593,#594,#595,#596,#597,#598,#599,
#600,#601,#602,#603,#604,#605,#606,#607,#608,#609,#610,#611,#612,#613,#614,
#615,#616,#617,#618,#619,#620,#621,#622,#623,#624,#625));
#627=STYLED_ITEM('',(#628),#635);
#628=PRESENTATION_STYLE_ASSIGNMENT((#629));
#629=SURFACE_STYLE_USAGE(.BOTH.,#630);
#630=SURFACE_SIDE_STYLE('',(#631));
#631=SURFACE_STYLE_FILL_AREA(#632);
#632=FILL_AREA_STYLE('',(#633));
#633=FILL_AREA_STYLE_COLOUR('',#634);
#634=COLOUR_RGB('',0.901960784313726,0.901960784313726,0.901960784313726);
#635=MANIFOLD_SOLID_BREP('\X2\65B97BA1585E\X0\-2525-2.0',#626);
#636=SHAPE_DEFINITION_REPRESENTATION(#1094,#637);
#637=SHAPE_REPRESENTATION('???-2525-2.0',(#638),#1089);
#638=AXIS2_PLACEMENT_3D('',#915,#717,#718);
#639=AXIS2_PLACEMENT_3D('',#916,#719,#720);
#640=AXIS2_PLACEMENT_3D('',#917,#721,#722);
#641=AXIS2_PLACEMENT_3D('',#919,#723,#724);
#642=AXIS2_PLACEMENT_3D('',#922,#725,#726);
#643=AXIS2_PLACEMENT_3D('',#924,#727,#728);
#644=AXIS2_PLACEMENT_3D('',#926,#729,#730);
#645=AXIS2_PLACEMENT_3D('',#927,#731,#732);
#646=AXIS2_PLACEMENT_3D('',#928,#733,#734);
#647=AXIS2_PLACEMENT_3D('',#930,#735,#736);
#648=AXIS2_PLACEMENT_3D('',#933,#737,#738);
#649=AXIS2_PLACEMENT_3D('',#935,#739,#740);
#650=AXIS2_PLACEMENT_3D('',#937,#741,#742);
#651=AXIS2_PLACEMENT_3D('',#938,#743,#744);
#652=AXIS2_PLACEMENT_3D('',#939,#745,#746);
#653=AXIS2_PLACEMENT_3D('',#949,#751,#752);
#654=AXIS2_PLACEMENT_3D('',#950,#753,#754);
#655=AXIS2_PLACEMENT_3D('',#960,#759,#760);
#656=AXIS2_PLACEMENT_3D('',#961,#761,#762);
#657=AXIS2_PLACEMENT_3D('',#971,#767,#768);
#658=AXIS2_PLACEMENT_3D('',#972,#769,#770);
#659=AXIS2_PLACEMENT_3D('',#982,#775,#776);
#660=AXIS2_PLACEMENT_3D('',#983,#777,#778);
#661=AXIS2_PLACEMENT_3D('',#985,#779,#780);
#662=AXIS2_PLACEMENT_3D('',#987,#781,#782);
#663=AXIS2_PLACEMENT_3D('',#989,#783,#784);
#664=AXIS2_PLACEMENT_3D('',#991,#785,#786);
#665=AXIS2_PLACEMENT_3D('',#996,#788,#789);
#666=AXIS2_PLACEMENT_3D('',#1000,#791,#792);
#667=AXIS2_PLACEMENT_3D('',#1004,#794,#795);
#668=AXIS2_PLACEMENT_3D('',#1007,#797,#798);
#669=AXIS2_PLACEMENT_3D('',#1008,#799,#800);
#670=AXIS2_PLACEMENT_3D('',#1010,#801,#802);
#671=AXIS2_PLACEMENT_3D('',#1012,#803,#804);
#672=AXIS2_PLACEMENT_3D('',#1014,#805,#806);
#673=AXIS2_PLACEMENT_3D('',#1016,#807,#808);
#674=AXIS2_PLACEMENT_3D('',#1021,#810,#811);
#675=AXIS2_PLACEMENT_3D('',#1025,#813,#814);
#676=AXIS2_PLACEMENT_3D('',#1029,#816,#817);
#677=AXIS2_PLACEMENT_3D('',#1032,#819,#820);
#678=AXIS2_PLACEMENT_3D('',#1033,#821,#822);
#679=AXIS2_PLACEMENT_3D('',#1034,#823,#824);
#680=AXIS2_PLACEMENT_3D('',#1035,#825,#826);
#681=AXIS2_PLACEMENT_3D('',#1036,#827,#828);
#682=AXIS2_PLACEMENT_3D('',#1037,#829,#830);
#683=AXIS2_PLACEMENT_3D('',#1038,#831,#832);
#684=AXIS2_PLACEMENT_3D('',#1039,#833,#834);
#685=AXIS2_PLACEMENT_3D('',#1040,#835,#836);
#686=AXIS2_PLACEMENT_3D('',#1041,#837,#838);
#687=AXIS2_PLACEMENT_3D('',#1042,#839,#840);
#688=AXIS2_PLACEMENT_3D('',#1043,#841,#842);
#689=AXIS2_PLACEMENT_3D('',#1044,#843,#844);
#690=AXIS2_PLACEMENT_3D('',#1047,#847,#848);
#691=AXIS2_PLACEMENT_3D('',#1049,#850,#851);
#692=AXIS2_PLACEMENT_3D('',#1051,#853,#854);
#693=AXIS2_PLACEMENT_3D('',#1053,#856,#857);
#694=AXIS2_PLACEMENT_3D('',#1055,#859,#860);
#695=AXIS2_PLACEMENT_3D('',#1057,#862,#863);
#696=AXIS2_PLACEMENT_3D('',#1059,#865,#866);
#697=AXIS2_PLACEMENT_3D('',#1060,#867,#868);
#698=AXIS2_PLACEMENT_3D('',#1063,#871,#872);
#699=AXIS2_PLACEMENT_3D('',#1065,#874,#875);
#700=AXIS2_PLACEMENT_3D('',#1067,#877,#878);
#701=AXIS2_PLACEMENT_3D('',#1069,#880,#881);
#702=AXIS2_PLACEMENT_3D('',#1071,#883,#884);
#703=AXIS2_PLACEMENT_3D('',#1073,#886,#887);
#704=AXIS2_PLACEMENT_3D('',#1075,#889,#890);
#705=AXIS2_PLACEMENT_3D('',#1076,#891,#892);
#706=AXIS2_PLACEMENT_3D('',#1077,#893,#894);
#707=AXIS2_PLACEMENT_3D('',#1078,#895,#896);
#708=AXIS2_PLACEMENT_3D('',#1079,#897,#898);
#709=AXIS2_PLACEMENT_3D('',#1080,#899,#900);
#710=AXIS2_PLACEMENT_3D('',#1081,#901,#902);
#711=AXIS2_PLACEMENT_3D('',#1082,#903,#904);
#712=AXIS2_PLACEMENT_3D('',#1083,#905,#906);
#713=AXIS2_PLACEMENT_3D('',#1084,#907,#908);
#714=AXIS2_PLACEMENT_3D('',#1085,#909,#910);
#715=AXIS2_PLACEMENT_3D('',#1086,#911,#912);
#716=AXIS2_PLACEMENT_3D('',#1087,#913,#914);
#717=DIRECTION('',(0.,0.,1.));
#718=DIRECTION('',(1.,0.,0.));
#719=DIRECTION('',(-1.22464679914735E-16,1.,-2.04763715880556E-32));
#720=DIRECTION('',(1.,1.22464679914735E-16,3.34404525489505E-16));
#721=DIRECTION('',(1.22464679914735E-16,-1.,2.04763715880556E-32));
#722=DIRECTION('',(-1.,-1.22464679914735E-16,-3.34404525489505E-16));
#723=DIRECTION('',(3.1634248193E-17,0.707106781186548,-0.707106781186548));
#724=DIRECTION('',(-2.04825459440098E-16,0.707106781186548,0.707106781186548));
#725=DIRECTION('',(0.707106781186547,0.707106781186548,1.18229853816549E-16));
#726=DIRECTION('',(-0.707106781186548,0.707106781186547,-1.18229853816549E-16));
#727=DIRECTION('',(-2.04825459440098E-16,0.707106781186548,0.707106781186548));
#728=DIRECTION('',(3.1634248193E-17,0.707106781186548,-0.707106781186548));
#729=DIRECTION('',(-0.707106781186548,0.707106781186547,-1.18229853816549E-16));
#730=DIRECTION('',(0.707106781186547,0.707106781186548,1.18229853816549E-16));
#731=DIRECTION('',(-1.22464679914735E-16,1.,-2.04763715880556E-32));
#732=DIRECTION('',(1.,1.22464679914735E-16,3.34404525489505E-16));
#733=DIRECTION('',(-1.22464679914735E-16,1.,-2.04763715880556E-32));
#734=DIRECTION('',(1.,1.22464679914735E-16,3.34404525489505E-16));
#735=DIRECTION('',(3.1634248193E-17,0.707106781186548,-0.707106781186548));
#736=DIRECTION('',(-2.04825459440098E-16,0.707106781186548,0.707106781186548));
#737=DIRECTION('',(-0.707106781186548,0.707106781186547,-1.18229853816549E-16));
#738=DIRECTION('',(0.707106781186547,0.707106781186548,1.18229853816549E-16));
#739=DIRECTION('',(-2.04825459440098E-16,0.707106781186548,0.707106781186548));
#740=DIRECTION('',(3.1634248193E-17,0.707106781186548,-0.707106781186548));
#741=DIRECTION('',(0.707106781186547,0.707106781186548,1.18229853816549E-16));
#742=DIRECTION('',(-0.707106781186548,0.707106781186547,-1.18229853816549E-16));
#743=DIRECTION('',(-1.,-1.22464679914735E-16,-1.67202262744752E-16));
#744=DIRECTION('',(1.67202262744752E-16,0.,-1.));
#745=DIRECTION('',(1.,1.22464679914735E-16,1.67202262744752E-16));
#746=DIRECTION('',(-1.67202262744752E-16,0.,1.));
#747=DIRECTION('',(-1.22464679914735E-16,1.,-2.04763715880556E-32));
#748=DIRECTION('',(-1.67202262744752E-16,0.,1.));
#749=DIRECTION('',(-1.22464679914735E-16,1.,-2.04763715880556E-32));
#750=DIRECTION('',(1.67202262744752E-16,0.,-1.));
#751=DIRECTION('',(-1.67202262744752E-16,-5.47382212626882E-48,1.));
#752=DIRECTION('',(-1.,-1.22464679914735E-16,-1.67202262744752E-16));
#753=DIRECTION('',(-1.67202262744752E-16,-5.47382212626882E-48,1.));
#754=DIRECTION('',(-1.,-1.22464679914735E-16,-1.67202262744752E-16));
#755=DIRECTION('',(-1.22464679914735E-16,1.,-2.04763715880556E-32));
#756=DIRECTION('',(-1.,-1.22464679914735E-16,-1.67202262744752E-16));
#757=DIRECTION('',(-1.22464679914735E-16,1.,-2.04763715880556E-32));
#758=DIRECTION('',(1.,1.22464679914735E-16,1.67202262744752E-16));
#759=DIRECTION('',(-1.,-1.22464679914735E-16,-1.67202262744752E-16));
#760=DIRECTION('',(1.67202262744752E-16,5.47382212626882E-48,-1.));
#761=DIRECTION('',(-1.,-1.22464679914735E-16,-1.67202262744752E-16));
#762=DIRECTION('',(1.67202262744752E-16,5.47382212626882E-48,-1.));
#763=DIRECTION('',(-1.22464679914735E-16,1.,-2.04763715880556E-32));
#764=DIRECTION('',(1.67202262744752E-16,5.47382212626882E-48,-1.));
#765=DIRECTION('',(-1.22464679914735E-16,1.,-2.04763715880556E-32));
#766=DIRECTION('',(-1.67202262744752E-16,-5.47382212626882E-48,1.));
#767=DIRECTION('',(-1.67202262744752E-16,0.,1.));
#768=DIRECTION('',(-1.,-1.22464679914735E-16,-1.67202262744752E-16));
#769=DIRECTION('',(1.67202262744752E-16,0.,-1.));
#770=DIRECTION('',(1.,1.22464679914735E-16,1.67202262744752E-16));
#771=DIRECTION('',(-1.22464679914735E-16,1.,-2.04763715880556E-32));
#772=DIRECTION('',(1.,1.22464679914735E-16,1.67202262744752E-16));
#773=DIRECTION('',(-1.22464679914735E-16,1.,-2.04763715880556E-32));
#774=DIRECTION('',(-1.,-1.22464679914735E-16,-1.67202262744752E-16));
#775=DIRECTION('',(1.22464679914735E-16,-1.,2.04763715880556E-32));
#776=DIRECTION('',(-1.,-1.22464679914735E-16,-3.34404525489505E-16));
#777=DIRECTION('',(-1.22464679914735E-16,1.,-2.04763715880556E-32));
#778=DIRECTION('',(1.,1.22464679914735E-16,3.34404525489505E-16));
#779=DIRECTION('',(-1.22464679914735E-16,1.,-2.04763715880556E-32));
#780=DIRECTION('',(1.,1.22464679914735E-16,3.34404525489505E-16));
#781=DIRECTION('',(-1.22464679914735E-16,1.,-2.04763715880556E-32));
#782=DIRECTION('',(1.,1.22464679914735E-16,3.34404525489505E-16));
#783=DIRECTION('',(-1.22464679914735E-16,1.,-2.04763715880556E-32));
#784=DIRECTION('',(1.,1.22464679914735E-16,3.34404525489505E-16));
#785=DIRECTION('',(1.22464679914735E-16,-1.,2.04763715880556E-32));
#786=DIRECTION('',(-1.,-1.22464679914735E-16,-3.34404525489505E-16));
#787=DIRECTION('',(-1.67202262744752E-16,-5.47382212626882E-48,1.));
#788=DIRECTION('',(1.22464679914735E-16,-1.,2.04763715880556E-32));
#789=DIRECTION('',(-1.,-1.22464679914735E-16,-3.34404525489505E-16));
#790=DIRECTION('',(-1.,-1.22464679914735E-16,-1.67202262744752E-16));
#791=DIRECTION('',(1.22464679914735E-16,-1.,2.04763715880556E-32));
#792=DIRECTION('',(-1.,-1.22464679914735E-16,-3.34404525489505E-16));
#793=DIRECTION('',(1.67202262744752E-16,0.,-1.));
#794=DIRECTION('',(1.22464679914735E-16,-1.,2.04763715880556E-32));
#795=DIRECTION('',(-1.,-1.22464679914735E-16,-3.34404525489505E-16));
#796=DIRECTION('',(1.,1.22464679914735E-16,1.67202262744752E-16));
#797=DIRECTION('',(1.22464679914735E-16,-1.,2.04763715880556E-32));
#798=DIRECTION('',(-1.,-1.22464679914735E-16,-3.34404525489505E-16));
#799=DIRECTION('',(1.22464679914735E-16,-1.,2.04763715880556E-32));
#800=DIRECTION('',(-1.,-1.22464679914735E-16,-3.34404525489505E-16));
#801=DIRECTION('',(1.22464679914735E-16,-1.,2.04763715880556E-32));
#802=DIRECTION('',(-1.,-1.22464679914735E-16,-3.34404525489505E-16));
#803=DIRECTION('',(1.22464679914735E-16,-1.,2.04763715880556E-32));
#804=DIRECTION('',(-1.,-1.22464679914735E-16,-3.34404525489505E-16));
#805=DIRECTION('',(1.22464679914735E-16,-1.,2.04763715880556E-32));
#806=DIRECTION('',(-1.,-1.22464679914735E-16,-3.34404525489505E-16));
#807=DIRECTION('',(1.22464679914735E-16,-1.,2.04763715880556E-32));
#808=DIRECTION('',(-1.,-1.22464679914735E-16,-3.34404525489505E-16));
#809=DIRECTION('',(1.67202262744752E-16,5.47382212626882E-48,-1.));
#810=DIRECTION('',(1.22464679914735E-16,-1.,2.04763715880556E-32));
#811=DIRECTION('',(-1.,-1.22464679914735E-16,-3.34404525489505E-16));
#812=DIRECTION('',(-1.,-1.22464679914735E-16,-1.67202262744752E-16));
#813=DIRECTION('',(1.22464679914735E-16,-1.,2.04763715880556E-32));
#814=DIRECTION('',(-1.,-1.22464679914735E-16,-3.34404525489505E-16));
#815=DIRECTION('',(-1.67202262744752E-16,0.,1.));
#816=DIRECTION('',(1.22464679914735E-16,-1.,2.04763715880556E-32));
#817=DIRECTION('',(-1.,-1.22464679914735E-16,-3.34404525489505E-16));
#818=DIRECTION('',(1.,1.22464679914735E-16,1.67202262744752E-16));
#819=DIRECTION('',(-1.22464679914735E-16,1.,-2.04763715880556E-32));
#820=DIRECTION('',(1.,1.22464679914735E-16,3.34404525489505E-16));
#821=DIRECTION('',(1.22464679914735E-16,-1.,2.04763715880556E-32));
#822=DIRECTION('',(-1.,-1.22464679914735E-16,-3.34404525489505E-16));
#823=DIRECTION('',(1.22464679914735E-16,-1.,2.04763715880556E-32));
#824=DIRECTION('',(-1.,-1.22464679914735E-16,-3.34404525489505E-16));
#825=DIRECTION('',(1.22464679914735E-16,-1.,2.04763715880556E-32));
#826=DIRECTION('',(-1.,-1.22464679914735E-16,-3.34404525489505E-16));
#827=DIRECTION('',(1.22464679914735E-16,-1.,2.04763715880556E-32));
#828=DIRECTION('',(-1.,-1.22464679914735E-16,-3.34404525489505E-16));
#829=DIRECTION('',(1.22464679914735E-16,-1.,2.04763715880556E-32));
#830=DIRECTION('',(-1.,-1.22464679914735E-16,-3.34404525489505E-16));
#831=DIRECTION('',(-1.22464679914735E-16,1.,-2.04763715880556E-32));
#832=DIRECTION('',(1.,1.22464679914735E-16,3.34404525489505E-16));
#833=DIRECTION('',(1.22464679914735E-16,-1.,2.04763715880556E-32));
#834=DIRECTION('',(-1.,-1.22464679914735E-16,-3.34404525489505E-16));
#835=DIRECTION('',(1.22464679914735E-16,-1.,2.04763715880556E-32));
#836=DIRECTION('',(-1.,-1.22464679914735E-16,-3.34404525489505E-16));
#837=DIRECTION('',(1.22464679914735E-16,-1.,2.04763715880556E-32));
#838=DIRECTION('',(-1.,-1.22464679914735E-16,-3.34404525489505E-16));
#839=DIRECTION('',(1.22464679914735E-16,-1.,2.04763715880556E-32));
#840=DIRECTION('',(-1.,-1.22464679914735E-16,-3.34404525489505E-16));
#841=DIRECTION('',(1.22464679914735E-16,-1.,2.04763715880556E-32));
#842=DIRECTION('',(-1.,-1.22464679914735E-16,-3.34404525489505E-16));
#843=DIRECTION('',(0.707106781186547,0.707106781186548,1.18229853816549E-16));
#844=DIRECTION('',(-1.67202262744752E-16,0.,1.));
#845=DIRECTION('',(0.707106781186546,-0.707106781186549,2.36459707633098E-16));
#846=DIRECTION('',(-0.707106781186548,0.707106781186547,-2.36459707633098E-16));
#847=DIRECTION('',(-1.22464679914735E-16,1.,-2.04763715880556E-32));
#848=DIRECTION('',(1.,1.22464679914735E-16,3.34404525489505E-16));
#849=DIRECTION('',(1.49864102009549E-16,0.707106781186549,-0.707106781186546));
#850=DIRECTION('',(-1.22464679914735E-16,1.,-2.04763715880556E-32));
#851=DIRECTION('',(1.,1.22464679914735E-16,3.34404525489505E-16));
#852=DIRECTION('',(3.23055313256648E-16,-0.707106781186548,-0.707106781186548));
#853=DIRECTION('',(2.04825459440098E-16,-0.707106781186548,-0.707106781186548));
#854=DIRECTION('',(-1.,-1.22464679914735E-16,-1.67202262744752E-16));
#855=DIRECTION('',(1.49864102009549E-16,0.707106781186548,-0.707106781186548));
#856=DIRECTION('',(3.1634248193E-17,0.707106781186548,-0.707106781186548));
#857=DIRECTION('',(1.,1.22464679914735E-16,1.67202262744752E-16));
#858=DIRECTION('',(3.23055313256648E-16,-0.707106781186549,-0.707106781186546));
#859=DIRECTION('',(-1.22464679914735E-16,1.,-2.04763715880556E-32));
#860=DIRECTION('',(1.,1.22464679914735E-16,3.34404525489505E-16));
#861=DIRECTION('',(0.707106781186546,0.707106781186549,2.36459707633098E-16));
#862=DIRECTION('',(-1.22464679914735E-16,1.,-2.04763715880556E-32));
#863=DIRECTION('',(1.,1.22464679914735E-16,3.34404525489505E-16));
#864=DIRECTION('',(-0.707106781186547,-0.707106781186548,-2.36459707633098E-16));
#865=DIRECTION('',(0.707106781186548,-0.707106781186547,1.18229853816549E-16));
#866=DIRECTION('',(1.67202262744752E-16,5.47382212626882E-48,-1.));
#867=DIRECTION('',(-0.707106781186548,0.707106781186547,-1.18229853816549E-16));
#868=DIRECTION('',(1.67202262744752E-16,0.,-1.));
#869=DIRECTION('',(-0.707106781186547,-0.707106781186548,-2.36459707633098E-16));
#870=DIRECTION('',(0.707106781186549,0.707106781186547,2.36459707633099E-16));
#871=DIRECTION('',(1.22464679914735E-16,-1.,2.04763715880556E-32));
#872=DIRECTION('',(-1.,-1.22464679914735E-16,-3.34404525489505E-16));
#873=DIRECTION('',(-3.23055313256648E-16,0.707106781186549,0.707106781186546));
#874=DIRECTION('',(1.22464679914735E-16,-1.,2.04763715880556E-32));
#875=DIRECTION('',(-1.,-1.22464679914735E-16,-3.34404525489505E-16));
#876=DIRECTION('',(-1.49864102009549E-16,-0.707106781186548,0.707106781186548));
#877=DIRECTION('',(-3.1634248193E-17,-0.707106781186548,0.707106781186548));
#878=DIRECTION('',(1.,1.22464679914735E-16,1.67202262744752E-16));
#879=DIRECTION('',(-3.23055313256648E-16,0.707106781186546,0.707106781186549));
#880=DIRECTION('',(-2.04825459440098E-16,0.707106781186548,0.707106781186548));
#881=DIRECTION('',(-1.,-1.22464679914735E-16,-1.67202262744752E-16));
#882=DIRECTION('',(-1.49864102009549E-16,-0.707106781186548,0.707106781186548));
#883=DIRECTION('',(1.22464679914735E-16,-1.,2.04763715880556E-32));
#884=DIRECTION('',(-1.,-1.22464679914735E-16,-3.34404525489505E-16));
#885=DIRECTION('',(-0.707106781186546,0.707106781186549,-2.36459707633098E-16));
#886=DIRECTION('',(1.22464679914735E-16,-1.,2.04763715880556E-32));
#887=DIRECTION('',(-1.,-1.22464679914735E-16,-3.34404525489505E-16));
#888=DIRECTION('',(0.707106781186548,-0.707106781186547,2.36459707633098E-16));
#889=DIRECTION('',(-0.707106781186547,-0.707106781186548,-1.18229853816549E-16));
#890=DIRECTION('',(-1.67202262744752E-16,-5.47382212626882E-48,1.));
#891=DIRECTION('',(-1.22464679914735E-16,1.,-2.04763715880556E-32));
#892=DIRECTION('',(1.,1.22464679914735E-16,3.34404525489505E-16));
#893=DIRECTION('',(-1.22464679914735E-16,1.,-2.04763715880556E-32));
#894=DIRECTION('',(1.,1.22464679914735E-16,3.34404525489505E-16));
#895=DIRECTION('',(-1.22464679914735E-16,1.,-2.04763715880556E-32));
#896=DIRECTION('',(1.,1.22464679914735E-16,3.34404525489505E-16));
#897=DIRECTION('',(-1.22464679914735E-16,1.,-2.04763715880556E-32));
#898=DIRECTION('',(1.,1.22464679914735E-16,3.34404525489505E-16));
#899=DIRECTION('',(1.67202262744752E-16,0.,-1.));
#900=DIRECTION('',(1.,1.22464679914735E-16,1.67202262744752E-16));
#901=DIRECTION('',(0.707106781186547,8.65956056235493E-17,0.707106781186548));
#902=DIRECTION('',(0.707106781186548,8.65956056235493E-17,-0.707106781186547));
#903=DIRECTION('',(0.707106781186548,8.65956056235493E-17,-0.707106781186547));
#904=DIRECTION('',(0.707106781186547,8.65956056235493E-17,0.707106781186548));
#905=DIRECTION('',(1.,1.22464679914735E-16,1.67202262744752E-16));
#906=DIRECTION('',(-1.67202262744752E-16,0.,1.));
#907=DIRECTION('',(0.707106781186548,8.65956056235493E-17,-0.707106781186547));
#908=DIRECTION('',(0.707106781186547,8.65956056235493E-17,0.707106781186548));
#909=DIRECTION('',(1.,1.22464679914735E-16,1.67202262744752E-16));
#910=DIRECTION('',(-1.67202262744752E-16,0.,1.));
#911=DIRECTION('',(0.707106781186547,8.65956056235493E-17,0.707106781186548));
#912=DIRECTION('',(0.707106781186548,8.65956056235493E-17,-0.707106781186547));
#913=DIRECTION('',(1.67202262744752E-16,0.,-1.));
#914=DIRECTION('',(1.,1.22464679914735E-16,1.67202262744752E-16));
#915=CARTESIAN_POINT('',(0.,0.,0.));
#916=CARTESIAN_POINT('',(1.49748598873412E-16,-0.983033182146077,1.94525530086528E-32));
#917=CARTESIAN_POINT('',(-8.29342929645851E-17,0.916966817853923,-1.94525530086528E-32));
#918=CARTESIAN_POINT('',(-0.21,0.916966817853923,-7.02249503527961E-17));
#919=CARTESIAN_POINT('',(7.35467794515726E-17,-0.333033182146077,7.27996127569179E-33));
#920=CARTESIAN_POINT('',(0.148492424049175,-0.184540758096901,0.148492424049175));
#921=CARTESIAN_POINT('',(-0.148492424049175,-0.184540758096901,0.148492424049175));
#922=CARTESIAN_POINT('',(7.0146556928834E-17,-0.333033182146077,3.40022252273855E-18));
#923=CARTESIAN_POINT('',(-0.148492424049175,-0.184540758096901,-0.148492424049175));
#924=CARTESIAN_POINT('',(7.35467794515726E-17,-0.333033182146077,7.27996127569179E-33));
#925=CARTESIAN_POINT('',(0.148492424049175,-0.184540758096901,-0.148492424049175));
#926=CARTESIAN_POINT('',(7.0146556928834E-17,-0.333033182146077,3.40022252273855E-18));
#927=CARTESIAN_POINT('',(1.49748598873412E-16,-0.983033182146077,1.94525530086528E-32));
#928=CARTESIAN_POINT('',(1.49748598873412E-16,-0.983033182146077,1.94525530086528E-32));
#929=CARTESIAN_POINT('',(0.21,-0.983033182146077,7.02249503527961E-17));
#930=CARTESIAN_POINT('',(7.35467794515726E-17,-0.333033182146077,7.27996127569179E-33));
#931=CARTESIAN_POINT('',(0.148492424049175,-0.481525606195252,-0.148492424049175));
#932=CARTESIAN_POINT('',(-0.148492424049175,-0.481525606195252,-0.148492424049175));
#933=CARTESIAN_POINT('',(7.0146556928834E-17,-0.333033182146077,3.40022252273855E-18));
#934=CARTESIAN_POINT('',(-0.148492424049175,-0.481525606195252,0.148492424049175));
#935=CARTESIAN_POINT('',(7.35467794515726E-17,-0.333033182146077,7.27996127569179E-33));
#936=CARTESIAN_POINT('',(0.148492424049175,-0.481525606195252,0.148492424049175));
#937=CARTESIAN_POINT('',(7.0146556928834E-17,-0.333033182146077,3.40022252273855E-18));
#938=CARTESIAN_POINT('',(-1.0375,-0.983033182146077,-3.46944695195362E-16));
#939=CARTESIAN_POINT('',(-1.0375,-0.333033182146077,-1.66671902552204E-16));
#940=CARTESIAN_POINT('',(-1.0375,-0.333033182146077,0.21));
#941=CARTESIAN_POINT('',(-1.0375,-0.983033182146077,-0.7375));
#942=CARTESIAN_POINT('',(-1.0375,0.866966817853923,-0.7375));
#943=CARTESIAN_POINT('',(-1.0375,-0.933033182146077,-0.7375));
#944=CARTESIAN_POINT('',(-1.0375,-0.933033182146077,-3.46944695195362E-16));
#945=CARTESIAN_POINT('',(-1.0375,-0.933033182146077,0.7375));
#946=CARTESIAN_POINT('',(-1.0375,-0.983033182146077,0.7375));
#947=CARTESIAN_POINT('',(-1.0375,0.866966817853923,0.7375));
#948=CARTESIAN_POINT('',(-1.0375,0.866966817853923,-0.7375));
#949=CARTESIAN_POINT('',(1.49748598873412E-16,-0.983033182146077,-1.0375));
#950=CARTESIAN_POINT('',(2.50419349571992E-16,-0.333033182146077,-1.0375));
#951=CARTESIAN_POINT('',(-0.21,-0.333033182146077,-1.0375));
#952=CARTESIAN_POINT('',(0.7375,-0.983033182146076,-1.0375));
#953=CARTESIAN_POINT('',(0.7375,0.866966817853924,-1.0375));
#954=CARTESIAN_POINT('',(0.7375,-0.933033182146076,-1.0375));
#955=CARTESIAN_POINT('',(-0.7375,-0.933033182146077,-1.0375));
#956=CARTESIAN_POINT('',(-0.7375,-0.933033182146077,-1.0375));
#957=CARTESIAN_POINT('',(-0.7375,0.916966817853923,-1.0375));
#958=CARTESIAN_POINT('',(-0.7375,0.866966817853923,-1.0375));
#959=CARTESIAN_POINT('',(-7.68110589688482E-17,0.866966817853923,-1.0375));
#960=CARTESIAN_POINT('',(1.0375,-0.983033182146076,1.73472347597681E-16));
#961=CARTESIAN_POINT('',(1.0375,-0.333033182146077,1.80272792643158E-16));
#962=CARTESIAN_POINT('',(1.0375,-0.333033182146077,-0.21));
#963=CARTESIAN_POINT('',(1.0375,-0.983033182146076,0.7375));
#964=CARTESIAN_POINT('',(1.0375,0.866966817853924,0.7375));
#965=CARTESIAN_POINT('',(1.0375,-0.933033182146076,0.7375));
#966=CARTESIAN_POINT('',(1.0375,-0.933033182146076,-0.7375));
#967=CARTESIAN_POINT('',(1.0375,-0.933033182146076,-0.7375));
#968=CARTESIAN_POINT('',(1.0375,-0.983033182146076,-0.7375));
#969=CARTESIAN_POINT('',(1.0375,0.866966817853924,-0.7375));
#970=CARTESIAN_POINT('',(1.0375,0.866966817853924,1.73472347597681E-16));
#971=CARTESIAN_POINT('',(-1.9719609632195E-16,-0.983033182146077,1.0375));
#972=CARTESIAN_POINT('',(-9.65253456233696E-17,-0.333033182146077,1.0375));
#973=CARTESIAN_POINT('',(0.21,-0.333033182146076,1.0375));
#974=CARTESIAN_POINT('',(-0.7375,-0.983033182146077,1.0375));
#975=CARTESIAN_POINT('',(-0.7375,0.866966817853923,1.0375));
#976=CARTESIAN_POINT('',(-0.7375,-0.933033182146077,1.0375));
#977=CARTESIAN_POINT('',(-2.03319330317687E-16,-0.933033182146076,1.0375));
#978=CARTESIAN_POINT('',(0.7375,-0.933033182146076,1.0375));
#979=CARTESIAN_POINT('',(0.7375,0.916966817853924,1.0375));
#980=CARTESIAN_POINT('',(0.7375,0.866966817853924,1.0375));
#981=CARTESIAN_POINT('',(-0.7375,0.866966817853923,1.0375));
#982=CARTESIAN_POINT('',(1.49748598873412E-16,-0.983033182146077,1.94525530086528E-32));
#983=CARTESIAN_POINT('',(-0.625,-0.983033182146077,0.625));
#984=CARTESIAN_POINT('',(-0.415,-0.983033182146077,0.625));
#985=CARTESIAN_POINT('',(0.625,-0.983033182146077,0.625));
#986=CARTESIAN_POINT('',(0.835,-0.983033182146077,0.625));
#987=CARTESIAN_POINT('',(-0.625,-0.983033182146077,-0.625));
#988=CARTESIAN_POINT('',(-0.415,-0.983033182146077,-0.625));
#989=CARTESIAN_POINT('',(0.625,-0.983033182146077,-0.625));
#990=CARTESIAN_POINT('',(0.835,-0.983033182146077,-0.625));
#991=CARTESIAN_POINT('',(0.7375,-0.983033182146076,-0.7375));
#992=CARTESIAN_POINT('',(0.7375,-0.983033182146076,-0.9875));
#993=CARTESIAN_POINT('',(0.9875,-0.983033182146076,-0.7375));
#994=CARTESIAN_POINT('',(0.9875,-0.983033182146076,0.7375));
#995=CARTESIAN_POINT('',(0.9875,-0.983033182146076,0.7375));
#996=CARTESIAN_POINT('',(0.7375,-0.983033182146076,0.7375));
#997=CARTESIAN_POINT('',(0.7375,-0.983033182146076,0.9875));
#998=CARTESIAN_POINT('',(-1.53636355870312E-17,-0.983033182146077,0.9875));
#999=CARTESIAN_POINT('',(-0.7375,-0.983033182146077,0.9875));
#1000=CARTESIAN_POINT('',(-0.7375,-0.983033182146077,0.7375));
#1001=CARTESIAN_POINT('',(-0.9875,-0.983033182146077,0.7375));
#1002=CARTESIAN_POINT('',(-0.9875,-0.983033182146077,-1.65112234460443E-16));
#1003=CARTESIAN_POINT('',(-0.9875,-0.983033182146077,-0.7375));
#1004=CARTESIAN_POINT('',(-0.7375,-0.983033182146077,-0.7375));
#1005=CARTESIAN_POINT('',(-0.7375,-0.983033182146077,-0.9875));
#1006=CARTESIAN_POINT('',(0.7375,-0.983033182146076,-0.9875));
#1007=CARTESIAN_POINT('',(-8.29342929645851E-17,0.916966817853923,-1.94525530086528E-32));
#1008=CARTESIAN_POINT('',(-0.625,0.916966817853923,0.625));
#1009=CARTESIAN_POINT('',(-0.835,0.916966817853923,0.625));
#1010=CARTESIAN_POINT('',(0.625,0.916966817853923,0.625));
#1011=CARTESIAN_POINT('',(0.415,0.916966817853923,0.625));
#1012=CARTESIAN_POINT('',(-0.625,0.916966817853923,-0.625));
#1013=CARTESIAN_POINT('',(-0.835,0.916966817853923,-0.625));
#1014=CARTESIAN_POINT('',(0.625,0.916966817853923,-0.625));
#1015=CARTESIAN_POINT('',(0.415,0.916966817853923,-0.625));
#1016=CARTESIAN_POINT('',(0.7375,0.916966817853924,0.7375));
#1017=CARTESIAN_POINT('',(0.7375,0.916966817853924,0.9875));
#1018=CARTESIAN_POINT('',(0.9875,0.916966817853924,0.7375));
#1019=CARTESIAN_POINT('',(0.9875,0.916966817853924,1.65112234460443E-16));
#1020=CARTESIAN_POINT('',(0.9875,0.916966817853924,-0.7375));
#1021=CARTESIAN_POINT('',(0.7375,0.916966817853924,-0.7375));
#1022=CARTESIAN_POINT('',(0.7375,0.916966817853924,-0.9875));
#1023=CARTESIAN_POINT('',(8.21779414958581E-17,0.916966817853923,-0.9875));
#1024=CARTESIAN_POINT('',(-0.7375,0.916966817853923,-0.9875));
#1025=CARTESIAN_POINT('',(-0.7375,0.916966817853923,-0.7375));
#1026=CARTESIAN_POINT('',(-0.9875,0.916966817853923,-0.7375));
#1027=CARTESIAN_POINT('',(-0.9875,0.916966817853923,0.7375));
#1028=CARTESIAN_POINT('',(-0.9875,0.916966817853923,0.7375));
#1029=CARTESIAN_POINT('',(-0.7375,0.916966817853923,0.7375));
#1030=CARTESIAN_POINT('',(-0.7375,0.916966817853923,0.9875));
#1031=CARTESIAN_POINT('',(0.7375,0.916966817853924,0.9875));
#1032=CARTESIAN_POINT('',(0.7375,-0.983033182146076,-0.7375));
#1033=CARTESIAN_POINT('',(0.7375,-0.933033182146076,-0.7375));
#1034=CARTESIAN_POINT('',(0.7375,0.866966817853924,-0.7375));
#1035=CARTESIAN_POINT('',(-0.7375,-0.983033182146077,-0.7375));
#1036=CARTESIAN_POINT('',(-0.7375,-0.933033182146077,-0.7375));
#1037=CARTESIAN_POINT('',(-0.7375,0.866966817853923,-0.7375));
#1038=CARTESIAN_POINT('',(-0.7375,-0.983033182146077,0.7375));
#1039=CARTESIAN_POINT('',(-0.7375,-0.933033182146077,0.7375));
#1040=CARTESIAN_POINT('',(-0.7375,0.866966817853923,0.7375));
#1041=CARTESIAN_POINT('',(0.7375,-0.983033182146076,0.7375));
#1042=CARTESIAN_POINT('',(0.7375,-0.933033182146076,0.7375));
#1043=CARTESIAN_POINT('',(0.7375,0.866966817853924,0.7375));
#1044=CARTESIAN_POINT('',(-1.0375,-0.933033182146077,-3.46944695195362E-16));
#1045=CARTESIAN_POINT('',(-1.0375,-0.933033182146077,0.7375));
#1046=CARTESIAN_POINT('',(-0.9875,-0.983033182146077,-0.7375));
#1047=CARTESIAN_POINT('',(-0.7375,-0.983033182146077,-0.7375));
#1048=CARTESIAN_POINT('',(-0.7375,-0.983033182146077,-0.9875));
#1049=CARTESIAN_POINT('',(-0.7375,-0.983033182146077,0.7375));
#1050=CARTESIAN_POINT('',(-0.7375,-0.933033182146077,1.0375));
#1051=CARTESIAN_POINT('',(3.14860833333855E-16,-0.983033182146077,-0.9875));
#1052=CARTESIAN_POINT('',(0.7375,-0.983033182146076,-0.9875));
#1053=CARTESIAN_POINT('',(-2.03319330317687E-16,-0.933033182146076,1.0375));
#1054=CARTESIAN_POINT('',(0.7375,-0.933033182146076,1.0375));
#1055=CARTESIAN_POINT('',(0.7375,-0.983033182146076,-0.7375));
#1056=CARTESIAN_POINT('',(0.9875,-0.983033182146076,-0.7375));
#1057=CARTESIAN_POINT('',(0.7375,-0.983033182146076,0.7375));
#1058=CARTESIAN_POINT('',(1.0375,-0.933033182146076,0.7375));
#1059=CARTESIAN_POINT('',(0.9875,-0.983033182146076,1.65112234460443E-16));
#1060=CARTESIAN_POINT('',(-0.9875,0.916966817853923,-1.65112234460443E-16));
#1061=CARTESIAN_POINT('',(-0.9875,0.916966817853923,0.7375));
#1062=CARTESIAN_POINT('',(-1.0375,0.866966817853923,-0.7375));
#1063=CARTESIAN_POINT('',(-0.7375,0.916966817853923,-0.7375));
#1064=CARTESIAN_POINT('',(-0.7375,0.866966817853923,-1.0375));
#1065=CARTESIAN_POINT('',(-0.7375,0.916966817853923,0.7375));
#1066=CARTESIAN_POINT('',(-0.7375,0.916966817853923,0.9875));
#1067=CARTESIAN_POINT('',(-7.68110589688482E-17,0.866966817853923,-1.0375));
#1068=CARTESIAN_POINT('',(0.7375,0.866966817853924,-1.0375));
#1069=CARTESIAN_POINT('',(-2.48046527425028E-16,0.916966817853923,0.9875));
#1070=CARTESIAN_POINT('',(0.7375,0.916966817853924,0.9875));
#1071=CARTESIAN_POINT('',(0.7375,0.916966817853924,-0.7375));
#1072=CARTESIAN_POINT('',(1.0375,0.866966817853924,-0.7375));
#1073=CARTESIAN_POINT('',(0.7375,0.916966817853924,0.7375));
#1074=CARTESIAN_POINT('',(0.9875,0.916966817853924,0.7375));
#1075=CARTESIAN_POINT('',(1.0375,0.866966817853924,1.73472347597681E-16));
#1076=CARTESIAN_POINT('',(0.625,-0.983033182146077,-0.625));
#1077=CARTESIAN_POINT('',(-0.625,-0.983033182146077,-0.625));
#1078=CARTESIAN_POINT('',(0.625,-0.983033182146077,0.625));
#1079=CARTESIAN_POINT('',(-0.625,-0.983033182146077,0.625));
#1080=CARTESIAN_POINT('',(-9.65253456233696E-17,-0.333033182146077,1.0375));
#1081=CARTESIAN_POINT('',(7.35467794515726E-17,-0.333033182146077,3.40022252273855E-18));
#1082=CARTESIAN_POINT('',(7.35467794515726E-17,-0.333033182146077,3.40022252273855E-18));
#1083=CARTESIAN_POINT('',(-1.0375,-0.333033182146077,-1.66671902552204E-16));
#1084=CARTESIAN_POINT('',(7.35467794515726E-17,-0.333033182146077,3.40022252273855E-18));
#1085=CARTESIAN_POINT('',(-1.0375,-0.333033182146077,-1.66671902552204E-16));
#1086=CARTESIAN_POINT('',(7.35467794515726E-17,-0.333033182146077,3.40022252273855E-18));
#1087=CARTESIAN_POINT('',(-9.65253456233696E-17,-0.333033182146077,1.0375));
#1088=MECHANICAL_DESIGN_GEOMETRIC_PRESENTATION_REPRESENTATION('',(#627),
#1089);
#1089=(
GEOMETRIC_REPRESENTATION_CONTEXT(3)
GLOBAL_UNCERTAINTY_ASSIGNED_CONTEXT((#1090))
GLOBAL_UNIT_ASSIGNED_CONTEXT((#1093,#1092,#1091))
REPRESENTATION_CONTEXT('???-2525-2.0','TOP_LEVEL_ASSEMBLY_PART')
);
#1090=UNCERTAINTY_MEASURE_WITH_UNIT(LENGTH_MEASURE(1.E-6),#1093,
'DISTANCE_ACCURACY_VALUE','Maximum Tolerance applied to model');
#1091=(
NAMED_UNIT(*)
SI_UNIT($,.STERADIAN.)
SOLID_ANGLE_UNIT()
);
#1092=(
NAMED_UNIT(*)
PLANE_ANGLE_UNIT()
SI_UNIT($,.RADIAN.)
);
#1093=(
LENGTH_UNIT()
NAMED_UNIT(*)
SI_UNIT(.CENTI.,.METRE.)
);
#1094=PRODUCT_DEFINITION_SHAPE('','',#1095);
#1095=PRODUCT_DEFINITION('','',#1097,#1096);
#1096=PRODUCT_DEFINITION_CONTEXT('',#1103,'design');
#1097=PRODUCT_DEFINITION_FORMATION_WITH_SPECIFIED_SOURCE('','',#1099,
 .NOT_KNOWN.);
#1098=PRODUCT_RELATED_PRODUCT_CATEGORY('','',(#1099));
#1099=PRODUCT('???-2525-2.0','???-2525-2.0','???-2525-2.0',(#1101));
#1100=PRODUCT_CATEGORY('','');
#1101=PRODUCT_CONTEXT('',#1103,'mechanical');
#1102=APPLICATION_PROTOCOL_DEFINITION('international standard',
'ap242_managed_model_based_3d_engineering',2020,#1103);
#1103=APPLICATION_CONTEXT('managed model based 3d engineering');
ENDSEC;
END-ISO-10303-21;
