ISO-10303-21;
HEADER;
/* Generated by software containing ST-Developer
 * from STEP Tools, Inc. (www.steptools.com) 
 */
/* OPTION: using custom renumber hook */

FILE_DESCRIPTION(
/* description */ ('STEP AP242 Edition 2',
'CAx-IF Rec.Pracs.---Representation and Presentation of Product Manufa
cturing Information (PMI)---4.0---2014-10-13',
'CAx-IF Rec.Pracs.---3D Tessellated Geometry---0.4---2014-09-14','2;1',
'CAx-IF Rec.Pracs.---User Defined Attributes---1.5---2016-08-15'),
/* implementation_level */ '2;1');

FILE_NAME(
/* name */ '695c85ce41a18fc9f75ae4c5',
/* time_stamp */ '2026-01-06T03:47:27Z',
/* author */ (''),
/* organization */ (''),
/* preprocessor_version */ 'ST-DEVELOPER v20',
/* originating_system */ 'ONSHAPE BY PTC INC, 1.208',
/* authorisation */ '  ');

FILE_SCHEMA (('AP242_MANAGED_MODEL_BASED_3D_ENGINEERING_MIM_LF { 1 0 10303 442 3 1 4 }'));
ENDSEC;

DATA;
#10=SHAPE_REPRESENTATION_RELATIONSHIP('','',#819,#11);
#11=ADVANCED_BREP_SHAPE_REPRESENTATION('',(#817),#1363);
#12=CYLINDRICAL_SURFACE('',#889,0.21);
#13=CYLINDRICAL_SURFACE('',#890,0.21);
#14=CYLINDRICAL_SURFACE('',#891,0.21);
#15=CYLINDRICAL_SURFACE('',#892,0.21);
#16=CYLINDRICAL_SURFACE('',#893,0.21);
#17=CYLINDRICAL_SURFACE('',#894,0.21);
#18=CYLINDRICAL_SURFACE('',#895,0.21);
#19=CYLINDRICAL_SURFACE('',#896,0.21);
#20=CYLINDRICAL_SURFACE('',#897,0.21);
#21=CYLINDRICAL_SURFACE('',#898,0.21);
#22=CYLINDRICAL_SURFACE('',#899,0.21);
#23=CYLINDRICAL_SURFACE('',#900,0.21);
#24=CYLINDRICAL_SURFACE('',#901,0.21);
#25=CYLINDRICAL_SURFACE('',#902,0.21);
#26=CYLINDRICAL_SURFACE('',#903,0.21);
#27=CYLINDRICAL_SURFACE('',#904,0.21);
#28=CYLINDRICAL_SURFACE('',#905,0.21);
#29=CYLINDRICAL_SURFACE('',#906,0.21);
#30=CYLINDRICAL_SURFACE('',#907,0.21);
#31=CYLINDRICAL_SURFACE('',#908,0.21);
#32=CYLINDRICAL_SURFACE('',#909,0.21);
#33=CYLINDRICAL_SURFACE('',#910,0.21);
#34=CYLINDRICAL_SURFACE('',#911,0.21);
#35=CYLINDRICAL_SURFACE('',#912,0.21);
#36=CYLINDRICAL_SURFACE('',#913,0.21);
#37=CYLINDRICAL_SURFACE('',#914,0.21);
#38=CYLINDRICAL_SURFACE('',#915,0.21);
#39=CYLINDRICAL_SURFACE('',#916,0.21);
#40=CYLINDRICAL_SURFACE('',#917,0.21);
#41=CYLINDRICAL_SURFACE('',#918,0.21);
#42=CYLINDRICAL_SURFACE('',#919,0.21);
#43=CIRCLE('',#823,0.21);
#44=CIRCLE('',#824,0.21);
#45=CIRCLE('',#825,0.21);
#46=CIRCLE('',#826,0.21);
#47=CIRCLE('',#827,0.21);
#48=CIRCLE('',#828,0.21);
#49=CIRCLE('',#829,0.21);
#50=CIRCLE('',#830,0.21);
#51=CIRCLE('',#831,0.21);
#52=CIRCLE('',#832,0.21);
#53=CIRCLE('',#833,0.21);
#54=CIRCLE('',#834,0.21);
#55=CIRCLE('',#835,0.21);
#56=CIRCLE('',#836,0.21);
#57=CIRCLE('',#837,0.21);
#58=CIRCLE('',#840,0.21);
#59=CIRCLE('',#841,0.21);
#60=CIRCLE('',#842,0.21);
#61=CIRCLE('',#843,0.21);
#62=CIRCLE('',#844,0.21);
#63=CIRCLE('',#845,0.21);
#64=CIRCLE('',#846,0.21);
#65=CIRCLE('',#847,0.21);
#66=CIRCLE('',#848,0.21);
#67=CIRCLE('',#849,0.21);
#68=CIRCLE('',#850,0.21);
#69=CIRCLE('',#851,0.21);
#70=CIRCLE('',#852,0.21);
#71=CIRCLE('',#853,0.21);
#72=CIRCLE('',#854,0.21);
#73=CIRCLE('',#856,0.21);
#74=CIRCLE('',#857,0.21);
#75=CIRCLE('',#858,0.21);
#76=CIRCLE('',#859,0.21);
#77=CIRCLE('',#860,0.21);
#78=CIRCLE('',#861,0.21);
#79=CIRCLE('',#862,0.21);
#80=CIRCLE('',#863,0.21);
#81=CIRCLE('',#864,0.21);
#82=CIRCLE('',#865,0.21);
#83=CIRCLE('',#866,0.21);
#84=CIRCLE('',#867,0.21);
#85=CIRCLE('',#868,0.21);
#86=CIRCLE('',#869,0.21);
#87=CIRCLE('',#870,0.21);
#88=CIRCLE('',#871,0.21);
#89=CIRCLE('',#873,0.21);
#90=CIRCLE('',#874,0.21);
#91=CIRCLE('',#875,0.21);
#92=CIRCLE('',#876,0.21);
#93=CIRCLE('',#877,0.21);
#94=CIRCLE('',#878,0.21);
#95=CIRCLE('',#879,0.21);
#96=CIRCLE('',#880,0.21);
#97=CIRCLE('',#881,0.21);
#98=CIRCLE('',#882,0.21);
#99=CIRCLE('',#883,0.21);
#100=CIRCLE('',#884,0.21);
#101=CIRCLE('',#885,0.21);
#102=CIRCLE('',#886,0.21);
#103=CIRCLE('',#887,0.21);
#104=CIRCLE('',#888,0.21);
#105=ORIENTED_EDGE('',*,*,#277,.T.);
#106=ORIENTED_EDGE('',*,*,#278,.T.);
#107=ORIENTED_EDGE('',*,*,#279,.T.);
#108=ORIENTED_EDGE('',*,*,#280,.T.);
#109=ORIENTED_EDGE('',*,*,#281,.F.);
#110=ORIENTED_EDGE('',*,*,#282,.T.);
#111=ORIENTED_EDGE('',*,*,#283,.F.);
#112=ORIENTED_EDGE('',*,*,#284,.T.);
#113=ORIENTED_EDGE('',*,*,#285,.F.);
#114=ORIENTED_EDGE('',*,*,#286,.F.);
#115=ORIENTED_EDGE('',*,*,#287,.F.);
#116=ORIENTED_EDGE('',*,*,#288,.F.);
#117=ORIENTED_EDGE('',*,*,#289,.F.);
#118=ORIENTED_EDGE('',*,*,#290,.F.);
#119=ORIENTED_EDGE('',*,*,#291,.F.);
#120=ORIENTED_EDGE('',*,*,#292,.F.);
#121=ORIENTED_EDGE('',*,*,#293,.F.);
#122=ORIENTED_EDGE('',*,*,#294,.F.);
#123=ORIENTED_EDGE('',*,*,#295,.F.);
#124=ORIENTED_EDGE('',*,*,#296,.F.);
#125=ORIENTED_EDGE('',*,*,#297,.F.);
#126=ORIENTED_EDGE('',*,*,#298,.F.);
#127=ORIENTED_EDGE('',*,*,#299,.F.);
#128=ORIENTED_EDGE('',*,*,#300,.F.);
#129=ORIENTED_EDGE('',*,*,#301,.T.);
#130=ORIENTED_EDGE('',*,*,#283,.T.);
#131=ORIENTED_EDGE('',*,*,#302,.T.);
#132=ORIENTED_EDGE('',*,*,#303,.F.);
#133=ORIENTED_EDGE('',*,*,#304,.T.);
#134=ORIENTED_EDGE('',*,*,#305,.F.);
#135=ORIENTED_EDGE('',*,*,#306,.T.);
#136=ORIENTED_EDGE('',*,*,#300,.T.);
#137=ORIENTED_EDGE('',*,*,#307,.T.);
#138=ORIENTED_EDGE('',*,*,#308,.T.);
#139=ORIENTED_EDGE('',*,*,#309,.T.);
#140=ORIENTED_EDGE('',*,*,#310,.T.);
#141=ORIENTED_EDGE('',*,*,#311,.T.);
#142=ORIENTED_EDGE('',*,*,#312,.T.);
#143=ORIENTED_EDGE('',*,*,#313,.T.);
#144=ORIENTED_EDGE('',*,*,#314,.T.);
#145=ORIENTED_EDGE('',*,*,#315,.T.);
#146=ORIENTED_EDGE('',*,*,#316,.T.);
#147=ORIENTED_EDGE('',*,*,#317,.T.);
#148=ORIENTED_EDGE('',*,*,#318,.T.);
#149=ORIENTED_EDGE('',*,*,#319,.T.);
#150=ORIENTED_EDGE('',*,*,#320,.T.);
#151=ORIENTED_EDGE('',*,*,#321,.T.);
#152=ORIENTED_EDGE('',*,*,#322,.T.);
#153=ORIENTED_EDGE('',*,*,#323,.T.);
#154=ORIENTED_EDGE('',*,*,#324,.T.);
#155=ORIENTED_EDGE('',*,*,#279,.F.);
#156=ORIENTED_EDGE('',*,*,#325,.T.);
#157=ORIENTED_EDGE('',*,*,#303,.T.);
#158=ORIENTED_EDGE('',*,*,#326,.T.);
#159=ORIENTED_EDGE('',*,*,#327,.T.);
#160=ORIENTED_EDGE('',*,*,#328,.T.);
#161=ORIENTED_EDGE('',*,*,#329,.T.);
#162=ORIENTED_EDGE('',*,*,#330,.T.);
#163=ORIENTED_EDGE('',*,*,#331,.T.);
#164=ORIENTED_EDGE('',*,*,#332,.T.);
#165=ORIENTED_EDGE('',*,*,#333,.T.);
#166=ORIENTED_EDGE('',*,*,#334,.T.);
#167=ORIENTED_EDGE('',*,*,#335,.T.);
#168=ORIENTED_EDGE('',*,*,#336,.T.);
#169=ORIENTED_EDGE('',*,*,#337,.T.);
#170=ORIENTED_EDGE('',*,*,#338,.T.);
#171=ORIENTED_EDGE('',*,*,#339,.T.);
#172=ORIENTED_EDGE('',*,*,#340,.T.);
#173=ORIENTED_EDGE('',*,*,#341,.T.);
#174=ORIENTED_EDGE('',*,*,#342,.T.);
#175=ORIENTED_EDGE('',*,*,#305,.T.);
#176=ORIENTED_EDGE('',*,*,#343,.T.);
#177=ORIENTED_EDGE('',*,*,#277,.F.);
#178=ORIENTED_EDGE('',*,*,#344,.T.);
#179=ORIENTED_EDGE('',*,*,#345,.F.);
#180=ORIENTED_EDGE('',*,*,#346,.F.);
#181=ORIENTED_EDGE('',*,*,#347,.F.);
#182=ORIENTED_EDGE('',*,*,#348,.F.);
#183=ORIENTED_EDGE('',*,*,#349,.F.);
#184=ORIENTED_EDGE('',*,*,#350,.F.);
#185=ORIENTED_EDGE('',*,*,#351,.F.);
#186=ORIENTED_EDGE('',*,*,#352,.F.);
#187=ORIENTED_EDGE('',*,*,#353,.F.);
#188=ORIENTED_EDGE('',*,*,#354,.F.);
#189=ORIENTED_EDGE('',*,*,#355,.F.);
#190=ORIENTED_EDGE('',*,*,#356,.F.);
#191=ORIENTED_EDGE('',*,*,#357,.F.);
#192=ORIENTED_EDGE('',*,*,#358,.F.);
#193=ORIENTED_EDGE('',*,*,#359,.F.);
#194=ORIENTED_EDGE('',*,*,#360,.F.);
#195=ORIENTED_EDGE('',*,*,#281,.T.);
#196=ORIENTED_EDGE('',*,*,#361,.T.);
#197=ORIENTED_EDGE('',*,*,#308,.F.);
#198=ORIENTED_EDGE('',*,*,#362,.T.);
#199=ORIENTED_EDGE('',*,*,#342,.F.);
#200=ORIENTED_EDGE('',*,*,#360,.T.);
#201=ORIENTED_EDGE('',*,*,#341,.F.);
#202=ORIENTED_EDGE('',*,*,#359,.T.);
#203=ORIENTED_EDGE('',*,*,#340,.F.);
#204=ORIENTED_EDGE('',*,*,#358,.T.);
#205=ORIENTED_EDGE('',*,*,#339,.F.);
#206=ORIENTED_EDGE('',*,*,#357,.T.);
#207=ORIENTED_EDGE('',*,*,#338,.F.);
#208=ORIENTED_EDGE('',*,*,#356,.T.);
#209=ORIENTED_EDGE('',*,*,#337,.F.);
#210=ORIENTED_EDGE('',*,*,#355,.T.);
#211=ORIENTED_EDGE('',*,*,#336,.F.);
#212=ORIENTED_EDGE('',*,*,#354,.T.);
#213=ORIENTED_EDGE('',*,*,#335,.F.);
#214=ORIENTED_EDGE('',*,*,#353,.T.);
#215=ORIENTED_EDGE('',*,*,#334,.F.);
#216=ORIENTED_EDGE('',*,*,#352,.T.);
#217=ORIENTED_EDGE('',*,*,#333,.F.);
#218=ORIENTED_EDGE('',*,*,#351,.T.);
#219=ORIENTED_EDGE('',*,*,#332,.F.);
#220=ORIENTED_EDGE('',*,*,#350,.T.);
#221=ORIENTED_EDGE('',*,*,#331,.F.);
#222=ORIENTED_EDGE('',*,*,#349,.T.);
#223=ORIENTED_EDGE('',*,*,#330,.F.);
#224=ORIENTED_EDGE('',*,*,#348,.T.);
#225=ORIENTED_EDGE('',*,*,#329,.F.);
#226=ORIENTED_EDGE('',*,*,#347,.T.);
#227=ORIENTED_EDGE('',*,*,#328,.F.);
#228=ORIENTED_EDGE('',*,*,#346,.T.);
#229=ORIENTED_EDGE('',*,*,#327,.F.);
#230=ORIENTED_EDGE('',*,*,#345,.T.);
#231=ORIENTED_EDGE('',*,*,#324,.F.);
#232=ORIENTED_EDGE('',*,*,#299,.T.);
#233=ORIENTED_EDGE('',*,*,#323,.F.);
#234=ORIENTED_EDGE('',*,*,#298,.T.);
#235=ORIENTED_EDGE('',*,*,#322,.F.);
#236=ORIENTED_EDGE('',*,*,#297,.T.);
#237=ORIENTED_EDGE('',*,*,#321,.F.);
#238=ORIENTED_EDGE('',*,*,#296,.T.);
#239=ORIENTED_EDGE('',*,*,#320,.F.);
#240=ORIENTED_EDGE('',*,*,#295,.T.);
#241=ORIENTED_EDGE('',*,*,#319,.F.);
#242=ORIENTED_EDGE('',*,*,#294,.T.);
#243=ORIENTED_EDGE('',*,*,#318,.F.);
#244=ORIENTED_EDGE('',*,*,#293,.T.);
#245=ORIENTED_EDGE('',*,*,#317,.F.);
#246=ORIENTED_EDGE('',*,*,#292,.T.);
#247=ORIENTED_EDGE('',*,*,#316,.F.);
#248=ORIENTED_EDGE('',*,*,#291,.T.);
#249=ORIENTED_EDGE('',*,*,#315,.F.);
#250=ORIENTED_EDGE('',*,*,#290,.T.);
#251=ORIENTED_EDGE('',*,*,#314,.F.);
#252=ORIENTED_EDGE('',*,*,#289,.T.);
#253=ORIENTED_EDGE('',*,*,#313,.F.);
#254=ORIENTED_EDGE('',*,*,#288,.T.);
#255=ORIENTED_EDGE('',*,*,#312,.F.);
#256=ORIENTED_EDGE('',*,*,#287,.T.);
#257=ORIENTED_EDGE('',*,*,#311,.F.);
#258=ORIENTED_EDGE('',*,*,#286,.T.);
#259=ORIENTED_EDGE('',*,*,#310,.F.);
#260=ORIENTED_EDGE('',*,*,#285,.T.);
#261=ORIENTED_EDGE('',*,*,#278,.F.);
#262=ORIENTED_EDGE('',*,*,#343,.F.);
#263=ORIENTED_EDGE('',*,*,#304,.F.);
#264=ORIENTED_EDGE('',*,*,#325,.F.);
#265=ORIENTED_EDGE('',*,*,#280,.F.);
#266=ORIENTED_EDGE('',*,*,#326,.F.);
#267=ORIENTED_EDGE('',*,*,#309,.F.);
#268=ORIENTED_EDGE('',*,*,#361,.F.);
#269=ORIENTED_EDGE('',*,*,#284,.F.);
#270=ORIENTED_EDGE('',*,*,#301,.F.);
#271=ORIENTED_EDGE('',*,*,#306,.F.);
#272=ORIENTED_EDGE('',*,*,#344,.F.);
#273=ORIENTED_EDGE('',*,*,#282,.F.);
#274=ORIENTED_EDGE('',*,*,#362,.F.);
#275=ORIENTED_EDGE('',*,*,#307,.F.);
#276=ORIENTED_EDGE('',*,*,#302,.F.);
#277=EDGE_CURVE('',#363,#364,#441,.T.);
#278=EDGE_CURVE('',#364,#365,#442,.F.);
#279=EDGE_CURVE('',#365,#366,#443,.T.);
#280=EDGE_CURVE('',#366,#367,#444,.T.);
#281=EDGE_CURVE('',#368,#367,#445,.T.);
#282=EDGE_CURVE('',#368,#369,#446,.F.);
#283=EDGE_CURVE('',#370,#369,#447,.T.);
#284=EDGE_CURVE('',#370,#363,#448,.T.);
#285=EDGE_CURVE('',#371,#371,#43,.F.);
#286=EDGE_CURVE('',#372,#372,#44,.F.);
#287=EDGE_CURVE('',#373,#373,#45,.F.);
#288=EDGE_CURVE('',#374,#374,#46,.F.);
#289=EDGE_CURVE('',#375,#375,#47,.F.);
#290=EDGE_CURVE('',#376,#376,#48,.F.);
#291=EDGE_CURVE('',#377,#377,#49,.F.);
#292=EDGE_CURVE('',#378,#378,#50,.F.);
#293=EDGE_CURVE('',#379,#379,#51,.F.);
#294=EDGE_CURVE('',#380,#380,#52,.F.);
#295=EDGE_CURVE('',#381,#381,#53,.F.);
#296=EDGE_CURVE('',#382,#382,#54,.F.);
#297=EDGE_CURVE('',#383,#383,#55,.F.);
#298=EDGE_CURVE('',#384,#384,#56,.F.);
#299=EDGE_CURVE('',#385,#385,#57,.F.);
#300=EDGE_CURVE('',#386,#387,#449,.T.);
#301=EDGE_CURVE('',#386,#370,#450,.T.);
#302=EDGE_CURVE('',#369,#387,#451,.T.);
#303=EDGE_CURVE('',#388,#389,#452,.T.);
#304=EDGE_CURVE('',#388,#390,#453,.F.);
#305=EDGE_CURVE('',#391,#390,#454,.T.);
#306=EDGE_CURVE('',#391,#386,#455,.T.);
#307=EDGE_CURVE('',#387,#392,#456,.F.);
#308=EDGE_CURVE('',#392,#393,#457,.T.);
#309=EDGE_CURVE('',#393,#389,#458,.T.);
#310=EDGE_CURVE('',#394,#394,#58,.T.);
#311=EDGE_CURVE('',#395,#395,#59,.T.);
#312=EDGE_CURVE('',#396,#396,#60,.T.);
#313=EDGE_CURVE('',#397,#397,#61,.T.);
#314=EDGE_CURVE('',#398,#398,#62,.T.);
#315=EDGE_CURVE('',#399,#399,#63,.T.);
#316=EDGE_CURVE('',#400,#400,#64,.T.);
#317=EDGE_CURVE('',#401,#401,#65,.T.);
#318=EDGE_CURVE('',#402,#402,#66,.T.);
#319=EDGE_CURVE('',#403,#403,#67,.T.);
#320=EDGE_CURVE('',#404,#404,#68,.T.);
#321=EDGE_CURVE('',#405,#405,#69,.T.);
#322=EDGE_CURVE('',#406,#406,#70,.T.);
#323=EDGE_CURVE('',#407,#407,#71,.T.);
#324=EDGE_CURVE('',#408,#408,#72,.T.);
#325=EDGE_CURVE('',#365,#388,#459,.T.);
#326=EDGE_CURVE('',#389,#366,#460,.T.);
#327=EDGE_CURVE('',#409,#409,#73,.T.);
#328=EDGE_CURVE('',#410,#410,#74,.T.);
#329=EDGE_CURVE('',#411,#411,#75,.T.);
#330=EDGE_CURVE('',#412,#412,#76,.T.);
#331=EDGE_CURVE('',#413,#413,#77,.T.);
#332=EDGE_CURVE('',#414,#414,#78,.T.);
#333=EDGE_CURVE('',#415,#415,#79,.T.);
#334=EDGE_CURVE('',#416,#416,#80,.T.);
#335=EDGE_CURVE('',#417,#417,#81,.T.);
#336=EDGE_CURVE('',#418,#418,#82,.T.);
#337=EDGE_CURVE('',#419,#419,#83,.T.);
#338=EDGE_CURVE('',#420,#420,#84,.T.);
#339=EDGE_CURVE('',#421,#421,#85,.T.);
#340=EDGE_CURVE('',#422,#422,#86,.T.);
#341=EDGE_CURVE('',#423,#423,#87,.T.);
#342=EDGE_CURVE('',#424,#424,#88,.T.);
#343=EDGE_CURVE('',#390,#364,#461,.T.);
#344=EDGE_CURVE('',#363,#391,#462,.T.);
#345=EDGE_CURVE('',#425,#425,#89,.F.);
#346=EDGE_CURVE('',#426,#426,#90,.F.);
#347=EDGE_CURVE('',#427,#427,#91,.F.);
#348=EDGE_CURVE('',#428,#428,#92,.F.);
#349=EDGE_CURVE('',#429,#429,#93,.F.);
#350=EDGE_CURVE('',#430,#430,#94,.F.);
#351=EDGE_CURVE('',#431,#431,#95,.F.);
#352=EDGE_CURVE('',#432,#432,#96,.F.);
#353=EDGE_CURVE('',#433,#433,#97,.F.);
#354=EDGE_CURVE('',#434,#434,#98,.F.);
#355=EDGE_CURVE('',#435,#435,#99,.F.);
#356=EDGE_CURVE('',#436,#436,#100,.F.);
#357=EDGE_CURVE('',#437,#437,#101,.F.);
#358=EDGE_CURVE('',#438,#438,#102,.F.);
#359=EDGE_CURVE('',#439,#439,#103,.F.);
#360=EDGE_CURVE('',#440,#440,#104,.F.);
#361=EDGE_CURVE('',#367,#393,#463,.T.);
#362=EDGE_CURVE('',#392,#368,#464,.T.);
#363=VERTEX_POINT('',#1159);
#364=VERTEX_POINT('',#1160);
#365=VERTEX_POINT('',#1162);
#366=VERTEX_POINT('',#1164);
#367=VERTEX_POINT('',#1166);
#368=VERTEX_POINT('',#1168);
#369=VERTEX_POINT('',#1170);
#370=VERTEX_POINT('',#1172);
#371=VERTEX_POINT('',#1176);
#372=VERTEX_POINT('',#1178);
#373=VERTEX_POINT('',#1180);
#374=VERTEX_POINT('',#1182);
#375=VERTEX_POINT('',#1184);
#376=VERTEX_POINT('',#1186);
#377=VERTEX_POINT('',#1188);
#378=VERTEX_POINT('',#1190);
#379=VERTEX_POINT('',#1192);
#380=VERTEX_POINT('',#1194);
#381=VERTEX_POINT('',#1196);
#382=VERTEX_POINT('',#1198);
#383=VERTEX_POINT('',#1200);
#384=VERTEX_POINT('',#1202);
#385=VERTEX_POINT('',#1204);
#386=VERTEX_POINT('',#1206);
#387=VERTEX_POINT('',#1207);
#388=VERTEX_POINT('',#1212);
#389=VERTEX_POINT('',#1213);
#390=VERTEX_POINT('',#1215);
#391=VERTEX_POINT('',#1217);
#392=VERTEX_POINT('',#1220);
#393=VERTEX_POINT('',#1222);
#394=VERTEX_POINT('',#1226);
#395=VERTEX_POINT('',#1228);
#396=VERTEX_POINT('',#1230);
#397=VERTEX_POINT('',#1232);
#398=VERTEX_POINT('',#1234);
#399=VERTEX_POINT('',#1236);
#400=VERTEX_POINT('',#1238);
#401=VERTEX_POINT('',#1240);
#402=VERTEX_POINT('',#1242);
#403=VERTEX_POINT('',#1244);
#404=VERTEX_POINT('',#1246);
#405=VERTEX_POINT('',#1248);
#406=VERTEX_POINT('',#1250);
#407=VERTEX_POINT('',#1252);
#408=VERTEX_POINT('',#1254);
#409=VERTEX_POINT('',#1259);
#410=VERTEX_POINT('',#1261);
#411=VERTEX_POINT('',#1263);
#412=VERTEX_POINT('',#1265);
#413=VERTEX_POINT('',#1267);
#414=VERTEX_POINT('',#1269);
#415=VERTEX_POINT('',#1271);
#416=VERTEX_POINT('',#1273);
#417=VERTEX_POINT('',#1275);
#418=VERTEX_POINT('',#1277);
#419=VERTEX_POINT('',#1279);
#420=VERTEX_POINT('',#1281);
#421=VERTEX_POINT('',#1283);
#422=VERTEX_POINT('',#1285);
#423=VERTEX_POINT('',#1287);
#424=VERTEX_POINT('',#1289);
#425=VERTEX_POINT('',#1294);
#426=VERTEX_POINT('',#1296);
#427=VERTEX_POINT('',#1298);
#428=VERTEX_POINT('',#1300);
#429=VERTEX_POINT('',#1302);
#430=VERTEX_POINT('',#1304);
#431=VERTEX_POINT('',#1306);
#432=VERTEX_POINT('',#1308);
#433=VERTEX_POINT('',#1310);
#434=VERTEX_POINT('',#1312);
#435=VERTEX_POINT('',#1314);
#436=VERTEX_POINT('',#1316);
#437=VERTEX_POINT('',#1318);
#438=VERTEX_POINT('',#1320);
#439=VERTEX_POINT('',#1322);
#440=VERTEX_POINT('',#1324);
#441=LINE('',#1158,#465);
#442=LINE('',#1161,#466);
#443=LINE('',#1163,#467);
#444=LINE('',#1165,#468);
#445=LINE('',#1167,#469);
#446=LINE('',#1169,#470);
#447=LINE('',#1171,#471);
#448=LINE('',#1173,#472);
#449=LINE('',#1205,#473);
#450=LINE('',#1208,#474);
#451=LINE('',#1209,#475);
#452=LINE('',#1211,#476);
#453=LINE('',#1214,#477);
#454=LINE('',#1216,#478);
#455=LINE('',#1218,#479);
#456=LINE('',#1219,#480);
#457=LINE('',#1221,#481);
#458=LINE('',#1223,#482);
#459=LINE('',#1255,#483);
#460=LINE('',#1256,#484);
#461=LINE('',#1290,#485);
#462=LINE('',#1291,#486);
#463=LINE('',#1325,#487);
#464=LINE('',#1326,#488);
#465=VECTOR('',#928,100.);
#466=VECTOR('',#929,100.);
#467=VECTOR('',#930,100.);
#468=VECTOR('',#931,100.);
#469=VECTOR('',#932,100.);
#470=VECTOR('',#933,100.);
#471=VECTOR('',#934,100.);
#472=VECTOR('',#935,100.);
#473=VECTOR('',#968,100.);
#474=VECTOR('',#969,100.);
#475=VECTOR('',#970,100.);
#476=VECTOR('',#973,100.);
#477=VECTOR('',#974,100.);
#478=VECTOR('',#975,100.);
#479=VECTOR('',#976,100.);
#480=VECTOR('',#977,100.);
#481=VECTOR('',#978,100.);
#482=VECTOR('',#979,100.);
#483=VECTOR('',#1012,100.);
#484=VECTOR('',#1013,100.);
#485=VECTOR('',#1048,100.);
#486=VECTOR('',#1049,100.);
#487=VECTOR('',#1084,100.);
#488=VECTOR('',#1085,100.);
#489=EDGE_LOOP('',(#105,#106,#107,#108,#109,#110,#111,#112));
#490=EDGE_LOOP('',(#113));
#491=EDGE_LOOP('',(#114));
#492=EDGE_LOOP('',(#115));
#493=EDGE_LOOP('',(#116));
#494=EDGE_LOOP('',(#117));
#495=EDGE_LOOP('',(#118));
#496=EDGE_LOOP('',(#119));
#497=EDGE_LOOP('',(#120));
#498=EDGE_LOOP('',(#121));
#499=EDGE_LOOP('',(#122));
#500=EDGE_LOOP('',(#123));
#501=EDGE_LOOP('',(#124));
#502=EDGE_LOOP('',(#125));
#503=EDGE_LOOP('',(#126));
#504=EDGE_LOOP('',(#127));
#505=EDGE_LOOP('',(#128,#129,#130,#131));
#506=EDGE_LOOP('',(#132,#133,#134,#135,#136,#137,#138,#139));
#507=EDGE_LOOP('',(#140));
#508=EDGE_LOOP('',(#141));
#509=EDGE_LOOP('',(#142));
#510=EDGE_LOOP('',(#143));
#511=EDGE_LOOP('',(#144));
#512=EDGE_LOOP('',(#145));
#513=EDGE_LOOP('',(#146));
#514=EDGE_LOOP('',(#147));
#515=EDGE_LOOP('',(#148));
#516=EDGE_LOOP('',(#149));
#517=EDGE_LOOP('',(#150));
#518=EDGE_LOOP('',(#151));
#519=EDGE_LOOP('',(#152));
#520=EDGE_LOOP('',(#153));
#521=EDGE_LOOP('',(#154));
#522=EDGE_LOOP('',(#155,#156,#157,#158));
#523=EDGE_LOOP('',(#159));
#524=EDGE_LOOP('',(#160));
#525=EDGE_LOOP('',(#161));
#526=EDGE_LOOP('',(#162));
#527=EDGE_LOOP('',(#163));
#528=EDGE_LOOP('',(#164));
#529=EDGE_LOOP('',(#165));
#530=EDGE_LOOP('',(#166));
#531=EDGE_LOOP('',(#167));
#532=EDGE_LOOP('',(#168));
#533=EDGE_LOOP('',(#169));
#534=EDGE_LOOP('',(#170));
#535=EDGE_LOOP('',(#171));
#536=EDGE_LOOP('',(#172));
#537=EDGE_LOOP('',(#173));
#538=EDGE_LOOP('',(#174));
#539=EDGE_LOOP('',(#175,#176,#177,#178));
#540=EDGE_LOOP('',(#179));
#541=EDGE_LOOP('',(#180));
#542=EDGE_LOOP('',(#181));
#543=EDGE_LOOP('',(#182));
#544=EDGE_LOOP('',(#183));
#545=EDGE_LOOP('',(#184));
#546=EDGE_LOOP('',(#185));
#547=EDGE_LOOP('',(#186));
#548=EDGE_LOOP('',(#187));
#549=EDGE_LOOP('',(#188));
#550=EDGE_LOOP('',(#189));
#551=EDGE_LOOP('',(#190));
#552=EDGE_LOOP('',(#191));
#553=EDGE_LOOP('',(#192));
#554=EDGE_LOOP('',(#193));
#555=EDGE_LOOP('',(#194));
#556=EDGE_LOOP('',(#195,#196,#197,#198));
#557=EDGE_LOOP('',(#199));
#558=EDGE_LOOP('',(#200));
#559=EDGE_LOOP('',(#201));
#560=EDGE_LOOP('',(#202));
#561=EDGE_LOOP('',(#203));
#562=EDGE_LOOP('',(#204));
#563=EDGE_LOOP('',(#205));
#564=EDGE_LOOP('',(#206));
#565=EDGE_LOOP('',(#207));
#566=EDGE_LOOP('',(#208));
#567=EDGE_LOOP('',(#209));
#568=EDGE_LOOP('',(#210));
#569=EDGE_LOOP('',(#211));
#570=EDGE_LOOP('',(#212));
#571=EDGE_LOOP('',(#213));
#572=EDGE_LOOP('',(#214));
#573=EDGE_LOOP('',(#215));
#574=EDGE_LOOP('',(#216));
#575=EDGE_LOOP('',(#217));
#576=EDGE_LOOP('',(#218));
#577=EDGE_LOOP('',(#219));
#578=EDGE_LOOP('',(#220));
#579=EDGE_LOOP('',(#221));
#580=EDGE_LOOP('',(#222));
#581=EDGE_LOOP('',(#223));
#582=EDGE_LOOP('',(#224));
#583=EDGE_LOOP('',(#225));
#584=EDGE_LOOP('',(#226));
#585=EDGE_LOOP('',(#227));
#586=EDGE_LOOP('',(#228));
#587=EDGE_LOOP('',(#229));
#588=EDGE_LOOP('',(#230));
#589=EDGE_LOOP('',(#231));
#590=EDGE_LOOP('',(#232));
#591=EDGE_LOOP('',(#233));
#592=EDGE_LOOP('',(#234));
#593=EDGE_LOOP('',(#235));
#594=EDGE_LOOP('',(#236));
#595=EDGE_LOOP('',(#237));
#596=EDGE_LOOP('',(#238));
#597=EDGE_LOOP('',(#239));
#598=EDGE_LOOP('',(#240));
#599=EDGE_LOOP('',(#241));
#600=EDGE_LOOP('',(#242));
#601=EDGE_LOOP('',(#243));
#602=EDGE_LOOP('',(#244));
#603=EDGE_LOOP('',(#245));
#604=EDGE_LOOP('',(#246));
#605=EDGE_LOOP('',(#247));
#606=EDGE_LOOP('',(#248));
#607=EDGE_LOOP('',(#249));
#608=EDGE_LOOP('',(#250));
#609=EDGE_LOOP('',(#251));
#610=EDGE_LOOP('',(#252));
#611=EDGE_LOOP('',(#253));
#612=EDGE_LOOP('',(#254));
#613=EDGE_LOOP('',(#255));
#614=EDGE_LOOP('',(#256));
#615=EDGE_LOOP('',(#257));
#616=EDGE_LOOP('',(#258));
#617=EDGE_LOOP('',(#259));
#618=EDGE_LOOP('',(#260));
#619=EDGE_LOOP('',(#261,#262,#263,#264));
#620=EDGE_LOOP('',(#265,#266,#267,#268));
#621=EDGE_LOOP('',(#269,#270,#271,#272));
#622=EDGE_LOOP('',(#273,#274,#275,#276));
#623=FACE_BOUND('',#489,.T.);
#624=FACE_BOUND('',#490,.T.);
#625=FACE_BOUND('',#491,.T.);
#626=FACE_BOUND('',#492,.T.);
#627=FACE_BOUND('',#493,.T.);
#628=FACE_BOUND('',#494,.T.);
#629=FACE_BOUND('',#495,.T.);
#630=FACE_BOUND('',#496,.T.);
#631=FACE_BOUND('',#497,.T.);
#632=FACE_BOUND('',#498,.T.);
#633=FACE_BOUND('',#499,.T.);
#634=FACE_BOUND('',#500,.T.);
#635=FACE_BOUND('',#501,.T.);
#636=FACE_BOUND('',#502,.T.);
#637=FACE_BOUND('',#503,.T.);
#638=FACE_BOUND('',#504,.T.);
#639=FACE_BOUND('',#505,.T.);
#640=FACE_BOUND('',#506,.T.);
#641=FACE_BOUND('',#507,.T.);
#642=FACE_BOUND('',#508,.T.);
#643=FACE_BOUND('',#509,.T.);
#644=FACE_BOUND('',#510,.T.);
#645=FACE_BOUND('',#511,.T.);
#646=FACE_BOUND('',#512,.T.);
#647=FACE_BOUND('',#513,.T.);
#648=FACE_BOUND('',#514,.T.);
#649=FACE_BOUND('',#515,.T.);
#650=FACE_BOUND('',#516,.T.);
#651=FACE_BOUND('',#517,.T.);
#652=FACE_BOUND('',#518,.T.);
#653=FACE_BOUND('',#519,.T.);
#654=FACE_BOUND('',#520,.T.);
#655=FACE_BOUND('',#521,.T.);
#656=FACE_BOUND('',#522,.T.);
#657=FACE_BOUND('',#523,.T.);
#658=FACE_BOUND('',#524,.T.);
#659=FACE_BOUND('',#525,.T.);
#660=FACE_BOUND('',#526,.T.);
#661=FACE_BOUND('',#527,.T.);
#662=FACE_BOUND('',#528,.T.);
#663=FACE_BOUND('',#529,.T.);
#664=FACE_BOUND('',#530,.T.);
#665=FACE_BOUND('',#531,.T.);
#666=FACE_BOUND('',#532,.T.);
#667=FACE_BOUND('',#533,.T.);
#668=FACE_BOUND('',#534,.T.);
#669=FACE_BOUND('',#535,.T.);
#670=FACE_BOUND('',#536,.T.);
#671=FACE_BOUND('',#537,.T.);
#672=FACE_BOUND('',#538,.T.);
#673=FACE_BOUND('',#539,.T.);
#674=FACE_BOUND('',#540,.T.);
#675=FACE_BOUND('',#541,.T.);
#676=FACE_BOUND('',#542,.T.);
#677=FACE_BOUND('',#543,.T.);
#678=FACE_BOUND('',#544,.T.);
#679=FACE_BOUND('',#545,.T.);
#680=FACE_BOUND('',#546,.T.);
#681=FACE_BOUND('',#547,.T.);
#682=FACE_BOUND('',#548,.T.);
#683=FACE_BOUND('',#549,.T.);
#684=FACE_BOUND('',#550,.T.);
#685=FACE_BOUND('',#551,.T.);
#686=FACE_BOUND('',#552,.T.);
#687=FACE_BOUND('',#553,.T.);
#688=FACE_BOUND('',#554,.T.);
#689=FACE_BOUND('',#555,.T.);
#690=FACE_BOUND('',#556,.T.);
#691=FACE_BOUND('',#557,.T.);
#692=FACE_BOUND('',#558,.T.);
#693=FACE_BOUND('',#559,.T.);
#694=FACE_BOUND('',#560,.T.);
#695=FACE_BOUND('',#561,.T.);
#696=FACE_BOUND('',#562,.T.);
#697=FACE_BOUND('',#563,.T.);
#698=FACE_BOUND('',#564,.T.);
#699=FACE_BOUND('',#565,.T.);
#700=FACE_BOUND('',#566,.T.);
#701=FACE_BOUND('',#567,.T.);
#702=FACE_BOUND('',#568,.T.);
#703=FACE_BOUND('',#569,.T.);
#704=FACE_BOUND('',#570,.T.);
#705=FACE_BOUND('',#571,.T.);
#706=FACE_BOUND('',#572,.T.);
#707=FACE_BOUND('',#573,.T.);
#708=FACE_BOUND('',#574,.T.);
#709=FACE_BOUND('',#575,.T.);
#710=FACE_BOUND('',#576,.T.);
#711=FACE_BOUND('',#577,.T.);
#712=FACE_BOUND('',#578,.T.);
#713=FACE_BOUND('',#579,.T.);
#714=FACE_BOUND('',#580,.T.);
#715=FACE_BOUND('',#581,.T.);
#716=FACE_BOUND('',#582,.T.);
#717=FACE_BOUND('',#583,.T.);
#718=FACE_BOUND('',#584,.T.);
#719=FACE_BOUND('',#585,.T.);
#720=FACE_BOUND('',#586,.T.);
#721=FACE_BOUND('',#587,.T.);
#722=FACE_BOUND('',#588,.T.);
#723=FACE_BOUND('',#589,.T.);
#724=FACE_BOUND('',#590,.T.);
#725=FACE_BOUND('',#591,.T.);
#726=FACE_BOUND('',#592,.T.);
#727=FACE_BOUND('',#593,.T.);
#728=FACE_BOUND('',#594,.T.);
#729=FACE_BOUND('',#595,.T.);
#730=FACE_BOUND('',#596,.T.);
#731=FACE_BOUND('',#597,.T.);
#732=FACE_BOUND('',#598,.T.);
#733=FACE_BOUND('',#599,.T.);
#734=FACE_BOUND('',#600,.T.);
#735=FACE_BOUND('',#601,.T.);
#736=FACE_BOUND('',#602,.T.);
#737=FACE_BOUND('',#603,.T.);
#738=FACE_BOUND('',#604,.T.);
#739=FACE_BOUND('',#605,.T.);
#740=FACE_BOUND('',#606,.T.);
#741=FACE_BOUND('',#607,.T.);
#742=FACE_BOUND('',#608,.T.);
#743=FACE_BOUND('',#609,.T.);
#744=FACE_BOUND('',#610,.T.);
#745=FACE_BOUND('',#611,.T.);
#746=FACE_BOUND('',#612,.T.);
#747=FACE_BOUND('',#613,.T.);
#748=FACE_BOUND('',#614,.T.);
#749=FACE_BOUND('',#615,.T.);
#750=FACE_BOUND('',#616,.T.);
#751=FACE_BOUND('',#617,.T.);
#752=FACE_BOUND('',#618,.T.);
#753=FACE_BOUND('',#619,.T.);
#754=FACE_BOUND('',#620,.T.);
#755=FACE_BOUND('',#621,.T.);
#756=FACE_BOUND('',#622,.T.);
#757=PLANE('',#821);
#758=PLANE('',#822);
#759=PLANE('',#838);
#760=PLANE('',#839);
#761=PLANE('',#855);
#762=PLANE('',#872);
#763=PLANE('',#920);
#764=PLANE('',#921);
#765=PLANE('',#922);
#766=PLANE('',#923);
#767=ADVANCED_FACE('',(#623),#757,.T.);
#768=ADVANCED_FACE('',(#624,#625,#626,#627,#628,#629,#630,#631,#632,#633,
#634,#635,#636,#637,#638,#639),#758,.F.);
#769=ADVANCED_FACE('',(#640),#759,.F.);
#770=ADVANCED_FACE('',(#641,#642,#643,#644,#645,#646,#647,#648,#649,#650,
#651,#652,#653,#654,#655,#656),#760,.T.);
#771=ADVANCED_FACE('',(#657,#658,#659,#660,#661,#662,#663,#664,#665,#666,
#667,#668,#669,#670,#671,#672,#673),#761,.T.);
#772=ADVANCED_FACE('',(#674,#675,#676,#677,#678,#679,#680,#681,#682,#683,
#684,#685,#686,#687,#688,#689,#690),#762,.F.);
#773=ADVANCED_FACE('',(#691,#692),#12,.F.);
#774=ADVANCED_FACE('',(#693,#694),#13,.F.);
#775=ADVANCED_FACE('',(#695,#696),#14,.F.);
#776=ADVANCED_FACE('',(#697,#698),#15,.F.);
#777=ADVANCED_FACE('',(#699,#700),#16,.F.);
#778=ADVANCED_FACE('',(#701,#702),#17,.F.);
#779=ADVANCED_FACE('',(#703,#704),#18,.F.);
#780=ADVANCED_FACE('',(#705,#706),#19,.F.);
#781=ADVANCED_FACE('',(#707,#708),#20,.F.);
#782=ADVANCED_FACE('',(#709,#710),#21,.F.);
#783=ADVANCED_FACE('',(#711,#712),#22,.F.);
#784=ADVANCED_FACE('',(#713,#714),#23,.F.);
#785=ADVANCED_FACE('',(#715,#716),#24,.F.);
#786=ADVANCED_FACE('',(#717,#718),#25,.F.);
#787=ADVANCED_FACE('',(#719,#720),#26,.F.);
#788=ADVANCED_FACE('',(#721,#722),#27,.F.);
#789=ADVANCED_FACE('',(#723,#724),#28,.F.);
#790=ADVANCED_FACE('',(#725,#726),#29,.F.);
#791=ADVANCED_FACE('',(#727,#728),#30,.F.);
#792=ADVANCED_FACE('',(#729,#730),#31,.F.);
#793=ADVANCED_FACE('',(#731,#732),#32,.F.);
#794=ADVANCED_FACE('',(#733,#734),#33,.F.);
#795=ADVANCED_FACE('',(#735,#736),#34,.F.);
#796=ADVANCED_FACE('',(#737,#738),#35,.F.);
#797=ADVANCED_FACE('',(#739,#740),#36,.F.);
#798=ADVANCED_FACE('',(#741,#742),#37,.F.);
#799=ADVANCED_FACE('',(#743,#744),#38,.F.);
#800=ADVANCED_FACE('',(#745,#746),#39,.F.);
#801=ADVANCED_FACE('',(#747,#748),#40,.F.);
#802=ADVANCED_FACE('',(#749,#750),#41,.F.);
#803=ADVANCED_FACE('',(#751,#752),#42,.F.);
#804=ADVANCED_FACE('',(#753),#763,.F.);
#805=ADVANCED_FACE('',(#754),#764,.T.);
#806=ADVANCED_FACE('',(#755),#765,.T.);
#807=ADVANCED_FACE('',(#756),#766,.F.);
#808=CLOSED_SHELL('',(#767,#768,#769,#770,#771,#772,#773,#774,#775,#776,
#777,#778,#779,#780,#781,#782,#783,#784,#785,#786,#787,#788,#789,#790,#791,
#792,#793,#794,#795,#796,#797,#798,#799,#800,#801,#802,#803,#804,#805,#806,
#807));
#809=STYLED_ITEM('',(#810),#817);
#810=PRESENTATION_STYLE_ASSIGNMENT((#811));
#811=SURFACE_STYLE_USAGE(.BOTH.,#812);
#812=SURFACE_SIDE_STYLE('',(#813));
#813=SURFACE_STYLE_FILL_AREA(#814);
#814=FILL_AREA_STYLE('',(#815));
#815=FILL_AREA_STYLE_COLOUR('',#816);
#816=COLOUR_RGB('',0.349019607843138,0.376470588235294,0.4);
#817=MANIFOLD_SOLID_BREP('\X2\87BA6BCD6761\X0\',#808);
#818=SHAPE_DEFINITION_REPRESENTATION(#1368,#819);
#819=SHAPE_REPRESENTATION('???',(#820),#1363);
#820=AXIS2_PLACEMENT_3D('',#1156,#924,#925);
#821=AXIS2_PLACEMENT_3D('',#1157,#926,#927);
#822=AXIS2_PLACEMENT_3D('',#1174,#936,#937);
#823=AXIS2_PLACEMENT_3D('',#1175,#938,#939);
#824=AXIS2_PLACEMENT_3D('',#1177,#940,#941);
#825=AXIS2_PLACEMENT_3D('',#1179,#942,#943);
#826=AXIS2_PLACEMENT_3D('',#1181,#944,#945);
#827=AXIS2_PLACEMENT_3D('',#1183,#946,#947);
#828=AXIS2_PLACEMENT_3D('',#1185,#948,#949);
#829=AXIS2_PLACEMENT_3D('',#1187,#950,#951);
#830=AXIS2_PLACEMENT_3D('',#1189,#952,#953);
#831=AXIS2_PLACEMENT_3D('',#1191,#954,#955);
#832=AXIS2_PLACEMENT_3D('',#1193,#956,#957);
#833=AXIS2_PLACEMENT_3D('',#1195,#958,#959);
#834=AXIS2_PLACEMENT_3D('',#1197,#960,#961);
#835=AXIS2_PLACEMENT_3D('',#1199,#962,#963);
#836=AXIS2_PLACEMENT_3D('',#1201,#964,#965);
#837=AXIS2_PLACEMENT_3D('',#1203,#966,#967);
#838=AXIS2_PLACEMENT_3D('',#1210,#971,#972);
#839=AXIS2_PLACEMENT_3D('',#1224,#980,#981);
#840=AXIS2_PLACEMENT_3D('',#1225,#982,#983);
#841=AXIS2_PLACEMENT_3D('',#1227,#984,#985);
#842=AXIS2_PLACEMENT_3D('',#1229,#986,#987);
#843=AXIS2_PLACEMENT_3D('',#1231,#988,#989);
#844=AXIS2_PLACEMENT_3D('',#1233,#990,#991);
#845=AXIS2_PLACEMENT_3D('',#1235,#992,#993);
#846=AXIS2_PLACEMENT_3D('',#1237,#994,#995);
#847=AXIS2_PLACEMENT_3D('',#1239,#996,#997);
#848=AXIS2_PLACEMENT_3D('',#1241,#998,#999);
#849=AXIS2_PLACEMENT_3D('',#1243,#1000,#1001);
#850=AXIS2_PLACEMENT_3D('',#1245,#1002,#1003);
#851=AXIS2_PLACEMENT_3D('',#1247,#1004,#1005);
#852=AXIS2_PLACEMENT_3D('',#1249,#1006,#1007);
#853=AXIS2_PLACEMENT_3D('',#1251,#1008,#1009);
#854=AXIS2_PLACEMENT_3D('',#1253,#1010,#1011);
#855=AXIS2_PLACEMENT_3D('',#1257,#1014,#1015);
#856=AXIS2_PLACEMENT_3D('',#1258,#1016,#1017);
#857=AXIS2_PLACEMENT_3D('',#1260,#1018,#1019);
#858=AXIS2_PLACEMENT_3D('',#1262,#1020,#1021);
#859=AXIS2_PLACEMENT_3D('',#1264,#1022,#1023);
#860=AXIS2_PLACEMENT_3D('',#1266,#1024,#1025);
#861=AXIS2_PLACEMENT_3D('',#1268,#1026,#1027);
#862=AXIS2_PLACEMENT_3D('',#1270,#1028,#1029);
#863=AXIS2_PLACEMENT_3D('',#1272,#1030,#1031);
#864=AXIS2_PLACEMENT_3D('',#1274,#1032,#1033);
#865=AXIS2_PLACEMENT_3D('',#1276,#1034,#1035);
#866=AXIS2_PLACEMENT_3D('',#1278,#1036,#1037);
#867=AXIS2_PLACEMENT_3D('',#1280,#1038,#1039);
#868=AXIS2_PLACEMENT_3D('',#1282,#1040,#1041);
#869=AXIS2_PLACEMENT_3D('',#1284,#1042,#1043);
#870=AXIS2_PLACEMENT_3D('',#1286,#1044,#1045);
#871=AXIS2_PLACEMENT_3D('',#1288,#1046,#1047);
#872=AXIS2_PLACEMENT_3D('',#1292,#1050,#1051);
#873=AXIS2_PLACEMENT_3D('',#1293,#1052,#1053);
#874=AXIS2_PLACEMENT_3D('',#1295,#1054,#1055);
#875=AXIS2_PLACEMENT_3D('',#1297,#1056,#1057);
#876=AXIS2_PLACEMENT_3D('',#1299,#1058,#1059);
#877=AXIS2_PLACEMENT_3D('',#1301,#1060,#1061);
#878=AXIS2_PLACEMENT_3D('',#1303,#1062,#1063);
#879=AXIS2_PLACEMENT_3D('',#1305,#1064,#1065);
#880=AXIS2_PLACEMENT_3D('',#1307,#1066,#1067);
#881=AXIS2_PLACEMENT_3D('',#1309,#1068,#1069);
#882=AXIS2_PLACEMENT_3D('',#1311,#1070,#1071);
#883=AXIS2_PLACEMENT_3D('',#1313,#1072,#1073);
#884=AXIS2_PLACEMENT_3D('',#1315,#1074,#1075);
#885=AXIS2_PLACEMENT_3D('',#1317,#1076,#1077);
#886=AXIS2_PLACEMENT_3D('',#1319,#1078,#1079);
#887=AXIS2_PLACEMENT_3D('',#1321,#1080,#1081);
#888=AXIS2_PLACEMENT_3D('',#1323,#1082,#1083);
#889=AXIS2_PLACEMENT_3D('',#1327,#1086,#1087);
#890=AXIS2_PLACEMENT_3D('',#1328,#1088,#1089);
#891=AXIS2_PLACEMENT_3D('',#1329,#1090,#1091);
#892=AXIS2_PLACEMENT_3D('',#1330,#1092,#1093);
#893=AXIS2_PLACEMENT_3D('',#1331,#1094,#1095);
#894=AXIS2_PLACEMENT_3D('',#1332,#1096,#1097);
#895=AXIS2_PLACEMENT_3D('',#1333,#1098,#1099);
#896=AXIS2_PLACEMENT_3D('',#1334,#1100,#1101);
#897=AXIS2_PLACEMENT_3D('',#1335,#1102,#1103);
#898=AXIS2_PLACEMENT_3D('',#1336,#1104,#1105);
#899=AXIS2_PLACEMENT_3D('',#1337,#1106,#1107);
#900=AXIS2_PLACEMENT_3D('',#1338,#1108,#1109);
#901=AXIS2_PLACEMENT_3D('',#1339,#1110,#1111);
#902=AXIS2_PLACEMENT_3D('',#1340,#1112,#1113);
#903=AXIS2_PLACEMENT_3D('',#1341,#1114,#1115);
#904=AXIS2_PLACEMENT_3D('',#1342,#1116,#1117);
#905=AXIS2_PLACEMENT_3D('',#1343,#1118,#1119);
#906=AXIS2_PLACEMENT_3D('',#1344,#1120,#1121);
#907=AXIS2_PLACEMENT_3D('',#1345,#1122,#1123);
#908=AXIS2_PLACEMENT_3D('',#1346,#1124,#1125);
#909=AXIS2_PLACEMENT_3D('',#1347,#1126,#1127);
#910=AXIS2_PLACEMENT_3D('',#1348,#1128,#1129);
#911=AXIS2_PLACEMENT_3D('',#1349,#1130,#1131);
#912=AXIS2_PLACEMENT_3D('',#1350,#1132,#1133);
#913=AXIS2_PLACEMENT_3D('',#1351,#1134,#1135);
#914=AXIS2_PLACEMENT_3D('',#1352,#1136,#1137);
#915=AXIS2_PLACEMENT_3D('',#1353,#1138,#1139);
#916=AXIS2_PLACEMENT_3D('',#1354,#1140,#1141);
#917=AXIS2_PLACEMENT_3D('',#1355,#1142,#1143);
#918=AXIS2_PLACEMENT_3D('',#1356,#1144,#1145);
#919=AXIS2_PLACEMENT_3D('',#1357,#1146,#1147);
#920=AXIS2_PLACEMENT_3D('',#1358,#1148,#1149);
#921=AXIS2_PLACEMENT_3D('',#1359,#1150,#1151);
#922=AXIS2_PLACEMENT_3D('',#1360,#1152,#1153);
#923=AXIS2_PLACEMENT_3D('',#1361,#1154,#1155);
#924=DIRECTION('',(0.,0.,1.));
#925=DIRECTION('',(1.,0.,0.));
#926=DIRECTION('',(1.,0.,0.));
#927=DIRECTION('',(0.,-1.,0.));
#928=DIRECTION('',(0.,0.,1.));
#929=DIRECTION('',(0.,0.707106781186548,-0.707106781186548));
#930=DIRECTION('',(0.,-1.,0.));
#931=DIRECTION('',(0.,-0.707106781186548,-0.707106781186548));
#932=DIRECTION('',(0.,0.,1.));
#933=DIRECTION('',(0.,-0.707106781186548,0.707106781186548));
#934=DIRECTION('',(0.,-1.,0.));
#935=DIRECTION('',(0.,0.707106781186548,0.707106781186548));
#936=DIRECTION('',(0.,0.,1.));
#937=DIRECTION('',(0.,-1.,0.));
#938=DIRECTION('',(0.,0.,1.));
#939=DIRECTION('',(0.,-1.,0.));
#940=DIRECTION('',(0.,0.,1.));
#941=DIRECTION('',(0.,-1.,0.));
#942=DIRECTION('',(0.,0.,1.));
#943=DIRECTION('',(0.,-1.,0.));
#944=DIRECTION('',(0.,0.,1.));
#945=DIRECTION('',(0.,-1.,0.));
#946=DIRECTION('',(0.,0.,1.));
#947=DIRECTION('',(0.,-1.,0.));
#948=DIRECTION('',(0.,0.,1.));
#949=DIRECTION('',(0.,-1.,0.));
#950=DIRECTION('',(0.,0.,1.));
#951=DIRECTION('',(0.,-1.,0.));
#952=DIRECTION('',(0.,0.,1.));
#953=DIRECTION('',(0.,-1.,0.));
#954=DIRECTION('',(0.,0.,1.));
#955=DIRECTION('',(0.,-1.,0.));
#956=DIRECTION('',(0.,0.,1.));
#957=DIRECTION('',(0.,-1.,0.));
#958=DIRECTION('',(0.,0.,1.));
#959=DIRECTION('',(0.,-1.,0.));
#960=DIRECTION('',(0.,0.,1.));
#961=DIRECTION('',(0.,-1.,0.));
#962=DIRECTION('',(0.,0.,1.));
#963=DIRECTION('',(0.,-1.,0.));
#964=DIRECTION('',(0.,0.,1.));
#965=DIRECTION('',(0.,-1.,0.));
#966=DIRECTION('',(0.,0.,1.));
#967=DIRECTION('',(0.,-1.,0.));
#968=DIRECTION('',(0.,-1.,0.));
#969=DIRECTION('',(1.,0.,0.));
#970=DIRECTION('',(-1.,0.,0.));
#971=DIRECTION('',(1.,0.,0.));
#972=DIRECTION('',(0.,-1.,0.));
#973=DIRECTION('',(0.,-1.,0.));
#974=DIRECTION('',(0.,-0.707106781186548,0.707106781186548));
#975=DIRECTION('',(0.,0.,1.));
#976=DIRECTION('',(0.,-0.707106781186548,-0.707106781186548));
#977=DIRECTION('',(0.,0.707106781186548,-0.707106781186548));
#978=DIRECTION('',(0.,0.,1.));
#979=DIRECTION('',(0.,0.707106781186548,0.707106781186548));
#980=DIRECTION('',(0.,0.,1.));
#981=DIRECTION('',(0.,-1.,0.));
#982=DIRECTION('',(0.,0.,-1.));
#983=DIRECTION('',(0.,1.,0.));
#984=DIRECTION('',(0.,0.,-1.));
#985=DIRECTION('',(0.,1.,0.));
#986=DIRECTION('',(0.,0.,-1.));
#987=DIRECTION('',(0.,1.,0.));
#988=DIRECTION('',(0.,0.,-1.));
#989=DIRECTION('',(0.,1.,0.));
#990=DIRECTION('',(0.,0.,-1.));
#991=DIRECTION('',(0.,1.,0.));
#992=DIRECTION('',(0.,0.,-1.));
#993=DIRECTION('',(0.,1.,0.));
#994=DIRECTION('',(0.,0.,-1.));
#995=DIRECTION('',(0.,1.,0.));
#996=DIRECTION('',(0.,0.,-1.));
#997=DIRECTION('',(0.,1.,0.));
#998=DIRECTION('',(0.,0.,-1.));
#999=DIRECTION('',(0.,1.,0.));
#1000=DIRECTION('',(0.,0.,-1.));
#1001=DIRECTION('',(0.,1.,0.));
#1002=DIRECTION('',(0.,0.,-1.));
#1003=DIRECTION('',(0.,1.,0.));
#1004=DIRECTION('',(0.,0.,-1.));
#1005=DIRECTION('',(0.,1.,0.));
#1006=DIRECTION('',(0.,0.,-1.));
#1007=DIRECTION('',(0.,1.,0.));
#1008=DIRECTION('',(0.,0.,-1.));
#1009=DIRECTION('',(0.,1.,0.));
#1010=DIRECTION('',(0.,0.,-1.));
#1011=DIRECTION('',(0.,1.,0.));
#1012=DIRECTION('',(-1.,0.,0.));
#1013=DIRECTION('',(1.,0.,0.));
#1014=DIRECTION('',(0.,1.,0.));
#1015=DIRECTION('',(1.,0.,0.));
#1016=DIRECTION('',(0.,-1.,0.));
#1017=DIRECTION('',(-1.,0.,0.));
#1018=DIRECTION('',(0.,-1.,0.));
#1019=DIRECTION('',(-1.,0.,0.));
#1020=DIRECTION('',(0.,-1.,0.));
#1021=DIRECTION('',(-1.,0.,0.));
#1022=DIRECTION('',(0.,-1.,0.));
#1023=DIRECTION('',(-1.,0.,0.));
#1024=DIRECTION('',(0.,-1.,0.));
#1025=DIRECTION('',(-1.,0.,0.));
#1026=DIRECTION('',(0.,-1.,0.));
#1027=DIRECTION('',(-1.,0.,0.));
#1028=DIRECTION('',(0.,-1.,0.));
#1029=DIRECTION('',(-1.,0.,0.));
#1030=DIRECTION('',(0.,-1.,0.));
#1031=DIRECTION('',(-1.,0.,0.));
#1032=DIRECTION('',(0.,-1.,0.));
#1033=DIRECTION('',(-1.,0.,0.));
#1034=DIRECTION('',(0.,-1.,0.));
#1035=DIRECTION('',(-1.,0.,0.));
#1036=DIRECTION('',(0.,-1.,0.));
#1037=DIRECTION('',(-1.,0.,0.));
#1038=DIRECTION('',(0.,-1.,0.));
#1039=DIRECTION('',(-1.,0.,0.));
#1040=DIRECTION('',(0.,-1.,0.));
#1041=DIRECTION('',(-1.,0.,0.));
#1042=DIRECTION('',(0.,-1.,0.));
#1043=DIRECTION('',(-1.,0.,0.));
#1044=DIRECTION('',(0.,-1.,0.));
#1045=DIRECTION('',(-1.,0.,0.));
#1046=DIRECTION('',(0.,-1.,0.));
#1047=DIRECTION('',(-1.,0.,0.));
#1048=DIRECTION('',(1.,0.,0.));
#1049=DIRECTION('',(-1.,0.,0.));
#1050=DIRECTION('',(0.,1.,0.));
#1051=DIRECTION('',(1.,0.,0.));
#1052=DIRECTION('',(0.,1.,0.));
#1053=DIRECTION('',(1.,0.,0.));
#1054=DIRECTION('',(0.,1.,0.));
#1055=DIRECTION('',(1.,0.,0.));
#1056=DIRECTION('',(0.,1.,0.));
#1057=DIRECTION('',(1.,0.,0.));
#1058=DIRECTION('',(0.,1.,0.));
#1059=DIRECTION('',(1.,0.,0.));
#1060=DIRECTION('',(0.,1.,0.));
#1061=DIRECTION('',(1.,0.,0.));
#1062=DIRECTION('',(0.,1.,0.));
#1063=DIRECTION('',(1.,0.,0.));
#1064=DIRECTION('',(0.,1.,0.));
#1065=DIRECTION('',(1.,0.,0.));
#1066=DIRECTION('',(0.,1.,0.));
#1067=DIRECTION('',(1.,0.,0.));
#1068=DIRECTION('',(0.,1.,0.));
#1069=DIRECTION('',(1.,0.,0.));
#1070=DIRECTION('',(0.,1.,0.));
#1071=DIRECTION('',(1.,0.,0.));
#1072=DIRECTION('',(0.,1.,0.));
#1073=DIRECTION('',(1.,0.,0.));
#1074=DIRECTION('',(0.,1.,0.));
#1075=DIRECTION('',(1.,0.,0.));
#1076=DIRECTION('',(0.,1.,0.));
#1077=DIRECTION('',(1.,0.,0.));
#1078=DIRECTION('',(0.,1.,0.));
#1079=DIRECTION('',(1.,0.,0.));
#1080=DIRECTION('',(0.,1.,0.));
#1081=DIRECTION('',(1.,0.,0.));
#1082=DIRECTION('',(0.,1.,0.));
#1083=DIRECTION('',(1.,0.,0.));
#1084=DIRECTION('',(-1.,0.,0.));
#1085=DIRECTION('',(1.,0.,0.));
#1086=DIRECTION('',(0.,-1.,0.));
#1087=DIRECTION('',(-1.,0.,0.));
#1088=DIRECTION('',(0.,-1.,0.));
#1089=DIRECTION('',(-1.,0.,0.));
#1090=DIRECTION('',(0.,-1.,0.));
#1091=DIRECTION('',(-1.,0.,0.));
#1092=DIRECTION('',(0.,-1.,0.));
#1093=DIRECTION('',(-1.,0.,0.));
#1094=DIRECTION('',(0.,-1.,0.));
#1095=DIRECTION('',(-1.,0.,0.));
#1096=DIRECTION('',(0.,-1.,0.));
#1097=DIRECTION('',(-1.,0.,0.));
#1098=DIRECTION('',(0.,-1.,0.));
#1099=DIRECTION('',(-1.,0.,0.));
#1100=DIRECTION('',(0.,-1.,0.));
#1101=DIRECTION('',(-1.,0.,0.));
#1102=DIRECTION('',(0.,-1.,0.));
#1103=DIRECTION('',(-1.,0.,0.));
#1104=DIRECTION('',(0.,-1.,0.));
#1105=DIRECTION('',(-1.,0.,0.));
#1106=DIRECTION('',(0.,-1.,0.));
#1107=DIRECTION('',(-1.,0.,0.));
#1108=DIRECTION('',(0.,-1.,0.));
#1109=DIRECTION('',(-1.,0.,0.));
#1110=DIRECTION('',(0.,-1.,0.));
#1111=DIRECTION('',(-1.,0.,0.));
#1112=DIRECTION('',(0.,-1.,0.));
#1113=DIRECTION('',(-1.,0.,0.));
#1114=DIRECTION('',(0.,-1.,0.));
#1115=DIRECTION('',(-1.,0.,0.));
#1116=DIRECTION('',(0.,-1.,0.));
#1117=DIRECTION('',(-1.,0.,0.));
#1118=DIRECTION('',(0.,0.,-1.));
#1119=DIRECTION('',(0.,1.,0.));
#1120=DIRECTION('',(0.,0.,-1.));
#1121=DIRECTION('',(0.,1.,0.));
#1122=DIRECTION('',(0.,0.,-1.));
#1123=DIRECTION('',(0.,1.,0.));
#1124=DIRECTION('',(0.,0.,-1.));
#1125=DIRECTION('',(0.,1.,0.));
#1126=DIRECTION('',(0.,0.,-1.));
#1127=DIRECTION('',(0.,1.,0.));
#1128=DIRECTION('',(0.,0.,-1.));
#1129=DIRECTION('',(0.,1.,0.));
#1130=DIRECTION('',(0.,0.,-1.));
#1131=DIRECTION('',(0.,1.,0.));
#1132=DIRECTION('',(0.,0.,-1.));
#1133=DIRECTION('',(0.,1.,0.));
#1134=DIRECTION('',(0.,0.,-1.));
#1135=DIRECTION('',(0.,1.,0.));
#1136=DIRECTION('',(0.,0.,-1.));
#1137=DIRECTION('',(0.,1.,0.));
#1138=DIRECTION('',(0.,0.,-1.));
#1139=DIRECTION('',(0.,1.,0.));
#1140=DIRECTION('',(0.,0.,-1.));
#1141=DIRECTION('',(0.,1.,0.));
#1142=DIRECTION('',(0.,0.,-1.));
#1143=DIRECTION('',(0.,1.,0.));
#1144=DIRECTION('',(0.,0.,-1.));
#1145=DIRECTION('',(0.,1.,0.));
#1146=DIRECTION('',(0.,0.,-1.));
#1147=DIRECTION('',(0.,1.,0.));
#1148=DIRECTION('',(0.,-0.707106781186548,-0.707106781186548));
#1149=DIRECTION('',(-1.,0.,0.));
#1150=DIRECTION('',(0.,-0.707106781186548,0.707106781186548));
#1151=DIRECTION('',(1.,0.,0.));
#1152=DIRECTION('',(0.,0.707106781186548,-0.707106781186548));
#1153=DIRECTION('',(1.,0.,0.));
#1154=DIRECTION('',(0.,0.707106781186548,0.707106781186548));
#1155=DIRECTION('',(-1.,0.,0.));
#1156=CARTESIAN_POINT('',(0.,0.,0.));
#1157=CARTESIAN_POINT('',(10.,0.625,3.46944695195362E-16));
#1158=CARTESIAN_POINT('',(10.,0.625,3.46944695195362E-16));
#1159=CARTESIAN_POINT('',(10.,0.625,-0.575));
#1160=CARTESIAN_POINT('',(10.,0.625,0.575));
#1161=CARTESIAN_POINT('',(10.,0.9125,0.2875));
#1162=CARTESIAN_POINT('',(10.,0.575,0.625));
#1163=CARTESIAN_POINT('',(10.,0.625,0.625));
#1164=CARTESIAN_POINT('',(10.,-0.575,0.625));
#1165=CARTESIAN_POINT('',(10.,-0.2875,0.9125));
#1166=CARTESIAN_POINT('',(10.,-0.625,0.575));
#1167=CARTESIAN_POINT('',(10.,-0.625,3.46944695195362E-16));
#1168=CARTESIAN_POINT('',(10.,-0.625,-0.575));
#1169=CARTESIAN_POINT('',(10.,-0.2875,-0.9125));
#1170=CARTESIAN_POINT('',(10.,-0.575,-0.625));
#1171=CARTESIAN_POINT('',(10.,0.625,-0.625));
#1172=CARTESIAN_POINT('',(10.,0.575,-0.625));
#1173=CARTESIAN_POINT('',(10.,0.9125,-0.2875));
#1174=CARTESIAN_POINT('',(0.,0.625,-0.625));
#1175=CARTESIAN_POINT('',(-8.75,0.,-0.625));
#1176=CARTESIAN_POINT('',(-8.75,-0.21,-0.625));
#1177=CARTESIAN_POINT('',(-7.5,0.,-0.625));
#1178=CARTESIAN_POINT('',(-7.5,-0.21,-0.625));
#1179=CARTESIAN_POINT('',(-6.25,0.,-0.625));
#1180=CARTESIAN_POINT('',(-6.25,-0.21,-0.625));
#1181=CARTESIAN_POINT('',(-5.,0.,-0.625));
#1182=CARTESIAN_POINT('',(-5.,-0.21,-0.625));
#1183=CARTESIAN_POINT('',(-3.75,0.,-0.625));
#1184=CARTESIAN_POINT('',(-3.75,-0.21,-0.625));
#1185=CARTESIAN_POINT('',(-2.5,0.,-0.625));
#1186=CARTESIAN_POINT('',(-2.5,-0.21,-0.625));
#1187=CARTESIAN_POINT('',(-1.25,0.,-0.625));
#1188=CARTESIAN_POINT('',(-1.25,-0.21,-0.625));
#1189=CARTESIAN_POINT('',(-1.38777878078145E-15,0.,-0.625));
#1190=CARTESIAN_POINT('',(-1.38777878078145E-15,-0.21,-0.625));
#1191=CARTESIAN_POINT('',(1.25,0.,-0.625));
#1192=CARTESIAN_POINT('',(1.25,-0.21,-0.625));
#1193=CARTESIAN_POINT('',(2.5,0.,-0.625));
#1194=CARTESIAN_POINT('',(2.5,-0.21,-0.625));
#1195=CARTESIAN_POINT('',(3.75,0.,-0.625));
#1196=CARTESIAN_POINT('',(3.75,-0.21,-0.625));
#1197=CARTESIAN_POINT('',(5.,0.,-0.625));
#1198=CARTESIAN_POINT('',(5.,-0.21,-0.625));
#1199=CARTESIAN_POINT('',(6.25,0.,-0.625));
#1200=CARTESIAN_POINT('',(6.25,-0.21,-0.625));
#1201=CARTESIAN_POINT('',(7.5,0.,-0.625));
#1202=CARTESIAN_POINT('',(7.5,-0.21,-0.625));
#1203=CARTESIAN_POINT('',(8.75,0.,-0.625));
#1204=CARTESIAN_POINT('',(8.75,-0.21,-0.625));
#1205=CARTESIAN_POINT('',(-10.,0.625,-0.625));
#1206=CARTESIAN_POINT('',(-10.,0.575,-0.625));
#1207=CARTESIAN_POINT('',(-10.,-0.575,-0.625));
#1208=CARTESIAN_POINT('',(10.,0.575,-0.625));
#1209=CARTESIAN_POINT('',(0.,-0.575,-0.625));
#1210=CARTESIAN_POINT('',(-10.,0.625,3.46944695195362E-16));
#1211=CARTESIAN_POINT('',(-10.,0.625,0.625));
#1212=CARTESIAN_POINT('',(-10.,0.575,0.625));
#1213=CARTESIAN_POINT('',(-10.,-0.575,0.625));
#1214=CARTESIAN_POINT('',(-10.,0.575,0.625));
#1215=CARTESIAN_POINT('',(-10.,0.625,0.575));
#1216=CARTESIAN_POINT('',(-10.,0.625,3.46944695195362E-16));
#1217=CARTESIAN_POINT('',(-10.,0.625,-0.575));
#1218=CARTESIAN_POINT('',(-10.,0.625,-0.575));
#1219=CARTESIAN_POINT('',(-10.,-0.575,-0.625));
#1220=CARTESIAN_POINT('',(-10.,-0.625,-0.575));
#1221=CARTESIAN_POINT('',(-10.,-0.625,3.46944695195362E-16));
#1222=CARTESIAN_POINT('',(-10.,-0.625,0.575));
#1223=CARTESIAN_POINT('',(-10.,-0.625,0.575));
#1224=CARTESIAN_POINT('',(0.,0.625,0.625));
#1225=CARTESIAN_POINT('',(-8.75,0.,0.625));
#1226=CARTESIAN_POINT('',(-8.75,0.21,0.625));
#1227=CARTESIAN_POINT('',(-7.5,0.,0.625));
#1228=CARTESIAN_POINT('',(-7.5,0.21,0.625));
#1229=CARTESIAN_POINT('',(-6.25,0.,0.625));
#1230=CARTESIAN_POINT('',(-6.25,0.21,0.625));
#1231=CARTESIAN_POINT('',(-5.,0.,0.625));
#1232=CARTESIAN_POINT('',(-5.,0.21,0.625));
#1233=CARTESIAN_POINT('',(-3.75,0.,0.625));
#1234=CARTESIAN_POINT('',(-3.75,0.21,0.625));
#1235=CARTESIAN_POINT('',(-2.5,0.,0.625));
#1236=CARTESIAN_POINT('',(-2.5,0.21,0.625));
#1237=CARTESIAN_POINT('',(-1.25,0.,0.625));
#1238=CARTESIAN_POINT('',(-1.25,0.21,0.625));
#1239=CARTESIAN_POINT('',(-1.38777878078145E-15,0.,0.625));
#1240=CARTESIAN_POINT('',(-1.38777878078145E-15,0.21,0.625));
#1241=CARTESIAN_POINT('',(1.25,0.,0.625));
#1242=CARTESIAN_POINT('',(1.25,0.21,0.625));
#1243=CARTESIAN_POINT('',(2.5,0.,0.625));
#1244=CARTESIAN_POINT('',(2.5,0.21,0.625));
#1245=CARTESIAN_POINT('',(3.75,0.,0.625));
#1246=CARTESIAN_POINT('',(3.75,0.21,0.625));
#1247=CARTESIAN_POINT('',(5.,0.,0.625));
#1248=CARTESIAN_POINT('',(5.,0.21,0.625));
#1249=CARTESIAN_POINT('',(6.25,0.,0.625));
#1250=CARTESIAN_POINT('',(6.25,0.21,0.625));
#1251=CARTESIAN_POINT('',(7.5,0.,0.625));
#1252=CARTESIAN_POINT('',(7.5,0.21,0.625));
#1253=CARTESIAN_POINT('',(8.75,0.,0.625));
#1254=CARTESIAN_POINT('',(8.75,0.21,0.625));
#1255=CARTESIAN_POINT('',(0.,0.575,0.625));
#1256=CARTESIAN_POINT('',(10.,-0.575,0.625));
#1257=CARTESIAN_POINT('',(0.,0.625,3.46944695195362E-16));
#1258=CARTESIAN_POINT('',(-9.375,0.625,0.));
#1259=CARTESIAN_POINT('',(-9.585,0.625,0.));
#1260=CARTESIAN_POINT('',(-8.125,0.625,0.));
#1261=CARTESIAN_POINT('',(-8.335,0.625,0.));
#1262=CARTESIAN_POINT('',(-6.875,0.625,0.));
#1263=CARTESIAN_POINT('',(-7.085,0.625,0.));
#1264=CARTESIAN_POINT('',(-5.625,0.625,0.));
#1265=CARTESIAN_POINT('',(-5.835,0.625,0.));
#1266=CARTESIAN_POINT('',(-4.375,0.625,0.));
#1267=CARTESIAN_POINT('',(-4.585,0.625,0.));
#1268=CARTESIAN_POINT('',(-3.125,0.625,0.));
#1269=CARTESIAN_POINT('',(-3.335,0.625,0.));
#1270=CARTESIAN_POINT('',(-1.875,0.625,0.));
#1271=CARTESIAN_POINT('',(-2.085,0.625,0.));
#1272=CARTESIAN_POINT('',(-0.625,0.625,0.));
#1273=CARTESIAN_POINT('',(-0.835,0.625,0.));
#1274=CARTESIAN_POINT('',(0.625,0.625,0.));
#1275=CARTESIAN_POINT('',(0.415,0.625,0.));
#1276=CARTESIAN_POINT('',(1.875,0.625,0.));
#1277=CARTESIAN_POINT('',(1.665,0.625,0.));
#1278=CARTESIAN_POINT('',(3.125,0.625,0.));
#1279=CARTESIAN_POINT('',(2.915,0.625,0.));
#1280=CARTESIAN_POINT('',(4.375,0.625,0.));
#1281=CARTESIAN_POINT('',(4.165,0.625,0.));
#1282=CARTESIAN_POINT('',(5.625,0.625,0.));
#1283=CARTESIAN_POINT('',(5.415,0.625,0.));
#1284=CARTESIAN_POINT('',(6.875,0.625,0.));
#1285=CARTESIAN_POINT('',(6.665,0.625,0.));
#1286=CARTESIAN_POINT('',(8.125,0.625,0.));
#1287=CARTESIAN_POINT('',(7.915,0.625,0.));
#1288=CARTESIAN_POINT('',(9.375,0.625,0.));
#1289=CARTESIAN_POINT('',(9.165,0.625,0.));
#1290=CARTESIAN_POINT('',(0.,0.625,0.575));
#1291=CARTESIAN_POINT('',(-10.,0.625,-0.575));
#1292=CARTESIAN_POINT('',(0.,-0.625,3.46944695195362E-16));
#1293=CARTESIAN_POINT('',(-9.375,-0.625,0.));
#1294=CARTESIAN_POINT('',(-9.165,-0.625,0.));
#1295=CARTESIAN_POINT('',(-8.125,-0.625,0.));
#1296=CARTESIAN_POINT('',(-7.915,-0.625,0.));
#1297=CARTESIAN_POINT('',(-6.875,-0.625,0.));
#1298=CARTESIAN_POINT('',(-6.665,-0.625,0.));
#1299=CARTESIAN_POINT('',(-5.625,-0.625,0.));
#1300=CARTESIAN_POINT('',(-5.415,-0.625,0.));
#1301=CARTESIAN_POINT('',(-4.375,-0.625,0.));
#1302=CARTESIAN_POINT('',(-4.165,-0.625,0.));
#1303=CARTESIAN_POINT('',(-3.125,-0.625,0.));
#1304=CARTESIAN_POINT('',(-2.915,-0.625,0.));
#1305=CARTESIAN_POINT('',(-1.875,-0.625,0.));
#1306=CARTESIAN_POINT('',(-1.665,-0.625,0.));
#1307=CARTESIAN_POINT('',(-0.625,-0.625,0.));
#1308=CARTESIAN_POINT('',(-0.415,-0.625,0.));
#1309=CARTESIAN_POINT('',(0.625,-0.625,0.));
#1310=CARTESIAN_POINT('',(0.835,-0.625,0.));
#1311=CARTESIAN_POINT('',(1.875,-0.625,0.));
#1312=CARTESIAN_POINT('',(2.085,-0.625,0.));
#1313=CARTESIAN_POINT('',(3.125,-0.625,0.));
#1314=CARTESIAN_POINT('',(3.335,-0.625,0.));
#1315=CARTESIAN_POINT('',(4.375,-0.625,0.));
#1316=CARTESIAN_POINT('',(4.585,-0.625,0.));
#1317=CARTESIAN_POINT('',(5.625,-0.625,0.));
#1318=CARTESIAN_POINT('',(5.835,-0.625,0.));
#1319=CARTESIAN_POINT('',(6.875,-0.625,0.));
#1320=CARTESIAN_POINT('',(7.085,-0.625,0.));
#1321=CARTESIAN_POINT('',(8.125,-0.625,0.));
#1322=CARTESIAN_POINT('',(8.335,-0.625,0.));
#1323=CARTESIAN_POINT('',(9.375,-0.625,0.));
#1324=CARTESIAN_POINT('',(9.585,-0.625,0.));
#1325=CARTESIAN_POINT('',(-10.,-0.625,0.575));
#1326=CARTESIAN_POINT('',(0.,-0.625,-0.575));
#1327=CARTESIAN_POINT('',(9.375,0.625,0.));
#1328=CARTESIAN_POINT('',(8.125,0.625,0.));
#1329=CARTESIAN_POINT('',(6.875,0.625,0.));
#1330=CARTESIAN_POINT('',(5.625,0.625,0.));
#1331=CARTESIAN_POINT('',(4.375,0.625,0.));
#1332=CARTESIAN_POINT('',(3.125,0.625,0.));
#1333=CARTESIAN_POINT('',(1.875,0.625,0.));
#1334=CARTESIAN_POINT('',(0.625,0.625,0.));
#1335=CARTESIAN_POINT('',(-0.625,0.625,0.));
#1336=CARTESIAN_POINT('',(-1.875,0.625,0.));
#1337=CARTESIAN_POINT('',(-3.125,0.625,0.));
#1338=CARTESIAN_POINT('',(-4.375,0.625,0.));
#1339=CARTESIAN_POINT('',(-5.625,0.625,0.));
#1340=CARTESIAN_POINT('',(-6.875,0.625,0.));
#1341=CARTESIAN_POINT('',(-8.125,0.625,0.));
#1342=CARTESIAN_POINT('',(-9.375,0.625,0.));
#1343=CARTESIAN_POINT('',(8.75,0.,0.625));
#1344=CARTESIAN_POINT('',(7.5,0.,0.625));
#1345=CARTESIAN_POINT('',(6.25,0.,0.625));
#1346=CARTESIAN_POINT('',(5.,0.,0.625));
#1347=CARTESIAN_POINT('',(3.75,0.,0.625));
#1348=CARTESIAN_POINT('',(2.5,0.,0.625));
#1349=CARTESIAN_POINT('',(1.25,0.,0.625));
#1350=CARTESIAN_POINT('',(-1.38777878078145E-15,0.,0.625));
#1351=CARTESIAN_POINT('',(-1.25,0.,0.625));
#1352=CARTESIAN_POINT('',(-2.5,0.,0.625));
#1353=CARTESIAN_POINT('',(-3.75,0.,0.625));
#1354=CARTESIAN_POINT('',(-5.,0.,0.625));
#1355=CARTESIAN_POINT('',(-6.25,0.,0.625));
#1356=CARTESIAN_POINT('',(-7.5,0.,0.625));
#1357=CARTESIAN_POINT('',(-8.75,0.,0.625));
#1358=CARTESIAN_POINT('',(0.,0.575,0.625));
#1359=CARTESIAN_POINT('',(0.,-0.625,0.575));
#1360=CARTESIAN_POINT('',(0.,0.625,-0.575));
#1361=CARTESIAN_POINT('',(0.,-0.575,-0.625));
#1362=MECHANICAL_DESIGN_GEOMETRIC_PRESENTATION_REPRESENTATION('',(#809),
#1363);
#1363=(
GEOMETRIC_REPRESENTATION_CONTEXT(3)
GLOBAL_UNCERTAINTY_ASSIGNED_CONTEXT((#1364))
GLOBAL_UNIT_ASSIGNED_CONTEXT((#1367,#1366,#1365))
REPRESENTATION_CONTEXT('???','TOP_LEVEL_ASSEMBLY_PART')
);
#1364=UNCERTAINTY_MEASURE_WITH_UNIT(LENGTH_MEASURE(1.E-6),#1367,
'DISTANCE_ACCURACY_VALUE','Maximum Tolerance applied to model');
#1365=(
NAMED_UNIT(*)
SI_UNIT($,.STERADIAN.)
SOLID_ANGLE_UNIT()
);
#1366=(
NAMED_UNIT(*)
PLANE_ANGLE_UNIT()
SI_UNIT($,.RADIAN.)
);
#1367=(
LENGTH_UNIT()
NAMED_UNIT(*)
SI_UNIT(.CENTI.,.METRE.)
);
#1368=PRODUCT_DEFINITION_SHAPE('','',#1369);
#1369=PRODUCT_DEFINITION('','',#1371,#1370);
#1370=PRODUCT_DEFINITION_CONTEXT('',#1377,'design');
#1371=PRODUCT_DEFINITION_FORMATION_WITH_SPECIFIED_SOURCE('','',#1373,
 .NOT_KNOWN.);
#1372=PRODUCT_RELATED_PRODUCT_CATEGORY('','',(#1373));
#1373=PRODUCT('???','???','???',(#1375));
#1374=PRODUCT_CATEGORY('','');
#1375=PRODUCT_CONTEXT('',#1377,'mechanical');
#1376=APPLICATION_PROTOCOL_DEFINITION('international standard',
'ap242_managed_model_based_3d_engineering',2020,#1377);
#1377=APPLICATION_CONTEXT('managed model based 3d engineering');
ENDSEC;
END-ISO-10303-21;
