ISO-10303-21;
HEADER;
/* Generated by software containing ST-Developer
 * from STEP Tools, Inc. (www.steptools.com) 
 */
/* OPTION: using custom renumber hook */

FILE_DESCRIPTION(
/* description */ ('STEP AP242 Edition 2',
'CAx-IF Rec.Pracs.---Representation and Presentation of Product Manufa
cturing Information (PMI)---4.0---2014-10-13',
'CAx-IF Rec.Pracs.---3D Tessellated Geometry---0.4---2014-09-14','2;1',
'CAx-IF Rec.Pracs.---User Defined Attributes---1.5---2016-08-15'),
/* implementation_level */ '2;1');

FILE_NAME(
/* name */ '695c8550baceafa1c2b3cc3f',
/* time_stamp */ '2026-01-06T03:45:21Z',
/* author */ (''),
/* organization */ (''),
/* preprocessor_version */ 'ST-DEVELOPER v20',
/* originating_system */ 'ONSHAPE BY PTC INC, 1.208',
/* authorisation */ '  ');

FILE_SCHEMA (('AP242_MANAGED_MODEL_BASED_3D_ENGINEERING_MIM_LF { 1 0 10303 442 3 1 4 }'));
ENDSEC;

DATA;
#10=SHAPE_REPRESENTATION_RELATIONSHIP('','',#220,#11);
#11=ADVANCED_BREP_SHAPE_REPRESENTATION('',(#218),#352);
#12=OVER_RIDING_STYLED_ITEM('',(#175),#166,#173);
#13=OVER_RIDING_STYLED_ITEM('',(#176),#167,#173);
#14=OVER_RIDING_STYLED_ITEM('',(#177),#168,#173);
#15=OVER_RIDING_STYLED_ITEM('',(#178),#169,#173);
#16=OVER_RIDING_STYLED_ITEM('',(#179),#170,#173);
#17=OVER_RIDING_STYLED_ITEM('',(#180),#171,#173);
#18=CYLINDRICAL_SURFACE('',#228,1.42875);
#19=CYLINDRICAL_SURFACE('',#233,1.556);
#20=CYLINDRICAL_SURFACE('',#239,0.6875);
#21=CYLINDRICAL_SURFACE('',#240,0.96);
#22=CYLINDRICAL_SURFACE('',#242,1.229);
#23=CYLINDRICAL_SURFACE('',#245,0.96);
#24=CYLINDRICAL_SURFACE('',#247,1.229);
#25=ORIENTED_EDGE('',*,*,#53,.T.);
#26=ORIENTED_EDGE('',*,*,#54,.F.);
#27=ORIENTED_EDGE('',*,*,#55,.F.);
#28=ORIENTED_EDGE('',*,*,#56,.T.);
#29=ORIENTED_EDGE('',*,*,#57,.F.);
#30=ORIENTED_EDGE('',*,*,#58,.T.);
#31=ORIENTED_EDGE('',*,*,#59,.T.);
#32=ORIENTED_EDGE('',*,*,#58,.F.);
#33=ORIENTED_EDGE('',*,*,#60,.F.);
#34=ORIENTED_EDGE('',*,*,#61,.T.);
#35=ORIENTED_EDGE('',*,*,#62,.F.);
#36=ORIENTED_EDGE('',*,*,#60,.T.);
#37=ORIENTED_EDGE('',*,*,#57,.T.);
#38=ORIENTED_EDGE('',*,*,#61,.F.);
#39=ORIENTED_EDGE('',*,*,#55,.T.);
#40=ORIENTED_EDGE('',*,*,#53,.F.);
#41=ORIENTED_EDGE('',*,*,#63,.T.);
#42=ORIENTED_EDGE('',*,*,#56,.F.);
#43=ORIENTED_EDGE('',*,*,#64,.F.);
#44=ORIENTED_EDGE('',*,*,#62,.T.);
#45=ORIENTED_EDGE('',*,*,#63,.F.);
#46=ORIENTED_EDGE('',*,*,#64,.T.);
#47=ORIENTED_EDGE('',*,*,#65,.F.);
#48=ORIENTED_EDGE('',*,*,#54,.T.);
#49=ORIENTED_EDGE('',*,*,#66,.T.);
#50=ORIENTED_EDGE('',*,*,#59,.F.);
#51=ORIENTED_EDGE('',*,*,#65,.T.);
#52=ORIENTED_EDGE('',*,*,#66,.F.);
#53=EDGE_CURVE('',#67,#67,#81,.T.);
#54=EDGE_CURVE('',#68,#68,#82,.T.);
#55=EDGE_CURVE('',#69,#69,#83,.T.);
#56=EDGE_CURVE('',#70,#70,#84,.T.);
#57=EDGE_CURVE('',#71,#71,#85,.T.);
#58=EDGE_CURVE('',#72,#72,#86,.T.);
#59=EDGE_CURVE('',#73,#73,#87,.T.);
#60=EDGE_CURVE('',#74,#74,#88,.T.);
#61=EDGE_CURVE('',#75,#75,#89,.T.);
#62=EDGE_CURVE('',#76,#76,#90,.T.);
#63=EDGE_CURVE('',#77,#77,#91,.T.);
#64=EDGE_CURVE('',#78,#78,#92,.T.);
#65=EDGE_CURVE('',#79,#79,#93,.T.);
#66=EDGE_CURVE('',#80,#80,#94,.T.);
#67=VERTEX_POINT('',#311);
#68=VERTEX_POINT('',#313);
#69=VERTEX_POINT('',#316);
#70=VERTEX_POINT('',#318);
#71=VERTEX_POINT('',#321);
#72=VERTEX_POINT('',#323);
#73=VERTEX_POINT('',#326);
#74=VERTEX_POINT('',#329);
#75=VERTEX_POINT('',#331);
#76=VERTEX_POINT('',#334);
#77=VERTEX_POINT('',#339);
#78=VERTEX_POINT('',#342);
#79=VERTEX_POINT('',#346);
#80=VERTEX_POINT('',#349);
#81=CIRCLE('',#223,0.6875);
#82=CIRCLE('',#224,0.96);
#83=CIRCLE('',#226,0.6875);
#84=CIRCLE('',#227,0.96);
#85=CIRCLE('',#229,1.42875);
#86=CIRCLE('',#230,1.42875);
#87=CIRCLE('',#232,1.229);
#88=CIRCLE('',#234,1.556);
#89=CIRCLE('',#235,1.556);
#90=CIRCLE('',#237,1.229);
#91=CIRCLE('',#241,0.96);
#92=CIRCLE('',#243,1.229);
#93=CIRCLE('',#246,0.96);
#94=CIRCLE('',#248,1.229);
#95=EDGE_LOOP('',(#25));
#96=EDGE_LOOP('',(#26));
#97=EDGE_LOOP('',(#27));
#98=EDGE_LOOP('',(#28));
#99=EDGE_LOOP('',(#29));
#100=EDGE_LOOP('',(#30));
#101=EDGE_LOOP('',(#31));
#102=EDGE_LOOP('',(#32));
#103=EDGE_LOOP('',(#33));
#104=EDGE_LOOP('',(#34));
#105=EDGE_LOOP('',(#35));
#106=EDGE_LOOP('',(#36));
#107=EDGE_LOOP('',(#37));
#108=EDGE_LOOP('',(#38));
#109=EDGE_LOOP('',(#39));
#110=EDGE_LOOP('',(#40));
#111=EDGE_LOOP('',(#41));
#112=EDGE_LOOP('',(#42));
#113=EDGE_LOOP('',(#43));
#114=EDGE_LOOP('',(#44));
#115=EDGE_LOOP('',(#45));
#116=EDGE_LOOP('',(#46));
#117=EDGE_LOOP('',(#47));
#118=EDGE_LOOP('',(#48));
#119=EDGE_LOOP('',(#49));
#120=EDGE_LOOP('',(#50));
#121=EDGE_LOOP('',(#51));
#122=EDGE_LOOP('',(#52));
#123=FACE_BOUND('',#95,.T.);
#124=FACE_BOUND('',#96,.T.);
#125=FACE_BOUND('',#97,.T.);
#126=FACE_BOUND('',#98,.T.);
#127=FACE_BOUND('',#99,.T.);
#128=FACE_BOUND('',#100,.T.);
#129=FACE_BOUND('',#101,.T.);
#130=FACE_BOUND('',#102,.T.);
#131=FACE_BOUND('',#103,.T.);
#132=FACE_BOUND('',#104,.T.);
#133=FACE_BOUND('',#105,.T.);
#134=FACE_BOUND('',#106,.T.);
#135=FACE_BOUND('',#107,.T.);
#136=FACE_BOUND('',#108,.T.);
#137=FACE_BOUND('',#109,.T.);
#138=FACE_BOUND('',#110,.T.);
#139=FACE_BOUND('',#111,.T.);
#140=FACE_BOUND('',#112,.T.);
#141=FACE_BOUND('',#113,.T.);
#142=FACE_BOUND('',#114,.T.);
#143=FACE_BOUND('',#115,.T.);
#144=FACE_BOUND('',#116,.T.);
#145=FACE_BOUND('',#117,.T.);
#146=FACE_BOUND('',#118,.T.);
#147=FACE_BOUND('',#119,.T.);
#148=FACE_BOUND('',#120,.T.);
#149=FACE_BOUND('',#121,.T.);
#150=FACE_BOUND('',#122,.T.);
#151=PLANE('',#222);
#152=PLANE('',#225);
#153=PLANE('',#231);
#154=PLANE('',#236);
#155=PLANE('',#238);
#156=PLANE('',#244);
#157=PLANE('',#249);
#158=ADVANCED_FACE('',(#123,#124),#151,.F.);
#159=ADVANCED_FACE('',(#125,#126),#152,.T.);
#160=ADVANCED_FACE('',(#127,#128),#18,.T.);
#161=ADVANCED_FACE('',(#129,#130),#153,.F.);
#162=ADVANCED_FACE('',(#131,#132),#19,.T.);
#163=ADVANCED_FACE('',(#133,#134),#154,.T.);
#164=ADVANCED_FACE('',(#135,#136),#155,.F.);
#165=ADVANCED_FACE('',(#137,#138),#20,.F.);
#166=ADVANCED_FACE('Face appearance 1',(#139,#140),#21,.T.);
#167=ADVANCED_FACE('Face appearance 1',(#141,#142),#22,.F.);
#168=ADVANCED_FACE('Face appearance 1',(#143,#144),#156,.T.);
#169=ADVANCED_FACE('Face appearance 2',(#145,#146),#23,.T.);
#170=ADVANCED_FACE('Face appearance 2',(#147,#148),#24,.F.);
#171=ADVANCED_FACE('Face appearance 2',(#149,#150),#157,.F.);
#172=CLOSED_SHELL('',(#158,#159,#160,#161,#162,#163,#164,#165,#166,#167,
#168,#169,#170,#171));
#173=STYLED_ITEM('',(#174),#218);
#174=PRESENTATION_STYLE_ASSIGNMENT((#181));
#175=PRESENTATION_STYLE_ASSIGNMENT((#182));
#176=PRESENTATION_STYLE_ASSIGNMENT((#183));
#177=PRESENTATION_STYLE_ASSIGNMENT((#184));
#178=PRESENTATION_STYLE_ASSIGNMENT((#185));
#179=PRESENTATION_STYLE_ASSIGNMENT((#186));
#180=PRESENTATION_STYLE_ASSIGNMENT((#187));
#181=SURFACE_STYLE_USAGE(.BOTH.,#188);
#182=SURFACE_STYLE_USAGE(.BOTH.,#189);
#183=SURFACE_STYLE_USAGE(.BOTH.,#190);
#184=SURFACE_STYLE_USAGE(.BOTH.,#191);
#185=SURFACE_STYLE_USAGE(.BOTH.,#192);
#186=SURFACE_STYLE_USAGE(.BOTH.,#193);
#187=SURFACE_STYLE_USAGE(.BOTH.,#194);
#188=SURFACE_SIDE_STYLE('',(#195));
#189=SURFACE_SIDE_STYLE('',(#196));
#190=SURFACE_SIDE_STYLE('',(#197));
#191=SURFACE_SIDE_STYLE('',(#198));
#192=SURFACE_SIDE_STYLE('',(#199));
#193=SURFACE_SIDE_STYLE('',(#200));
#194=SURFACE_SIDE_STYLE('',(#201));
#195=SURFACE_STYLE_FILL_AREA(#202);
#196=SURFACE_STYLE_FILL_AREA(#203);
#197=SURFACE_STYLE_FILL_AREA(#204);
#198=SURFACE_STYLE_FILL_AREA(#205);
#199=SURFACE_STYLE_FILL_AREA(#206);
#200=SURFACE_STYLE_FILL_AREA(#207);
#201=SURFACE_STYLE_FILL_AREA(#208);
#202=FILL_AREA_STYLE('',(#209));
#203=FILL_AREA_STYLE('',(#210));
#204=FILL_AREA_STYLE('',(#211));
#205=FILL_AREA_STYLE('',(#212));
#206=FILL_AREA_STYLE('',(#213));
#207=FILL_AREA_STYLE('',(#214));
#208=FILL_AREA_STYLE('',(#215));
#209=FILL_AREA_STYLE_COLOUR('',#216);
#210=FILL_AREA_STYLE_COLOUR('',#217);
#211=FILL_AREA_STYLE_COLOUR('',#217);
#212=FILL_AREA_STYLE_COLOUR('',#217);
#213=FILL_AREA_STYLE_COLOUR('',#217);
#214=FILL_AREA_STYLE_COLOUR('',#217);
#215=FILL_AREA_STYLE_COLOUR('',#217);
#216=COLOUR_RGB('',0.917647058823529,0.917647058823529,0.917647058823529);
#217=COLOUR_RGB('',0.901960784313726,0.87843137254902,0.811764705882353);
#218=MANIFOLD_SOLID_BREP('\X2\6CD551708F74627F\X0\-13.75',#172);
#219=SHAPE_DEFINITION_REPRESENTATION(#357,#220);
#220=SHAPE_REPRESENTATION('????-13.75',(#221),#352);
#221=AXIS2_PLACEMENT_3D('',#308,#250,#251);
#222=AXIS2_PLACEMENT_3D('',#309,#252,#253);
#223=AXIS2_PLACEMENT_3D('',#310,#254,#255);
#224=AXIS2_PLACEMENT_3D('',#312,#256,#257);
#225=AXIS2_PLACEMENT_3D('',#314,#258,#259);
#226=AXIS2_PLACEMENT_3D('',#315,#260,#261);
#227=AXIS2_PLACEMENT_3D('',#317,#262,#263);
#228=AXIS2_PLACEMENT_3D('',#319,#264,#265);
#229=AXIS2_PLACEMENT_3D('',#320,#266,#267);
#230=AXIS2_PLACEMENT_3D('',#322,#268,#269);
#231=AXIS2_PLACEMENT_3D('',#324,#270,#271);
#232=AXIS2_PLACEMENT_3D('',#325,#272,#273);
#233=AXIS2_PLACEMENT_3D('',#327,#274,#275);
#234=AXIS2_PLACEMENT_3D('',#328,#276,#277);
#235=AXIS2_PLACEMENT_3D('',#330,#278,#279);
#236=AXIS2_PLACEMENT_3D('',#332,#280,#281);
#237=AXIS2_PLACEMENT_3D('',#333,#282,#283);
#238=AXIS2_PLACEMENT_3D('',#335,#284,#285);
#239=AXIS2_PLACEMENT_3D('',#336,#286,#287);
#240=AXIS2_PLACEMENT_3D('',#337,#288,#289);
#241=AXIS2_PLACEMENT_3D('',#338,#290,#291);
#242=AXIS2_PLACEMENT_3D('',#340,#292,#293);
#243=AXIS2_PLACEMENT_3D('',#341,#294,#295);
#244=AXIS2_PLACEMENT_3D('',#343,#296,#297);
#245=AXIS2_PLACEMENT_3D('',#344,#298,#299);
#246=AXIS2_PLACEMENT_3D('',#345,#300,#301);
#247=AXIS2_PLACEMENT_3D('',#347,#302,#303);
#248=AXIS2_PLACEMENT_3D('',#348,#304,#305);
#249=AXIS2_PLACEMENT_3D('',#350,#306,#307);
#250=DIRECTION('',(0.,0.,1.));
#251=DIRECTION('',(1.,0.,0.));
#252=DIRECTION('',(0.,1.,0.));
#253=DIRECTION('',(1.,0.,0.));
#254=DIRECTION('',(0.,1.,0.));
#255=DIRECTION('',(1.,0.,0.));
#256=DIRECTION('',(0.,1.,0.));
#257=DIRECTION('',(1.,0.,0.));
#258=DIRECTION('',(0.,1.,0.));
#259=DIRECTION('',(1.,0.,0.));
#260=DIRECTION('',(0.,1.,0.));
#261=DIRECTION('',(1.,0.,0.));
#262=DIRECTION('',(0.,1.,0.));
#263=DIRECTION('',(1.,0.,0.));
#264=DIRECTION('',(0.,-1.,0.));
#265=DIRECTION('',(-1.,0.,0.));
#266=DIRECTION('',(0.,1.,0.));
#267=DIRECTION('',(1.,0.,0.));
#268=DIRECTION('',(0.,1.,0.));
#269=DIRECTION('',(1.,0.,0.));
#270=DIRECTION('',(0.,1.,0.));
#271=DIRECTION('',(1.,0.,0.));
#272=DIRECTION('',(0.,1.,0.));
#273=DIRECTION('',(1.,0.,0.));
#274=DIRECTION('',(0.,-1.,0.));
#275=DIRECTION('',(-1.,0.,0.));
#276=DIRECTION('',(0.,1.,0.));
#277=DIRECTION('',(1.,0.,0.));
#278=DIRECTION('',(0.,1.,0.));
#279=DIRECTION('',(1.,0.,0.));
#280=DIRECTION('',(0.,1.,0.));
#281=DIRECTION('',(1.,0.,0.));
#282=DIRECTION('',(0.,1.,0.));
#283=DIRECTION('',(1.,0.,0.));
#284=DIRECTION('',(0.,1.,0.));
#285=DIRECTION('',(1.,0.,0.));
#286=DIRECTION('',(0.,1.,0.));
#287=DIRECTION('',(1.,0.,0.));
#288=DIRECTION('',(0.,1.,0.));
#289=DIRECTION('',(1.,0.,0.));
#290=DIRECTION('',(0.,1.,0.));
#291=DIRECTION('',(1.,0.,0.));
#292=DIRECTION('',(0.,1.,0.));
#293=DIRECTION('',(1.,0.,0.));
#294=DIRECTION('',(0.,1.,0.));
#295=DIRECTION('',(1.,0.,0.));
#296=DIRECTION('',(0.,1.,0.));
#297=DIRECTION('',(1.,0.,0.));
#298=DIRECTION('',(0.,-1.,0.));
#299=DIRECTION('',(-1.,0.,0.));
#300=DIRECTION('',(0.,1.,0.));
#301=DIRECTION('',(1.,0.,0.));
#302=DIRECTION('',(0.,-1.,0.));
#303=DIRECTION('',(-1.,0.,0.));
#304=DIRECTION('',(0.,1.,0.));
#305=DIRECTION('',(1.,0.,0.));
#306=DIRECTION('',(0.,1.,0.));
#307=DIRECTION('',(1.,0.,0.));
#308=CARTESIAN_POINT('',(0.,0.,0.));
#309=CARTESIAN_POINT('',(0.,0.,0.));
#310=CARTESIAN_POINT('',(0.,0.,-4.20972337206903E-17));
#311=CARTESIAN_POINT('',(0.6875,0.,-4.20972337206903E-17));
#312=CARTESIAN_POINT('',(0.,0.,-1.00880280079763E-16));
#313=CARTESIAN_POINT('',(0.96,0.,-1.00880280079763E-16));
#314=CARTESIAN_POINT('',(0.,0.794,-3.46944695195362E-16));
#315=CARTESIAN_POINT('',(0.,0.794,-4.20972337206903E-17));
#316=CARTESIAN_POINT('',(0.6875,0.794,-4.20972337206903E-17));
#317=CARTESIAN_POINT('',(0.,0.794,-1.00880280079763E-16));
#318=CARTESIAN_POINT('',(0.96,0.794,-1.00880280079763E-16));
#319=CARTESIAN_POINT('',(0.,0.635,-8.74857057140891E-17));
#320=CARTESIAN_POINT('',(0.,0.635,-8.74857057140891E-17));
#321=CARTESIAN_POINT('',(1.42875,0.635,-8.74857057140891E-17));
#322=CARTESIAN_POINT('',(0.,0.,-8.74857057140891E-17));
#323=CARTESIAN_POINT('',(1.42875,0.,-8.74857057140891E-17));
#324=CARTESIAN_POINT('',(0.,0.,0.));
#325=CARTESIAN_POINT('',(0.,0.,-1.17351779528295E-16));
#326=CARTESIAN_POINT('',(1.229,0.,-1.17351779528295E-16));
#327=CARTESIAN_POINT('',(0.,0.794,-1.82763226687753E-16));
#328=CARTESIAN_POINT('',(0.,0.794,-1.82763226687753E-16));
#329=CARTESIAN_POINT('',(1.556,0.794,-1.82763226687753E-16));
#330=CARTESIAN_POINT('',(0.,0.635,-1.82763226687753E-16));
#331=CARTESIAN_POINT('',(1.556,0.635,-1.82763226687753E-16));
#332=CARTESIAN_POINT('',(0.,0.794,-3.46944695195362E-16));
#333=CARTESIAN_POINT('',(0.,0.794,-1.17351779528295E-16));
#334=CARTESIAN_POINT('',(1.229,0.794,-1.17351779528295E-16));
#335=CARTESIAN_POINT('',(0.,0.635,-3.46944695195362E-16));
#336=CARTESIAN_POINT('',(0.,-3.67908273626506,-4.20972337206903E-17));
#337=CARTESIAN_POINT('',(0.,0.769,-1.00880280079763E-16));
#338=CARTESIAN_POINT('',(0.,0.769,-1.00880280079763E-16));
#339=CARTESIAN_POINT('',(0.96,0.769,-1.00880280079763E-16));
#340=CARTESIAN_POINT('',(0.,0.769,-1.17351779528295E-16));
#341=CARTESIAN_POINT('',(0.,0.769,-1.17351779528295E-16));
#342=CARTESIAN_POINT('',(1.229,0.769,-1.17351779528295E-16));
#343=CARTESIAN_POINT('',(0.,0.769,-3.46944695195362E-16));
#344=CARTESIAN_POINT('',(0.,0.025,-1.00880280079763E-16));
#345=CARTESIAN_POINT('',(0.,0.025,-1.00880280079763E-16));
#346=CARTESIAN_POINT('',(0.96,0.025,-1.00880280079763E-16));
#347=CARTESIAN_POINT('',(0.,0.025,-1.17351779528295E-16));
#348=CARTESIAN_POINT('',(0.,0.025,-1.17351779528295E-16));
#349=CARTESIAN_POINT('',(1.229,0.025,-1.17351779528295E-16));
#350=CARTESIAN_POINT('',(0.,0.025,-3.46944695195362E-16));
#351=MECHANICAL_DESIGN_GEOMETRIC_PRESENTATION_REPRESENTATION('',(#173,#12,
#13,#14,#15,#16,#17),#352);
#352=(
GEOMETRIC_REPRESENTATION_CONTEXT(3)
GLOBAL_UNCERTAINTY_ASSIGNED_CONTEXT((#353))
GLOBAL_UNIT_ASSIGNED_CONTEXT((#356,#355,#354))
REPRESENTATION_CONTEXT('????-13.75','TOP_LEVEL_ASSEMBLY_PART')
);
#353=UNCERTAINTY_MEASURE_WITH_UNIT(LENGTH_MEASURE(1.E-6),#356,
'DISTANCE_ACCURACY_VALUE','Maximum Tolerance applied to model');
#354=(
NAMED_UNIT(*)
SI_UNIT($,.STERADIAN.)
SOLID_ANGLE_UNIT()
);
#355=(
NAMED_UNIT(*)
PLANE_ANGLE_UNIT()
SI_UNIT($,.RADIAN.)
);
#356=(
LENGTH_UNIT()
NAMED_UNIT(*)
SI_UNIT(.CENTI.,.METRE.)
);
#357=PRODUCT_DEFINITION_SHAPE('','',#358);
#358=PRODUCT_DEFINITION('','',#360,#359);
#359=PRODUCT_DEFINITION_CONTEXT('',#366,'design');
#360=PRODUCT_DEFINITION_FORMATION_WITH_SPECIFIED_SOURCE('','',#362,
 .NOT_KNOWN.);
#361=PRODUCT_RELATED_PRODUCT_CATEGORY('','',(#362));
#362=PRODUCT('????-13.75','????-13.75','????-13.75',(#364));
#363=PRODUCT_CATEGORY('','');
#364=PRODUCT_CONTEXT('',#366,'mechanical');
#365=APPLICATION_PROTOCOL_DEFINITION('international standard',
'ap242_managed_model_based_3d_engineering',2020,#366);
#366=APPLICATION_CONTEXT('managed model based 3d engineering');
ENDSEC;
END-ISO-10303-21;
